<?xml version="1.0" encoding="iso-8859-1"?>
<!-- Generator: Adobe Illustrator 16.0.0, SVG Export Plug-In . SVG Version: 6.00 Build 0)  -->
<!DOCTYPE svg PUBLIC "-//W3C//DTD SVG 1.1//EN" "http://www.w3.org/Graphics/SVG/1.1/DTD/svg11.dtd">
<svg version="1.1" id="Capa_1" xmlns="http://www.w3.org/2000/svg" xmlns:xlink="http://www.w3.org/1999/xlink" x="0px" y="0px"
	 width="489.658px" height="489.657px" viewBox="0 0 489.658 489.657" style="enable-background:new 0 0 489.658 489.657;"
	 xml:space="preserve">
<g>
	<g>
		<path d="M465.584,139.317H125.644l-0.543,0.214H24.073c-11.315,0-20.487,9.172-20.487,20.487v27.347v281.804v0.214l0.01-0.012
			c0.109,11.221,9.23,20.286,20.478,20.286h441.511c11.315,0,20.487-9.172,20.487-20.488V159.805
			C486.072,148.49,476.9,139.317,465.584,139.317z M116.447,241.607H44.835l35.806-78.361h71.61L116.447,241.607z M223.518,163.246
			h71.611l-35.806,78.361h-71.61L223.518,163.246z M310.077,354.414l-77.024,55.942c-3.058,2.221-6.684,3.353-10.326,3.353
			c-2.724,0-5.458-0.632-7.976-1.915c-5.887-3-9.592-9.048-9.592-15.654V284.258c0-6.606,3.705-12.654,9.592-15.654
			c5.885-3,12.957-2.445,18.302,1.438l77.024,55.941c4.552,3.305,7.245,8.59,7.245,14.215
			C317.321,345.825,314.627,351.107,310.077,354.414z M402.201,241.607h-71.611l35.807-78.361h71.609L402.201,241.607z"/>
		<path d="M23.136,122.919h441.381c10.798,0,19.55-10.335,19.55-23.084v-76.75c0-12.75-8.751-23.085-19.55-23.085H23.136
			C12.337,0,3.585,10.335,3.585,23.085v76.749C3.585,112.584,12.336,122.919,23.136,122.919z M366.395,22.279h71.609L402.2,100.64
			h-71.611L366.395,22.279z M223.518,22.279h71.611l-35.806,78.361h-71.61L223.518,22.279z M80.642,22.279h71.61l-35.805,78.361
			H44.835L80.642,22.279z"/>
	</g>
</g>
<g>
</g>
<g>
</g>
<g>
</g>
<g>
</g>
<g>
</g>
<g>
</g>
<g>
</g>
<g>
</g>
<g>
</g>
<g>
</g>
<g>
</g>
<g>
</g>
<g>
</g>
<g>
</g>
<g>
</g>
</svg>
