<?xml version="1.0" encoding="iso-8859-1"?>
<!-- Generator: Adobe Illustrator 18.0.0, SVG Export Plug-In . SVG Version: 6.00 Build 0)  -->
<!DOCTYPE svg PUBLIC "-//W3C//DTD SVG 1.1//EN" "http://www.w3.org/Graphics/SVG/1.1/DTD/svg11.dtd">
<svg version="1.1" id="Capa_1" xmlns="http://www.w3.org/2000/svg" xmlns:xlink="http://www.w3.org/1999/xlink" x="0px" y="0px"
	 viewBox="0 0 487.879 487.879" style="enable-background:new 0 0 487.879 487.879;" xml:space="preserve">
<g id="XMLID_135_">
	<path id="XMLID_139_" d="M99.636,112.62c28.323,0,51.291-22.953,51.291-51.281c0-28.337-22.968-51.292-51.291-51.292
		c-28.344,0-51.292,22.955-51.292,51.292C48.345,89.667,71.292,112.62,99.636,112.62z"/>
	<path id="XMLID_138_" d="M136.74,366.955H35.095c0-52.715,0-104.606,0-157.21c0-9.689-7.867-17.548-17.544-17.548
		C7.866,192.197,0,200.057,0,209.745c0,166.23,0,97.743,0,250.538c0,9.691,7.866,17.548,17.551,17.548
		c9.678,0,17.544-7.857,17.544-17.548v-58.232h84.093v58.232c0,9.691,7.847,17.548,17.552,17.548
		c9.697,0,17.543-7.857,17.543-17.548v-75.78C154.283,374.813,146.437,366.955,136.74,366.955z"/>
	<path id="XMLID_137_" d="M470.329,291.544H251.164c-9.685,0-17.552,7.856-17.552,17.548s7.867,17.548,17.552,17.548h92.043v116.096
		H314.14c-9.698,0-17.544,7.855-17.544,17.547c0,9.691,7.847,17.548,17.544,17.548h93.23c9.679,0,17.545-7.857,17.545-17.548
		c0-9.692-7.866-17.547-17.545-17.547h-29.067V326.64h92.025c9.704,0,17.551-7.857,17.551-17.548S480.032,291.544,470.329,291.544z"
		/>
	<path id="XMLID_136_" d="M193.773,300.153h-40.532v-42.336c-4.164-2.229-7.938-5.311-10.799-9.349l-55.299-77.708l67.487,65.078
		c4.08,3.943,9.548,6.146,15.217,6.146h42.891h24.629c-2.196,2.936-3.755,6.4-3.755,10.359c0,9.692,7.867,17.548,17.552,17.548
		h99.617c7.143,0,13.576-4.337,16.26-10.953l43.875-108.151c3.65-8.981-0.684-19.219-9.664-22.86
		c-9.002-3.66-19.214,0.675-22.863,9.665l-39.43,97.2H273.87c3.578-3.908,5.893-9.02,5.893-14.746c0-4.566-1.715-8.567-4.113-12.079
		c-3.937-5.805-10.265-9.855-17.819-9.855h-79.126l-61.093-58.936l35.2,23.179c-2.189-22.338-20.823-39.863-43.731-39.863H90.226
		c-24.382,0-44.162,19.777-44.162,44.165v149.95c0,20.888,18.352,36.193,33.643,36.193h87.742v98.708
		c0,14.543,11.789,26.324,26.324,26.324c14.526,0,26.323-11.781,26.323-26.324V326.476
		C220.096,311.936,208.299,300.153,193.773,300.153z"/>
</g>
<g>
</g>
<g>
</g>
<g>
</g>
<g>
</g>
<g>
</g>
<g>
</g>
<g>
</g>
<g>
</g>
<g>
</g>
<g>
</g>
<g>
</g>
<g>
</g>
<g>
</g>
<g>
</g>
<g>
</g>
</svg>
