<?xml version="1.0" encoding="iso-8859-1"?>
<!-- Generator: Adobe Illustrator 16.0.0, SVG Export Plug-In . SVG Version: 6.00 Build 0)  -->
<!DOCTYPE svg PUBLIC "-//W3C//DTD SVG 1.1//EN" "http://www.w3.org/Graphics/SVG/1.1/DTD/svg11.dtd">
<svg version="1.1" id="Capa_1" xmlns="http://www.w3.org/2000/svg" xmlns:xlink="http://www.w3.org/1999/xlink" x="0px" y="0px"
	 width="49.817px" height="49.817px" viewBox="0 0 49.817 49.817" style="enable-background:new 0 0 49.817 49.817;"
	 xml:space="preserve">
<g>
	<g>
		<path d="M10.318,26.639c0-2.661,0.771-5.136,2.084-7.236c-0.551-0.942-1.237-1.879-2.067-2.587
			c-2.561-2.181-4.124,7.171-4.124,7.171l-3.137,0.251L2.131,12.447l18.012-1.44l0.196,2.454c0.528-0.146,1.07-0.259,1.622-0.342
			l-0.303-3.794c-0.02-0.24-0.23-0.422-0.473-0.402l-20.779,1.66c-0.244,0.02-0.423,0.232-0.404,0.473l1.437,17.979
			c0.02,0.242,0.231,0.425,0.474,0.405l8.584-0.688C10.39,28.063,10.318,27.36,10.318,26.639z"/>
		<path d="M19.617,37.285c-0.127-0.049-0.257-0.093-0.382-0.146c-0.202-0.231-0.878-1.076-1.539-2.631
			c0.583,0.152,1.228,0.285,1.921,0.396v-1.047c-0.886-0.152-1.684-0.342-2.375-0.555c-0.339-1.028-0.633-2.279-0.81-3.759
			c0.923,0.212,1.988,0.394,3.185,0.528v-1.037c-1.252-0.146-2.356-0.348-3.287-0.576c-0.043-0.593-0.074-1.207-0.074-1.867
			c0-0.449,0.012-0.884,0.032-1.303c1.082-0.277,2.386-0.523,3.922-0.684c-0.03,0.617-0.052,1.256-0.052,1.934
			c0,0.863,0.03,1.667,0.078,2.428h1.032c-0.051-0.76-0.084-1.56-0.084-2.428c0-0.714,0.025-1.381,0.06-2.026
			c0.829-0.06,1.712-0.097,2.664-0.097c0.733,0,1.413,0.025,2.068,0.063c0.042,0.705,0.071,1.436,0.071,2.224
			c0,0.214-0.009,0.412-0.012,0.618h1.027c0.003-0.206,0.01-0.405,0.01-0.618c0-0.76-0.025-1.468-0.063-2.153
			c1.663,0.146,3.055,0.394,4.189,0.682c0.019,0.4,0.03,0.812,0.03,1.244c0,0.291-0.008,0.569-0.019,0.846h0.11v1.646h1.646
			c0.959-0.334,1.668-0.672,2.138-0.934c-0.04,0.314-0.095,0.626-0.16,0.934h1.046c0.15-0.773,0.235-1.57,0.235-2.389
			c0-4.97-2.917-9.271-7.128-11.284c-0.024-0.026-0.043-0.048-0.051-0.055l-0.022,0.021c-1.61-0.757-3.406-1.183-5.3-1.183
			c-0.278,0-0.553,0.013-0.826,0.03v-0.001v0.001c-6.508,0.428-11.672,5.855-11.672,12.47c0,5.452,3.514,10.088,8.392,11.792v-1.087
			H19.617z M20.271,23.568c-1.504,0.146-2.807,0.372-3.904,0.635c0.147-1.604,0.43-2.953,0.765-4.063
			c1.027-0.318,2.275-0.593,3.751-0.753C20.62,20.567,20.396,21.948,20.271,23.568z M23.908,23.391
			c-0.925,0-1.783,0.036-2.596,0.091c0.138-1.636,0.375-3.028,0.65-4.188c0.547-0.035,1.112-0.06,1.717-0.06
			c0.541,0,1.052,0.019,1.547,0.047c0.282,1.145,0.526,2.531,0.673,4.16C25.268,23.41,24.607,23.391,23.908,23.391z M26.938,23.51
			c-0.135-1.607-0.364-2.981-0.632-4.146c1.631,0.164,2.988,0.47,4.098,0.819c0.317,1.087,0.583,2.4,0.72,3.966
			C29.964,23.874,28.576,23.642,26.938,23.51z M32.202,28.129c0.03-0.529,0.052-1.076,0.052-1.654c0-0.328-0.014-0.639-0.023-0.951
			c1.591,0.496,2.533,1.021,2.925,1.271C34.927,26.956,33.99,27.557,32.202,28.129z M35.155,25.6
			c-0.623-0.336-1.599-0.776-2.981-1.177c-0.106-1.461-0.317-2.73-0.587-3.815c1.76,0.712,2.621,1.444,2.719,1.531
			C34.761,23.219,35.053,24.384,35.155,25.6z M33.292,20.254c-0.546-0.289-1.229-0.598-2.059-0.886
			c-0.278-0.856-0.582-1.566-0.875-2.144C31.513,18.047,32.51,19.074,33.292,20.254z M28.467,16.134
			c0.286,0.353,0.94,1.27,1.543,2.857c-1.116-0.303-2.436-0.549-3.97-0.678c-0.406-1.457-0.854-2.495-1.189-3.153
			C26.129,15.286,27.345,15.623,28.467,16.134z M23.486,15.111c0.054,0,0.108-0.003,0.163-0.004c0.25,0.421,0.788,1.444,1.293,3.134
			c-0.409-0.018-0.826-0.03-1.262-0.03c-0.499,0-0.979,0.013-1.441,0.035C22.699,16.658,23.198,15.626,23.486,15.111z
			 M19.105,16.079c0.993-0.438,2.058-0.739,3.173-0.88c-0.337,0.689-0.757,1.722-1.137,3.128c-1.377,0.126-2.576,0.346-3.601,0.617
			C18.199,17.252,18.896,16.331,19.105,16.079z M17.215,17.138c-0.301,0.58-0.618,1.305-0.911,2.186
			c-0.869,0.3-1.579,0.621-2.141,0.924C14.974,19.027,16.012,17.971,17.215,17.138z M13.15,22.128l0.019,0.019
			c0.016-0.016,0.879-0.821,2.767-1.581c-0.284,1.106-0.505,2.413-0.619,3.911c-1.405,0.406-2.4,0.848-3.024,1.173
			C12.392,24.411,12.686,23.227,13.15,22.128z M12.259,26.85c0.369-0.227,1.351-0.758,2.997-1.27
			c-0.012,0.332-0.024,0.662-0.024,1.012c0,0.551,0.019,1.073,0.048,1.58c-1.557-0.467-2.546-0.959-3.019-1.229
			C12.26,26.912,12.259,26.881,12.259,26.85z M12.363,28.162c0.663,0.327,1.65,0.737,3.001,1.114c0.141,1.379,0.383,2.57,0.672,3.6
			c-1.588-0.632-2.469-1.289-2.733-1.507C12.842,30.368,12.52,29.292,12.363,28.162z M14.428,33.29
			c0.545,0.278,1.214,0.567,2.013,0.839c0.283,0.778,0.583,1.429,0.869,1.959C16.193,35.331,15.218,34.381,14.428,33.29z"/>
		<g>
			<path d="M21.964,30.803l-0.146,17.438h25.637l0.146-17.438H21.964z M31.103,46.62c-3.83,0-6.934-3.104-6.934-6.936
				s3.104-6.936,6.934-6.936c3.831,0,6.935,3.104,6.935,6.936S34.934,46.62,31.103,46.62z M44.671,34.426h-2.227
				c-0.664,0-1.202-0.539-1.202-1.199c0-0.664,0.538-1.201,1.202-1.201h2.227c0.659,0,1.198,0.537,1.198,1.201
				C45.869,33.887,45.33,34.426,44.671,34.426z"/>
			<rect x="24.39" y="29" width="5.257" height="1.908"/>
			<path d="M35.801,39.682c0,2.641-2.137,4.771-4.771,4.771c-2.636,0-4.77-2.132-4.77-4.771c0-2.633,2.134-4.77,4.77-4.77
				C33.663,34.913,35.801,37.049,35.801,39.682z"/>
		</g>
		<path d="M5.25,15.95c0.082,0,0.161-0.007,0.238-0.017h2.534v-0.016c0.601-0.073,1.058-0.438,1.058-0.88
			c0-0.495-0.572-0.896-1.277-0.896c0,0-0.001,0-0.002,0c-0.013-0.486-0.577-0.879-1.274-0.879c-0.705,0-1.276,0.401-1.276,0.896
			c-0.705,0-1.277,0.401-1.277,0.896S4.546,15.95,5.25,15.95z M6.527,15.054c0.001,0,0.001,0,0.002,0c0,0.002,0,0.003,0,0.005H6.525
			C6.526,15.057,6.527,15.056,6.527,15.054z"/>
		<path d="M12.939,15.95c0.082,0,0.161-0.007,0.238-0.017h2.534v-0.016c0.601-0.073,1.058-0.438,1.058-0.88
			c0-0.495-0.572-0.896-1.277-0.896h-0.001c-0.014-0.486-0.578-0.879-1.275-0.879c-0.705,0-1.276,0.401-1.276,0.896
			c-0.705,0-1.277,0.401-1.277,0.896S12.235,15.95,12.939,15.95z M14.217,15.054c0.001,0,0.001,0,0.002,0c0,0.002,0,0.003,0,0.005
			h-0.004C14.216,15.057,14.217,15.056,14.217,15.054z"/>
		<path d="M12.476,41.118c-0.6-0.479-1.071-0.979-1.41-1.473l2.528,0.021c0,0-4.546-7.65-4.583-9.332
			c-0.036-1.679-5.398,9.245-5.398,9.245l3.072,0.026c0.433,1.647,1.544,3.242,3.3,4.641c2.48,1.975,6.286,3.52,10.735,3.993v-4.026
			C17.33,43.799,14.408,42.656,12.476,41.118z"/>
		<path d="M42.378,28.561c-0.497-2.452-2.337-3.92-4.736-3.918l0.058,4c0.355-0.014,0.612-0.01,0.758,0.713
			c0.007,0.031,0.007,0.07,0.013,0.104h4.026C42.474,29.152,42.437,28.85,42.378,28.561z"/>
		<path d="M48.85,14.363c-1.528-1.562-4.219-2.888-6.564-2.307c-0.688,0.073-1.507,0.039-2.051-0.088
			c-1.344-0.313,1.626-1.265,1.886-1.331c0.585-0.15,1.171-0.107,1.721,0.026c0.424,0.099,0.459-0.308,0.018-0.311
			c-0.538-0.001-0.998,0.016-1.553,0.157c-0.447,0.109-0.944,0.28-1.417,0.444c-0.564,0.19-0.415,0.055-0.862,0.276
			c0.206-0.451,0.083-0.332,0.265-0.917c0.145-0.464,0.293-0.948,0.388-1.384c0.124-0.559,0.126-1.018,0.109-1.557
			c-0.017-0.442-0.423-0.392-0.309,0.026c0.148,0.544,0.207,1.128,0.075,1.718c-0.058,0.262-0.921,3.26-1.274,1.926
			c-0.142-0.54-0.2-1.359-0.151-2.05c0.514-2.358-0.893-5.009-2.5-6.487c-0.622-0.576-1.387-0.927-1.387-0.927
			s-2.256,5.718-1.95,5.861c-0.196,0.759,1.326,3.021,1.326,3.021c-0.636,0.065-1.529-0.069-2.389,0.296
			c-0.516,0.223-1.021,0.627-1.45,1.372c-0.182,0.318-0.323,0.589-0.396,0.861c-0.054,0.204-0.206,1.237,0.312,1.62
			c0.519,0.385,1.707,1.432,2.739,1.148c1.029-0.284,2.348-0.753,2.348-0.753s-0.428,0.598-0.903,0.932
			c-0.345,0.243-1.222,1.178-0.867,1.49c0.353,0.317,1.232-0.56,1.465-0.912c0.318-0.488,0.904-0.932,0.904-0.932
			s-0.43,1.335-0.684,2.37c-0.252,1.038,0.608,2.245,1.229,2.704c0.619,0.458,1.431,0.32,1.63,0.26
			c0.271-0.079,0.539-0.229,0.849-0.42c0.73-0.45,1.121-0.97,1.327-1.489c0.346-0.872,0.179-1.761,0.222-2.397
			c0,0,2.312,1.453,3.062,1.235c0.153,0.3,5.803-2.129,5.803-2.129S49.439,14.967,48.85,14.363z"/>
	</g>
</g>
<g>
</g>
<g>
</g>
<g>
</g>
<g>
</g>
<g>
</g>
<g>
</g>
<g>
</g>
<g>
</g>
<g>
</g>
<g>
</g>
<g>
</g>
<g>
</g>
<g>
</g>
<g>
</g>
<g>
</g>
</svg>
