<?xml version="1.0" encoding="iso-8859-1"?>
<!-- Generator: Adobe Illustrator 16.0.0, SVG Export Plug-In . SVG Version: 6.00 Build 0)  -->
<!DOCTYPE svg PUBLIC "-//W3C//DTD SVG 1.1//EN" "http://www.w3.org/Graphics/SVG/1.1/DTD/svg11.dtd">
<svg version="1.1" id="Capa_1" xmlns="http://www.w3.org/2000/svg" xmlns:xlink="http://www.w3.org/1999/xlink" x="0px" y="0px"
	 width="571.197px" height="571.197px" viewBox="0 0 571.197 571.197" style="enable-background:new 0 0 571.197 571.197;"
	 xml:space="preserve">
<g>
	<g>
		<path d="M118.317,571.197H452.88c16.897,0,30.6-13.701,30.6-30.6V30.6c0-16.897-13.702-30.6-30.6-30.6H118.317
			c-16.897,0-30.6,13.703-30.6,30.6v509.998C87.718,557.502,101.414,571.197,118.317,571.197z M285.596,559.002
			c-10.985,0-19.89-8.906-19.89-19.891c0-10.986,8.905-19.891,19.89-19.891s19.89,8.904,19.89,19.891
			C305.485,550.096,296.581,559.002,285.596,559.002z M107.094,64.26h356.998v442.677H107.094V64.26z"/>
	</g>
</g>
<g>
</g>
<g>
</g>
<g>
</g>
<g>
</g>
<g>
</g>
<g>
</g>
<g>
</g>
<g>
</g>
<g>
</g>
<g>
</g>
<g>
</g>
<g>
</g>
<g>
</g>
<g>
</g>
<g>
</g>
</svg>
