<?xml version="1.0"?><svg width="300" height="300" xmlns="http://www.w3.org/2000/svg">
 <title>fun swimming</title>
 <g>
  <title>Layer 1</title>
  <g externalResourcesRequired="false" id="Layer_1">
   <g externalResourcesRequired="false" id="svg_1">
    <g externalResourcesRequired="false" id="surface0">
     <path transform="rotate(97.483 199.283 166.226)" fill="black" id="svg_3" d="m175.754868,123.497414c1.441193,-3.214569 1.585632,-8.6549 4.586624,-9.508797c-0.977203,9.216614 -1.763153,18.495728 -1.851105,27.8414c0.240463,14.926666 4.81514,30.012421 12.853851,39.25882c8.740738,9.429153 20.450989,5.679138 29.780777,12.895981c2.491028,2.107407 4.81015,4.975189 6.1521,8.790604c1.077255,4.264465 -0.339722,9.036575 -2.870285,11.392166c-3.705444,4.931183 -8.957794,4.513779 -13.589615,4.001587c-13.514557,-1.421478 -26.434418,-12.13562 -34.303024,-28.421722c-5.812363,-12.254059 -6.31105,-28.065216 -4.976364,-42.419922c0.983658,-8.081009 1.170853,-16.684357 4.217041,-23.830116z"/>
     <path transform="rotate(97.483 226.283 170.726)" fill="black" id="svg_5" d="m239.570999,171.895996c7.244003,-0.690994 14.906998,2.268997 19.458023,8.031006c3.17099,3.602997 4.616974,8.369995 5.116974,13.063004c-0.198975,7.187988 -3.855988,14.228989 -9.88501,18.228989c-5.751007,3.684006 -13.219986,4.832001 -19.678986,2.407013c-9.925003,-3.101013 -16.682007,-14.327011 -14.326004,-24.524002c1.968002,-9.126999 10.048996,-16.241013 19.315002,-17.206009z"/>
     <path transform="rotate(-3.67022 72.4475 233.219)" fill="black" id="svg_9" d="m54.990555,237.888123c8.7379,-1.675156 15.973175,-17.396927 24.844505,-17.451004c9.603035,-0.213959 17.300766,17.697861 26.781853,19.042694c5.627434,-0.262146 10.286919,-8.833069 15.084602,-14.947098c2.01339,-2.409851 4.173592,-5.057205 6.470085,-4.668091c1.337646,0.17868 1.835022,5.596786 0.4505,6.561905c-2.066467,0.934555 -4.114288,2.341705 -5.937805,4.972565c-5.285492,7.021561 -10.715897,16.40007 -17.022903,15.08934c-9.036797,-1.059204 -16.292641,-18.08815 -25.35096,-18.829926c-6.644646,0.086975 -12.433723,9.025848 -18.522667,14.315811c-3.224762,2.807205 -6.68961,3.606552 -10.088455,2.997635c-6.023411,-1.458832 -11.002834,-11.869492 -17.062595,-12.995667c-4.986599,-0.724136 -9.823982,3.255081 -14.485853,7.152023c-1.341459,1.12854 -2.774742,2.823685 -4.21472,1.713959c-0.636057,-1.189667 -0.4615,-3.302124 -0.481108,-4.989029c2.088947,-2.782516 4.396927,-4.307205 6.646084,-6.084625c4.17024,-3.19632 8.519823,-5.782532 12.920099,-4.984329c2.932556,0.888718 5.831646,2.783691 8.491127,5.988235c3.560963,4.22374 7.433743,8.23941 11.47821,7.115601z"/>
     <path transform="rotate(163.327 65.7446 216.066)" fill="black" id="svg_7" d="m12.350006,205.455002c3.730011,-0.552002 7.589005,-0.707001 11.359009,-0.421997c33.370987,5.909012 66.834991,11.349014 100.247986,17.018997c-1.751984,2.065002 -4.747986,1.364014 -7.108978,1.837982c-13.322998,0.78302 -26.602005,2.420013 -39.944016,2.796021c-15.600998,-1.214996 -31.240997,1.940979 -46.802002,-0.234009c-6.964996,-0.993011 -14.406998,-1.371002 -20.597992,-5.03299c-3.462006,-4.845001 -2.274017,-12.755005 2.845993,-15.964005z"/>
     <path stroke-width="13" id="svg_15" transform="rotate(-8.67022 70.1088 225.226)" fill="#ffffff" d="m52.651855,229.895142c8.737915,-1.675156 15.973206,-17.396927 24.844513,-17.451004c9.603058,-0.213959 17.300781,17.697861 26.78186,19.042694c5.627441,-0.262146 10.286926,-8.833069 15.084625,-14.947098c2.013367,-2.409851 4.173584,-5.057205 6.470062,-4.668091c1.337646,0.17868 1.835022,5.596786 0.4505,6.561905c-2.066467,0.934555 -4.114288,2.341705 -5.937805,4.972565c-5.285492,7.021561 -10.715912,16.40007 -17.022919,15.08934c-9.036774,-1.059204 -16.292633,-18.08815 -25.350952,-18.829926c-6.644653,0.086975 -12.433716,9.025848 -18.522644,14.315811c-3.224792,2.807205 -6.689636,3.606552 -10.08847,2.997635c-6.023407,-1.458832 -11.002838,-11.869492 -17.062592,-12.995667c-4.986603,-0.724136 -9.823975,3.255081 -14.48587,7.152023c-1.341461,1.12854 -2.774719,2.823685 -4.214722,1.713959c-0.636047,-1.189667 -0.461487,-3.302124 -0.48111,-4.989029c2.088959,-2.782516 4.396942,-4.307205 6.646088,-6.084625c4.170258,-3.19632 8.519836,-5.782532 12.920105,-4.984329c2.932556,0.888718 5.831635,2.783691 8.491119,5.988235c3.560974,4.22374 7.433777,8.23941 11.47821,7.115601z"/>
     <path id="svg_14" transform="rotate(-3.67022 177.77 215.233)" fill="black" d="m160.313171,219.902161c8.737915,-1.675171 15.973206,-17.396927 24.844513,-17.451019c9.603058,-0.213959 17.300781,17.697876 26.78186,19.042694c5.627441,-0.262146 10.286926,-8.833069 15.084625,-14.947083c2.013367,-2.409866 4.173553,-5.05722 6.470062,-4.668091c1.337646,0.17868 1.835022,5.596771 0.4505,6.56189c-2.066467,0.934555 -4.114288,2.341705 -5.937805,4.972565c-5.285492,7.021576 -10.715881,16.400085 -17.022888,15.089355c-9.036804,-1.059219 -16.292664,-18.088165 -25.350983,-18.829926c-6.644653,0.086975 -12.433716,9.025848 -18.522644,14.315796c-3.224792,2.80722 -6.689606,3.606567 -10.08847,2.997635c-6.023407,-1.458817 -11.002838,-11.869476 -17.062592,-12.995651c-4.986603,-0.724152 -9.823975,3.255081 -14.48587,7.152008c-1.341461,1.128555 -2.774719,2.8237 -4.214722,1.713959c-0.636047,-1.189667 -0.461487,-3.302109 -0.48111,-4.989014c2.088959,-2.782532 4.396942,-4.30722 6.646118,-6.084641c4.170227,-3.196304 8.519806,-5.782516 12.920074,-4.984329c2.932556,0.888733 5.831665,2.783691 8.491119,5.988251c3.560974,4.223724 7.433746,8.23941 11.47821,7.115601z"/>
     <path id="svg_16" transform="rotate(-3.38412 175.431 208.24)" fill="#ffffff" d="m157.974487,212.90918c8.737915,-1.675171 15.973206,-17.396927 24.844513,-17.451019c9.603058,-0.213959 17.300781,17.697876 26.78186,19.042694c5.627441,-0.262146 10.286926,-8.833069 15.084625,-14.947083c2.013367,-2.409866 4.173523,-5.05722 6.470032,-4.668091c1.337646,0.17868 1.835083,5.596771 0.4505,6.56189c-2.066467,0.934555 -4.114258,2.341705 -5.937805,4.972565c-5.285461,7.021576 -10.715851,16.400085 -17.022858,15.089355c-9.036804,-1.059219 -16.292664,-18.088165 -25.350983,-18.829926c-6.644653,0.086975 -12.433716,9.025848 -18.522644,14.315796c-3.224792,2.80722 -6.689606,3.606567 -10.08847,2.997635c-6.023407,-1.458817 -11.002838,-11.869476 -17.062592,-12.995651c-4.986603,-0.724152 -9.823975,3.255081 -14.48587,7.152008c-1.341461,1.128555 -2.774719,2.8237 -4.214722,1.713959c-0.636047,-1.189667 -0.461487,-3.302109 -0.48111,-4.989014c2.088959,-2.782532 4.396942,-4.30722 6.646118,-6.084641c4.170227,-3.196304 8.519806,-5.782516 12.920074,-4.984329c2.932556,0.888733 5.831665,2.783691 8.491119,5.988251c3.560974,4.223724 7.433746,8.23941 11.47821,7.115601z"/>
    </g>
   </g>
  </g>
 </g>

</svg>