<?xml version="1.0" encoding="iso-8859-1"?>
<!-- Generator: Adobe Illustrator 16.0.0, SVG Export Plug-In . SVG Version: 6.00 Build 0)  -->
<!DOCTYPE svg PUBLIC "-//W3C//DTD SVG 1.1//EN" "http://www.w3.org/Graphics/SVG/1.1/DTD/svg11.dtd">
<svg version="1.1" id="Capa_1" xmlns="http://www.w3.org/2000/svg" xmlns:xlink="http://www.w3.org/1999/xlink" x="0px" y="0px"
	 width="49.656px" height="49.656px" viewBox="0 0 49.656 49.656" style="enable-background:new 0 0 49.656 49.656;"
	 xml:space="preserve">
<g>
	<g>
		<path d="M39.102,22.817c-5.82,0-10.555,4.735-10.555,10.556c0,5.821,4.734,10.558,10.555,10.558s10.555-4.735,10.555-10.558
			C49.657,27.553,44.922,22.817,39.102,22.817z M39.102,38.876c-3.034,0-5.504-2.469-5.504-5.504c0-3.033,2.47-5.504,5.504-5.504
			c3.033,0,5.502,2.471,5.502,5.504C44.604,36.408,42.135,38.876,39.102,38.876z"/>
		<path d="M10.555,22.817C4.735,22.817,0,27.552,0,33.373C0,39.194,4.735,43.93,10.555,43.93S21.11,39.195,21.11,33.373
			C21.11,27.553,16.375,22.817,10.555,22.817z M10.555,38.876c-3.034,0-5.503-2.469-5.503-5.504c0-3.033,2.469-5.504,5.503-5.504
			s5.503,2.471,5.503,5.504C16.058,36.408,13.589,38.876,10.555,38.876z"/>
		<path d="M21.333,18.925l2.229-2.46l3.616,4.439c0.48,0.588,1.199,0.93,1.959,0.93h7.369c1.396,0,2.525-1.13,2.525-2.525
			s-1.13-2.525-2.525-2.525h-6.168l-4.716-5.788c-0.466-0.571-1.157-0.912-1.893-0.93c-0.732-0.062-1.445,0.282-1.938,0.829
			l-5.895,6.508c-0.935,1.033-0.858,2.629,0.173,3.566l6.12,5.563v9.618c0,1.396,1.131,2.526,2.527,2.526
			c1.395,0,2.526-1.131,2.526-2.526V25.416c0-0.713-0.3-1.393-0.827-1.873L21.333,18.925z"/>
		<circle cx="32.633" cy="8.972" r="3.246"/>
	</g>
</g>
<g>
</g>
<g>
</g>
<g>
</g>
<g>
</g>
<g>
</g>
<g>
</g>
<g>
</g>
<g>
</g>
<g>
</g>
<g>
</g>
<g>
</g>
<g>
</g>
<g>
</g>
<g>
</g>
<g>
</g>
</svg>
