<?xml version="1.0" encoding="iso-8859-1"?>
<!-- Generator: Adobe Illustrator 18.1.1, SVG Export Plug-In . SVG Version: 6.00 Build 0)  -->
<svg version="1.1" id="Capa_1" xmlns="http://www.w3.org/2000/svg" xmlns:xlink="http://www.w3.org/1999/xlink" x="0px" y="0px"
	 viewBox="0 0 47.373 47.373" style="enable-background:new 0 0 47.373 47.373;" xml:space="preserve">
<path id="yelp" d="M10.293,16.373c1.3,1.4,5.8,6.7,7.5,8s3.4,1.1,5,0.4s2.1-2.2,1.9-3.8s-3.4-11.3-4.4-14.7c-1-3.4-2-5.7-4.5-6.2
	c-2.4-0.5-5.3,1.7-6.9,2.8c-1.5,1.2-2.9,2.3-3.1,4.2c-0.3,1.9,0.5,4.6,1.3,6C7.193,13.073,8.993,15.073,10.293,16.373z M7.393,6.573
	c0.2-1,0.8-1.8,2.5-3.1c1.7-1.2,4.1-2.9,5.9-2.2s2.6,2.7,4,7.3c1.4,4.5,3.6,11.4,3.6,12s-2.5,1.9-3,1.7s-7.5-7.4-9.6-9.7
	S7.093,8.773,7.393,6.573z M12.493,5.073c0.6-0.2,0.7-0.8,0.2-1c-0.5-0.2-0.9,0.1-1.8,0.7s-2.2,1.9-2.2,2.1
	c-0.1,0.5,0.3,0.9,0.6,0.9c0.4,0,0.4-0.5,1.1-1.2C10.993,5.773,11.993,5.273,12.493,5.073z M39.393,19.473c0.1-0.5-0.1-3.9-1.8-5.6
	s-4.3-3-5.6-3.2c-1.3-0.2-2,0.5-2.7,2s-3,7.9-3.2,8.8c-0.5,2.5,0.9,4.4,1.5,4.5c0.7,0.1,2.1-0.1,4.5-1.3
	C34.493,23.573,39.293,19.973,39.393,19.473z M31.893,21.773c-0.2-0.2-1.1-1.8-1.3-1.7s-0.5,0.4-0.4,0.6s1,1.5,1,1.6
	s-0.3,0.5-0.5,0.3s-1-1.3-1.2-1.3s-0.7,0.2-0.6,0.5s1,1.2,0.9,1.4s-1.3,1.1-2.1,0.6s-1-1.3-0.9-1.9c0.1-0.7,1.7-5.3,2.4-7.1
	s1.1-2.9,1.7-2.9c0.6-0.1,2.9-0.2,4.7,1.8c1.9,2,1.8,2,1.8,2.5c0,0.6,0.1,0.9-0.1,0.7c-0.2-0.2-1.6-2.5-2.1-2.4s-0.5,0.7-0.4,0.8
	c0.1,0.1,2,2.6,2,2.7s-0.7,0.8-0.8,0.6c-0.2-0.2-1.9-3.3-2.2-3.2c-0.3,0.1-0.5,0.6-0.3,0.8c0.1,0.2,2.1,2.8,1.9,3
	c-0.2,0.2-0.7,0.7-0.9,0.6c-0.2-0.2-1.6-2.3-1.8-2.3s-0.6,0.6-0.5,0.7c0.1,0.2,1.7,2,1.6,2.1s-0.4,0.4-0.5,0.3s-1.3-2-1.5-2
	s-0.6,0.6-0.6,0.7s1.3,1.7,1.2,1.9S32.093,21.973,31.893,21.773z M41.893,30.273c-0.2-1.5-1.1-1.5-3.5-2.3s-7.6-1.8-8.2-1.7
	c-0.8,0.1-1.4,2.3-1.7,2.9s-0.7,1.6-0.7,2.7c0,1.2,0.3,1.6,1.8,3.3c1.5,1.6,4.4,4.9,5.3,5.8s1.8,0.7,2.6,0.2s2.4-2.7,3.4-4.8
	C41.993,34.273,42.093,31.773,41.893,30.273z M40.193,34.273c-0.1-0.1-3.5-4.2-3.9-4.1c-0.4,0.2-0.7,0.5-0.5,0.7s3.9,4.1,3.9,4.1
	s-0.4,1.1-0.5,1s-3.4-3.7-3.7-3.6s-0.6,0.3-0.4,0.4s3.7,3.9,3.7,3.9s-0.3,0.6-0.4,0.6c-0.1-0.1-2.7-3.1-3-3s-0.5,0.7-0.4,0.9
	c0.2,0.1,2.7,2.6,2.7,2.6s-0.3,0.4-0.9,0.3s-3.8-3.2-5.5-4.8c-1.7-1.6-2.2-1.9-2.1-2.6s0.9-3.1,1.3-3.3c0.1-0.1,4.9,1,5.6,1.2
	c0.7,0.2,1.2,0.5,1.2,0.5s-0.1,0.7,0.5,1.5s2.9,2.1,2.8,2.7C40.593,33.673,40.293,34.373,40.193,34.273z M40.893,32.373
	c-0.1-0.1-2.6-3-2.7-3.3c0-0.1,1,0.1,1.1,0.2s1.7,1.8,1.7,1.9S40.993,32.473,40.893,32.373z M22.093,31.073
	c-0.3,0.2-1.5,2.3-2.5,4.5c-1,2.1-3.9,7.1-3.8,7.8s1,1.7,1.6,2.3c0.6,0.6,1.2,1,2.3,1.1s5.5,0.6,6.1,0.6c0.6-0.1,1.3-0.3,1.4-0.8
	s0.2-13.4-0.3-14.5C26.393,30.973,22.393,30.973,22.093,31.073z M25.093,37.873c-0.2-0.3-1.9-2.7-1.9-2.6s-0.6,0.4-0.5,0.7
	c0.2,0.3,2.4,3.2,2.4,3.4c0,0.2,0.1,1,0,0.9s-1.8-2.7-2.1-2.5s-0.5,0.7-0.3,1c0.2,0.4,2.3,2.6,2.4,2.9s-0.1,1.1-0.1,1.1
	s-2.4-3.2-2.6-3.1c-0.2,0.1-0.3,0.8-0.2,0.9s2.6,3.2,2.6,3.2s-0.3,0.7-0.4,0.6c-0.1-0.1-2.7-2.9-3-2.7c-0.3,0.2-0.2,0.9,0.1,1.1
	s2.2,1.9,2.2,2.1s-0.7,0.2-0.8,0.2s-2-2-2.2-1.9s-0.4,0.3-0.3,0.5s1.1,1.2,1.1,1.2s-2.7-0.7-3.4-0.9s-1.2-0.6-1.2-1.2
	s3.8-7.7,4.3-8.8c0.5-1.1,1.1-1.9,1.2-2.1c0.2-0.1,1.1-0.1,1.1,0.1c0,0.2-0.2,0.5,0.1,0.6s1.1,0.4,1.1,0.5s0.2,2.1,0.1,1.9
	c-0.2-0.2-1.5-2.2-1.7-2.1s-0.6,0.7-0.4,1c0.2,0.3,2.1,2.2,2.1,2.4S25.293,38.173,25.093,37.873z M7.393,25.573
	c-0.3,0.2,0,3.5,0.3,3.7c0.2,0.2,0.8,0.1,0.9-0.1c0.1-0.2-0.2-2.3-0.1-2.7c0.1-0.4,0.7-0.1,1-0.3c0.3-0.2,0.2-0.5,0-0.6
	S7.693,25.373,7.393,25.573z M21.493,28.373c-0.1-0.8,0-1.1-0.5-1.5c-0.5-0.5-4.9-1.6-6.3-2s-5-1.4-5.5-1.6s-1.7-0.5-2.6-0.1
	c-1.3,0.6-1.3,2.7-1.1,4s0.5,4.7,0.8,5.3c0.3,0.6,1.8,2.6,2.4,2.8c0.6,0.2,0.9,0.1,3.2-0.6s8.7-3.4,9.3-3.9
	S21.593,29.173,21.493,28.373z M19.193,28.673c-0.2,0.3-4,1.8-7.2,2.7c-3.2,0.9-3.7,0.9-4.2,0.6c-0.5-0.3-1-2.7-1.2-4.6
	s-0.3-3.2,0.8-3.3c0.3,0,6.3,1.7,8.6,2.2s2.9,0.5,3.1,0.7C19.193,27.173,19.293,28.373,19.193,28.673z"/>
<g>
</g>
<g>
</g>
<g>
</g>
<g>
</g>
<g>
</g>
<g>
</g>
<g>
</g>
<g>
</g>
<g>
</g>
<g>
</g>
<g>
</g>
<g>
</g>
<g>
</g>
<g>
</g>
<g>
</g>
</svg>
