<?xml version="1.0" encoding="iso-8859-1"?>
<!-- Generator: Adobe Illustrator 18.1.1, SVG Export Plug-In . SVG Version: 6.00 Build 0)  -->
<svg version="1.1" id="Capa_1" xmlns="http://www.w3.org/2000/svg" xmlns:xlink="http://www.w3.org/1999/xlink" x="0px" y="0px"
	 viewBox="0 0 46.364 46.364" style="enable-background:new 0 0 46.364 46.364;" xml:space="preserve">
<path id="behance" d="M5.355,7.587c-0.5,0-2.7,0-2.9,0.2s-0.1,4.9,0,4.9c0.2,0,0.7-0.1,0.8-0.1s0.1-3.7,0.1-3.9s2.3-0.1,2.6-0.3
	C6.255,8.187,5.855,7.587,5.355,7.587z M6.255,18.687c0.1,0.7,0.4,1,0.8,1.4c0.5,0.4,0.8,0.5,1.5,0.5s4.3-0.2,6-0.6
	c1.7-0.3,2.4-1.9,2.6-3.8s-0.4-3.4-1.9-4.1c-1.5-0.8-4.1-1-5.3-0.9c-1.2,0.1-3,0.4-3.3,0.5C5.555,11.987,6.155,17.987,6.255,18.687z
	 M8.955,14.187c0.3-0.2,0.8-0.7,1.5-0.8c0.7-0.1,4.5-0.3,4.8,0.1c0.4,0.4,1.4,1.8,0.9,3.4s-1.2,2.2-2.5,2.3
	c-1.3,0.2-3.8,0.4-4.5,0.4c-0.6,0-0.7,0.2-0.7-0.1s-0.1-4.1-0.2-4.4C8.255,14.887,8.655,14.487,8.955,14.187z M6.555,21.387
	c0-0.3-0.4-0.2-0.7-0.3s-0.3-1.9-0.4-2.2s-1-0.4-1.1-0.1c-0.1,0.4,0.1,2.8,0.2,3.2c0.1,0.4,0.8,0.2,1.6,0.1
	C6.955,22.187,6.555,21.687,6.555,21.387z M18.055,10.187c1,1.2,0.8,2.5,1,2.7c0.2,0.3,0.7,0.1,1,0c0.3-0.2,0.3-1.7-1.1-3.2
	c-1.5-1.7-3-1.8-3.3-1.7c-0.3,0.1-0.4,0.7-0.2,0.9C15.755,8.987,17.055,8.887,18.055,10.187z M22.555,21.787c0,0,0,0,0.4-1.4
	s1.3-5.8,0.5-8.9s-4.9-5.2-6.8-6.1s-9.1-0.2-11.3,0c-2.2,0.2-5,0.1-5.3,0.6c-0.2,0.3,0.2,11.8,0.3,17.3c0.1,5.5,0,14.8,0,15
	c0.1,0.2,1.6,2.3,1.8,2.5c0.2,0.2,0.6,0,2,0c1.3,0,5.4,0.4,8.8,0.6s6.3-0.4,8.2-1.6c1.9-1.2,3.8-5.3,3.9-10.4
	C25.355,23.987,22.555,21.787,22.555,21.787z M22.855,27.987c-0.1-0.1-0.5-0.9-0.8-0.9s-0.6,0.5-0.5,0.7s1.4,2.3,1.3,2.5
	s-0.1,0.7-0.2,0.6s-1.1-2-1.2-2s-0.6,0.4-0.5,0.8c0.2,0.4,1.4,2.6,1.4,2.9s-0.3,1.5-0.4,1.3s-1.3-2.4-1.4-2.4s-0.6,0.5-0.5,0.8
	c0.1,0.2,1.4,2.4,1.4,2.6s-0.7,1-0.9,1s-1.2-2.7-1.4-2.7s-0.8,0.2-0.7,0.5s1.4,2.8,1.3,2.9s-0.3,0.5-0.4,0.4s-1.2-2.9-1.5-3
	c-0.2-0.1-0.8,0.3-0.7,0.4s1.6,2.8,1.5,2.9s-0.5,0.6-0.7,0.4s-1.5-3.2-1.7-3.2s-0.7,0.4-0.6,0.6s1.7,2.9,1.3,3s-0.8,0.1-0.9,0
	s-1.4-2.8-1.5-2.9s-0.7,0.1-0.6,0.3s1.5,2.6,1.2,2.6c-0.2,0.1-1.1,0-1.2-0.1s-0.9-2.9-1.1-2.9s-0.8,0.3-0.7,0.5s1.1,2.2,1,2.2
	s-1.1,0-1.1,0s-1-2.2-1.2-2.3c-0.2-0.1-0.7,0.3-0.6,0.5s1.1,1.7,0.9,1.7s-0.9,0.1-1.1-0.1s-1-2.1-1.2-2.1s-0.7,0-0.7,0.3
	s1,1.9,0.8,2s-0.7,0.1-0.8,0s-1-2.1-1.2-2.1s-0.8,0.2-0.8,0.4c0,0.2,0.9,1.6,0.8,1.6s-1,0.1-1.1,0s-0.9-2-1-2s-0.8,0.4-0.8,0.4
	c0.1,0.1,0.8,1.3,0.7,1.4s-1.1,0.1-1.3,0s-0.5-1.6-0.7-1.6s-0.6,0.3-0.6,0.5s0.4,1.3,0.3,1.3s-1,0.1-1.1,0s-0.1-8.7-0.1-13
	s-0.4-17.6-0.3-17.8c0.1-0.2,3.9-0.4,6.8-0.6s7.2-0.5,8.8,0.4c1.6,0.8,5.2,2.9,5,6.6s-1.1,5.8-1.8,6.5c-0.7,0.7-1.7,0.8-1.7,1.3
	s1.1,0.5,1.4,0.8s2.4,2.5,2.4,2.8c0.1,0.3,0.1,0.4-0.1,0.4s-0.6,0.6-0.4,0.7s1.2,1.4,1.2,1.6S22.855,27.987,22.855,27.987z
	 M16.455,24.187c-0.4-0.3-5-0.6-6.8-0.6s-3.3,0.1-3.5,0.5c-0.1,0.3-0.1,9.1,0,9.3s0.3,0.3,0.8,0.3c0.6,0.1,4.1,0.1,5.3,0.1
	c1.2,0,2.4,0.2,4.3-0.8c1.9-0.9,2.4-2.1,2.3-4.5S16.855,24.487,16.455,24.187z M17.855,29.887c-0.2,1.3-1.4,2.5-2.8,2.7
	s-4.5,0-5.3,0s-0.9,0.1-1,0s-0.1-5.4,0-5.8c0.1-0.3,1.5-0.7,3.9-0.9s3.5-0.3,3.9,0.1S17.955,28.587,17.855,29.887z M30.255,15.787
	c0.3,0.1,2,0,4.4-0.2s7-0.2,7.2-0.2s0.2-3.3,0.2-4s-1.9-1-3.4-1.1c-1.4-0.1-8.7-0.2-9.3,0.1c-0.5,0.2-0.5,3.6-0.4,3.9
	C29.055,14.387,29.955,15.687,30.255,15.787z M30.155,11.587c0.1-0.1,6.1-0.2,7.6-0.1s1.7,0.1,1.8,0.3s0.2,1,0,1.2s-6.3,0.2-7.6,0.2
	c-1.3,0-1.5,0.1-1.7,0C30.055,12.987,30.055,11.587,30.155,11.587z M45.455,31.587c-0.2-0.2-3.9-0.2-4.2-0.1
	c-0.3,0.1-0.6,1.5-1.3,2.3c-0.7,0.8-2.5,1-3.1,0.7s-1.5-3.5-1.4-3.6s8.5-0.3,8.7-0.3s1.2-1.4,1.2-1.6c0.1-0.1,0.3-1.4,0.3-3.6
	s-0.1-2.9-1.3-4.7c-1.2-1.8-3.9-3-5.7-3.2c-1.8-0.2-4.8-0.3-6.9,0.7s-3.5,2.3-4.4,3.9c-0.9,1.5-1.7,4.8-1.5,7.5s1.8,6.4,3,7.7
	c1.2,1.3,3.8,2.9,6.8,3.1c2.9,0.2,5.2-0.1,7.6-1s3-4.3,3.1-4.8S45.655,31.687,45.455,31.587z M35.855,37.787
	c-0.2-0.1-1.1-2.3-1.3-2.4s-0.7,0-0.9,0.2s0.7,1.9,0.5,1.8s-3.1-1.1-4.6-3.1c-1.6-2-2.6-4.7-2.7-6.8s1.4-5.5,3-6.9s3.3-2.3,6.7-2.4
	c1.5,0,3.7,0.3,5.5,1.5c1.9,1.2,2.4,2.7,2.6,3.5s0.3,1.7,0.1,1.7s-0.7-2.4-0.9-2.4s-0.6,0.5-0.6,0.8s1.4,3.6,1.4,3.8s0.1,0.9,0,1
	s-1.4-3.6-1.6-3.6s-0.7,0.1-0.7,0.5s1.4,3.3,1.3,3.3s-0.6,0.1-0.8,0s-1-2.6-1.2-2.6s-0.6,0.4-0.5,0.5s0.8,2.1,0.7,2.1s-0.3,0-0.3,0
	s-0.8-2-1-2s-0.6,0.2-0.6,0.3c0,0.2,0.7,1.8,0.7,1.8s-0.3,0.1-0.4-0.1s-0.8-2-0.9-2s-0.6,0.3-0.5,0.5s0.6,1.5,0.5,1.5
	s-0.5,0.1-0.5-0.1s-0.7-1.8-0.9-1.8s-0.8,0.3-0.7,0.4s0.6,1.4,0.5,1.4s-5.3-0.2-5.4,0s-0.4,2.1-0.1,3.4c0.3,1.3,1.2,2.6,2.3,3.1
	c1.1,0.5,1.4,0.6,1.4,0.6l0.8,2.3C36.655,37.887,36.055,37.887,35.855,37.787z M37.555,37.787c-0.2-0.1-0.9-1.8-0.9-2
	c0.1-0.2,0.6-0.1,0.8,0.1s1,1.9,0.9,1.9S37.755,37.887,37.555,37.787z M39.555,37.787c-0.1,0-0.2,0.1-0.4-0.1s-1-1.7-1-1.9
	c0-0.1,0.5-0.2,0.7,0S39.655,37.687,39.555,37.787z M41.455,36.987c-0.2,0.2-0.9,0.7-1.1,0.5s-0.7-2-0.7-2.2s0.4-0.5,0.6-0.4
	S41.655,36.787,41.455,36.987z M42.155,36.587c-0.2-0.1-1.2-2.1-1.2-2.3c-0.1-0.2,0.2-0.4,0.4-0.3s1.3,2.2,1.2,2.3
	S42.355,36.687,42.155,36.587z M43.055,35.887c-0.2-0.2-1.3-2.9-1.4-3c0-0.2,0.2-0.3,0.4-0.3s1.4,2.8,1.4,2.9
	S43.255,36.087,43.055,35.887z M44.155,34.687c-0.3,0-0.9-1.9-0.9-2.1c0-0.1,1.2-0.2,1.4-0.1S44.455,34.687,44.155,34.687z
	 M35.455,25.187c1.4,0,5.3-0.1,5.6-0.1c0.3,0,0.2-0.8,0.1-1.6s-0.7-2.5-2.9-2.8s-4.4,0.5-5.3,1.5s-0.9,2.8-0.7,2.9
	C32.655,25.287,34.055,25.187,35.455,25.187z M36.155,22.687c1-0.4,2-0.4,2.6-0.3s2,1.4,1.2,1.7c-0.2,0.1-4.3,0.3-4.9,0.1
	C34.855,24.087,35.155,22.987,36.155,22.687z M31.555,20.787c-0.2-0.1-1.9,1.4-2.6,3c-0.8,1.5-1.2,3.8-1,3.9
	c0.3,0.2,0.3,0.1,0.5,0.1s0.4-1.3,0.9-2.7c0.5-1.5,1.4-2.3,2-3.1C32.055,20.987,31.755,20.887,31.555,20.787z"/>
<g>
</g>
<g>
</g>
<g>
</g>
<g>
</g>
<g>
</g>
<g>
</g>
<g>
</g>
<g>
</g>
<g>
</g>
<g>
</g>
<g>
</g>
<g>
</g>
<g>
</g>
<g>
</g>
<g>
</g>
</svg>
