<?xml version="1.0" encoding="iso-8859-1"?>
<!-- Generator: Adobe Illustrator 18.1.1, SVG Export Plug-In . SVG Version: 6.00 Build 0)  -->
<svg version="1.1" id="Capa_1" xmlns="http://www.w3.org/2000/svg" xmlns:xlink="http://www.w3.org/1999/xlink" x="0px" y="0px"
	 viewBox="0 0 45.893 45.893" style="enable-background:new 0 0 45.893 45.893;" xml:space="preserve">
<path id="bit_x5F_bucket" d="M40.455,5.093c-0.8-1.1-7.7-4.3-12-4.9s-12.9,0.3-16.4,1.3c-3.5,1.1-6,2.5-7.3,3.6
	c-1.7,1.4-0.4,5.2,0.2,8.1c0.5,2.8,2.3,11.6,2.8,13.3s3.3,4.1,4.8,4.9c1.5,0.9,7.9,1.9,10.1,1.9c2.2-0.1,8.4-0.9,10.6-1.8
	c2.2-0.9,4.3-3.8,5.2-5.5s3-13.1,3.4-15.4C42.355,8.293,41.255,6.193,40.455,5.093z M40.655,10.793c-0.2-0.2-2-3.3-2.2-3.3
	s-0.8,0.6-0.6,0.9s2.5,3.5,2.6,3.7c0,0.2-0.4,1.9-0.5,1.8s-2.6-4.6-2.9-4.6c-0.2,0-0.7,0.7-0.5,0.8c0.2,0.2,3.1,4.5,3.1,4.7
	c0,0.3-0.8,2.6-1,2.4s-2.5-4.5-2.8-4.6s-0.7,0.4-0.5,0.6s3.2,4.9,3.2,5.2s-0.4,2.5-0.6,2.3c-0.2-0.2-3.6-6.2-3.9-6.4
	c-0.3-0.2-0.7,0.2-0.6,0.4s4.3,6.8,4.3,6.9s-0.4,2.2-0.5,2s-3.4-5.7-3.7-5.8c-0.3-0.1-0.7,0.5-0.6,0.7c0.1,0.2,3.9,5.4,3.9,5.6
	s-0.5,1.7-0.7,1.6s-3.2-4.9-3.3-5c-0.2-0.1-0.7,0.3-0.6,0.4c0.1,0.1,3.4,5,3.3,5.2c-0.1,0.3-0.5,1.1-0.7,0.8s-2.9-3.8-3.1-3.9
	c-0.2-0.1-0.8,0.5-0.6,0.7c0.2,0.3,3.1,3.6,2.9,3.8s-0.9,0.8-1.1,0.6c-0.2-0.2-2-2.9-2.2-2.9s-0.6,0.5-0.5,0.7s1.9,2.6,1.8,2.7
	c-0.1,0.1-1.1,0.7-1.2,0.6c-0.2-0.1-1.7-2.9-1.9-2.9s-0.7,0.4-0.6,0.7s1.5,2.5,1.5,2.5s-1,0.5-1.2,0.3s-1.6-2.4-1.9-2.5
	c-0.2-0.1-0.7,0.2-0.6,0.4c0.1,0.2,1.8,2.4,1.6,2.4s-2,0.3-2.1,0.2s-1.3-2.2-1.4-2.2s-0.8,0.3-0.7,0.7c0.2,0.4,1,1.6,0.9,1.6
	s-4.4,0.1-8.1-0.6c-3.7-0.7-6.9-2.7-7.6-3.8c-0.4-0.7-1.6-6.5-2.3-9.7c-0.6-3.2-1.2-5.8-1.4-7.4s-0.4-3,0.7-3.9
	c1.1-0.9,5.6-3.2,11.3-4c5.7-0.9,10.7-0.7,14.2,0.5s7.6,3.1,7.5,3.4c0,0.3-0.4,0.9-0.1,1.2c0.3,0.3,2,1.8,2,1.9
	S40.855,10.893,40.655,10.793z M33.455,32.993c-1,0.4-4.6,1.4-6.5,1.5s-8.1,0-10.2-0.6c-2.1-0.6-5.4-1.6-6.3-1.4
	c-1.9,0.5-0.4,4.6,0.3,7.3c0.7,2.6,1.6,3.8,2.6,4.8s4.1,1.3,4.7,1.3s7.3-0.1,9.4-0.1s4.9-0.5,6.6-1.1c1.7-0.6,2.3-4.8,2.3-6.2
	c0-1.4,0.2-5.1-0.3-5.4S34.555,32.693,33.455,32.993z M35.055,38.293c-0.2,1-0.6,1.4-0.6,1.4s-1.4-4.7-1.8-4.8s-0.8,0.4-0.7,0.6
	s2.1,4.7,2.1,5s-0.2,1.4-0.3,1.2s-2.1-6-2.4-6.1s-1,0.1-0.9,0.4s2.8,6.1,2.8,6.4s-0.6,1.1-0.8,0.9s-3.1-7-3.4-6.9s-0.8,0.5-0.7,0.7
	s3.3,6.4,3.1,6.5c-0.3,0.1-1.5,0.2-1.6,0.1s-2.4-5.2-2.7-5.3c-0.2-0.1-0.7,0.4-0.6,0.4c0,0.1,2.6,4.8,2.3,4.9s-0.8,0.1-0.9,0.1
	c-0.1-0.1-2.3-4.9-2.5-4.9s-0.7,0.4-0.6,0.7c0.1,0.3,2.2,4.3,2,4.3s-0.9,0.2-1.1,0c-0.2-0.1-1.8-3.8-2-3.8c-0.3,0-0.8,0.4-0.7,0.6
	s1.9,3.4,1.8,3.4s-0.9,0.1-1,0s-1.5-3.1-1.8-3.1s-0.6,0.4-0.6,0.6c0.1,0.1,1.5,2.7,1.3,2.6s-1-0.1-1-0.2s-0.9-2.1-1.1-2.1
	c-0.3,0-0.8,0.4-0.7,0.6s0.8,1.5,0.7,1.6c-0.1,0-1,0.1-1.1-0.1s-0.6-1.3-0.9-1.4c-0.3-0.1-0.7,0.3-0.6,0.5c0.1,0.2,0.6,0.9,0.3,0.9
	s-2.3-0.5-3.7-1.2s-2.1-1.5-2.5-2.6c-0.5-1.1-2.5-6.7-0.9-6.6c0.2,0,2.8,0.9,5.4,1.5c2.6,0.6,6.3,1,9.2,0.8s5.9-0.9,6.5-1.1
	s0.9-0.4,1-0.3s1,2.5,1.2,2.7c0.3,0.2,0.5-0.4,0.3-0.7c-0.2-0.3-0.8-2.1-0.7-2.2s0.4-0.4,0.6-0.3c0.3,0.1,0.4,0.5,0.4,1.2
	C35.055,35.493,35.255,37.293,35.055,38.293z M31.655,3.593c-2.3-0.9-3.8-1.5-8.2-1.4s-8,0.7-10.3,1.5c-2.3,0.9-3.9,1.8-4,2.9
	c-0.2,1.7,1.1,1.9,3.1,2.7c2,0.8,5.5,1,9.9,1s8-0.5,10.6-1.2c2.5-0.7,2.8-1.7,2.7-2.7S33.955,4.493,31.655,3.593z M30.755,8.393
	c-3.6,0.5-7.5,1.1-11.8,0.8c-4.3-0.3-5.7-0.6-5.8-2c0-0.4,1.2-1.8,4.1-2.4c2.9-0.6,6.5-1,10.7-0.4s6,1.5,6.1,2.2
	C34.155,7.293,34.455,7.893,30.755,8.393z M7.155,6.693c-0.1-0.5-0.6-0.4-0.9-0.1s-0.1,1.6,0.1,2.7c0.2,1.1,0.7,2.7,1,2.9
	c0,0,0.4-0.1,0.5-0.1s0.2-0.3-0.1-0.9S7.155,7.193,7.155,6.693z M16.555,15.693c0.4-0.3-0.4-0.8-0.8-0.7c-0.4,0.2-1.6,1.4-1.7,2.3
	s0.1,2.6,0.3,2.7c0.3,0.1,0.6,0.2,0.6-0.1s-0.2-1.1-0.1-2C14.955,16.993,16.155,16.093,16.555,15.693z M24.855,14.893
	c-2.8-0.8-4.7,0-5.9,0.7c-1.2,0.6-2.2,1.8-2.4,2.7c-0.2,0.9-0.9,3.6-0.3,5.2c0.7,1.6,2.8,2.8,4.5,3.4s3.9,0.4,5.8-0.9
	c2-1.3,2.1-5.1,2-6.1C28.555,18.993,27.655,15.693,24.855,14.893z M26.255,24.693c-1.3,1.1-3.1,1.7-5,1.2c-1.9-0.4-3.7-1.5-3.9-3.2
	s0.8-3.1,1.3-3.6s1.4-1,1.8-1.2c1.4-0.5,3.1-1,4.7-0.7c1.5,0.3,2.1,1.3,2.2,2.2S27.555,23.693,26.255,24.693z M21.655,18.293
	c-2.2,0.8-2.2,3.6-1.7,4.9c0.6,1.3,1.8,1.7,3,1.7s2-0.8,2.4-1.8c0.4-1.1,0.5-2.1-0.3-3.6S22.655,17.893,21.655,18.293z
	 M23.555,22.493c-0.7,0.4-2.1,0.2-2.6-0.7c-0.5-0.9,0-2.2,1.1-2.5c0.7-0.2,1.9,0.1,2.4,1C24.955,21.093,24.355,22.093,23.555,22.493
	z"/>
<g>
</g>
<g>
</g>
<g>
</g>
<g>
</g>
<g>
</g>
<g>
</g>
<g>
</g>
<g>
</g>
<g>
</g>
<g>
</g>
<g>
</g>
<g>
</g>
<g>
</g>
<g>
</g>
<g>
</g>
</svg>
