<?xml version="1.0" encoding="iso-8859-1"?>
<!-- Generator: Adobe Illustrator 18.1.1, SVG Export Plug-In . SVG Version: 6.00 Build 0)  -->
<svg version="1.1" id="Capa_1" xmlns="http://www.w3.org/2000/svg" xmlns:xlink="http://www.w3.org/1999/xlink" x="0px" y="0px"
	 viewBox="0 0 47.401 47.401" style="enable-background:new 0 0 47.401 47.401;" xml:space="preserve">
<path id="spotify" d="M45.846,17.062c-0.5-2.5-2.6-6.5-4.9-9.1c-2.4-2.7-7.5-6.4-13.5-7.4c-5.9-1-7-0.8-12,1.7
	c-2.4,1.2-6.5,3.9-8.9,6.7c-2.4,2.9-4.7,7.4-5,9.3c-0.4,1.9-1.5,9.9-0.5,12.1s3.8,7.6,5.9,10.3c2,2.7,8.5,6,11.5,6.5
	c3,0.4,8.1,0.4,12.2-0.8c4.1-1.1,6.5-2.5,10.1-5.9s5.3-9.2,5.9-11C47.046,27.662,46.346,19.562,45.846,17.062z M44.946,25.662
	c-0.1-0.1-3-3.7-3.2-3.4c-0.2,0.3-0.6,0.5-0.3,0.7s3.4,3.2,3.4,3.4c0,0.2-0.1,2.3-0.3,2c-0.2-0.2-3.6-4.3-3.7-4s-0.3,0.5-0.1,0.8
	s3.6,3.5,3.6,3.7s-0.5,2-0.6,1.9s-3.5-4.1-3.7-3.8s-0.4,0.5-0.3,0.6c0.1,0.2,3.8,3.6,3.8,3.8s-0.4,1.8-0.6,1.7
	c-0.2-0.1-4-4.6-4.3-4.4s-0.4,0.5-0.3,0.7s4.2,4.1,4.2,4.4s-0.4,1.5-0.7,1.4s-3.9-4.4-4.2-4.3s-0.4,0.5-0.3,0.7
	c0.2,0.3,4.2,3.9,4.1,4.1s-0.9,1.8-1.1,1.6s-3.9-4.3-4.2-4.3s-0.5,0.4-0.5,0.4c0,0.1,4.2,4.2,4.2,4.3s-1.2,1.6-1.3,1.5
	s-3.8-4.6-4-4.5s-0.5,0.2-0.4,0.4c0.2,0.2,3.8,4.3,3.8,4.5s-0.8,0.8-1,0.7c-0.2-0.1-4.3-4.6-4.6-4.6s-0.5,0.6-0.3,0.8
	c0.1,0.2,4.4,4,4.4,4.1s-1,1.3-1.1,1.1c-0.2-0.2-4.3-4.9-4.6-4.9s-0.6,0.5-0.4,0.7s4.6,4.4,4.5,4.5s-1.2,0.6-1.3,0.5
	s-3.9-4.2-4.8-5.3c-0.9-1.1-0.9-1.2-1.2-1.1s-0.2,0.5-0.1,0.6c0.1,0.1,5.6,5.8,5.5,6s-2.1,0.7-2.2,0.7s-4.6-6-5-6.1
	s-0.6,0.3-0.5,0.4c0.1,0.2,5.2,5.8,5.1,5.8s-1.9,0.4-2.2,0.2c-0.2-0.1-3.9-3.8-4.6-4.7c-0.7-0.9-1-1.5-1.4-1.5s-0.5,0.4-0.1,0.9
	s5.3,5.3,5.2,5.4c-0.1,0.2-2,0.3-2.2,0.1s-4.6-6-5.1-6c-0.5-0.1-0.5,0.4-0.5,0.4s5.1,5.6,4.9,5.7s-1.5,0.1-1.7-0.1s-5.3-5.9-5.5-5.9
	s-0.5,0.4-0.4,0.5s5.5,5.6,5.5,5.6s-1.8,0-2-0.1s-4-4.9-4.4-5s-0.6,0.4-0.5,0.5s4.3,4.4,4.2,4.4s-2.5-0.6-2.6-0.7
	c-0.2-0.1-2.9-3.8-3.2-3.9c-0.3,0-0.8,0.1-0.8,0.3c0,0.2,3.3,3.4,3.1,3.4s-3-1-4.6-2.4s-5.6-6.2-7-9s-2-7.7-2.2-10.3
	c-0.2-2.6,1.5-6.8,2.7-9.1s4.6-5.6,6.4-7.1c1.9-1.5,5.1-3,6-3.4c1.3-0.6,5.8-1.5,7.6-1.2c1.8,0.2,4.4,0.6,7.7,2.4
	c3.4,1.8,7.4,4.4,8.7,7.3c1.4,2.8,2.3,5.3,2.6,6.7c0.4,1.4,0.6,1.9,0.4,1.8c-0.2-0.1-1.4-1.1-1.6-0.9c-0.2,0.3-0.4,0.4-0.1,0.6
	c0.3,0.2,1.7,1.5,1.7,1.7s0.1,1.8,0,1.7s-1.8-2.2-2-2s-0.5,0.6-0.2,0.8s2.2,2,2.3,2.3S45.046,25.762,44.946,25.662z M12.946,7.762
	c0.8-0.6,3.1-1.7,7.1-3c4-1.4,8.8-0.1,9.3-0.1s0.6-0.4,0.4-0.8c-0.2-0.4-2.4-0.8-6.3-0.6c-3.9,0.2-7.1,1.5-8.8,2.4s-3.2,2.4-3.2,2.6
	C11.646,8.862,12.046,8.362,12.946,7.762z M11.546,10.262c-0.4-0.2-1.9,0.8-2.7,2.1s-0.6,2.9-0.4,3c0,0,0.3,0,0.6-0.2
	c0.3-0.1,0.3-1.1,0.6-2c0.4-1,1.4-1.6,1.9-2C12.246,10.862,12.046,10.462,11.546,10.262z M33.546,12.962c-5.2-1.3-14.1-1.7-17-1.7
	s-4.6,0.5-5.4,1.2c-0.5,0.4-1.1,1.6-0.6,2.8c0.5,1.2,2.3,1.4,3.6,1.4s7.9-0.2,12.8,0.4c4.9,0.6,11.3,3.2,12.9,3.2
	c1.6,0,2.1-2.7,1.7-3.7S38.646,14.262,33.546,12.962z M39.646,19.262c-0.8-0.2-6-1.9-10.5-2.6c-4.5-0.7-8.9-1.1-11.3-0.8
	c-2.4,0.3-4.3,0.2-4.6,0.1c-0.3-0.1-0.2-0.6,0.1-0.8c0.3-0.3,2.8-0.5,4.6-0.6s10.4,0.1,13.8,0.6s8.5,2.5,8.8,2.8
	S40.446,19.462,39.646,19.262z M35.846,22.162c-2.5-0.9-11.7-1.8-15.2-2c-3.5-0.1-8,0.6-8.6,0.8c-0.5,0.3-1.7,1.5-1.4,2.6
	s1.5,1.4,3.4,1.4c1.9-0.1,5.4-0.4,10.7,0.1c5.4,0.5,11.2,1.9,12.4,2.1s2.1-2,1.8-2.6C38.746,23.762,38.446,23.062,35.846,22.162z
	 M37.046,25.962c-0.5,0-7.2-1.5-10.9-1.8c-3.7-0.2-6.9-0.5-8.2-0.4s-3.1,0.3-3.4,0.2c-0.4-0.1-0.4-1,0-1.3s2.2-0.7,6.5-0.4
	c4.4,0.3,13.6,1.7,14.7,1.9s2,0.4,2.1,0.8C38.046,25.362,37.546,25.962,37.046,25.962z M31.846,28.162c-2.7-0.7-10.5-1.4-13.2-1.4
	s-5.2,0.4-6.1,0.8c-0.7,0.3-1.2,1.2-0.9,2.2s1.6,1.3,2.7,1.2s7.9-0.3,12-0.1s6.8,1.4,8.3,1.4c1.5-0.1,1.4-1,1-2
	S34.646,28.862,31.846,28.162z M33.946,31.462c-0.8,0.1-3.5-1.1-8.1-1.4c-4.6-0.2-7.7,0-8.8,0.1c-1,0.1-1.8,0.2-2.1,0
	s-0.5-1.2-0.2-1.4c0.3-0.3,3-0.3,4.5-0.3c1.6,0,9.2,0.3,11.5,0.8s3.5,0.8,3.8,1.2S34.746,31.362,33.946,31.462z"/>
<g>
</g>
<g>
</g>
<g>
</g>
<g>
</g>
<g>
</g>
<g>
</g>
<g>
</g>
<g>
</g>
<g>
</g>
<g>
</g>
<g>
</g>
<g>
</g>
<g>
</g>
<g>
</g>
<g>
</g>
</svg>
