<?xml version="1.0" encoding="iso-8859-1"?>
<!-- Generator: Adobe Illustrator 18.1.1, SVG Export Plug-In . SVG Version: 6.00 Build 0)  -->
<svg version="1.1" id="Capa_1" xmlns="http://www.w3.org/2000/svg" xmlns:xlink="http://www.w3.org/1999/xlink" x="0px" y="0px"
	 viewBox="0 0 46.394 46.394" style="enable-background:new 0 0 46.394 46.394;" xml:space="preserve">
<path id="bloger" d="M45.566,19.093c-0.3-3.6-2.4-3.6-3.8-3.8c-1.4-0.2-5,0.1-5.3,0c-0.4-0.1-0.4-7-0.6-9.2
	c-0.2-2.2-2.8-4.1-6.7-5.1s-11.7-1.2-16.1-0.8c-4.4,0.4-7.8,2-9.7,3.8c-0.9,0.8-2.6,3.2-2.8,4.8c-0.1,1.6,0.1,10.2,0.4,16.5
	c0.3,6.3,1,11.3,2,14.4s1.7,3.5,4.4,4.8c2.7,1.4,9.2,1.8,13.7,1.9c4.5,0,11.6,0.1,17-2.7c5.4-2.8,7-7.5,7.4-9.3
	C46.066,32.593,45.866,22.793,45.566,19.093z M44.966,27.093c-0.2-0.3-2.2-3.6-2.6-3.9c-0.5-0.3-0.6,0.4-0.3,0.7
	c0.3,0.3,2.8,3.7,2.9,4.1c0.1,0.3,0,2.8-0.1,2.7c-0.1-0.1-3.2-5.1-3.6-5.3c-0.3-0.2-0.8,0.1-0.5,0.6c0.4,0.5,3.8,4.9,3.9,5.4
	s-0.3,3.1-0.4,2.8c-0.1-0.3-3.3-5.5-3.6-5.6c-0.3-0.2-0.6,0-0.6,0.2c0.1,0.2,3.9,5.9,3.9,6.1s-0.6,1.7-0.9,1.4
	c-0.3-0.3-2.7-4.9-3.1-4.9c-0.4,0-0.8,0.1-0.5,0.6c0.2,0.5,3.1,4.7,3.1,4.8c0,0.1-0.6,1.4-1,1.4c-0.3-0.1-2.6-4.4-2.9-4.5
	c-0.3-0.1-0.8,0.1-0.6,0.4c0.1,0.3,3.1,4.8,3.1,4.9s-1.3,1.4-1.5,1.3c-0.2-0.2-2.6-5.1-2.9-5.1c-0.3,0-0.7,0.2-0.5,0.4
	c0.2,0.3,2.8,4.8,2.8,5s-1.2,0.9-1.4,0.8s-2.6-5-2.9-5.1s-0.7,0.1-0.6,0.4c0.1,0.3,2.9,5,2.8,5c-0.1,0-1,0.5-1.2,0.5
	c-0.3-0.1-2.6-4.7-2.9-4.8c-0.3-0.1-0.6,0.3-0.3,0.8c0.3,0.6,2.6,4.1,2.5,4.3c-0.2,0.2-1.4,0.4-1.6,0.3c-0.2-0.1-2.4-5.3-2.8-5.4
	c-0.4-0.1-0.6,0.4-0.4,1c0.2,0.6,2.8,4.4,2.6,4.5c-0.2,0.2-1.4,0.3-1.6,0.3c-0.2,0-3.1-5-3.4-5c-0.3,0-0.7,0.3-0.5,0.6
	c0.2,0.3,3.1,4.4,2.8,4.5s-1.7,0.2-1.9,0c-0.2-0.1-1.6-3.7-2.3-4s-0.8-0.1-0.7,0.3c0.1,0.5,2.4,3.8,2.1,3.8c-0.3,0-1.1,0.1-1.4,0
	c-0.2-0.1-2.1-4.2-2.4-4.4c-0.3-0.2-0.7,0.1-0.6,0.6c0.1,0.4,2.1,3.9,2.1,3.9s-0.9,0.1-1.1,0c-0.2-0.1-2-3.8-2.2-3.9
	c-0.3-0.1-0.8,0.2-0.7,0.4c0,0.2,2.3,3.5,2.1,3.6s-1.3,0.1-1.6-0.1c-0.2-0.1-1.7-3.7-2.1-3.8c-0.4-0.1-0.9,0.3-0.7,0.5
	c0.2,0.2,2.1,3.3,1.9,3.3s-1.3-0.1-1.4-0.1s-1.5-3.4-1.8-3.4s-0.7,0.3-0.6,0.5s1.5,2.7,1.3,2.8c-0.2,0.1-1.2,0.1-1.4-0.2
	c-0.2-0.3-1-2.7-1.4-2.7c-0.4-0.1-0.7,0.1-0.7,0.4c0,0.2,1.4,2.4,1.3,2.4s-1.5-0.1-1.7-0.2c-0.2-0.2-0.9-2.3-1.3-2.4
	s-0.8,0.1-0.7,0.3c0.1,0.2,1.2,1.9,1,2c-0.2,0-3.9-0.6-5.4-1.8c-1.5-1.2-3.5-3.9-4.3-6.6s-1.5-11.8-1.5-16.6c0-4.8,0-9.2,0.4-10.2
	s1.6-2.5,2.4-3.3c1-1,4-2.3,7.3-3s8.8-0.4,13.2,0s8,1.3,9,3.3s0.9,2.3,1,3.5c0,1.2,0.1,2,0.1,2s-0.9-1.8-1.3-1.5
	c-0.4,0.3-0.4,0.6-0.1,0.9c0.2,0.3,1.6,2.3,1.6,2.6c0,0.3-0.4,3.7,0.5,3.9c0.9,0.2,4.6-0.1,6,0c1.4,0.2,2.6,0.7,2.8,2.7
	s0.3,3.3,0.2,3.3c-0.1-0.1-1.3-1.6-1.5-1.5s-0.4,0.3-0.2,0.4c0.2,0.2,1.6,1.6,1.7,1.9C44.666,23.293,45.166,27.393,44.966,27.093z
	 M10.766,17.593c0.8,0.3,2.3,0.1,7.4-0.5s8.3-0.6,8.9-0.7s0.8-0.4,0.7-1.3s-0.4-3-1.4-4.4s-5.1-0.9-7.8-0.5s-7.6,1.3-7.8,1.8
	C9.166,14.593,9.966,17.193,10.766,17.593z M12.766,14.093c0.2-0.3,4.2-1.3,7.5-1.6c3.3-0.3,5.6-0.3,5.9,0c0.3,0.3,0.5,1.2,0.5,1.7
	s0.3,1,0.3,1.2s-0.1,0.1-1,0.1c-0.9,0.1-3.7-0.2-7.1,0.4c-3.4,0.5-4,0.6-5,0.6s-1,0.2-1.2,0
	C12.466,16.293,12.566,14.393,12.766,14.093z M36.366,27.693c-0.2,0-0.5-0.5-0.6-0.9s-2.1-3.4-2.3-3.7c-0.2-0.3-0.9-0.6-1-0.1
	s2.3,3.3,2.4,3.5s-0.8,0-1.4,0c-0.5,0-2.4-3.7-3-4.2c-0.5-0.5-1-0.1-0.8,0.3c0.2,0.5,3.1,3.7,3.1,3.8c0,0.2-1.5,0.2-1.8,0.1
	s-2.7-4.1-3.1-4.3s-1,0.2-0.7,0.5s3,3.6,3.2,3.9s-1.8,0-2.5-0.1c-0.6-0.1-2.7-4.3-3.2-4.7c-0.5-0.5-1.2,0-1,0.3
	c0.2,0.2,3.4,4.3,3.5,4.4c0.2,0.1-1.6,0.2-2.1,0.1s-2.8-4.4-3.1-4.7c-0.2-0.3-0.8,0.1-0.7,0.4c0.1,0.3,3,4,3.2,4.2s-2,0.1-2.2,0.1
	s-2.2-3.8-2.6-4.1c-0.4-0.2-0.7,0.2-0.8,0.5c0,0.3,2.7,3.5,2.8,3.7c0.1,0.2-1.7,0.2-2,0.1s-1.7-2.8-2-3.2c-0.2-0.3-1,0.1-1,0.2
	s2.2,2.9,2.4,3c0.2,0.1-1.4,0.2-1.7,0.1s-1.4-2.8-1.8-3.1c-0.3-0.3-0.8-0.1-0.8,0.1c-0.1,0.2,1.8,2.8,2,3s-1.1,0.1-1.5,0.1
	s-1.4-1.9-1.6-2.3s-0.7-0.3-0.9-0.2c-0.2,0.1,1.2,2.3,1.3,2.4c0.2,0.2-1.9,0.1-2.1,0.1s-1.1-1.9-1.1-2s-0.4-0.2-0.5,0.1
	c-0.2,0.3,1.2,2,1.2,2s-1.4,0.2-1.8,0.6s-0.5,1.7-0.5,3.5c0,2.5,1.7,2.9,4.1,3c2.4,0.2,16.5,0.1,18.8,0c2.3-0.1,2.8-0.1,4.1-1.4
	c1.3-1.2,1.1-3.3,1.3-4.2C37.766,28.093,36.566,27.693,36.366,27.693z M35.266,32.493c-0.8,1-1.7,1.1-4.6,1.2c-2.9,0-9,0-12.8,0
	s-4.5,0-4.6-0.1s0-2,0.2-2.3c0.2-0.4,3.9-1.5,6.3-1.6s6.6,0,8.6-0.3c2.1-0.3,4.2-0.5,5.9-0.5c1.6,0,2.1,0.2,2.1,0.5
	C36.366,29.693,36.066,31.493,35.266,32.493z M3.566,19.893c-0.3,0.2,0,7.2,0.2,7.3c0.2,0.1,0.6-0.1,0.7-0.4c0.1-0.2,0.2-6.1,0-6.7
	C4.366,19.493,3.866,19.693,3.566,19.893z M9.666,5.793c0-0.2,0.2-0.7-0.7-0.5c-0.9,0.2-3.1,1.3-4.1,3.1c-1.1,1.8-1,3.9-0.6,4.2
	c0.3,0.4,0.6,0.4,0.9,0.2c0.3-0.2,0-2,0.9-3.9s2.6-2.3,3.1-2.4C9.566,6.393,9.666,5.993,9.666,5.793z M30.966,5.793
	c1.3,0.5,1.4,2.4,1.7,2.8s1.1-0.4,1-0.9s-0.5-1.5-1.7-2.6s-3.5-1.4-3.9-1.2c-0.4,0.3-0.4,0.7-0.2,0.8
	C27.966,4.793,29.666,5.193,30.966,5.793z M32.066,10.493c-0.4,0.6,1.9,4,2.1,4.4c0.2,0.4,0.6-0.1,0.5-0.3c-0.1-0.3-1.7-3.6-1.9-3.8
	S32.166,10.193,32.066,10.493z M31.266,12.793c-1,0.3,1.1,2.8,1.6,3.3c0.4,0.4,0.5,0.1,0.6-0.1
	C33.466,15.693,31.666,12.693,31.266,12.793z"/>
<g>
</g>
<g>
</g>
<g>
</g>
<g>
</g>
<g>
</g>
<g>
</g>
<g>
</g>
<g>
</g>
<g>
</g>
<g>
</g>
<g>
</g>
<g>
</g>
<g>
</g>
<g>
</g>
<g>
</g>
</svg>
