<?xml version="1.0" encoding="iso-8859-1"?>
<!-- Generator: Adobe Illustrator 18.1.1, SVG Export Plug-In . SVG Version: 6.00 Build 0)  -->
<svg version="1.1" id="Capa_1" xmlns="http://www.w3.org/2000/svg" xmlns:xlink="http://www.w3.org/1999/xlink" x="0px" y="0px"
	 viewBox="0 0 46.965 46.965" style="enable-background:new 0 0 46.965 46.965;" xml:space="preserve">
<path id="codepen" d="M46.815,22.775c-0.2-4.2-0.2-8.4-0.5-9.2c-0.3-0.8-4.4-3.6-6.1-4.3c-1.6-0.7-8.6-4.3-10.6-5.3
	c-2-1.1-5.9-3.8-6.5-3.8s-1.6,0.6-2.6,1.1s-4.9,3.1-7.7,4.5c-2.8,1.5-6,3.5-9.3,5c-3.4,1.5-3.2,1.7-3.4,2.3
	c-0.1,0.4,0.2,2.5,0.3,5.6c0.1,3.1-0.3,9-0.4,10.7c-0.1,1.6,0.3,2.6,1,3.6s3.6,2.5,6.8,4.3c3.2,1.8,8.4,5.5,11,7.4s3.2,1.8,4.3,2.1
	c1.1,0.3,7.9-3.8,13.3-7.1c5.4-3.3,10.3-6.3,10.4-6.9C47.015,32.275,47.015,26.975,46.815,22.775z M45.815,30.075
	c-0.2-0.2-3.4-3.8-3.6-3.7c-0.2,0.2-0.3,0.5-0.3,0.7c0.1,0.1,3.4,3.5,3.5,3.8c0.1,0.2-0.2,0.6-0.4,0.5c-0.2-0.1-3-2.9-3.4-2.9
	c-0.4-0.1-0.9,0.4-0.5,0.7c0.3,0.3,3.1,2.6,3.1,2.8c0,0.2-0.7,0.9-0.9,0.8c-0.2-0.1-2.7-2.7-3.1-2.7s-0.8,0.4-0.6,0.5
	c0.2,0.2,2.9,2.6,2.7,2.8c-0.1,0.2-0.7,1-1,0.7s-2.4-2.7-2.8-2.7s-0.7,0.4-0.6,0.6c0.2,0.2,2.5,2.4,2.5,2.6s-0.7,0.5-0.9,0.5
	c-0.2-0.1-2.3-2.6-2.6-2.6s-0.7,0.3-0.6,0.4s2.5,2.7,2.5,2.8s-0.6,0.6-0.8,0.5c-0.2-0.2-2-2.6-2.6-2.6c-0.5,0-0.7,0.3-0.6,0.4
	s2.5,2.5,2.3,2.6c-0.2,0.2-0.8,0.5-1,0.4c-0.2-0.2-2.4-2.3-2.7-2.4c-0.3-0.1-0.7,0.4-0.6,0.6c0.2,0.2,2.7,2.2,2.4,2.4
	c-0.3,0.2-1.2,1-1.5,0.8s-2.1-2.3-2.6-2.3s-0.9,0.3-0.6,0.5c0.3,0.3,2.3,2.1,2.1,2.3c-0.2,0.2-0.5,0.6-0.7,0.4c-0.2-0.2-2.1-2-2.4-2
	s-0.8,0.2-0.6,0.4s2.5,1.8,2.3,2.2s-1,0.9-1.2,0.7c-0.2-0.2-2.2-2.2-2.5-2.2c-0.3,0.1-0.6,0.3-0.4,0.5s2.2,2,2.1,2.2
	s-0.6,0.7-0.8,0.5c-0.1-0.2-2.5-2.6-2.7-2.5s-0.6,0.7-0.4,0.9c0.3,0.2,2.5,1.8,2.3,2s-0.8,0.8-1.1,0.6s-2.1-1.9-2.4-1.9
	s-0.6,0.4-0.3,0.7c0.4,0.3,1.9,1.5,1.9,1.6s-0.3,0.4-0.6,0.3c-0.3-0.1-2-1.6-2.3-1.6s-0.8,0.4-0.6,0.6c0.2,0.2,2,1.2,1.9,1.5
	s-0.5,0.7-0.8,0.5s-8.7-5.3-11.4-6.9c-2.7-1.6-6.1-3.7-8.1-4.9c-1.9-1.2-2.9-1.4-3.1-2.5s0.2-5.9,0.3-8.6c0.1-2.7-0.1-4.9-0.2-5.5
	c-0.1-0.7-0.2-2-0.1-2.4c0.1-0.7,1.5-1.3,4.4-2.6c2.8-1.3,11.9-6.6,13.4-7.5s3.5-2.1,4-2s5,3.3,8.2,4.6c3.1,1.3,9.7,4.5,10.7,5.2
	s1.5,1.1,1.5,1.2s-0.2,0.4,0.1,0.6c0.4,0.2,2,1.6,2.1,1.8c0,0.2,0.2,1.6,0.1,1.5s-1.8-2.2-2.2-2.2s-0.7,0.4-0.5,0.7
	c0.2,0.3,2.6,2.4,2.8,2.7c0.1,0.3,0.3,1,0.1,0.9c-0.2-0.2-1.9-2-2.1-2s-0.5,0.2-0.4,0.6s2.4,2.5,2.5,2.7s0.1,1.7-0.1,1.6
	s-1.9-2.4-2.1-2.3s-0.2,0.6-0.2,0.6s2.2,2.6,2.3,2.9s0.3,2.3,0.1,2c-0.2-0.3-1.9-2.3-2.1-2.3s-0.4,0.3-0.3,0.6s2.3,2.7,2.4,2.9
	c0.1,0.2,0.2,2.1,0,1.8c-0.1-0.3-2.2-2.6-2.4-2.5s-0.5,0.4-0.3,0.7c0.2,0.2,2.7,2.9,2.7,3.1
	C45.915,28.875,46.015,30.175,45.815,30.075z M7.315,16.575c0.6,0.3,5.4,3.5,5.9,3.8s1.8,0.1,3.3-0.6s4.2-2,4.3-2.3s0.1-5.1,0-5.9
	s0-4-0.3-4.1s-6.3,3-8.1,4s-6.2,3.3-6.4,3.5C5.715,15.475,6.715,16.275,7.315,16.575z M9.215,15.875c0.1-0.2,4.9-2.9,6.6-4
	s3.6-2.2,3.7-1.9c0.2,0.3,0.7,6.4,0.2,6.9c-0.5,0.4-5.3,2.8-6,2.4C13.215,18.975,8.915,16.775,9.215,15.875z M25.315,17.175
	c0.1,0.3,5,2.6,5.4,2.7s1.1-0.1,1.8-0.4c0.7-0.3,7.1-3.7,7.8-4c0.7-0.3,1-0.5,1.1-1.1c0-0.6-1-1.4-3.1-2.6s-7.1-3.4-9.2-4.3
	s-2.8-0.7-3.2-0.4c-0.7,0.4-0.5,1.9-0.5,2.7C25.315,10.675,25.215,16.875,25.315,17.175z M26.515,7.875c0.1-0.2,4.4,1.6,8.2,3.5
	c3.8,2,5.4,2.8,5.3,3.2s-4.5,2.4-6.4,3.3c-1.9,0.9-2.4,1.1-2.7,1c-0.2-0.1-4.3-1.9-4.4-2.3c-0.2-0.5,0-4.1-0.1-5.2
	C26.515,10.175,26.315,8.075,26.515,7.875z M27.515,21.275c-0.3-0.4-4-2.4-4.4-2.5c-0.5-0.1-1.3,0.5-2.3,1.1s-2.4,1.5-2.3,1.8
	c0.1,0.8,4,2.5,4.7,2.6s3.4-1.6,3.9-2C27.415,22.075,27.715,21.675,27.515,21.275z M23.115,23.075c-0.4-0.2-1.3-0.8-1.3-0.9
	c-0.1-0.2,2.4-1.6,2.7-1.4c0.4,0.3,1.2,0.5,1.3,0.8C25.815,21.775,23.515,23.275,23.115,23.075z M18.415,6.375
	c0.5-0.4,3.5-1.8,4-2.2c0.6-0.3,1.4,0.3,1.7,0.5c0.3,0.1,0.7-0.1,0.8-0.4c0.1-0.3-1.1-0.9-1.5-1.1s-0.8-0.2-1.5,0.1
	c-0.7,0.3-4.4,2.3-4.6,2.5s0,0.7,0.2,0.8C17.715,6.575,17.915,6.775,18.415,6.375z M5.015,13.575c0.3-0.3,0-0.4-0.4-0.6
	s-2.4,0.7-2.6,1.1c-0.2,0.3,0.2,2.2,0.5,2.3c0.3,0.2,0.7-0.1,0.9-0.4c0.2-0.3-0.1-1-0.2-1.3C3.215,14.275,4.715,13.775,5.015,13.575
	z M6.815,24.475c0.8-0.5,2.2-1.1,2-1.5s-2.9-2.2-3.5-2.6s-1.6,0.1-1.7,0.4c-0.1,0.2,0,3.2,0,3.7s-0.1,1.1,0.5,1.4
	C4.815,26.075,5.915,24.975,6.815,24.475z M5.915,22.375c0.1-0.2,1.2,0.6,1.1,0.8c0,0.2-0.9,0.9-1.2,0.7S5.815,22.575,5.915,22.375z
	 M19.715,28.275c-0.6-0.3-6.2-3.3-6.6-3.3c-0.4-0.1-8.9,4.5-8.9,4.7c0,0.5,2.5,1.5,5.8,3.4c3.2,1.8,9.1,5.2,9.6,5.5s1.2,0.2,1.5-0.2
	c0.3-0.3,0.1-7.9,0.1-8.6C21.115,29.275,20.315,28.675,19.715,28.275z M20.015,37.375c-0.4-0.1-8-4.4-9.2-5s-2.1-1.3-2.1-1.4
	c0.1-0.4,5.2-4.1,5.8-3.9c0.5,0.1,5.3,2.5,5.5,2.9C20.215,30.275,20.415,37.475,20.015,37.375z M31.515,24.875
	c-0.7-0.1-6.7,3-6.8,3.5c-0.1,0.4,0.6,7.5,0.6,7.8c0.1,0.2,0.4,0.7,0.9,0.8c0.5,0.1,1.7-0.4,3.6-1.4s9.1-5.2,9.3-5.6
	c0.3-0.4,0.1-1.1-0.1-1.3C38.915,28.375,32.215,24.975,31.515,24.875z M31.715,33.375c-2.5,1.5-4.7,2.8-5.1,2.5s-0.8-5.2-0.8-5.6
	c0-0.3,6.5-3.8,7.2-3.6c0.7,0.3,5.1,2.2,5.1,2.6C38.215,29.675,34.315,31.875,31.715,33.375z M41.615,18.175c-0.4,0-5.8,3.3-5.8,3.5
	c-0.1,1.2,2.7,1.7,3.9,2.2c1.2,0.5,2.4,1,2.7,0.7s0.1-3.3,0.1-4.8C42.515,18.075,42.015,18.175,41.615,18.175z M41.515,23.375
	c-0.4-0.1-3.6-1.5-3.9-1.7s3.5-2.3,3.8-2.1C41.715,19.875,41.815,23.475,41.515,23.375z"/>
<g>
</g>
<g>
</g>
<g>
</g>
<g>
</g>
<g>
</g>
<g>
</g>
<g>
</g>
<g>
</g>
<g>
</g>
<g>
</g>
<g>
</g>
<g>
</g>
<g>
</g>
<g>
</g>
<g>
</g>
</svg>
