<?xml version="1.0" encoding="iso-8859-1"?>
<!-- Generator: Adobe Illustrator 18.1.1, SVG Export Plug-In . SVG Version: 6.00 Build 0)  -->
<svg version="1.1" id="Capa_1" xmlns="http://www.w3.org/2000/svg" xmlns:xlink="http://www.w3.org/1999/xlink" x="0px" y="0px"
	 viewBox="0 0 50.685 50.685" style="enable-background:new 0 0 50.685 50.685;" xml:space="preserve">
<path id="at" d="M49.78,36.6c-0.5-1.2-3.2-4.2-3.7-4.2c-0.6,0-1.5,0.9-2.2,1.3c-0.7,0.4-3.8,2.2-7.5,3.7s-6.2,1.9-8.6,2.2
	c-2.4,0.2-6.5-0.1-10-2s-7-5.2-7.8-9.5c-0.9-4.2,0.1-6.7,3.1-11.1c3.1-4.4,9.5-7.1,14.3-8s10.1,0.8,12.9,3.2c2.8,2.4,3,5.1,3.2,8
	s-2.3,4.7-3,4.9c-0.6,0.2-1.1,0-1.4-0.4s-0.1-7.4,0-8.6c0-1.2-0.7-2.1-1.3-2.1s-4.9-0.3-5.5,0c-0.6,0.2-0.5,1.1-0.5,1.1
	s-1.6-1-2.4-1.3c-0.7-0.3-4.7-0.9-8.5-0.1c-3.8,0.9-6.1,4.1-7.2,6.5s-1.3,6.1,0.2,9c1.6,2.9,4.9,5.6,9.3,6.6s9-1.4,9-1.4
	s3.7,0.7,5.8,0.5s4.8-1.6,7.1-4.1c2.4-2.5,3.1-5.3,4.3-10s0.2-7.9-1.3-11.2s-4.9-6-7.9-7.3C37.28,1,33.28,0,27.58,0
	c-5.8,0-8.4,0.6-12.1,2.1c-8.1,3.2-11.1,9-12.8,13.1s-2.7,10.9-2.2,14.8s2.4,7.4,5.7,11.4s7.8,7.2,12.7,8.6s11.8,0.5,18.5-1.3
	c6.6-1.8,11.9-7.3,12.5-8.5C50.68,39.3,50.28,37.8,49.78,36.6z M41.48,43.5c-0.3-0.3-3.4-5.3-3.6-5.2c-0.3,0.1-0.7,0.3-0.6,0.5
	c0.2,0.1,3.7,4.9,3.3,5.1c-0.4,0.2-0.7,0.6-0.8,0.3s-3.2-5.4-3.4-5.4c-0.3,0-0.7,0.4-0.7,0.5c0.1,0.1,3.8,5.2,3.4,5.3
	c-0.5,0.1-0.6,0.9-1,0.3s-3-4.8-3.3-4.8s-0.8,0.4-0.7,0.5s2.9,4.7,2.8,4.8s-0.8,0.6-0.9,0.4c-0.2-0.2-2.7-4.7-3-4.8
	c-0.3-0.2-0.8,0.3-0.7,0.4c0.1,0.1,2.9,4.6,2.7,4.7c-0.2,0.1-1,0.4-1.1,0.2c-0.1-0.1-2.4-4.4-2.9-4.4s-0.8,0.2-0.7,0.3
	s2.8,4.3,2.6,4.4s-0.9,0.4-1.1,0.2c-0.1-0.2-2.3-4.8-2.8-4.8s-0.9,0.1-0.7,0.4c0.2,0.3,2.4,4.5,2.4,4.5s-0.7,0.5-0.9,0.1
	c-0.3-0.4-2.8-4.4-3-4.5s-0.8,0-0.6,0.2s3.1,4.4,2.7,4.4c-0.4,0-0.6,0.5-0.9,0c-0.3-0.5-2.7-4.1-2.9-4.1c-0.2,0-0.7,0.1-0.6,0.4
	s2.4,3.7,2.1,3.7c-0.3,0-0.7,0.3-0.9,0s-2.6-4.2-3-4.2s-0.7,0.4-0.7,0.5s2.9,3.5,2.3,3.6c-0.5,0.1-1.1,0.3-1.3-0.1
	c-0.1-0.4-2-3.3-2.2-3.4c-0.3-0.1-0.8-0.2-0.7,0.1s2.4,3.3,1.7,3.3s-0.9,0.1-1.1-0.3c-0.2-0.4-1.6-3.1-1.7-3.1s-0.9,0.1-0.7,0.5
	c0.2,0.4,1.5,2.4,1,2.4s-7.1-2.3-11.3-6.6s-5.4-7.4-5.8-10.9s-0.2-7.7,1.1-11.5s3.7-8,6.7-10.7s8.2-5.9,18.5-5.5
	c4.7,0.2,9.8,0.7,13.7,3.2c3.9,2.6,6,6,6.6,10c0.5,4,0,7.3-1.4,10.8s-3.2,5.5-4.8,6.2c-1.6,0.6-5.4,1.3-6.1,0.7
	c-0.7-0.6-2.6-4.8-3.1-4.7s-0.5,0.5-0.4,0.8s2.1,3.6,1.6,3.5c-0.4,0-0.6,0.1-0.9-0.4c-0.3-0.5-2-5-2.4-5.1s-0.9,0.1-0.7,0.3
	s1.6,3.5,1.5,3.7c-0.1,0.1-0.3,0.7-0.5,0.5s-1.5-3-1.7-2.9s-0.6,0.5-0.4,1.1c0.3,0.5,1.5,2.5,1.4,2.6c-0.1,0.2-0.3,0.5-0.5,0.2
	s-1.4-2.9-1.6-3c-0.3-0.1-0.9,0.1-0.7,0.5s1.6,3,1.6,3.1s-0.5,0.5-0.7,0.2s-1.3-2.7-1.6-2.7s-0.6,0.1-0.4,0.6
	c0.2,0.4,1.2,2.4,1.2,2.5s-0.3,0.4-0.6,0.1c-0.3-0.3-1.5-3-1.8-3s-0.9,0.4-0.7,0.7c0.2,0.3,1.4,2.2,1.1,2.3s-0.3,0.4-0.6,0
	s-1.3-2.2-1.6-2.2c-0.3,0-0.8,0.3-0.6,0.5c0.2,0.2,1.4,1.9,1.1,1.9s-1.1,0-1.3-0.2c-0.2-0.2-1.3-2.4-1.5-2.4s-0.8,0.1-0.6,0.4
	c0.2,0.3,1,1.8,0.6,1.7s-3.5-1.2-5.4-3.3s-2.2-5.7-1.7-7.6c0.5-2,2.5-4.7,4.4-5.8s4.3-2,7.7-1.6c3.5,0.3,5.3,2.4,5.5,2.7
	s0.5,0.5,0.9,0.6s0.3,0,0.3-0.4s-0.2-2.2-0.1-2.3c0.1,0,4.5,0,4.7,0.3s0.1,3.5,0.2,5c0.1,1.5-0.6,4.5,0.5,5.4s1.9,0.9,2.9,0.4
	s2.7-2.3,3-4.4c0.4-2.1,0.8-5.9-2.4-9.3c-3.2-3.4-6-4.9-9.5-5.8c-3.5-0.8-9.7,0.3-12.6,1.3s-8,4.8-9.8,8.8s-1.9,9.2-1.5,11.4
	c0.4,2.1,3.1,6.7,5.2,8.4c2.2,1.7,5.9,3.7,10,4.2c4.2,0.5,10.5-1.5,11.2-1.7c0.6-0.2,3.1-1.2,3.4-1.1c0.3,0.1,3.5,5.2,3.5,5.3
	S41.78,43.8,41.48,43.5z M45.68,40.7c-0.2-0.4-2.6-4.8-3-4.7c-0.3,0.1-0.8,0.3-0.6,0.5s3,4.6,2.9,4.8s-0.4,0.7-0.8,0.4
	c-0.3-0.3-2.6-4.8-2.9-4.8c-0.3,0-0.7,0.4-0.7,0.6c0,0.1,3,4.6,2.9,4.8s-0.4,0.7-0.7,0.5c-0.2-0.1-2.2-3.9-2.5-4.4
	c-0.4-0.4-0.7-0.9-0.6-1.1s3.4-2,3.7-1.9s3.3,4.8,3.2,5S45.88,41.1,45.68,40.7z M46.98,39.9c-0.3-0.3-2.8-5.1-2.9-5.3
	c-0.1-0.2,0.8-0.4,0.9-0.4c0.1,0,3.2,4.5,3,4.8C47.78,39.3,47.18,40.2,46.98,39.9z M49.18,37.9c-0.2,0.3,0,0.8-0.4,0.5
	s-2.7-4.4-2.8-4.5s0.1-0.3,0.4-0.2C46.48,33.7,49.38,37.6,49.18,37.9z M26.08,18.9c-2.7-0.9-5.5-0.3-6.7,0.6
	c-3.1,2.4-2.4,5.4-0.6,7.6s4.7,2,7.2,1.2c2.5-0.7,3.3-2.7,3.5-4.5C29.78,22,28.78,19.8,26.08,18.9z M25.68,27.6
	c-2.5,0.5-3.9,0.5-5.2-0.6c-1.3-1.2-1.1-3.7,1-4.8c1.2-0.6,3.7-0.8,4.9-0.4c1.2,0.3,2,1.6,2,2S28.18,27,25.68,27.6z M19.78,18.2
	c0.4-0.2-0.2-0.9-0.5-0.8c-0.3,0.1-1.7,0.8-2.7,1.7s-1.4,2.6-1.2,3c0.1,0.3,0.7,0.2,1.1,0.1c0.4-0.1,0.3-1.1,0.8-2
	S19.28,18.4,19.78,18.2z M8.88,12.4c0.5-0.5,0.7-1.3-0.1-1.1c-0.8,0.2-3.8,3.9-4.5,6s-1,4.5-0.7,5c0,0,0.4,0,0.8,0
	c0.4-0.1,0.2-0.9,0.9-4C6.08,15.1,8.38,12.9,8.88,12.4z M36.88,16c-0.3-0.3-3-0.4-3.1-0.1c-0.2,0.4,0.1,0.6,0.1,0.6s1.6,0.1,1.9,0.1
	c0.3,0,0.1,2.4,0.1,2.9s0.4,0.3,0.8,0.3C37.18,19.7,37.28,16.3,36.88,16z M41.68,26.4c-0.3,0.2-1.7,0.8-2.7,0.6s-1.5-1.5-1.7-1.4
	c-0.8,0.3-0.3,1.4,0.6,1.9s1.8,0.3,3,0S41.98,26.2,41.68,26.4z"/>
<g>
</g>
<g>
</g>
<g>
</g>
<g>
</g>
<g>
</g>
<g>
</g>
<g>
</g>
<g>
</g>
<g>
</g>
<g>
</g>
<g>
</g>
<g>
</g>
<g>
</g>
<g>
</g>
<g>
</g>
</svg>
