<?xml version="1.0" encoding="iso-8859-1"?>
<!-- Generator: Adobe Illustrator 18.1.1, SVG Export Plug-In . SVG Version: 6.00 Build 0)  -->
<svg version="1.1" id="Capa_1" xmlns="http://www.w3.org/2000/svg" xmlns:xlink="http://www.w3.org/1999/xlink" x="0px" y="0px"
	 viewBox="0 0 48.021 48.021" style="enable-background:new 0 0 48.021 48.021;" xml:space="preserve">
<path id="desktop" d="M47.917,27.003c0-2-0.3-13.7-0.7-18.5s-1.8-5.7-2.9-6.5c-1.1-0.8-5.4-0.4-9.9-0.4h-20.9
	c-6.4,0-10,0.2-11.9,1.2s-1.6,3.8-1.6,6.8c0,2.9,0.6,11.6,0.6,15.5c-0.1,3.9,0.3,6.7,0.8,8c0.7,2,3.2,2.2,4.7,2.4
	c1.6,0.3,12-0.3,12.5-0.1s0.3,3.5,0.4,4s-4.8-0.1-5.3,0.3c-0.5,0.3-0.4,3.3-0.3,3.7s1.3,2.6,1.6,2.9c0.3,0.3,1.1,0.2,4.4,0.2
	c3.3-0.1,14.2-0.2,15.1-0.6s-0.2-4.8-0.4-6s-4.4-0.9-5-1.1c-0.6-0.2-0.3-3.1-0.3-3.1s2.2-0.1,4,0s9.1,0,12.5-1
	C48.817,33.602,47.917,29.003,47.917,27.003z M32.517,40.303c0.1,0.3,0.5,3.2,0.2,3.3s-11.6,0.2-12.5,0.1c-0.9,0-5.3,0.2-5.5,0
	c-0.3-0.3,0-3,0.1-3.1s4,0,4.7-0.2c0.7-0.2,0.8-0.6,0.8-1.2c0-0.6-0.4-4.7-0.1-5s7.7-0.4,7.7,0s-0.5,5.2,0.4,5.5
	C29.217,40.003,32.417,40.003,32.517,40.303z M46.617,22.602c0,3.2-0.1,5.6-1,7.2c-0.9,1.6-2.8,2.7-5.8,2.9
	c-2.9,0.2-20.9,0.2-24.5,0.3s-11,0.9-12.7-1.2c-0.4-0.6-0.8-1.8-0.9-2.9s0-10.4-0.2-14.7s-0.4-8.4,0.3-9.6c0.7-1.2,2.5-1.8,4.9-2
	s9.5,0,14.7,0s13,0,15.4,0.2c2.5,0.1,6.4,0.2,7.2,0.5c0.9,0.4,1.6,1.2,2.1,6.8S46.617,19.303,46.617,22.602z M7.517,4.403
	c-0.1-0.4-2.2-0.4-3.6-0.1c-1.3,0.3-1.6,1.8-1.6,2.8s0.2,2.4,0.4,2.8c0.2,0.2,0.6,0.2,0.8-0.1c0.2-0.2,0-1.1,0-1.5
	c0-0.4-0.1-2.2,0.5-2.7s2.7-0.2,3.2-0.2S7.617,4.803,7.517,4.403z M43.917,28.102c-0.3-0.1-0.8,0.8-1.4,1.2
	c-0.6,0.5-2.2,0.9-2.3,1.2c-0.2,0.4,0.1,0.7,0.4,0.9c0.3,0.2,1.1-0.3,2.7-1.2C44.917,29.303,44.317,28.203,43.917,28.102z
	 M41.917,22.503c-0.3-4.3-0.8-12.9-0.9-14.7c0-1.8-2-1.6-6.9-1.6s-16.2,0-21.4,0.1s-5.8,0.3-6.4,0.8c-0.8,0.6-0.5,3.8-0.3,6.2
	s0.4,13.1,0.4,14s0.5,1.8,1,2.1s6.7,0,12.8,0s17.1-0.3,17.9-0.2c0.8,0,3,0.1,3.7-0.4C42.617,28.203,42.217,26.903,41.917,22.503z
	 M40.917,27.903c-0.3,0.1-8.6,0.1-17.4,0.3c-8.7,0.2-15,0.4-15.4,0c-0.5-0.3-0.5-8.3-0.8-11.2s-0.5-8.4,0.1-9c0.3-0.3,2-0.9,4.7-0.8
	s12.7-0.1,18-0.1s9.1,0.1,9.4,0.4c0.3,0.3,0.5,1.8,0.5,2.6c0.1,0.8,0.7,10.5,1,13.5C41.317,26.803,41.217,27.903,40.917,27.903z
	 M10.117,21.102c-0.5,0.7,3.6,5.3,3.8,5.1c0.5-0.5-2.6-4.8-2.9-5C10.817,21.003,10.517,20.403,10.117,21.102z M11.817,16.703
	c-0.3,0.1-0.4,0.2-0.4,0.4s1.4,1.7,2.2,2.5c0.7,0.7,6.2,6.8,6.5,6.8c0.3,0,0-0.5-0.5-1.1C19.017,24.703,12.017,16.602,11.817,16.703
	z M24.617,23.703c-0.9-0.8-9.9-10.9-10.3-11.1s-0.8,0.6-0.6,0.8c0.2,0.2,2.4,2.3,3.8,3.5s7.5,8.3,8,8.2
	C26.017,25.102,25.517,24.602,24.617,23.703z M27.917,22.003c-1-0.9-10-10.8-10.6-11.1c-0.6-0.2-0.6,0.4-0.4,0.7c0.1,0.2,2,2,3.1,3
	c1.1,1.1,8.8,8.9,9.1,8.9C29.417,23.503,28.817,22.903,27.917,22.003z M22.217,10.203c-0.4-0.4-0.8,0.4-0.6,0.7
	c0.2,0.2,2.5,2.7,4.2,4.7s7.3,8.9,7.7,8.7s0.2,0-1.8-2.6C29.517,19.102,22.617,10.602,22.217,10.203z M27.417,10.503
	c-0.3-0.1-0.5,0.3-0.4,0.6c0,0,2.3,2.5,2.9,3.1c0.6,0.7,6.9,8.5,7.2,8.2c0.3-0.2,0.1-0.4-1-1.7
	C35.017,19.403,27.717,10.602,27.417,10.503z M32.417,9.403c-0.4-0.1-0.8,0.7-0.6,0.9s5.9,6.8,6,6.9s0.3,0,0.2-0.5
	C37.917,16.203,32.817,9.602,32.417,9.403z"/>
<g>
</g>
<g>
</g>
<g>
</g>
<g>
</g>
<g>
</g>
<g>
</g>
<g>
</g>
<g>
</g>
<g>
</g>
<g>
</g>
<g>
</g>
<g>
</g>
<g>
</g>
<g>
</g>
<g>
</g>
</svg>
