<?xml version="1.0" encoding="iso-8859-1"?>
<!-- Generator: Adobe Illustrator 18.1.1, SVG Export Plug-In . SVG Version: 6.00 Build 0)  -->
<svg version="1.1" id="Capa_1" xmlns="http://www.w3.org/2000/svg" xmlns:xlink="http://www.w3.org/1999/xlink" x="0px" y="0px"
	 viewBox="0 0 48.607 48.607" style="enable-background:new 0 0 48.607 48.607;" xml:space="preserve">
<path id="delicious" d="M48.143,37.596c0.1-5.5-0.7-32.4-0.7-33.4c0-1.1-1.1-2.8-2.2-3.7c-1.1-0.9-11-0.3-15.4-0.3
	c-4.4,0.1-21,0.2-23.4,0.1s-5.3,0-5.4,0.6c-0.1,0.7,0.2,4.7,0.2,7.1s0.3,11.8,0.1,16.4s-0.7,16.9-0.9,19.4c-0.1,2.5,1.7,4.5,2.2,4.5
	s8.3,0.3,12.8,0.3c4.5,0.1,27.3-0.5,28.6-0.5s2.9,0.3,3.7-0.3C48.443,47.296,48.043,43.096,48.143,37.596z M37.543,45.196
	c-0.3,0-1.5,0.2-1.7-0.1c-0.2-0.2-1.5-3.2-1.5-3.3c0.1-0.1,0.7-0.3,0.9-0.1C35.543,41.896,37.843,45.196,37.543,45.196z
	 M39.943,40.196c-0.6,0.1-4.4,0.3-6.4,0.4c-2.7,0.1-7,0-7.3-0.3c-0.2-0.3,0-11,0.4-11.8c0.3-0.8,1.1-1.3,3.2-1.4
	c2.1-0.2,6.4,0,8.2,0s2.6,0.2,2.7,0.3c0.1,0.2-0.2,10.3-0.2,11.3C40.443,39.696,40.443,40.096,39.943,40.196z M39.543,44.996
	c-0.3,0.1-1.1,0.2-1.3,0c-0.2-0.1-2-3.2-2-3.4c0-0.2,1.2-0.1,1.3,0C37.743,41.696,39.843,44.896,39.543,44.996z M41.643,45.196
	c-0.3,0-1,0-1.2-0.1s-2.1-3.3-2.1-3.5s0.8-0.3,0.9-0.1C39.243,41.596,41.943,45.196,41.643,45.196z M43.343,44.996
	c-0.3,0-0.9,0.2-1.1,0c-0.2-0.3-1.9-3.6-1.9-3.7c0,0,0.4-0.3,0.6-0.2C41.143,41.196,43.643,44.996,43.343,44.996z M45.243,44.996
	c-0.2,0-0.8,0.1-1,0s-2.6-4.4-2.8-4.7c-0.1-0.2,0-1.6,0.2-1.5c0.2,0,3.4,4.9,3.6,5.3C45.343,44.396,45.443,44.996,45.243,44.996z
	 M45.343,35.996c-0.1-0.1-2.8-5.1-3-5c-0.2,0.2-0.2,0.9-0.2,1s3.2,4.7,3.2,4.8s0.1,3.1,0,2.9c-0.1-0.1-3-4.8-3.1-4.8
	s-0.3,0.5-0.3,0.6s3.3,4.9,3.3,5.1s0.1,2.6,0,2.5s-3.1-5.5-3.2-5.5s-0.4,0.4-0.4,0.4s0.1-8.6,0.1-10.9s-0.3-3-1.3-3.2
	s-5.9-0.6-9.7-0.6s-7.5-0.7-7.7,1.6c-0.1,2.3-0.2,13-0.2,14.1c0,1,0.3,2.1,0.8,2.3c0.5,0.2,3.7,0.2,6,0.3c2.3,0.1,3.6,0.3,3.6,0.3
	l1.8,3.1c0,0-1,0.1-1.2-0.1s-1.3-2.5-1.6-2.6c-0.2,0-0.8,0-0.7,0.4s1.5,2.3,1.3,2.4c-0.3,0.1-1,0.1-1.1,0s-1-2.8-1.4-2.8
	c-0.3,0-0.9,0.1-0.8,0.4s1.3,2.4,1.1,2.4s-1.2,0-1.2,0s-1.5-2.9-1.7-2.9s-0.8,0.1-0.7,0.3c0.1,0.3,1.4,2.7,1.4,2.7s-1.1,0-1.1-0.1
	c-0.1-0.1-1.3-3-1.5-3s-0.9,0-0.7,0.4c0.1,0.3,1.4,2.6,1.3,2.6c-0.1,0-0.7,0-0.7,0s-1.8-3.4-2.2-3.5s-0.8,0.5-0.8,0.5s2.1,3.1,1.8,3
	s-1.4-0.1-1.4-0.1s-3.2-6.1-3.4-6.3c-0.3-0.2-1,0-1,0.2c0.1,0.1,3.4,6,3.3,6s-0.8,0-0.8,0s-3.2-6.8-3.5-6.9s-0.8,0.1-0.7,0.2
	c0,0.2,3.8,6.7,3.4,6.7s-1.3,0-1.4,0c-0.1-0.1-3-6.5-3.2-6.6c-0.2-0.1-0.8-0.1-0.8,0.3s2.9,6.4,2.8,6.4c-0.2,0-0.6,0-0.6,0
	s-3-5.9-3.4-5.9s-0.8,0.6-0.8,0.8c0,0.2,3.3,5.1,3.1,5.1c-0.2,0-1.3,0.2-1.4,0.1c-0.2-0.1-2.5-5.1-2.7-5.1s-0.6,0.4-0.5,0.5
	s2.7,4.7,2.5,4.7s-0.6,0.1-0.7-0.1s-2.3-4.2-2.5-4.2c-0.2-0.1-0.7,0.4-0.6,0.6c0,0.2,2.3,3.7,2.2,3.7c-0.1,0-0.6,0.1-0.7,0
	s-1.5-2.7-1.7-2.7s-0.4,0.5-0.3,0.7c0.1,0.3,1.3,2,1.2,2c-0.1,0-0.5,0.1-0.6,0s-1-1.6-1.1-1.7c-0.2,0-0.5,0.4-0.3,0.5
	c0.1,0.1,0.9,1.3,0.8,1.3s-4.1,0.1-5.5,0s-2.2-0.5-2.3-1.2c-0.1-0.7,0.2-8,0.7-13.6s0.4-7.5,0.2-14s-0.4-14.5-0.3-15.2
	c0.1-0.3,3.8-0.1,5.2-0.1s11.9-0.1,18.1-0.2s16.7-0.3,17.3-0.3s1.8,0,1.9,0.4c0.1,0.4,0.4,6.5,0.2,6.5c-0.1-0.1-0.3-0.3-0.5-0.2
	c-0.2,0.1-0.5,0.8-0.4,1s1,1.1,1,1.5s0.2,0.8,0,0.8c-0.1,0-1.4-2.4-1.7-2.2c-0.3,0.2-0.4,0.6-0.2,0.9c0.1,0.3,2.1,2.6,2.1,3.2
	s0,2.1-0.1,1.8c-0.1-0.2-2.5-4.4-2.7-4.3c-0.2,0.2-0.5,0.6-0.4,0.9s3.1,4.6,3.1,4.8c0.1,0.3,0.1,2.4,0,2.4s-3.6-6.3-3.8-6.2
	c-0.3,0.2-0.6,0.7-0.5,0.9c0.1,0.1,4.4,6.4,4.4,6.6s0,2-0.2,2s-3.9-6.6-4.1-6.6c-0.2,0-0.5,0.7-0.3,1s4.5,6.6,4.5,6.7s0.1,2.5,0,2.5
	c-0.2,0-4.9-7.6-5.1-7.5c-0.2,0.1-0.4,0.7-0.4,0.7s5.5,7.2,5.5,7.3c0,0.1,0.1,2.3,0.1,2.3l-2.5-4.2l-0.3,0.9c0,0,3.1,4.4,3,4.5
	c0,0.1,0.1,2.3,0,2.3s-2.5-4.8-2.7-4.7c-0.2,0.1-0.3,1-0.2,1.2s3,4.3,3,4.4C45.243,32.596,45.443,36.096,45.343,35.996z
	 M4.343,43.296c-0.2,0-0.2-3.1-0.2-3.5s-0.7-0.5-0.9-0.1s-0.2,4.8,0.1,4.9c0.7,0.3,1.9-0.4,2.4-0.5c0.5-0.1,0.9-0.7,0.8-0.9
	C6.543,43.096,4.543,43.296,4.343,43.296z M4.043,10.396c0.6,0.2,0.8-0.1,0.9-0.3c0.1-0.2,0-5.4,0-5.7c0-0.3,0.3-0.4,1-0.5
	c0.7,0,3.7-0.2,4-0.2s0.5-0.9,0-1s-4.1,0-5.4,0.2s-0.9,3.4-0.8,4.8C3.743,9.296,3.743,10.396,4.043,10.396z M22.143,6.096
	c-0.9-0.2-7.2-0.5-10.9-0.6c-3.7,0-4.1,0.6-4.5,1c-0.5,0.5-0.5,2.4-0.5,4.4c0,2.1-0.4,10.8-0.3,11.9c0.1,1.2,0.5,1.2,2.3,1.2
	c1.7,0,8,0,11.2,0s3-0.3,3.4-0.7c0.4-0.4,0.8-12.7,0.9-14.7C23.843,6.596,23.043,6.296,22.143,6.096z M22.243,20.196
	c-0.2,2.3,0,2.5-0.6,2.7c-0.5,0.2-3.3,0.1-7.1,0.1s-5.1,0.1-5.2-0.2c-0.2-0.3-0.4-11.2,0.9-12.9c0.4-0.5,1.8-0.8,3.5-0.9
	c1.7,0,8.1,0.5,8.7,0.7C22.843,9.896,22.443,17.896,22.243,20.196z M42.643,3.596c0.2,0,0.3,2.2,0.3,2.5c0.1,0.3,0.8,0.2,1,0.1
	s0-3.1-0.3-3.5c-0.3-0.3-5-0.2-5.1,0.1c-0.1,0.3-0.1,0.7,0.1,0.8S42.443,3.596,42.643,3.596z"/>
<g>
</g>
<g>
</g>
<g>
</g>
<g>
</g>
<g>
</g>
<g>
</g>
<g>
</g>
<g>
</g>
<g>
</g>
<g>
</g>
<g>
</g>
<g>
</g>
<g>
</g>
<g>
</g>
<g>
</g>
</svg>
