<?xml version="1.0" encoding="iso-8859-1"?>
<!-- Generator: Adobe Illustrator 18.1.1, SVG Export Plug-In . SVG Version: 6.00 Build 0)  -->
<svg version="1.1" id="Capa_1" xmlns="http://www.w3.org/2000/svg" xmlns:xlink="http://www.w3.org/1999/xlink" x="0px" y="0px"
	 viewBox="0 0 47.71 47.71" style="enable-background:new 0 0 47.71 47.71;" xml:space="preserve">
<path id="deviant_x5F_art" d="M39.258,31.468c0-2.1-0.7-2.3-1.1-2.4s-8.2-0.1-8.3-0.1s2.3-4.5,5.1-8.3c2.7-3.8,3.3-5.3,3.5-7.2
	c0.3-1.9-0.2-10.6-0.4-11.8c-0.1-1.2-1-1.1-2.3-1.5s-3.5,0-4.2,0.3s-2.4,3.2-3.4,4.7s-3.1,5.1-3.7,5.5s-7.3,0.4-9.8,0.3
	s-4,0.1-5.1,0.7s-0.9,2.8-0.8,3.2s0.6,6.3,0.7,6.6s1,1.9,1.5,2.2c0.6,0.3,6.6-0.1,6.8,0.1s-1.7,2.5-2.8,4.4
	c-1.2,1.9-6.4,9.6-6.5,10.1s1.1,8.7,1.5,9.2s7.5,0.1,8-0.1s4.3-6.5,4.6-6.7s13.3-0.2,13.9-0.2c0.6,0,2.3-2.3,2.5-2.6
	S39.258,33.568,39.258,31.468z M38.258,37.468c-0.3,0.1-0.4,0.3-0.5,0s-4-5.3-4.4-5.3s-0.8,0.4-0.7,0.6s4.3,4.7,4.1,4.7
	s-0.8,0.1-0.9,0s-3.5-4.4-3.8-4.5s-0.8,0.1-0.5,0.5s3.5,4,3.2,4s-1.1,0.1-1.3,0s-2.9-3.9-3.3-3.9s-0.8,0.2-0.4,0.6
	c0.3,0.4,3.3,3.4,3,3.4s-1.4,0.1-1.5,0s-1.9-2.6-2.5-2.6s-0.9,0.4-0.6,0.6s2.2,2,2,2s-1.1,0.1-1.3,0s-1.2-1.7-1.6-1.8
	s-0.6,0.4-0.4,0.5s1.3,1.3,1.1,1.3c-0.3,0-0.8,0.1-0.9,0s-1.1-1.4-1.2-1.4s-0.2,0.7-0.1,0.8s0.7,0.6,0.4,0.6s-4.6,0-4.9,0
	s-3.4,4.8-4.5,6.3c-1,1.5-1.2,1.6-1.4,1.7s-4.7,0.5-5,0.1s-1.2-7-1.1-7.3c0.2-0.3,6.8-10.6,8.6-13.1s2.6-3.3,2.5-3.9
	s-0.7-0.4-1.1-0.4s-7.5,1.1-8.4,0.7c-0.2-0.1-0.6-1.6-0.9-4.1s-0.5-4.5,0.3-5s2.1-0.6,5.1-0.7c2.9-0.1,8.6-0.2,9.2-0.2
	s1.5-1.1,2.1-2.2c0.7-1.1,3.3-5.2,3.8-6.1s1.2-1.8,1.7-2s3.4-0.2,3.9,0s0.7,0.3,0.7,0.7c0,0.4,0.1,1.9-0.1,1.7
	c-0.2-0.2-0.4-0.8-0.6-0.5s-0.5,0.5-0.2,0.8s0.9,1.1,1,1.4c0.1,0.4,0.3,1.5,0.1,1.2s-1.2-2.1-1.4-2s-0.7,0.4-0.4,0.8
	s1.8,2.5,1.8,2.6c0,0.1,0.1,2.1-0.1,1.9c-0.1-0.2-1.8-3.5-2-3.5s-0.7,0.4-0.5,0.6s2.3,3.5,2.2,3.9s-0.2,1.4-0.4,1.2
	s-1.6-3.6-1.9-3.6s-0.9,0.3-0.6,0.7s2.2,3.3,2.1,3.6s-0.1,1-0.4,0.7c-0.3-0.3-2.1-3.5-2.3-3.5s-0.8,0.3-0.6,0.5s2.6,3.5,2.6,3.8
	s-0.4,1.1-0.5,0.9s-2.2-3.5-2.6-3.5c-0.3,0.1-0.5,0.4-0.5,0.5s2.6,3.5,2.6,3.8c0,0.3-0.5,1.4-0.7,1.2s-2.2-3.1-2.5-3
	s-0.4,0.4-0.3,0.7s2.5,2.8,2.5,3.1c-0.1,0.3-0.2,1.4-0.6,1.2c-0.4-0.1-2.4-3.1-2.6-3.1s-0.6,0.4-0.5,0.6s2.8,3,2.7,3.3
	s-0.5,1.2-0.7,0.9s-2.4-2.9-2.6-2.9s-0.5,0.5-0.3,0.8s2.4,2.6,2.3,3s-0.4,1.4-0.6,1c-0.3-0.4-1.6-2.5-2-2.5s-0.5,0.6-0.3,0.9
	s1.9,2,1.8,2.2s-0.3,0.9-0.4,0.8s-1.6-2.3-1.9-2.3c-0.4,0-0.6,0.2-0.4,0.4c0.2,0.2,2.2,2.4,2.1,2.5s-0.4,1-0.6,0.8s-1.4-1.7-1.7-1.6
	s-0.4,0.4-0.1,0.8c0.3,0.4,1.3,1.6,1.2,1.8s-1.9,2.8-1.6,3s1.3,0.1,3.1,0.1s6.4,0.1,7,0.1s1.2,0,1.2,0.4s0.3,4.4,0.2,4.3
	s-2.8-3.4-3.1-3.4s-0.6,0.3-0.4,0.6c0.2,0.3,3.6,4,3.6,4.2S38.558,37.368,38.258,37.468z M37.558,32.468c0.1,0.1,0.2-0.4,0.2-0.7
	c0-0.3-1.2-1.6-1.4-1.5s-0.4,0.3-0.4,0.4C36.058,30.868,37.458,32.468,37.558,32.468z M13.158,13.068c-1.8,0-1.9,0.7-1.9,1.2
	s0.1,4.4,0.3,4.5s0.9,0.2,0.9,0c0-0.3-0.1-3.7,0.1-4.3s1.8-0.3,2-0.3s0.8-0.4,0.6-0.8C15.058,12.968,14.958,13.068,13.158,13.068z
	 M31.458,6.468c0.3-0.2,1.6-2.6,1.7-2.7c0.1-0.1,1.1,0,1.4,0c0.3,0,0.4-0.8,0.1-1c-0.3-0.2-1.5-0.3-1.8-0.1s-2.5,3.2-2.4,3.4
	C30.558,6.368,31.158,6.768,31.458,6.468z"/>
<g>
</g>
<g>
</g>
<g>
</g>
<g>
</g>
<g>
</g>
<g>
</g>
<g>
</g>
<g>
</g>
<g>
</g>
<g>
</g>
<g>
</g>
<g>
</g>
<g>
</g>
<g>
</g>
<g>
</g>
</svg>
