<?xml version="1.0" encoding="iso-8859-1"?>
<!-- Generator: Adobe Illustrator 18.1.1, SVG Export Plug-In . SVG Version: 6.00 Build 0)  -->
<svg version="1.1" id="Capa_1" xmlns="http://www.w3.org/2000/svg" xmlns:xlink="http://www.w3.org/1999/xlink" x="0px" y="0px"
	 viewBox="0 0 45.22 45.22" style="enable-background:new 0 0 45.22 45.22;" xml:space="preserve">
<path id="digg" d="M17.8,14.96c-0.3-0.1-2.7-0.2-3.1-0.2s-1,0.4-1.1,0.4s-0.1-1.7,0-1.8s0.4,0.2,0.6,0.4c0.2,0.1,0.2,0.2,0.7,0.3
	c0.5,0.1,3.4,0,3.9-0.1s0.3-3.7,0.1-3.9c-0.2-0.2-1.1-0.6-1.5-0.7s-3.5,0.1-3.7,0.1s-0.1-1.6-0.2-1.8s-1.4-0.6-2.6-0.6
	s-3.3,0.3-3.6,0.6c-0.2,0.2-0.1,6.8-0.1,6.9s-0.2,0.1-2.3,0.2s-3.9,0.3-4.3,0.6c-0.6,0.4-0.5,1.5-0.5,2.9S0,27.96,0,28.56
	c0.1,0.6,0.9,2.8,1.3,3.2c0.4,0.4,1.9,0.3,4,0.4s5.7,0.2,6.1,0.2s1.2-0.3,1.3-0.6c0.1-0.3,0.2-5.5,0.2-5.5s0.3,4.6,0.3,4.9
	s0.5,0.6,0.7,0.7s1.6-0.2,2.1-0.2s2.6,0.2,2.7,0.2c0.2,0,0.3-0.2,0.3-0.8c0-0.6-0.1-13.4-0.1-14.3C19.2,15.56,18.1,15.06,17.8,14.96
	z M14.6,10.26c0.1-0.2,2-0.1,2.2,0s0.3,1.7,0.1,1.8c-0.2,0.1-2,0.4-2.3,0.2C14.2,12.06,14.5,10.36,14.6,10.26z M11.6,18.36
	c0,1.5-0.1,2.7-0.3,2.7c-0.1,0-1-1.9-1.3-1.8s-0.6,0.7-0.5,0.8c0.1,0.1,1.6,2.2,1.6,2.5s0,1.2-0.1,1.1s-1.2-2.9-1.5-2.7
	c-0.4,0.1-0.4,0.7-0.3,1c0,0.3,1.8,3.1,1.8,3.3c0,0.2,0.2,1.4,0,1.2c-0.2-0.1-1.4-2.7-1.6-2.7c-0.2,0.1-0.7,0.5-0.4,0.9
	c0.2,0.4,1.7,3,1.8,3.4c0.1,0.4,0.2,1.5-0.1,1.5c-0.3,0-2.1-4.1-2.3-4.1c-0.2,0-0.7,0.3-0.5,0.5s2.1,3.5,2,3.5c-0.2,0-1,0-1.2-0.1
	s-1.6-2.9-1.8-2.9c-0.2,0-0.6,0.3-0.5,0.5s1.4,2.3,1.3,2.3s-0.5,0.1-0.6,0c-0.2-0.1-1.5-2.4-1.8-2.4s-0.6,0.2-0.5,0.4
	c0.1,0.2,1.4,2,1.3,2s-1.2,0.1-1.4,0c-0.3-0.1-1.2-2.3-1.4-2.4s-0.8,0.3-0.7,0.4c0.1,0.2,1,1.9,0.8,1.9c-0.1,0-1.2-0.1-1.6-0.3
	c-0.4-0.2-0.5-1.5-0.4-3.4c0-1.9,0.1-9.4,0.4-9.9c0.2-0.3,2.1-0.3,3.4-0.3s3.2,0.1,3.4-0.4s0.2-5,0.2-5.6s0.1-1.3,0.2-1.4
	s2.9-0.2,3,0C12.1,8.06,11.6,16.76,11.6,18.36z M17.8,24.66c-0.1-0.1-0.9-1.5-1.2-1.5c-0.3,0.1-0.6,0.5-0.4,0.7s1.4,2.1,1.4,2.3
	s-0.1,1.4-0.1,1.2c0-0.2-0.9-1.8-1.2-1.8c-0.3,0-0.5,0.7-0.3,0.9c0.2,0.2,1.5,2.1,1.4,2.3c-0.2,0.1-0.6,0.2-0.9,0.1
	c-0.3-0.2-1.2-1.9-1.3-2s-0.7,0.2-0.5,0.5c0.2,0.2,1.1,1.6,0.9,1.6s-1.1,0.1-1.2-0.1s-0.3-7.5-0.3-9.1s-0.2-3.3-0.1-3.7
	c0-0.1,1.2-0.1,2.1-0.1s1.4,0.1,1.4,0.2C17.5,16.16,17.9,24.76,17.8,24.66z M4.4,19.26c-0.6,0.3-0.4,4.6-0.4,5.1
	c0.1,0.5,0.3,1,0.6,1.1s2.8-0.4,3-0.6s0.1-5.8-0.1-5.8C7.4,19.06,4.7,19.06,4.4,19.26z M6.8,24.16c-0.1,0.1-0.4,0.2-0.5,0
	s-0.1-3.2-0.1-3.4c0-0.2,0.6-0.1,0.6,0.1C6.8,20.96,6.9,24.06,6.8,24.16z M4.8,16.26c-0.1-0.2-2.4,0.1-2.7,0.1s-0.3,2.3-0.3,2.8
	s0.4,0.7,0.7,0.7c0.5,0,0.4-2.1,0.4-2.4s1.5-0.4,1.9-0.5C5.1,16.96,4.9,16.46,4.8,16.26z M15.1,17.96c0,0.2-0.4,3.9-0.3,4.2
	c0.1,0.3,0.3,0.4,0.6,0.4c0.3,0,0.7-0.3,0.8-0.8c0.1-0.5,0.2-3.5,0-3.8C16,17.66,15.1,17.66,15.1,17.96z M44.9,27.46
	c-0.1-3.6,0.3-9.7,0.3-10.3c-0.1-0.6-1.1-1.5-1.7-1.9c-0.6-0.4-2-0.6-4.3-0.7c-2.3-0.1-5.7-0.1-6.2,0s-1,1.4-1,1.4
	c0-0.2-0.3-0.7-0.6-0.8c-0.4-0.2-1.6-0.2-2.7-0.2c-1.1,0-4.2-0.1-5.2-0.1c-1.1,0-2.4,0.6-2.7,1.1c-0.2,0.3-0.2,2.1-0.2,3.7
	s0.2,7.8,0.3,9.7c0,0.1,0,0.3,0,0.4c0.1,0.3,0.3,0.6,0.5,0.7c0.4,0.2,3.6,0.1,4.4,0.1c0.8,0,1.4-0.2,1.4,0c0.1,0.2,0.3,1.1-0.1,1.1
	c-0.4,0.1-4.8,0.2-5.4,0.2c-0.2,0-0.4,0-0.6,0c0,0-0.1,0.1-0.2,0.1c-0.2,0.1-0.2,3.3-0.1,3.5s0.7,2.4,0.9,2.5
	c0.2,0.1,1.7,0.1,3.6,0.1c1.9-0.1,6.6,0.1,6.9,0.1c0.3,0,0.5-0.3,0.5-0.7s-0.2-7.1-0.2-7.3s0.2-0.9,0.2-0.9s0.4,0.6,0.6,0.8
	c0.2,0.2,0.3,0.1,1,0.2c0.7,0.1,5-0.2,5.1-0.1c0.2,0.1,0.1,1.1-0.1,1.4c-0.2,0.3-4.6,0.2-5.1,0.2s-1.3,1-1.2,1.3s0.5,3.3,0.6,3.5
	s0.9,0.3,2.8,0.4c2,0.1,6.1,0.2,7.1,0.2s1.6-0.5,1.7-1.3C45.3,35.06,45,31.06,44.9,27.46z M30.7,36.16c-0.3-0.1-0.3-0.1-0.3-0.1
	s-1.3-3.3-1.6-3.3s-0.7,0.3-0.6,0.4s1.5,3,1.3,3s-0.8-0.1-0.8-0.1s-1.4-2.7-1.6-2.7c-0.3,0-0.8,0.3-0.7,0.6s1,1.9,0.9,1.9
	s-0.9,0.1-1.1-0.1s-0.8-1.8-1.2-1.9s-0.7,0.2-0.6,0.3c0.1,0.1,1,1.6,0.7,1.6s-1.1,0.1-1.2-0.1s-0.6-1.5-0.8-1.5
	c-0.2-0.1-0.8-0.2-0.8,0.1c-0.1,0.3,0.8,1.5,0.6,1.5s-1.1,0.1-1.2-0.1c0-0.2-0.1-3,0-3c0.2,0,5.1-0.1,5.4-0.1
	c0.3-0.1,0.7-0.4,0.7-1.7c0-1.3,0.1-1.8-0.2-1.9c-0.3,0-2.7,0.2-3.8,0.2s-1.9,0.3-2.1-0.1c-0.3-0.3-0.3-2.1-0.4-6.7s-0.2-6.1,0-6.4
	s1.1-0.5,2.2-0.5c1.1,0.1,5.8,0.2,6.3,0.3c0.5,0.1,0.8,0.2,1,0.5s0.1,9.5,0.2,10.7c0,1.2-0.1,2-0.1,2l-0.7-1
	c-0.1,0.1-0.3,0.5-0.3,0.6c0.1,0.1,0.9,1.7,0.9,1.7l0.1,2.7c0,0-1.3-2.4-1.4-2.3s-0.4,0.7-0.3,0.8c0.1,0.2,1.9,4,1.9,4
	S31,36.26,30.7,36.16z M41,34.86c-0.3,0-1.2,0.2-1.4,0c-0.2-0.2-1-1.7-1.3-1.8c-0.3,0-0.7,0.1-0.6,0.3c0.1,0.2,0.9,1.5,0.8,1.5
	c-0.1,0-0.9,0.1-1,0s-0.9-1.7-1.1-1.7s-0.9,0.3-0.7,0.4c0.2,0.1,1,1.4,0.9,1.4s-1.9,0.1-2.1,0c-0.3-0.1-0.4-0.5-0.5-0.9
	c0-0.3-0.1-1.3,0.1-1.3c0.1,0,5.7-0.3,5.9-0.1C40.2,32.96,41.3,34.86,41,34.86z M42.9,33.56c-0.2-0.1-1-2-1.1-1.9s-0.6,0.6-0.6,0.7
	s1.4,2.5,1.3,2.5c-0.1,0-0.5,0.1-0.6,0s-1.4-2.4-1.4-2.4s0.1-2.4,0-2.5s-0.3-0.7-0.6-0.7c-0.3,0-5.4,0.2-5.8,0.1s-0.7-0.2-0.8-0.7
	s-0.3-4.6-0.4-7.7c-0.1-3.1-0.2-5-0.1-5.2c0.1-0.2,2.2-0.3,3.3-0.3s5.3,0.4,5.9,0.5c0.6,0,0.5,0.1,0.5,0.6s0.2,10.4,0.2,10.4
	s-0.4-1.2-0.7-1.1c-0.3,0.1-0.6,0.4-0.6,0.5c0.1,0.1,1.2,2.2,1.2,2.4c0,0.2,0.1,1.5,0.1,1.5s-0.9-1.8-1.1-1.8s-0.6,0.6-0.5,0.8
	s1.6,2.7,1.6,2.9C43,32.26,43.1,33.66,42.9,33.56z M24.3,20.26c-0.2,0.5-0.3,6.1-0.1,6.3c0.2,0.2,3.1,0.3,3.5,0.2
	c0.4-0.1,0.1-6.2-0.2-6.6C27.2,19.86,24.4,19.96,24.3,20.26z M26.9,25.86c-0.1,0-0.3,0.2-0.5-0.1s-0.3-4.3-0.3-4.3
	c0.1-0.1,0.4-0.2,0.6,0S27,25.86,26.9,25.86z M36.3,20.36c-0.2,0.5,0,5.8,0.4,6c0.4,0.3,3.4,0,3.6-0.1s-0.3-5.6-0.5-5.9
	C39.5,20.06,36.4,20.26,36.3,20.36z M39.2,25.46c-0.2,0-0.7,0.3-0.8,0s0-3.4,0.1-3.8c0.1-0.2,0.5-0.1,0.6,0.1S39.3,25.46,39.2,25.46
	z M37,18.06c0.4,0.1,0.5-0.4,0.3-0.8c-0.2-0.4-0.5-0.4-1.5-0.4s-1.7,0.5-1.8,0.7c-0.1,0.3,0,5,0.1,5.1c0.2,0.1,0.6,0.1,0.8,0.1
	c0.2,0,0.1-4.5,0.1-4.7C35.1,17.86,36.7,17.96,37,18.06z M24.8,17.96c0.2,0,0.3-0.6,0.1-0.7c-0.2-0.2-2.6-0.2-2.8-0.1
	c-0.2,0.2-0.2,6,0.1,6.2c0.2,0.1,0.7,0.1,0.8,0c0.1-0.1,0-5.1,0-5.3S24.6,17.96,24.8,17.96z"/>
<g>
</g>
<g>
</g>
<g>
</g>
<g>
</g>
<g>
</g>
<g>
</g>
<g>
</g>
<g>
</g>
<g>
</g>
<g>
</g>
<g>
</g>
<g>
</g>
<g>
</g>
<g>
</g>
<g>
</g>
</svg>
