<?xml version="1.0" encoding="iso-8859-1"?>
<!-- Generator: Adobe Illustrator 18.1.1, SVG Export Plug-In . SVG Version: 6.00 Build 0)  -->
<svg version="1.1" id="Capa_1" xmlns="http://www.w3.org/2000/svg" xmlns:xlink="http://www.w3.org/1999/xlink" x="0px" y="0px"
	 viewBox="0 0 48.411 48.411" style="enable-background:new 0 0 48.411 48.411;" xml:space="preserve">
<path id="douban" d="M2.784,8.5c0.4,0.1,3.4-0.2,14.7-0.4c11.3-0.3,25.5-0.1,25.9-0.1s2.1-1.9,2.4-2.3c0.3-0.4,0.1-0.7-0.3-0.9
	s-1-0.2-1.1-0.2c-0.2,0-1.8-3-2-3.3s1.1-0.2,1.2-0.2s1.9,2,1.9,2s0.2,0.7,0.3,1.2s0.6,0.7,0.8,0.6c0.3-0.2,0.1-2.1,0-3.3
	c-0.1-1.2-0.8-1.6-1.9-1.6c-1.2,0-6.5,0.3-8.5,0.4s-7.3,0.2-12.8,0.2s-7,0.1-9,0.2s-3.4-0.1-7.2-0.1s-6,0-6.6,0.6
	c-0.6,0.5,0.3,5.7,0.5,6C1.584,7.8,2.384,8.5,2.784,8.5z M45.484,1.3c0.2,0.3,0.2,1.2-0.1,1s-0.6-1.1-0.6-1.3
	C44.784,0.9,45.284,1,45.484,1.3z M2.084,1.7c0.3-0.3,2.9-0.3,5.8-0.3c2.8,0,4.3,0.1,8.4,0s13-0.1,16.1-0.1s7.9-0.3,8.3-0.3
	c0.4,0,0.7,0,0.7,0s2.6,3.3,2.3,3.4s-1.3,0.2-1.5,0s-1.6-2.7-2-2.7s-0.9,0.2-0.6,0.6c0.3,0.4,1.9,2.1,1.7,2.3
	c-0.2,0.1-0.7,0.2-0.9,0.1s-1.7-2.6-2-2.7c-0.2,0-0.4,0.2-0.3,0.5s1.8,2.3,1.6,2.3c-0.3,0-0.9,0.1-1.1-0.1s-1.9-2.4-2.2-2.4
	s-0.9,0.1-0.6,0.5c0.3,0.4,2.1,1.9,1.8,2s-1.3,0.2-1.5,0.1s-1.5-2-1.8-2s-0.8,0.3-0.6,0.7c0.2,0.4,1.5,1.3,1.2,1.5
	c-0.3,0.1-8.4,0.4-11.4,0.5s-10.6,0-14.5,0.2c-3.8,0.2-6.5,0.5-7,0.3C1.984,6,1.784,2,2.084,1.7z M3.884,4.7c0.1-0.2,0.1-1,0.1-1.2
	s4.6-0.1,5-0.1s0.7-1,0.2-1.2s-5.2,0-5.7,0.2s-0.6,2-0.3,2.3C3.284,4.8,3.784,4.9,3.884,4.7z M47.484,40.3c-0.2-1.5-1.2-1.3-3.7-1.2
	c-2.5,0.1-9,0.6-9.2,0.4s2.9-9.6,3.1-9.7c0.2-0.2,2.3,0,2.7,0s2.5-2.6,2.8-3.1s0.4-1.2,0.4-2.1s-0.4-7.3-0.4-8.8s-0.7-4.8-1.2-5.3
	c-0.6-0.5-3.8,0-5.4,0.2c-1.6,0.2-6.2,0.6-12,0.5s-17.1,0.2-17.5,0.2s-1.7,0-1.9,0.2s-0.1,1.5-0.1,2.7c0.1,1.2,0.6,11.8,0.8,12.4
	c0.2,0.7,0.4,2.5,0.9,2.8s3,0.2,3.3,0.2s0.6,0.4,1.5,2.1s3.2,7.7,3.3,8.1s-0.7,0.1-3.9,0.1s-8.6,0.1-9.3,0.1
	c-0.8,0.1-0.7,3.7-0.5,4.8s0.9,1.3,1.5,1.6c0.6,0.3,2.5,1.2,3.1,1.6s2.2,0.3,7,0.3s13.3-0.5,18.6-0.4c5.2,0.1,12.7,0.4,12.9,0.4
	s0.6-0.3,1.5-1.2c0.8-0.9,2-2.1,2.2-2.5S47.684,41.7,47.484,40.3z M34.184,36.8c-0.3,1-0.6,2-0.7,1.9s-2.1-2.2-2-2.4
	c0-0.3,0.2-1.5,0.4-1.3c0.2,0.2,1.7,1.7,1.8,1.6s0.3-0.7,0.2-0.8c-0.1-0.1-1.7-1.6-1.8-2c0-0.4,0.2-1.3,0.3-1.3
	c0.1,0.1,1.9,2.3,2.1,2.3c0.1-0.1,0.3-0.5,0.2-0.8s-1.8-2-1.9-2.3c-0.1-0.3,0-1.4,0.3-1.4c0.1,0,2.3,2.2,2.5,2.4
	S34.484,35.8,34.184,36.8z M29.684,39.3c-0.2,0-7.9,0.5-8.2,0.4s-4.2-8.6-4.3-9.5c0-0.1,3.4-0.3,7.2-0.4s7-0.2,7.2,0.2
	C31.784,30.4,29.884,39.2,29.684,39.3z M35.784,31.8c-0.1,0-1.6-1.3-2.1-2s-0.5-1.7-0.1-1.6c0.1,0,2.4,2.1,2.6,2.2
	C36.284,30.5,35.884,31.7,35.784,31.8z M38.584,26.7c-0.1-0.1-1.9-2.9-2-3.1c0-0.1,1.2-0.2,1.2-0.1s2.5,2.9,2.4,3
	C40.084,26.7,38.684,26.8,38.584,26.7z M23.584,22.6c-5.6,0.3-11.9,0.7-12.2,0.5s-1.3-4.3-0.9-5c0.1-0.2,8.1-0.3,11.3-0.3
	s13.4,0.2,13.9,0.1c0.5,0,1.1-0.2,1.4,0.1s0.2,4.2-0.1,4.2S29.184,22.3,23.584,22.6z M41.084,26.5c-0.1-0.2-2.7-3.5-2.8-3.8
	s0-1.2,0.2-1.2c0.3,0,3.8,4.5,3.7,4.6C42.084,26.2,41.184,26.7,41.084,26.5z M42.284,25.1c-0.3-0.3-4-4.8-4-5
	c-0.1-0.2,0-1.3,0.1-1.3c0.1,0.1,3,3.7,3.3,3.7s0.2-0.7,0.1-0.8c-0.1-0.1-3.4-4.1-3.5-4.3s-0.2-1.3,0-1.3c0.1,0,3.9,4.2,3.9,4.5
	C42.284,20.8,42.584,25.4,42.284,25.1z M36.184,44.8c-0.1-0.2-0.1-0.5-0.3-0.6s-3.2-3.4-3.5-3.3s-0.5,0.6-0.2,0.9
	c0.3,0.3,3.1,3.1,3.1,3.1h-1.7c0,0-0.1-0.7-0.2-0.8c-0.2-0.1-1.9-1.8-2.2-1.9c-0.2-0.1-0.5,0.3-0.4,0.6c0,0.3,2.1,2.2,2.1,2.2
	s-0.9,0.1-1.1,0c-0.2-0.1-2.3-2.4-2.8-2.4s-1,0.2-0.6,0.9c0.4,0.6,2.1,1.5,1.9,1.6c-0.3,0.1-7.4-0.1-14.6,0
	c-7.1,0.2-10.3,0.3-11.7,0.3s-1.6,0.1-1.7-0.1c-0.2-0.2-0.1-3.8,0-3.9s8.6-0.1,10.8-0.2c2.2-0.2,2.4-0.2,2.7-0.5
	c0.4-0.3,0.8-0.7,0.6-1s-3.7-9.9-4.3-10.9s-0.8-1.4-1-1.5s-2.5,0-3.1,0.1c-0.7,0.1-0.8,0.1-0.9-0.1s-0.6-6.9-0.8-9.9s-0.3-4.8-0.2-5
	c0.1-0.1,4.6,0.1,8,0s15.5-0.2,19-0.4s6-0.8,6.2-0.6s1.9,2,1.9,2.1s-0.2,1,0.2,1.2s0.7,0.3,0.7,0.3l0.1,1.8c0,0-3.7-4.7-3.9-4.6
	s-0.2,1-0.1,1.1s3.8,4.3,3.9,4.6c0.1,0.2,0.3,1.7,0.2,1.5s-3.9-5-4-5s-0.2,0.6-0.2,0.6s-0.8-0.5-2.2-0.5s-10.5-0.3-12.6-0.3
	c-2.1,0.1-2.2,0.1-2.5,0.1s-1.6-0.2-3.4-0.2c-1.8,0.1-3.7-0.1-5.6,0c-1.9,0.1-2.6,0.1-2.7,0.8s0.6,7.6,0.9,8.2s0.5,0.8,1.5,0.8
	s3,0,8.5-0.3c5.4-0.3,12.8-0.4,13.9-0.3c1.1,0,1.3,0.1,1.5,0.3s2.2,2.6,2.2,2.9c0,0.2-0.1,0.2-0.1,0.5c0,0.2-0.3,1.3-0.4,1.2
	s-2.9-4.2-3.1-4.2s-0.5,0.6-0.4,0.9c0.2,0.3,3.2,3.5,3.2,3.8s-0.2,1.1-0.4,0.9s-2.3-2.7-2.6-2.8c-0.3-0.1-0.3-0.2-3.3,0.1
	c-3,0.3-4.6,0.6-7.7,0.6c-3.2-0.1-6.3-0.8-7-0.7c-0.7,0.1-1,0.9-0.7,1.6s4.8,10.3,5,11.1s0.3,1.2,0.7,1.2c0.3,0.1,2.5-0.2,5.2-0.3
	c2.7,0,4.3,0.3,4.6-0.2c0.3-0.4,0.8-2.6,0.9-2.5s1.9,1.8,1.8,1.9c-0.1,0.1-0.2,0.8,0,1s0.8,0.3,0.8,0.3s3.3,3.6,3.2,3.7
	C37.184,44.8,36.184,45,36.184,44.8z M38.184,44.7c-0.1-0.1-3.1-3.8-3-3.9s0.4-0.1,0.6,0c0.2,0.1,3.7,3.8,3.6,3.9
	C39.184,44.7,38.284,44.9,38.184,44.7z M41.884,44.6c-0.3,0-1.3,0.2-1.5,0s-3.2-3.6-3.2-3.7c0-0.2,1-0.3,1.5-0.1
	C39.184,41,42.184,44.6,41.884,44.6z M42.884,44.7c-0.2-0.2-3.2-3.9-3.2-4.1s1.1-0.2,1.4-0.1c0.3,0.2,3.1,4,3,4.1
	S43.084,44.8,42.884,44.7z M46.784,44.9c-0.2,0-1.7,0.1-1.9,0s-2.7-4.1-2.7-4.3c0-0.1,0.5-0.1,0.7,0s2.6,3.4,3,3.5
	c0.4,0,0.4-0.5,0.3-0.7s-2.3-3-2.1-3.1s2.2-0.2,2.3,0.1S46.984,44.9,46.784,44.9z M8.684,41.5c-0.3,0-5.4,0-5.6,0.1
	c-0.2,0.1-0.1,3.2,0,3.3c0.2,0.1,0.7,0,0.9,0c0.2-0.1,0.2-1.7,0.1-2.1c-0.1-0.4,0.8-0.2,1.4-0.2c0.6,0,3.2,0.1,3.4-0.1
	C9.084,42.2,8.984,41.5,8.684,41.5z M6.784,13.8c-0.2,0.5,0.4,3.7,0.6,3.7c0.2,0.1,0.6-0.1,0.7-0.3c0.1-0.3,0-2.9-0.1-3.3
	C7.884,13.6,6.984,13.4,6.784,13.8z"/>
<g>
</g>
<g>
</g>
<g>
</g>
<g>
</g>
<g>
</g>
<g>
</g>
<g>
</g>
<g>
</g>
<g>
</g>
<g>
</g>
<g>
</g>
<g>
</g>
<g>
</g>
<g>
</g>
<g>
</g>
</svg>
