<?xml version="1.0" encoding="iso-8859-1"?>
<!-- Generator: Adobe Illustrator 18.1.1, SVG Export Plug-In . SVG Version: 6.00 Build 0)  -->
<svg version="1.1" id="Capa_1" xmlns="http://www.w3.org/2000/svg" xmlns:xlink="http://www.w3.org/1999/xlink" x="0px" y="0px"
	 viewBox="0 0 44.127 44.127" style="enable-background:new 0 0 44.127 44.127;" xml:space="preserve">
<path id="livejournal" d="M31.815,29.114c0.6,0.3,1.3-1.5,3.5-5.6s2.1-5.9,1.2-8.6s-2.5-4.1-6.8-4.8c-4.3-0.7-6,0.5-6.2,0.8
	s2.1,2.2,2.5,2.3c0.4,0,2-0.3,3.9,0.4c1.9,0.7,3.4,1.6,3.8,5.4s-1.9,8.1-2.3,8.4C31.015,27.714,31.115,28.914,31.815,29.114z
	 M8.515,21.014c0.4-1-1.6-1.6-1.8-1.5c-2.8,1.6-4.4,9.1-4.7,10.9c-0.3,1.8-0.5,2.9,0.2,2.9s0.6-0.3,2-5.4
	C5.615,22.814,8.115,22.014,8.515,21.014z M39.315,7.114c-3.6-3.1-7.5-3.1-11.1-2.8c-3.6,0.3-7.5,2.4-7.6,2.5s0.2,1.8-0.1,1.7
	c-0.2-0.2-0.2-1-0.4-1.5s-3.7-3.8-3.8-3.9s-0.5,0.1-0.9,0.1c-0.3,0-1.6-1.4-2.1-1.9s0-0.8-0.4-1.1s-2.7-0.3-4.6,0.1
	s-4.8,2.1-6.4,4.6c-1.6,2.6-1.5,6.3-1.6,6.9c0,0.6,1.4,2.1,1.8,2.4c0.4,0.4,1.8,1.2,5.2,4.1c3.5,3,9.9,9.3,10.3,9.6
	c0.5,0.2,1.2,0.3,2.9,0.6c1.7,0.3,8.8,1.6,9.5,1.6s0.4-1.1,0.3-2.1c0-1-2.8-11.6-3-12.1s-5.7-6.2-5.9-6.5c-0.2-0.3,2.6-2,5.4-2.8
	s6.9-0.2,9,0.7c2.2,0.9,4,4.1,4.6,7.9s-1,9.7-2,11.7c-1,2.1-6.8,9-9.7,11c-3,2-5.9,2.5-9,2.6c-3.2,0.1-7-1-8.5-1.9s-2.6-2-2.8-5.8
	c-0.1-3.8,2.8-8.9,3-9.2s0.1-0.7-0.3-1c-0.3-0.3-1-0.4-1.3-0.1c-0.3,0.4-3.5,6.9-3.9,10.4s-0.1,5.7,2.2,8.3s4.8,3,9.1,2.9
	c4.3-0.1,8.6-2.2,12.1-4.6s7.4-6.2,10.9-11.3c3.4-5.1,3.1-7.5,3.5-11.6C44.215,12.714,42.815,10.214,39.315,7.114z M14.015,4.414
	l3.8,3.1l-1.8,0.4l-2.7-3.4L14.015,4.414z M12.415,4.914l2.9,2.9l-0.4,0.3l-3-3L12.415,4.914z M14.215,8.314
	c-0.1,0.1-1.6,0.9-1.7,0.7c-0.1-0.2-2.9-3.1-2.9-3.1c0.2-0.1,1-0.7,1.4-0.6C11.315,5.514,14.315,8.214,14.215,8.314z M5.915,3.714
	c0.2-0.4,2.7-2.3,3.1-2s2.3,2.2,2.3,2.3c0,0.1-1.4,0.6-2.2,1c-0.7,0.4-1,0.8-1.3,0.6c-0.3-0.2-1.3-1.3-1.3-1.3
	C6.215,4.214,5.715,4.114,5.915,3.714z M3.115,12.814c-0.2,0.1-0.8-1.1-0.7-2.6c0.1-1.4,1.3-4.6,2.2-4.9c0.2-0.1,1.7,1.4,1.6,1.7
	c-0.1,0.3-1.9,2-2.5,3.4C3.215,11.914,3.315,12.714,3.115,12.814z M6.715,16.114c-0.2-0.1-2.5-1.8-2.5-2.2c0-0.4,0.1-2.4,1.1-4.1
	s3-3.4,3.4-3.3c0.3,0,2.9,3.1,2.9,3.1s-2.5,1.6-3.6,3.4C6.915,14.814,6.915,16.214,6.715,16.114z M17.215,25.714
	c0-0.1,0.7-3.9,0.4-4.2c-0.3-0.3-0.7-0.1-0.7,0s-0.4,4.2-0.5,4.1c-0.2-0.1-0.6-0.4-0.6-0.6c0-0.1,0.6-4.8,0.4-4.9s-0.8-0.1-0.8,0.1
	s-0.1,4.2-0.3,4.1s-0.8-0.7-0.8-0.9s0.5-4.5,0.4-4.7s-0.8-0.3-0.8-0.2c0,0.1,0,4.2-0.3,4.2c-0.3-0.1-0.9-0.5-0.8-0.8
	c0-0.2,0.6-4.5,0.5-4.6c-0.1-0.2-0.7-0.4-0.7-0.3s0,4.4-0.4,4.2c-0.4-0.2-0.8-0.6-0.8-0.8c0-0.2,0.5-4.7,0.3-4.8
	c-0.2-0.1-0.6-0.2-0.7,0s0,4.6-0.3,4.3c-0.3-0.2-1-0.8-1-1.2c0-0.3,0.5-3.8,0.4-4s-0.7-0.2-0.7,0.1c0,0.3-0.2,3.1-0.4,3.1
	c-0.2,0-1.3-0.7-1.2-1.6c0.1-0.9,1.1-3.7,2.8-4.6c0.4-0.2,5.1,5.4,6.2,6.6c1,1.1,2.1,2.3,1.8,4.1c-0.3,1.7-0.4,2.1-0.8,2.7
	C17.415,25.714,17.215,25.914,17.215,25.714z M28.415,24.414c0.2,0.7,0.5,0.7,0.3,0.9c-0.2,0.2-1.5-0.1-1.9,0.3
	c-0.3,0.4-1.6,1.6-1.7,1.8c-0.1,0.2-0.3,0.9-0.3,0.7c0-0.2,0.3-2.7-0.1-2.9c-0.4-0.1-0.8,0.1-0.7,0.4c0.1,0.3,0,2.1,0,2.1h-0.7
	c0,0,0.1-2.6-0.2-2.6c-0.3,0-0.8,0.1-0.8,0.4c0,0.4,0.2,2.1,0.1,2.1s-0.7,0-0.7-0.1s-0.1-2-0.3-2c-0.2,0-0.7,0.3-0.7,0.5
	c0.1,0.3,0,1.3,0,1.3l-2.1-0.3c0,0,1.7-1.8,2.3-3.2c0.5-1.3,0.7-3.1,0.7-3.1c0.3-0.3,1.4,0.1,2.7-0.5c1.2-0.6,2.5-1.6,2.8-1.6
	C27.215,18.714,28.215,23.714,28.415,24.414z M26.315,16.414c0.1,0.4-0.6,1.5-2.4,1.9c-1.7,0.4-2.6,0.6-3.2,0
	c-0.6-0.5-8.3-7.5-8.4-7.9c0-0.1,1.9-1.1,3.4-1.5c1.4-0.4,3-0.3,3.2-0.3C19.015,8.614,26.215,16.014,26.315,16.414z"/>
<g>
</g>
<g>
</g>
<g>
</g>
<g>
</g>
<g>
</g>
<g>
</g>
<g>
</g>
<g>
</g>
<g>
</g>
<g>
</g>
<g>
</g>
<g>
</g>
<g>
</g>
<g>
</g>
<g>
</g>
</svg>
