<?xml version="1.0" encoding="iso-8859-1"?>
<!-- Generator: Adobe Illustrator 18.1.1, SVG Export Plug-In . SVG Version: 6.00 Build 0)  -->
<svg version="1.1" id="Capa_1" xmlns="http://www.w3.org/2000/svg" xmlns:xlink="http://www.w3.org/1999/xlink" x="0px" y="0px"
	 viewBox="0 0 46.264 46.264" style="enable-background:new 0 0 46.264 46.264;" xml:space="preserve">
<path id="map_x5F_pin" d="M31.33,1.657c-5.2-2.4-10.6-2.1-15.3,0.3c-4.7,2.4-6.4,5.7-7.1,8c-2,6.3,0.3,10.8,3,16.5
	c2.6,5.7,9.1,19.6,11,19.8s3.6-4,6.3-9.1c2.7-5.2,7.9-15.7,8.7-21.4S36.53,3.957,31.33,1.657z M36.93,15.857
	c-0.4-0.2-5.4-6.2-5.7-6.3s-0.8,0.1-0.5,0.4s5.9,6.5,5.9,6.9s-0.3,1.8-0.5,1.6s-4.8-6.5-5.2-6.5c-0.5-0.1-0.6,0.6-0.3,0.8
	c0.3,0.3,5,6.3,5,6.6s0.1,0.9-0.2,0.9c-0.3-0.1-4.5-6-5-5.9c-0.5,0.2-0.5,0.5-0.3,0.8s4.8,5.9,4.8,5.9s-0.4,1.4-0.7,1.3
	s-3.8-5.2-4.3-5.2s-0.9,0.3-0.5,0.8s4.4,5.2,4.3,5.5c-0.1,0.3-0.9,2.4-1.1,2.2c-0.2-0.3-3.9-6.3-4.3-6.3c-0.4-0.1-0.5,0.1-0.3,0.6
	s4.3,5.8,4.3,6.3c0.1,0.5-0.2,1.3-0.5,1c-0.4-0.3-4.2-5.9-4.6-6c-0.4-0.1-0.8,0.1-0.5,0.5s4.7,5.9,4.5,6.2s-0.2,1.6-0.5,1.2
	s-4-5.9-4.3-5.9s-0.9,0.3-0.5,0.7s4.5,5.6,4.4,5.9c-0.1,0.3-0.5,1.6-0.8,1.3s-3.4-4.8-3.8-4.9s-0.8,0.2-0.5,0.7s4,4.7,3.9,5
	c-0.1,0.3,0.1,1.6-0.6,1.1c-0.7-0.6-3.3-4.3-3.8-4.3s-0.8,0.4-0.5,0.8s3.7,4.5,3.7,4.5s-0.4,1.1-0.5,0.9c-0.2-0.2-3.1-4.4-3.6-4.5
	s-0.7,0.2-0.6,0.5s3.6,4.3,3.6,4.7s-0.1,2-0.6,1.4s-3-3.5-3.3-3.5c-0.3,0.1-0.7,0.1-0.4,0.6s3.1,3.3,3,3.6c-0.1,0.4-0.4,1-0.6,0.9
	c-0.2-0.1-2.3-3-2.7-2.9s-0.5,0.2-0.4,0.6s2.6,2.8,2.5,3.1s-0.3,0.9-0.6,0.5s-2-2.4-2.2-2.4s-0.8,0.3-0.5,0.6s2.5,2.7,2.4,3
	c-0.2,0.3-0.7,1.5-1.1,1c-0.5-0.5-6.7-11.8-9.6-17.3c-2.9-5.5-4.7-9.3-3.5-13.5c1.2-4.1,3.5-6.1,4.6-6.8c2.5-1.6,5.6-3.1,9.8-2.9
	c4.2,0.2,6.6,1.4,7.2,1.7c0.6,0.4,0.4,0.7,0.6,0.9c0.2,0.2,3.8,4.3,4.1,4.5s0.6,2,0.2,1.6c-0.4-0.4-5.4-6.5-6.2-6.6
	c-0.7-0.1-0.8,0.6-0.5,0.8s6.7,6.6,7.1,7.2c0.4,0.6,0.5,2.8,0.1,2.1c-0.5-0.7-5.2-6.7-5.9-7c-0.7-0.4-0.9,0.6-0.5,0.8s6.2,7,6.5,7.5
	C37.03,15.057,37.23,16.057,36.93,15.857z M13.53,6.957c-1,0.3-3,3.2-3.3,5.7s0.6,5,1.1,5.2c0.2,0.1,0.7,0.2,0.8-0.5s-1-3.4-0.9-4.9
	c0.1-1.6,2.1-4.2,2.7-4.6C14.53,7.557,14.63,6.757,13.53,6.957z M20.03,7.857c-2.1,1.6-1.9,4.4-0.7,5.8c1.2,1.4,4.4,1.9,5.7,0.8
	s2.1-3.8,0.8-5.7S21.83,6.457,20.03,7.857z M23.23,13.757c-1.4,0.4-2.1-0.7-2.3-2.1s0.6-1.6,1.4-2c1.2-0.6,2.7,0.2,3,1.2
	C25.53,11.957,24.53,13.357,23.23,13.757z"/>
<g>
</g>
<g>
</g>
<g>
</g>
<g>
</g>
<g>
</g>
<g>
</g>
<g>
</g>
<g>
</g>
<g>
</g>
<g>
</g>
<g>
</g>
<g>
</g>
<g>
</g>
<g>
</g>
<g>
</g>
</svg>
