<?xml version="1.0" encoding="iso-8859-1"?>
<!-- Generator: Adobe Illustrator 18.1.1, SVG Export Plug-In . SVG Version: 6.00 Build 0)  -->
<svg version="1.1" id="Capa_1" xmlns="http://www.w3.org/2000/svg" xmlns:xlink="http://www.w3.org/1999/xlink" x="0px" y="0px"
	 viewBox="0 0 45.623 45.623" style="enable-background:new 0 0 45.623 45.623;" xml:space="preserve">
<path id="print" d="M40.323,15.752c0,0,0.2-2.7,0-3.9s-4.4-1.1-4.4-1.1s-0.1-4.2,0-5.6c0-1.4-0.4-2.3-1.7-2.6s-10-0.5-14.7-0.3
	s-9.1,1-9.3,1.4s0.4,7.1,0.4,7.1s-0.8,0-1.7,0.1c-1,0-2.7,0.9-2.9,1.3c-0.3,0.4,0.3,4.6,0.3,4.6s-1.7,0.1-2.7,0.1s-3,0.4-3.3,0.8
	c-0.6,0.8-0.2,17.4-0.1,19.4c0.1,2.1,1.4,2.7,1.8,2.8s8.3,0,8.7,0.2s0.1,1.9,0.3,2.5c0.1,0.6,1.9,0.9,2.9,0.9s7.6-0.6,12.6-0.8
	s7.8-0.1,8.6-0.6c0.8-0.5,0.5-2.9,0.5-2.9s2.1,0,2.9,0.1s6.5,0.3,6.8,0.1s0.2-18.7,0.3-21.3
	C45.423,15.252,40.323,15.752,40.323,15.752z M39.123,12.252c0.1,0.4,0.4,3.2,0.2,3.2c-0.2,0.1-0.4,0.1-0.4,0s-0.2-0.7-0.4-1.3
	c-0.3-0.6-0.6-1.2-0.9-1.3c-0.2-0.1-0.6,0.3-0.5,0.4c0.1,0.1,1.2,2.1,1.1,2.1s-0.7,0-0.7,0s-0.9-2.2-1-2.2s-0.4,0.2-0.4,0.2
	l-0.2-1.4C36.123,11.952,39.023,11.952,39.123,12.252z M36.623,15.452h-0.5v-0.9C36.223,14.552,36.623,15.452,36.623,15.452z
	 M11.223,4.252c0.1-0.1,5.5-1.2,12.3-1.2c6.7,0,10.1-0.2,11,1c0.8,1.2,0.3,11.3,0.3,11.3s-6.8,0-12.9,0.4c-6.1,0.5-9.9,0.7-10,0.5
	c0,0-0.5-6.7-0.6-8.8S11.123,4.352,11.223,4.252z M6.923,12.352c0.3-0.3,1.7-0.7,2.6-0.7c0.8,0,1.1-0.1,1.1,0.1c0,0.2,0,1,0,1
	s-0.4-0.7-0.7-0.5c-0.3,0.2-0.5,0.4-0.4,0.5s1.2,2.1,1.2,2.1l0.1,1.3c0,0-2.1-4.1-2.4-3.9c-0.3,0.2-0.4,0.4-0.4,0.5
	c0.1,0.1,1.8,3.9,1.8,3.9h-0.5c0,0-1.3-2.5-1.6-2.5c-0.3,0-0.5,0.4-0.5,0.4s0.9,2,0.8,2c-0.1,0-0.8,0.1-0.8,0.1
	C7.323,16.352,6.623,12.652,6.923,12.352z M34.023,41.152c-0.2,0.1-7.8,0.5-14.5,0.8s-7.1,0.2-7.3,0c-0.2-0.3,0.1-4.4,0.2-5.1
	c0.1-0.7,0.3-2.7,0.5-2.9c0.1-0.1,3.8-0.6,10-0.9c6.2-0.4,10.9-0.4,11.3-0.1C34.623,33.252,34.223,41.052,34.023,41.152z
	 M44.223,28.052c0,0.2,0.2,2.3,0,2.3s-0.3,0.2-0.3-0.1c0-0.2-2-5.2-2.2-5.3c-0.2,0-0.9,0.4-0.7,0.5c0.2,0.1,2.6,6,2.6,6v3.3
	c0,0-3.1-6-3.5-6.6c-0.4-0.7-0.3-1.8-0.7-1.8c-0.4,0.1-0.7,0.5-0.2,1.3c0.4,0.9,4.4,7.9,4.4,8s0.2,0.5,0.1,0.5s-1.4,0.1-1.5-0.1
	s-4.9-9.5-5.2-9.7c-0.3-0.2-0.7,0.3-0.7,0.4s5.1,9,5,9c-0.1,0.1-2.2,0.3-2.6,0.3s-1.1,0-1.1-0.3s-0.3-2.4,0-2.2
	c0.2,0.2,1.1,1.7,1.5,1.8c0.3,0.1,0.3-0.2,0.2-0.4s-3.5-6.9-4-7.5s-0.6-0.7-0.9-0.6c-0.3,0.1-0.3,0.3-0.2,0.5
	c0.2,0.2,1.7,2.7,1.5,2.7s-0.5,0.2-0.8-0.1s-2-3.2-2.4-3.2s-0.8,0.2-0.5,0.5s2.2,2.9,1.7,2.9s-1.3,0-1.5-0.2
	c-0.2-0.1-1.3-2.3-1.5-2.3s-0.5,0-0.4,0.3c0.1,0.2,1.2,2,1,2.1s-0.7,0.3-0.8,0.1c-0.1-0.2-1.7-2.4-1.9-2.4c-0.2,0-0.7,0.5-0.5,0.7
	s1.3,1.6,1.1,1.7s-1.1,0.3-1.3,0.2c-0.3-0.1-1.4-1.8-1.6-1.8s-0.8,0-0.6,0.3c0.3,0.3,1.1,1.5,0.9,1.6c-0.2,0-0.8,0.1-1.1,0
	c-0.3-0.1-1.1-1.2-1.3-1.2c-0.2,0-0.6,0.1-0.2,0.4s1,1,0.7,1s-5.7-0.2-8.8,0c-3.1,0.1-4.7-0.1-5.3,0.8c-0.6,0.9-0.3,3.1-0.4,4.1
	s0.2,1.8-0.1,1.8c-0.4,0-5.6,0-6.6-0.1s-1.1,0-1.5-0.2s-0.9-1-1-3.7c0-2.7,0-14.7,0.2-15c0.1-0.2,2-0.8,5.9-0.9s7.7-0.5,11.2-0.7
	c3.5-0.3,7.2-0.7,11.8-0.6c4.7,0.1,13.1,0.6,13.6,0.9c0.5,0.3,0.7,0.8,0.7,2.3s0.1,7.3,0.1,7.3s-0.9-2.7-1.2-2.5
	c-0.3,0.2-0.4,0.6-0.4,0.6S44.223,27.852,44.223,28.052z M14.723,36.252c0.2,0.1,2.3-0.5,6.5-0.7c4.2-0.3,9-0.1,9.4-0.2
	s0.7-0.7,0.1-0.9s-3.5-0.1-7.8,0.1c-4.3,0.2-8.3,0.5-8.5,0.8C14.423,35.452,14.523,36.152,14.723,36.252z M31.023,37.352
	c-0.3-0.2-4.7-0.1-9.2,0.1c-4.5,0.2-8.1,0.8-8.1,1.1c0,0.2,0,0.8,0.2,0.9c0.2,0.1,2.3-0.5,7.5-0.9c5.2-0.5,9.1-0.2,9.4-0.3
	C31.123,38.152,31.323,37.552,31.023,37.352z M31.323,10.852c-0.3-0.2-2.7-0.2-9.4,0c-6.7,0.2-8.6,0.7-8.6,1
	c-0.1,0.3-0.1,0.8,0.2,0.9c0.3,0.2,0.2,0,0.8-0.1c0.6-0.1,3.2-0.6,7.4-0.8s8.9,0.1,9.5,0C31.823,11.652,31.623,11.052,31.323,10.852
	z M13.223,8.552c0.4,0.1,4.1-0.5,8.3-0.8c4.2-0.3,8.7,0,9.4,0s0.8-0.6,0.3-1s-6.3-0.2-9.9-0.1c-3.7,0.1-8.4,0.7-8.4,0.8
	C12.723,7.752,12.823,8.452,13.223,8.552z M1.823,19.552c-0.3,0.4-0.1,3.9,0.2,4.1c0.2,0.2,0.6,0.2,0.9,0s-0.1-3.2-0.1-3.4
	s2.3-0.6,2.6-0.7s0.6-0.7,0.2-1C5.223,18.452,2.123,19.152,1.823,19.552z M39.323,19.052c-0.9,0.2-2.4,0.9-2.1,2.6
	c0.3,1.7,1.2,2.4,3,2.3s2.5-1.6,2.2-3C42.023,19.552,41.123,18.652,39.323,19.052z M39.723,22.952c-1.4-0.1-1.5-1.4-1.5-2
	c0.1-0.6,0.9-1,1.6-0.9c0.5,0,1.6,0.4,1.7,1.3S41.123,23.052,39.723,22.952z"/>
<g>
</g>
<g>
</g>
<g>
</g>
<g>
</g>
<g>
</g>
<g>
</g>
<g>
</g>
<g>
</g>
<g>
</g>
<g>
</g>
<g>
</g>
<g>
</g>
<g>
</g>
<g>
</g>
<g>
</g>
</svg>
