<?xml version="1.0" encoding="iso-8859-1"?>
<!-- Generator: Adobe Illustrator 18.1.1, SVG Export Plug-In . SVG Version: 6.00 Build 0)  -->
<svg version="1.1" id="Capa_1" xmlns="http://www.w3.org/2000/svg" xmlns:xlink="http://www.w3.org/1999/xlink" x="0px" y="0px"
	 viewBox="0 0 47.639 47.639" style="enable-background:new 0 0 47.639 47.639;" xml:space="preserve">
<path id="twitch" d="M47.5,23.818c-0.2-4-1.5-21.2-1.6-21.5c-0.2-0.2-10.4-0.1-17.8,0.2c-7.4,0.3-21.4,1.1-21.8,1.1
	s-6.3,6.8-6.3,7.2c0,0.6,0.4,9.7,0.4,16.3c0,6.7-0.3,14.2,0,14.4s9.5,0,9.8,0c0.3,0.1,0,3.6,0.4,3.8c0.4,0.3,9.7-0.1,10.6-0.3
	s3.3-3.7,3.6-3.9c0.3-0.2,7.9,0.5,8.3,0.5s1.4-0.8,4-3.4c2.6-2.5,10.1-9,10.3-9.3C47.7,28.718,47.7,27.918,47.5,23.818z
	 M40.7,24.318c-0.2,0.4-5,5.9-6.3,7.6c-1.3,1.7-1.8,2.2-2.4,2.4c-0.5,0.2-9.7-0.2-10.2-0.1c-0.5,0-1,0.4-1.4,1s-3,3.8-3.2,3.8
	s-0.8-5.3-1.1-5.5c-0.2-0.2-2.2-0.2-3.2-0.2s-2.5,0.4-2.7,0.2s-0.4-11.5-0.6-15.2c-0.2-3.8-0.4-7.3-0.2-7.7c0.1-0.2,2.9-0.4,5.2-0.5
	c2.4-0.1,7.2-0.3,14.4-0.7c7.2-0.4,10.6-1,11-0.6s0.8,11.5,0.8,13.4C40.9,23.918,41,23.918,40.7,24.318z M19.2,16.518
	c-0.8,0.5-0.7,8.8-0.1,9.3c0.5,0.5,4.3,0.7,4.7,0.3c0.4-0.4,0.4-8.7-0.1-9.5C23.2,15.818,19.6,16.218,19.2,16.518z M29.3,16.518
	c-0.1,0.5-0.1,9,0.1,9.5c0.1,0.5,3.7,0.6,4.1,0.1c0.5-0.4,0.4-8.9,0-9.5C33.1,16.118,29.4,16.118,29.3,16.518z"/>
<g>
</g>
<g>
</g>
<g>
</g>
<g>
</g>
<g>
</g>
<g>
</g>
<g>
</g>
<g>
</g>
<g>
</g>
<g>
</g>
<g>
</g>
<g>
</g>
<g>
</g>
<g>
</g>
<g>
</g>
</svg>
