<?xml version="1.0" encoding="iso-8859-1"?>
<!-- Generator: Adobe Illustrator 18.1.1, SVG Export Plug-In . SVG Version: 6.00 Build 0)  -->
<svg version="1.1" id="Capa_1" xmlns="http://www.w3.org/2000/svg" xmlns:xlink="http://www.w3.org/1999/xlink" x="0px" y="0px"
	 viewBox="0 0 45.317 45.317" style="enable-background:new 0 0 45.317 45.317;" xml:space="preserve">
<path id="mobile" d="M35.7,30.988c-0.1-10.2-0.4-21.3-0.5-25.3s-0.8-4.4-1.9-4.9s-8.4-1.1-14.8-0.6c-6.4,0.5-7.5,1.2-8.1,1.7
	c-1.9,1.5-0.1,14.9,0.2,24.1s0.6,16.6,1.4,17.5c0.8,0.9,5,1.3,9.6,1.6s8.9,0.4,11.7-0.3C36.2,44.088,35.8,41.188,35.7,30.988z
	 M32.7,39.188c-0.2,1.9-0.9,2.9-1.6,3c-0.7,0.2-12.1,0.2-13.9,0.2c-1.8,0-4.5,0.2-4.9-2.1s-0.7-14.5-0.9-21.1
	c-0.3-6.7-1.4-15.8,0.1-16.7c0.5-0.3,8.7-1.5,12.6-1.5s7.3,0.3,7.9,0.9s1.5,2.4,1.7,12.9S32.9,37.188,32.7,39.188z M21.4,4.588
	c0.9,0.3,1.7-0.7,1.4-1.2c-0.2-0.5-1.1-0.8-1.6-0.3C20.6,3.588,20.8,4.388,21.4,4.588z M22,36.988c-0.9,0.1-1.5,1-1.6,1.5
	s0.2,1.8,1.7,2.1c1.6,0.3,2.8-1,2.5-2.2S22.9,36.888,22,36.988z M23.6,38.888c-0.2,0.9-1.2,0.7-1.6,0.6c-0.4-0.1-1-1.3,0.4-1.6
	C23,37.688,23.7,38.088,23.6,38.888z M15.2,32.988c-0.4,0.2-0.6,0.2-0.4,0.6c0.2,0.4,3.2,4.2,3.4,3.8
	C18.5,37.188,15.4,32.888,15.2,32.988z M16.2,28.288c-0.3,0.1-0.6,0.3-0.6,0.7s5.3,6.2,5.6,6S16.6,28.188,16.2,28.288z M15.7,23.388
	c-0.3,0-0.6,0.5-0.5,0.8s9.6,10.9,9.8,10.5C25.3,34.388,16,23.388,15.7,23.388z M16.3,18.788c-0.3-0.1-0.7,0.3-0.6,0.7
	c0.1,0.4,12.3,13.8,12.7,13.9c0.4,0.2,0.3-0.1,0.3-0.4S16.6,18.788,16.3,18.788z M28.4,28.488c0.1,0,0.2,0,0.1-0.5s-11.7-15-11.9-15
	c-0.3,0.1-0.6,0.4-0.5,0.6C16.2,13.888,28.3,28.488,28.4,28.488z M17.1,8.288c-0.2,0.1-0.6,0.4-0.5,0.7s12.4,15.4,12.7,15.6
	c0.3,0.2,0.3,0.2,0.5,0C29.9,24.188,17.5,8.088,17.1,8.288z M21.9,8.988c-0.3,0-0.5,0.4-0.4,0.6c0.1,0.2,7.5,9.1,7.7,9.2
	c0.3,0.1,0.4,0,0.4-0.2C29.8,18.388,22.3,8.888,21.9,8.988z M25.5,8.588c-0.4,0-0.6,0.2-0.6,0.5s4.6,5.6,4.8,5.7
	c0.2,0.1,0.2-0.1,0.2-0.3C30,14.288,25.9,8.588,25.5,8.588z M29.3,8.988c0.4,0.3,0.3,0.2,0.4-0.1s-0.6-2.3-1.1-2.3
	c-0.3,0-0.7,0.4-0.6,0.5C27.9,7.188,28.9,8.688,29.3,8.988z"/>
<g>
</g>
<g>
</g>
<g>
</g>
<g>
</g>
<g>
</g>
<g>
</g>
<g>
</g>
<g>
</g>
<g>
</g>
<g>
</g>
<g>
</g>
<g>
</g>
<g>
</g>
<g>
</g>
<g>
</g>
</svg>
