<?xml version="1.0" encoding="iso-8859-1"?>
<!-- Generator: Adobe Illustrator 18.1.1, SVG Export Plug-In . SVG Version: 6.00 Build 0)  -->
<svg version="1.1" id="Capa_1" xmlns="http://www.w3.org/2000/svg" xmlns:xlink="http://www.w3.org/1999/xlink" x="0px" y="0px"
	 viewBox="0 0 46.977 46.977" style="enable-background:new 0 0 46.977 46.977;" xml:space="preserve">
<path id="dribbble" d="M46.401,17.915c-0.8-5.7-4.2-9.5-5.9-11s-5.5-5-10.9-6.2s-11-0.7-14.3,0.6c-3.8,1.5-6.6,4.1-8.5,5.8
	c-1.9,1.7-6.3,7.5-6.6,11s-0.5,8.6,1.2,13s4,6.4,6.6,8.5c2.6,2.2,6.7,6.4,12.2,7.1c5.4,0.7,11.1-0.2,15.3-2.7s6.2-4.3,9.1-10.9
	C47.601,26.615,47.201,23.615,46.401,17.915z M41.401,20.315c0.1,0.2,2.8,3.3,3,3.5s0.4,0.1,0.5,0.3s-0.1,1.5-0.3,1.5
	s-2.5-2.9-2.9-3.1s-0.7,0.4-0.6,0.6s3.2,3.3,3.3,3.5s-0.1,1.3-0.3,1.3s-3-3-3.2-2.9s-0.4,0.7-0.4,0.8s3.2,2.6,3.2,2.9
	s-0.4,1.7-0.6,1.6s-2.9-3.4-3.2-3.4s-0.7,0.6-0.4,0.8s3.2,3.1,3.1,3.3s-0.2,0.8-0.4,0.6s-2.8-2.9-3-2.9s-0.7,0.5-0.6,0.7
	c0.2,0.2,3.2,2.7,3.1,2.9s-0.6,1.2-0.8,1.2s-2.4-3-2.7-3s-0.8,0.7-0.7,0.8s2.8,2.7,2.8,2.9s-0.6,1.2-0.7,1.1s-2.4-3-2.6-3
	s-0.7,0.4-0.5,0.6s2.7,2.9,2.7,3s-0.6,1.2-0.8,1.1s-2.8-3.4-3.2-3.3s-0.6,0.3-0.5,0.5s3,3.1,3,3.3s-0.3,0.8-0.6,0.7s-2.6-3-2.9-3
	c-0.3,0-0.8,0.4-0.8,0.6s2.9,2.9,2.9,3s-0.4,0.6-0.5,0.6s-3.3-3.4-3.4-3.4s-0.7,0.8-0.6,0.9s3.1,2.9,3,3.1s-0.8,0.6-0.9,0.5
	s-2.6-3.1-2.9-3s-0.5,0.5-0.5,0.6s2.5,2.6,2.4,2.7s-0.6,0.4-0.8,0.3s-2.7-2.7-2.9-2.6s-0.7,0.7-0.6,0.8s2.5,2.1,2.5,2.3
	s-0.3,0.4-0.5,0.3s-2.4-2.5-2.7-2.4s-0.5,0.6-0.5,0.8s2.1,1.9,2,2s-1,0.6-1.4,0.4s-2-1.9-2.3-1.8s-0.7,0.5-0.6,0.6s1.6,1.3,1.4,1.4
	s-0.5,0.3-0.8,0.1c-0.3-0.2-2-1.7-2.2-1.6s-0.8,0.3-0.7,0.5s1.4,1.1,1.2,1.2c-0.3,0.1-4.5,0.2-8.3-1.3c-3.8-1.4-7.3-3.7-9.7-5.9
	c-2.4-2.2-3.8-5.1-4.4-7.3c-0.5-2.2-0.8-5.7-0.5-8.5s1.7-5.8,3.3-8.3s5.6-6.1,7-7.1s3.2-1.9,4.6-2.5c2.4-1,5.4-1.1,8.4-1.1
	c2.9,0,6.5,0.9,9.4,2.4c2.9,1.4,4.2,2.7,4.4,3s0,1.4,0.3,1.6c0.3,0.2,2.8,2,3.2,2.4s0.9,1.1,1.2,1.7s0.4,0.9,0.2,0.8
	s-3.3-3.3-3.6-3.2s-0.6,0.4-0.3,0.7s3.4,3.2,3.6,3.3s0.5-0.2,0.5-0.2s1.1,2.4,1.5,4.7s0.3,2.6,0.2,2.6s-2.6-3-3-2.9
	s-0.5,0.5-0.2,0.8s2.8,2.7,3,2.9s0.3,0.4,0.3,0.6s0,1.1-0.1,0.9s-2.9-3.5-3.2-3.4S41.301,20.115,41.401,20.315z M6.601,19.515
	c0.4,0.3,0.9,0.2,3.1,0.3c2.2,0,5.5-0.7,8.9-1.8c3.4-1.1,4-1.9,4.1-2.5c0-0.6-1.3-2.6-2.7-4.3c-1.4-1.7-4.3-3.4-4.8-3.5
	s-2,0.4-2.7,1.2c-0.7,0.8-3.5,4.4-4.7,7.1S6.501,19.515,6.601,19.515z M13.301,12.715c1.3-1.6,2.7-3.1,3.2-3.1s3.5,3.1,4.3,4.3
	c0.8,1.2,0.6,1.3,0.5,1.5s-3.3,2.1-6.9,2.7s-4.3,0.7-4.7,0.3C9.601,18.415,11.901,14.415,13.301,12.715z M21.101,6.715
	c0.5,0.1,1.5,0.6,2.8,2.2s2.9,5.4,3.2,5.6s1.1-0.4,3.3-2c2.1-1.6,3-3.3,3.3-4s0.2-0.6-1.4-2c-1.7-1.4-4.2-2.1-7.1-1.9
	c-2.9,0.1-4.6,1.1-4.7,1.2C20.201,6.015,20.601,6.615,21.101,6.715z M30.001,7.115c1.8,0.6,2.4,1.1,2.4,1.4s-1.9,2.2-2.7,3
	c-0.8,0.9-1,1-1.3,0.9s-1.2-4.1-3.5-5.8C24.901,6.415,28.201,6.515,30.001,7.115z M37.601,11.915c-0.5-0.9-1.5-0.8-1.8-0.7
	s-1.6,1.7-2.6,2.7s-3.9,2.7-4.2,2.9s-1.6,0.7-1.6,0.8c0,0.3,0.9,0.7,1.7,1.9c0.8,1.2,1,3.3,1.3,3.5s2-0.5,3.3-0.8s4.7-0.1,5-0.1
	s1,0,1.2-0.6c0.3-0.6,0.4-2.2,0-4.3S38.101,12.715,37.601,11.915z M39.101,20.815c-0.2,0.1-4.4-0.2-5.6,0.1
	c-1.2,0.4-2.2,0.9-2.4,0.7s0.2-1.4-0.9-3.1c-0.1-0.2,3.2-1.9,4.6-3.6c1.4-1.7,1.7-2.2,1.9-2.1s1.9,2.9,2.2,4.7
	C39.101,19.215,39.301,20.715,39.101,20.815z M24.701,25.615c0.9-0.2,1.3,0,1.5-1s-0.3-1.6-0.9-3.2c-0.6-1.6-1-2-1.5-2s-1,0.3-2,0.9
	s-2.9,1.3-5.2,2.1c-2.3,0.8-6.7,1.3-7.9,1.4s-3.2-0.2-3.3,0.1c-0.4,1,0.4,3.2,1.7,6.4c1.4,3.2,3.4,3.7,3.7,3.8
	c0.3,0.1,0.8-0.3,1.1-0.7c0.4-0.4,1.7-2,5.1-4.5S23.901,25.815,24.701,25.615z M11.101,32.215c-0.3-0.1-1.9-2.1-1.5-4.9
	c0-0.2,5.2-1.1,7.4-2.2c2.2-1.2,6.5-3.8,6.7-3.9s1.8,2.8,1.5,3.2c-0.4,0.4-4.1,0.7-8.1,3.3S11.401,32.215,11.101,32.215z
	 M36.701,24.515c-1.4,0.2-5,1-5.2,1.3c-0.3,0.5,0.4,2.9,0.7,5.2s0.6,2.5,1,2.7s1.2-0.2,3.1-2.7s2.5-4.8,2.4-5.6
	S38.101,24.315,36.701,24.515z M35.001,31.315c-0.4-0.1-1.2-4-1.2-4.3c0.1-0.3,3.5-0.9,3.7-0.7S35.301,31.415,35.001,31.315z
	 M27.301,27.415c-0.4-0.2-1.6,0.3-2.7,1c-1.1,0.7-6.3,5.1-7.6,7.2s-0.9,3.3-0.8,3.4c0.7,0.5,3.2,1,6,0.6s6.3-1.7,6.8-2.2
	s0.3-1.6-0.1-4.5C28.601,30.015,27.701,27.615,27.301,27.415z M28.101,36.315c-0.5,0.9-6.5,3.1-8.9,2.1c-0.2-0.1,0.8-2.4,2.5-4.4
	c1.8-2,5.2-4.6,5.3-4.5S28.601,35.415,28.101,36.315z M3.601,20.515c-0.5,0.2-1,1.7-1,4.9s0.6,4.2,0.9,4.2c0.5,0.2,0.7-0.4,0.6-0.9
	c-0.1-0.5-0.3-1.8-0.3-3.5s0.4-3.8,0.6-4.1S4.101,20.415,3.601,20.515z M9.301,9.115c0.2-0.4,0.1-0.7-0.3-0.7s-2.9,3.4-3.7,4.8
	s-1.6,3.3-1.4,3.5c0.4,0.3,0.6,0.3,0.9,0.2s0.9-2.1,1.5-3.5C6.901,12.215,9.101,9.515,9.301,9.115z M20.701,18.215
	c0.1,0.4,0.4,0.4,0.7,0.4s3-1.5,3.6-1.9c0.5-0.4,0.5-0.7,0.3-0.8S20.601,17.915,20.701,18.215z M34.301,9.815
	c0.5-0.3,1.7-2.3,1.9-2.9s-0.3-0.9-0.8-0.8c-0.3,0.1-0.3,0.7-0.5,1.5c-0.2,0.7-0.8,1.5-1.1,1.8
	C33.601,9.615,33.801,10.115,34.301,9.815z M43.701,15.815c0.2-0.3-0.5-1.2-1.2-1.7s-1.9-1.7-2-1.6c-0.6,0.3-0.4,0.9,0.1,1.1
	s2.4,2.1,2.6,2.3C43.401,16.015,43.501,16.015,43.701,15.815z M43.601,18.115c0.6,0.4,0.7,0.3,0.7-0.1s-2.8-3.2-3-3.2
	c-0.3,0.1-0.5,0.4-0.4,0.7S43.001,17.815,43.601,18.115z"/>
<g>
</g>
<g>
</g>
<g>
</g>
<g>
</g>
<g>
</g>
<g>
</g>
<g>
</g>
<g>
</g>
<g>
</g>
<g>
</g>
<g>
</g>
<g>
</g>
<g>
</g>
<g>
</g>
<g>
</g>
</svg>
