<?xml version="1.0" encoding="iso-8859-1"?>
<!-- Generator: Adobe Illustrator 18.1.1, SVG Export Plug-In . SVG Version: 6.00 Build 0)  -->
<svg version="1.1" id="Capa_1" xmlns="http://www.w3.org/2000/svg" xmlns:xlink="http://www.w3.org/1999/xlink" x="0px" y="0px"
	 viewBox="0 0 47.978 47.978" style="enable-background:new 0 0 47.978 47.978;" xml:space="preserve">
<path id="foursquare" d="M37.925,0.878c-1.8-1.3-5.9-0.8-13.1-0.7c-7.2,0.1-10.5,0.3-12.7,0.4c-2.3,0.1-4.1,0.8-4.7,1.2
	c-1.4,0.9,0.6,13.5,1,18.3s0.8,13.5,1,17.4c0.3,3.9,0.7,8.1,1,8.8s1.3,1.6,2.9,1.7c1.6,0,3-1.2,4.7-3.9s6.1-10.1,6.8-10.4
	c0.6-0.3,5.6,0,7.1-0.1c1.5,0,3.7-0.4,4.3-1.4c0.6-1,1.8-8.1,3.2-13.9c1.3-5.8,1.4-8.6,1.6-11.1
	C41.225,4.778,39.825,2.178,37.925,0.878z M38.425,8.478c-0.2-0.4-0.3-1.5-0.8-1.3s-0.6,0.5-0.5,1.1s0.8,1.7,0.9,1.9
	c0,0.2-0.1,1.6-0.2,1.4s-1-2.5-1.2-2.4s-0.6,0.2-0.4,0.9c0.2,0.6,1.2,2.9,1.2,3.2c0,0.4-0.2,1.4-0.3,1.2s-1-2.9-1.3-3
	s-0.8,0.3-0.6,0.7c0.1,0.4,1.8,3.8,1.8,3.8s-0.3,2.3-0.4,2.2s-1.4-3.8-1.6-3.8s-0.5,0.7-0.5,0.7s1.9,4.2,1.8,4.6
	c-0.1,0.4-0.3,1.5-0.4,1.4c-0.1-0.2-1.1-3.2-1.5-3.2s-0.8,0.8-0.7,1s1.8,3.6,1.9,4c0.1,0.3-0.3,2.8-0.4,2.7s-1.5-4.8-1.8-4.8
	c-0.2,0-0.6,0.2-0.5,0.9s1.9,5.2,1.9,5.7s-0.2,2-0.3,1.7s-2-5.3-2.2-5.4c-0.1-0.1-0.7,0.6-0.6,0.8c0,0.2,2.5,5.9,2.4,6
	s-0.9,0.3-1,0.1s-1.5-4.8-1.8-5c-0.2-0.1-0.6,0.3-0.6,0.6c0.1,0.3,1.6,4.4,1.5,4.4s-0.7,0.1-0.8-0.1c-0.1-0.1-1.5-4.6-1.9-4.6
	s-0.8,0.2-0.8,0.3s1.8,4.3,1.6,4.4c-0.2,0.1-0.8,0-1-0.1c-0.1-0.1-1.3-4.3-1.6-4.4c-0.3-0.1-0.8,0.2-0.8,0.5s1.5,3.8,1.4,3.9
	c-0.1,0-0.6,0-0.7-0.1c-0.1-0.1-1.3-4-1.4-4c-0.1,0-0.7,0.2-0.7,0.5s1.3,3.6,1.2,3.6s-0.9,0.2-1,0c-0.2-0.2-1.4-4.3-1.8-4.4
	c-0.4-0.1-0.5,0.3-0.6,0.4s1.5,4,1.5,4s-0.6-0.1-0.8,0.1c-0.2,0.2-0.2,0.3-0.2,0.2s-1.6-4-1.8-4s-0.5,0.1-0.6,0.4
	c-0.1,0.3,1.7,3.9,1.7,4c0,0.2-0.6,0.9-0.7,0.9c-0.1,0-1.4-3.6-1.7-3.6s-0.7,0.2-0.7,0.5s1.6,4,1.6,4l-0.5,1.2c0,0-1.4-3.4-1.7-3.5
	s-0.7,0.4-0.7,0.6c0,0.3,1.8,3.4,1.8,3.8s-0.6,1.2-0.7,1.1s-1.1-3.6-1.4-3.7s-0.9,0.3-0.8,0.6c0.1,0.3,1.5,3.8,1.5,4.1
	c0,0.2-0.2,0.5-0.3,0.3s-1.2-2.8-1.4-2.9c-0.2,0-0.7,0.4-0.7,0.6c0.1,0.2,1.4,2.9,1.4,3.2c-0.1,0.3-0.3,0.9-0.5,0.7s-0.7-1.9-1-1.9
	c-0.4,0-0.8,0.4-0.7,0.7c0.1,0.2,1,2.6,0.9,2.7c-0.1,0.1-2.2,3.4-3.4,4.3c-1.2,0.8-1.8,0.4-2.1,0.2c-0.2-0.2-1.2-13.6-1.5-18.1
	s-1.2-18.4-1.4-20.1c-0.2-1.7-0.6-4-0.2-4.5c0.3-0.4,2.6-0.9,4.2-1.1c1.6-0.2,14-0.3,17.6-0.4c3.6-0.1,6,0.1,6.8,0.5
	c0.8,0.3,2.2,0.9,2.1,2.9C39.025,6.378,38.725,8.878,38.425,8.478z M33.025,5.678c-0.8-0.2-9-0.2-12.4,0.1s-5.8,0.6-6.5,1
	c-1.4,0.9-1.1,4-1,5.9s0.5,10,0.6,12.4s0.6,9.8,0.7,9.9c0.1,0.1,0.7,0.1,0.9-0.2s3-5.2,3.8-6.6c0.8-1.4,1.9-2.4,2.2-2.4
	s4.3-0.2,6.1-0.4c1.8-0.1,2.5-0.5,3-1.3c0.5-0.9,1.3-4.3,1.2-4.6c0-0.3-1.5-3.1-1.7-3.4c-0.2-0.3-0.8-0.3-0.9-0.1
	c-0.2,0.2,0.9,2.2,1,2.3c0.1,0.2-0.8,0.1-0.9,0.1c-0.1,0-1-2.1-1.2-2.3c-0.1-0.2-0.8-0.1-1,0c-0.1,0.1,0.9,1.9,0.9,2.1
	c0.1,0.2-0.6,0.2-0.8,0.2c-0.2-0.1-0.9-2.3-1-2.4c-0.1-0.1-0.7-0.1-0.8,0.1s0.8,2,0.9,2.2c0.1,0.2-0.5,0.3-0.7,0.2s-1-2.1-1.2-2.4
	c-0.2-0.3-0.8-0.2-0.9,0c-0.1,0.2,0.9,2,0.9,2.1c0.1,0.1-0.5,0.2-0.7,0.1s-1-1.9-1.1-2.1c-0.1-0.2-0.7-0.1-0.8,0.1
	c-0.1,0.2,0.7,1.6,0.8,1.8s-0.7,0.3-1.1,0.1c-0.4-0.2-0.6-0.3-0.5-1s0.2-1.5,0.6-1.7c0.3-0.2,0.9-0.3,3.2-0.3s4.4,0,6.1-0.3
	c1.7-0.3,2-0.9,2.7-2.4c0.7-1.6,1.3-5.2,1.3-5.6C34.725,6.378,33.825,5.878,33.025,5.678z M31.325,13.578c-0.7,0.3-2.9,0.4-5.3,0.5
	c-2.4,0.1-4.5,0.1-5.2,0.4c-0.8,0.3-0.9,2.2-1,2.9s0.3,1.3,0.9,2.1s1,1.2,1.2,1.2c0.2,0.1,4.2,0,5.9,0s2.3,0,2.4,0.1
	c0.1,0.1-0.5,1.8-0.7,2.4c-0.2,0.6-1,0.9-1.9,1s-6.3,0-6.9,0.3c-0.6,0.3-2.2,2.4-2.6,3c-0.5,0.7-0.7,1.4-0.9,1.4s-0.3-1.4-0.3-2.1
	s-0.1-7.5-0.1-10.5s-0.2-5.4,0.3-6.1c0.1-0.2,0.7-0.3,2.6-0.3c1.9,0,10.5-0.1,11.7-0.1c1.2,0,1.7,0,1.7,0.4
	C32.925,10.578,32.025,13.278,31.325,13.578z M12.825,3.878c0.3-0.1,0.3-0.4-0.1-0.7c-0.4-0.4-1.8-0.1-2.6,0s-1,1.5-0.9,2.5
	s0.4,3,0.6,3.1c0.2,0.1,0.6,0.1,0.8-0.1s-0.2-4.1-0.1-4.3S12.525,3.978,12.825,3.878z M33.625,2.178c-1.1,1.1,1.2,1.2,2.3,1.4
	c1.1,0.3,1,1.1,1,1.5s0.4,0.8,0.8,0.7s0.4-1.9-0.1-2.5C37.025,2.678,33.825,1.978,33.625,2.178z M14.325,40.678
	c-0.3-0.2-1.1,1.1-1.2,0.9s-0.5-5.5-0.5-6.4s-0.9-0.8-1-0.6c-0.2,0.4,0,2.9,0.1,4.4s0.1,4.3,0.6,4.4c0.5,0.2,1.4-0.1,2-1
	S14.625,40.878,14.325,40.678z"/>
<g>
</g>
<g>
</g>
<g>
</g>
<g>
</g>
<g>
</g>
<g>
</g>
<g>
</g>
<g>
</g>
<g>
</g>
<g>
</g>
<g>
</g>
<g>
</g>
<g>
</g>
<g>
</g>
<g>
</g>
</svg>
