<?xml version="1.0" encoding="iso-8859-1"?>
<!-- Generator: Adobe Illustrator 18.1.1, SVG Export Plug-In . SVG Version: 6.00 Build 0)  -->
<svg version="1.1" id="Capa_1" xmlns="http://www.w3.org/2000/svg" xmlns:xlink="http://www.w3.org/1999/xlink" x="0px" y="0px"
	 viewBox="0 0 46.061 46.061" style="enable-background:new 0 0 46.061 46.061;" xml:space="preserve">
<path id="ello" d="M43.361,12.356c-2.3-5.2-4.5-6.7-10.4-9.9c-5.9-3.2-11.9-2.6-15.5-1.9c-3.6,0.6-9.1,5.2-10.7,7
	c-1.5,1.8-3.9,6.1-5.2,11.8c-0.7,3.3-0.6,6.9,0.4,10.3s2.1,5.8,5.5,9.2c3.4,3.5,7.1,6.2,12.8,7c5.7,0.8,11.2-0.7,17-5.2
	s6.7-10.7,7.1-13.7C44.961,23.956,45.661,17.656,43.361,12.356z M42.561,29.256c-1.8,4.4-4.9,7.9-10.3,10.7
	c-5.4,2.8-10.5,3.4-15.4,1.9s-8.6-6.1-10.6-9.3c-2-3.2-3.3-8.1-3.5-10.7c-0.2-2.5,1.3-7.6,2.1-9c1.5-2.8,3.2-5.6,7-8.2
	s6.8-3.7,11.9-3.7c5,0.1,8.9,2.4,12.1,4.4c3.2,2.1,4.7,4.5,6.4,9.4C43.961,19.756,44.361,24.856,42.561,29.256z M33.461,23.556
	c-1,0.1-1.3,0.7-2.6,2.2c-1.3,1.5-3.4,3.2-5.2,4c-1.8,0.8-4.7,0.7-7.2-0.7c-2.5-1.3-3.5-3-4.4-4.6s-1.6-1.6-2.5-1.4
	c-1.5,0.4-2.1,1.9-1.8,2.4c0.3,0.5,1,4.1,3.7,6.4c2.6,2.3,5.8,3.7,9.9,3.3c4.1-0.4,8.2-3.9,9.5-5.4c1.3-1.5,3.1-3.9,2.8-4.6
	C35.261,24.456,34.461,23.456,33.461,23.556z M33.461,27.456c-0.4,0.8-2.9,3.3-5,4.8c-2.2,1.4-4.2,2.3-7.3,2.2
	c-3.1-0.1-6.1-2.2-7.3-3.2c-1.2-1-1.6-2.5-1.6-2.8s0.2-1.1,0.9-1c0.4,0.1,3.1,3.2,5.2,3.9c2.1,0.8,4.6,1.1,6.9,0.6
	c2.3-0.6,5-2.4,6.1-3.8c1.1-1.4,1.1-1.8,1.5-1.8S33.861,26.656,33.461,27.456z"/>
<g>
</g>
<g>
</g>
<g>
</g>
<g>
</g>
<g>
</g>
<g>
</g>
<g>
</g>
<g>
</g>
<g>
</g>
<g>
</g>
<g>
</g>
<g>
</g>
<g>
</g>
<g>
</g>
<g>
</g>
</svg>
