<?xml version="1.0" encoding="iso-8859-1"?>
<!-- Generator: Adobe Illustrator 18.1.1, SVG Export Plug-In . SVG Version: 6.00 Build 0)  -->
<svg version="1.1" id="Capa_1" xmlns="http://www.w3.org/2000/svg" xmlns:xlink="http://www.w3.org/1999/xlink" x="0px" y="0px"
	 viewBox="0 0 46.617 46.617" style="enable-background:new 0 0 46.617 46.617;" xml:space="preserve">
<path id="snap_x5F_chat" d="M45.361,37.217c0.4-0.4,0.4-1,0.2-1.4c-0.2-0.4-2-2-3.1-3.7c-1.1-1.8-1.8-5.4-1.8-5.4s0.7-0.3,1.1-0.6
	s1.2-1.2,1.7-2.4s0-3.3-0.6-3.7s-3.2,0.2-3.7,0.1c-0.4-0.1-0.3-0.4-0.2-2c0-1.5-1-6.6-2.1-10.2c-1.1-3.6-3.2-7.3-7.7-7.8
	s-9,0.6-12.2,3.3c-3.2,2.8-4.3,6.5-5,9.6c-0.6,3.1-0.6,7-0.8,7.3s-2.5-0.8-3.8-0.5c-1.3,0.2-1.4,1.3-0.9,2.7
	c0.5,1.3,2.3,2.1,2.5,2.3s0.1,0.4-0.2,2.2c-0.3,1.7-2.8,5.3-4.6,7.2c-1.8,1.9-3,2-3.2,2.3c-0.1,0.3-0.1,1.6,1.6,3.2
	c1.7,1.6,4.3,1.7,4.3,1.7c0.5,0.7,1.9,2.1,3.7,2.3c1.8,0.2,5.4-1.1,5.4-1.1s1.4,1.5,3.1,2.6s3.8,1.4,8.4,1.4c4.7,0,7.5-3.3,7.5-3.3
	s1.4,0,4.6-0.3c3.1-0.3,4.1-1.2,4.2-1.5s-0.9-2.4-0.7-2.5C43.361,38.817,44.961,37.617,45.361,37.217z M37.361,30.917
	c0.3,0.4,4.9,5,5.1,5.4s0.4,0.7,0.3,0.8s-1.2,1-1.5,0.7s-4.6-5.2-4.8-5.4c-0.3-0.2-0.5-0.5-0.7-0.3s-0.4,0.5-0.2,0.6
	c0.2,0.1,5.3,5.2,5.3,5.3s-0.6,0.1-0.4,0.5c0.1,0.4,0.6,1.7,0.5,1.8s-3.6-4.3-4.5-5.1s-1.2-0.9-1.4-0.8c-0.2,0.2-0.7,0.3-0.3,0.6
	c0.4,0.2,2.6,2.4,3.8,3.7c1.2,1.4,1.6,1.6,1.4,1.7c-0.3,0.1-0.9,0.3-1.1,0.1s-4.7-4.6-5-4.9c-0.3-0.3-0.4-0.3-0.7-0.1
	c-0.3,0.2-0.6,0.3-0.1,0.7c0.5,0.3,5.4,4.5,5.1,4.5s-1.9,0.2-2.3-0.1s-3.3-3.9-3.8-4s-1.1-0.1-0.8,0.3c0.3,0.4,3.6,3.4,3.2,3.4
	s-1.3,0-1.3,0s-2.4-3.1-2.6-3s-0.5,0.4-0.3,0.6c0.2,0.3,2.4,2.6,2.4,2.7c0,0.1-0.6,0.9-0.8,0.5s-2.1-2-2.5-1.9c-0.4,0-0.4,0.3,0,0.6
	s2.1,1.6,1.9,1.7c-0.2,0.1-1,0.6-1.1,0.6c-0.1-0.1-1.8-2-2.2-2c-0.3,0-0.9,0.1-0.6,0.4c0.3,0.2,2.3,1.9,1.8,2s-0.9,0.4-1.1,0.3
	c-0.2-0.1-1.4-1.9-1.8-1.8c-0.3,0.1-0.9,0.5-0.6,0.7s1.4,1.3,0.9,1.4c-0.4,0-4.1,0-6.6-1.1c-2.5-1.2-3.9-2.2-4.5-2.3
	c-0.6-0.1-2.8,0.7-4.6,0.7c-1.8,0-2.1,0.2-2.3-0.1c-0.2-0.3-0.6-2.4-1.2-2.4s-3.5,0.4-5.3-1.6c-0.2-0.2,3.4-1.3,5.3-4.7
	c1.8-3.4,3.3-6.1,2.7-7c-0.6-0.9-2-1.4-2.4-2.4c-0.4-0.9-0.9-1.6,0.2-1.6s3.1,0.7,3.7,0.6c0.6,0,0.7-0.6,0.7-1.5s0.1-6.2,1.2-9.3
	s2.8-5.7,6.1-7.6c3.3-1.9,7.1-2.2,9.4-1.9c2.3,0.2,4.5,2.1,4.9,2.5s0.6,0.7,0.4,0.6c-0.2-0.1-1.6-1.5-1.9-1.1
	c-0.3,0.3-0.4,0.8,0.3,1.2c0.7,0.4,2.6,2,2.7,2.2s0.8,1.6,0.5,1.5c-0.3-0.2-2.8-2.6-3.1-2.3c-0.3,0.3-0.3,0.6,0,0.8s3.2,2.4,3.3,2.6
	s1,2.3,0.7,2s-3.2-2.8-3.5-2.6s-0.6,0.4-0.1,0.6c0.5,0.3,3.9,3.1,4,3.4c0.1,0.3,0.7,2.4,0.4,2.2c-0.3-0.2-3.3-2.9-3.4-2.9
	c-0.1,0.1-0.3,0.4-0.1,0.5s3.6,3,3.7,3.3c0,0.3,0.5,1.8,0.1,1.7s-3.4-3.2-3.7-3c-0.3,0.2-0.2,0.9,0,1s3.8,2.8,3.8,2.9
	c0,0.2,0.2,1.8,0,1.7c-0.1-0.1-3.3-2.6-3.6-2.5s-0.2,0.6,0,0.9c0.2,0.2,3.5,2.4,3.8,2.5s1.1,0.4,2,0.2s1.9-0.2,2.1-0.1
	s-0.1,1.4-0.7,2.4s-1.3,1.2-1.7,1.4c-0.4,0.2-0.7,0.5-0.7,0.7c0,0.1,0,0.3,0,0.3s-1.9-2.2-2.3-2.1s-0.6,0.7-0.5,0.9
	c0.1,0.1,2.8,2.1,3,2.6s1.3,3.3,0.9,3c-0.3-0.3-3.5-3.6-3.7-3.5s-0.4,0.9-0.2,1c0.2,0.1,4.4,4,4.5,4.1s1.4,2.4,2.1,3s1.3,1,1.3,1.1
	s-0.7,1-0.9,0.8s-4.1-4.6-4.9-5.4c-0.8-0.8-1.3-1.3-1.7-1.2C36.561,30.217,37.061,30.617,37.361,30.917z M10.961,27.617
	c-0.3,0.1-0.8,1.1-1.5,2.7c-0.7,1.6-2.1,2.6-2.2,3c-0.2,0.7,0.1,0.7,0.4,0.7c0.4,0,1-0.6,1.7-1.6s1.4-2.3,2.1-3.6
	C12.061,27.417,11.261,27.517,10.961,27.617z M19.761,5.417c-1,0.3-3.9,2.9-4.5,4.4s-1.2,4.3-0.9,4.8c0.2,0.4,0.6,0.3,1,0.2
	c0.3-0.2,0.1-2,0.7-4.2c0.7-2.2,3.2-3.5,3.9-4C20.661,6.017,20.761,5.117,19.761,5.417z"/>
<g>
</g>
<g>
</g>
<g>
</g>
<g>
</g>
<g>
</g>
<g>
</g>
<g>
</g>
<g>
</g>
<g>
</g>
<g>
</g>
<g>
</g>
<g>
</g>
<g>
</g>
<g>
</g>
<g>
</g>
</svg>
