<?xml version="1.0" encoding="iso-8859-1"?>
<!-- Generator: Adobe Illustrator 18.1.1, SVG Export Plug-In . SVG Version: 6.00 Build 0)  -->
<svg version="1.1" id="Capa_1" xmlns="http://www.w3.org/2000/svg" xmlns:xlink="http://www.w3.org/1999/xlink" x="0px" y="0px"
	 viewBox="0 0 48.455 48.455" style="enable-background:new 0 0 48.455 48.455;" xml:space="preserve">
<path id="google_x2B_" d="M13.268,7.713c0.2-0.4-0.6-0.7-0.9-0.4c-1.2,1-1.3,4.5-0.9,5.4c0.4,0.9,1,2.9,1.6,3.1c0.6,0.3,1,0,1-0.4
	s-1.4-1.7-1.7-3.3C12.168,10.613,13.068,8.113,13.268,7.713z M29.168,10.013c0,0.4,0.4,0.6,0.6,0.5c0.3-0.1,0.4-0.4,0.5-1.4
	c0-1-1.2-3-1.8-3.5c-0.6-0.5-1.1-0.8-1.4-0.6c-0.5,0.4,0.9,1.6,1.6,2.6C29.468,8.513,29.168,9.613,29.168,10.013z M25.968,16.713
	c0.9-1.7,0.2-5.5-1.7-9.2c-1.9-3.8-4.8-3.5-5.7-3.2c-4.5,2-4.3,5.1-3.7,7.2c0.6,2.1,2.1,5.9,5.3,7.1
	C23.368,19.813,25.068,18.513,25.968,16.713z M16.668,11.813c-0.4-1.9,0.3-3.7,1.8-4.3c1.3-0.5,3.4-0.2,5,1.9s2.2,5.3,1.4,6.9
	c-0.8,1.6-2.4,2.2-3.9,1.3C19.368,16.913,17.068,13.713,16.668,11.813z M27.768,24.713c-0.7-3.5,2.3-4.1,3.8-6.2
	c1.5-2.1,2.4-5.3,2.2-7c-0.1-1.7-1.4-5.2-1.4-5.7s3.3-2.8,3.5-3.1c0.2-0.3,0.5-1.1,0.2-1.7c-0.2-0.6-0.7-0.6-2-0.6
	s-9.2-0.5-12.4-0.4c-3.2,0.1-6.6,1-9.2,2.3s-4.9,3.3-6.1,6s-1.4,4.5-0.5,8c0.9,3.4,3.5,5.5,4.8,6.5s6.3,1.7,6.7,1.9
	c0,0,0.1,0.4,0.2,0.8c0.1,0.5,0.3,0.9,0.3,0.9s-0.2,0.1-1,0.2c-0.8,0.1-3.9,1-6.5,2.7s-6.1,4.8-5.7,8.2s1.2,5.8,4.4,8.1
	c3.2,2.4,6.3,3.2,11.9,2.7c5.5-0.5,9.8-3.6,11.4-6.5c1.7-2.9,1.7-5.6,0.5-8.7C31.868,29.813,28.468,28.113,27.768,24.713z
	 M31.868,36.813c-0.3-0.2-2.9-2.4-3.6-2.6c-0.7-0.2-0.9-0.4-1.1-0.1c-0.1,0.3-0.2,0.7,0.2,0.8c0.5,0.1,2.8,1.8,3.2,2.1
	c0.5,0.3,0.9,0.3,0.9,0.7s0,1-0.2,0.9s-3.4-2.7-3.6-2.7s-0.7,0.5-0.4,0.7s3.5,2.5,3.5,2.8s-0.2,0.7-0.3,0.7c-0.1,0-3.2-2.5-3.4-2.4
	c-0.2,0.2-0.6,0.7-0.5,0.7c0.1,0.1,2.8,2,2.7,2.2c0,0.2-0.6,0.9-0.7,0.7c-0.2-0.2-1.8-2-2.2-2c-0.3,0-0.6,0.4-0.5,0.5
	s1.9,1.7,1.8,1.9s-0.6,0.4-0.6,0.4s-1.7-1.4-2-1.4c-0.3,0.1-0.7,0.4-0.5,0.5s1.6,1.2,1.5,1.4c-0.1,0.1-0.9,0.4-0.9,0.4
	s-1.3-1.5-1.6-1.3c-0.3,0.2-0.7,0.2-0.5,0.4s1.1,1.3,0.9,1.5s-4.1,0.9-8.1,0.5c-4-0.3-7.1-1.5-8.4-3.3s-1.8-4.6-1.4-6.3
	s3.1-4.2,5.4-5.5s6-2.2,6.5-2.3s1.1-0.3,1-0.9c-0.1-0.6-0.7-1.6-0.2-2.4c0.4-0.7,2.1-2.2,1.8-2.5c-0.3-0.3-0.7-0.2-3-0.4
	s-6.7-0.9-8.1-2s-3.1-3.4-3-7.7c0.1-1.6,1.5-4.8,3.5-6.5s6.4-3.1,8.1-3.5c1.8-0.4,6.2-0.3,8.5-0.2c2.4,0,7.3-0.1,7.5,0.2
	c0.2,0.2-3.4,2.3-3.6,2.5c-0.2,0.3-0.3,1.1,0.1,1.9c0.4,0.8,1,3.2,1.3,4.3c0.2,1.1,0,1.8,0,1.8s-1.3-1.2-1.4-1s-0.7,0.6-0.3,0.8
	c0.3,0.2,1.4,1.3,1.5,1.4c0.1,0.2,0.2,1.2,0,1.1s-2-2.2-2.3-2s-0.8,0.3-0.4,0.6c0.4,0.3,2.4,2.2,2.4,2.4s-0.2,1-0.4,0.9
	c-0.2,0-2.6-2.6-2.9-2.5c-0.2,0.1-0.5,0.4-0.4,0.5s2.7,2.6,2.6,2.8c0,0.2-0.6,0.8-0.7,0.8s-2.1-2.2-2.2-2.1s-0.5,0.6-0.3,0.8
	c0.2,0.2,1.8,1.8,1.8,2c-0.1,0.2-0.4,0.7-0.7,0.6c-0.3,0-1.4-1.3-1.6-1.2c-0.2,0.1-0.7,0.2-0.5,0.5s1.4,1.4,1.3,1.5
	c-0.1,0.2-1,1.2-1.2,1.8c-0.2,0.6-0.3,1.3-0.3,1.3s-2.2-1.8-2.4-1.7s-0.4,0.6-0.2,0.8c0.2,0.1,2.2,1.5,2.2,1.6s0.3,0.8,0.1,0.7
	s-1.8-1.3-1.9-1.1c-0.1,0.2,0.1,0.8,0.2,0.9s1.8,1.3,2,1.5c0.1,0.2,0.4,1.3,0.4,1.3s-1.7-1.4-1.8-1.1c-0.1,0.3,0,0.8,0.2,0.9
	c0.2,0.1,2.7,1.5,3,1.8s0.4,0.8,0.4,0.8s-0.7,0.6-0.5,0.7c0.2,0.2,2.4,1.3,3.2,2c0.8,0.7,1.2,1.5,1.2,1.8s-0.2,0.3-0.2,0.3
	s-3.4-2.9-4-2.8c-0.7,0.1-0.4,0.6-0.2,0.9c0.3,0.3,3.8,2.8,4.1,3c0.3,0.2,0.6,0.4,0.6,0.7
	C32.068,36.113,32.168,36.913,31.868,36.813z M11.168,32.213c-0.1-0.3-0.5-0.3-1.7,0.3s-2.1,2-2.5,2.7s-0.2,2.9,0,3
	c0,0,0.4,0.1,0.8,0.1s0.2-2.4,0.6-3.2c0.3-0.8,1.8-1.7,2.5-1.9C11.368,32.813,11.268,32.513,11.168,32.213z M15.668,30.613
	c-2.8,0.9-4.5,3.2-5.3,4.1c-2,2.4-0.5,5,0.9,6.3c1.5,1.3,3.4,1.8,7.1,1.7s6.3-2.2,7.4-4.7s0-4.3-1.6-5.9
	C22.568,30.613,18.468,29.713,15.668,30.613z M23.168,39.913c-1.8,1-4.7,1.8-6.8,1.8c-2.2,0-4.6-1.8-4.4-3.5s1.2-3.2,2.1-3.8
	c1.2-0.7,4.2-1.9,6.6-1.8c2.5,0.1,3.9,2,4.2,3.3C25.068,37.413,24.968,38.913,23.168,39.913z M43.668,24.913c0.2-0.1,0.2-3.5,0-4.1
	s-2.8-0.7-2.9-0.7s-0.1-1.8-0.3-2.3c-0.2-0.5-4.2-0.2-4.4-0.1c-0.2,0.2,0,2.4,0,2.6s-3.1,0.1-3.5,0.2s-0.2,4,0,4.3
	c0.2,0.2,2.1,0.1,2.2,0.2c0.2,0,0.2,1.6,0.2,2.1s1.9,1.5,2.2,1.7c0.3,0.2,4.1-0.1,4.5-0.4c0.5-0.3,0.1-3.2,0.1-3.4
	C41.868,24.913,43.468,25.113,43.668,24.913z M39.468,23.813c0,0.4,0.3,3.1,0.1,3.2c-0.1,0.1-2.4,0-2.5-0.1c-0.1-0.2-0.2-2.9-0.4-3
	c-0.2-0.1-3.3,0.1-3.3-0.1c0-0.2-0.4-2,0.2-2.1s3.4,0.2,3.4-0.2c0-0.4,0-2.3,0.1-2.6c0.1-0.3,2.2-0.2,2.3,0.1c0.1,0.3,0,2.3,0.3,2.4
	s2.5,0,2.6,0.2s0.1,2.1-0.1,2.2C41.968,23.813,39.468,23.413,39.468,23.813z"/>
<g>
</g>
<g>
</g>
<g>
</g>
<g>
</g>
<g>
</g>
<g>
</g>
<g>
</g>
<g>
</g>
<g>
</g>
<g>
</g>
<g>
</g>
<g>
</g>
<g>
</g>
<g>
</g>
<g>
</g>
</svg>
