<?xml version="1.0" encoding="iso-8859-1"?>
<!-- Generator: Adobe Illustrator 18.1.1, SVG Export Plug-In . SVG Version: 6.00 Build 0)  -->
<svg version="1.1" id="Capa_1" xmlns="http://www.w3.org/2000/svg" xmlns:xlink="http://www.w3.org/1999/xlink" x="0px" y="0px"
	 viewBox="0 0 46.042 46.042" style="enable-background:new 0 0 46.042 46.042;" xml:space="preserve">
<path id="hashtag" d="M42.924,14.473c-0.6-0.2-2.9-0.1-3.4-0.3s3.3-9.6,3.4-10s-0.5-2.6-0.7-3c-0.3-0.5-1-1-2-1s-6.3-0.5-7,0.2
	s-4.5,13-4.6,13.4s-1.2,0.1-1.6-0.1c-0.5-0.2,2.3-9,2.4-9.4s-0.5-2.4-1.1-2.8c-0.6-0.5-9.2-0.8-9.7-0.4c-0.6,0.4-4.4,11.9-4.6,12.3
	c-0.2,0.4-3-0.3-3.4-0.4c-0.5-0.1-2,0.5-2.3,0.9c-0.3,0.5-2.1,5.1-2.1,5.7c0,0.6,0,2,0.6,2.4s3.7,0.1,4,0.3s-0.2,1.6-0.4,2.1
	c-0.2,0.6-0.2,0.1-0.8,0.1s-4.5-0.3-4.8-0.2s-2.9,5.8-3,6.2s1.2,2.8,1.4,3s4-0.3,4.5,0.3s-3.2,8.7-3.3,9.3c-0.2,0.6,0.8,2.6,1.1,2.8
	s1.2,0,1.8,0s7.5,0.3,8.2,0.1c0.7-0.3,5.1-12.6,5.4-12.9c0.3-0.4,1.3-0.1,1.5,0.2s-3.7,9.1-3.8,9.5s0.5,2.1,0.8,2.3s8.7,0.2,9.8,0
	s5.1-12.2,5.2-12.5s3.7-0.2,4.1-0.3s3-4.2,3-4.4s-0.5-2.5-0.8-2.8s-5.6-0.3-6-0.5s0.6-2.4,1-2.8s5.2,0.2,6.2-0.1
	c1-0.2,2.3-5.9,2.3-5.9S43.524,14.673,42.924,14.473z M40.724,19.473c-0.5,0-4.9-0.6-5.3-0.3c-0.3,0.3-1.7,3.8-1.9,4.5
	c-0.1,0.7,0.1,1.7,0.7,1.8c0.5,0.1,3.7,0.1,4.3,0.2c0.6,0,1,0,1,0s-1,3.1-1.1,2.7c-0.1-0.4-1-2-1.4-1.9c-0.3,0-0.6,0.3-0.5,0.5
	s1.4,1.9,1.3,2.3s-0.4,1-0.6,0.8s-2.1-3.5-2.3-3.5s-0.7,0.3-0.5,0.5s1.8,3,1.7,3c-0.1,0-0.5,0.3-0.6,0s-2.2-3.7-2.4-3.8
	s-0.6-0.1-0.4,0.4c0.2,0.4,2.1,3.4,1.9,3.4c-0.1,0-0.8,0.3-1.1,0c-0.2-0.4-2.4-4-2.7-4c-0.3,0-0.7,0.1-0.5,0.5s2.4,3.4,2.2,3.4
	c-0.2,0.1-0.8,0.2-0.8,0.2s0,0.5-0.1,0.3s-2.9-4.5-3-4.4s-0.6,0.7-0.4,0.9c0.2,0.1,3.1,4.2,3.1,4.3s-0.5,2.2-0.7,1.8
	c-0.2-0.3-3-4.6-3.2-4.7c-0.2,0-0.6,0.6-0.4,0.8s3.2,4.5,3.2,4.7s-0.3,2-0.6,1.5c-0.3-0.5-2.9-4.9-3.1-4.6s-0.4,0.8-0.3,1
	s3,4.2,3,4.5s-0.1,1.3-0.2,1.2c-0.1-0.2-3.1-4.3-3.3-4.3s-0.6,0.5-0.5,0.7c0.2,0.2,3.4,4.2,3.4,4.6c0,0.3-0.3,1.7-0.5,1.5
	s-2.7-3.8-3-3.8s-0.6,0.2-0.4,0.6c0.2,0.4,2.8,3.5,2.8,4.1s-0.1,1.2-0.4,1.2s-0.6,0.3-0.8,0.1s-2.6-3.8-2.8-3.8
	c-0.2-0.1-0.5,0.1-0.4,0.3c0,0.2,2.9,3.8,2.4,3.8s-1,0.1-1.2,0s-1.8-2.9-2.1-2.8c-0.3,0.1-0.8,0.3-0.5,0.7c0.3,0.3,2,2.2,1.6,2.2
	s-3.2,0.1-3.2-0.2s3.8-10.1,4.1-11c0.2-0.9,0-1.3-0.4-1.4s-4.1-0.4-4.3-0.3c-0.3,0-1,2.5-1.1,2.5c-0.1-0.1-2.8-4.4-3.1-4.5
	c-0.3-0.1-0.7,0.4-0.6,0.7c0.2,0.2,3.2,4.9,3.1,5.2s-0.5,1.3-0.6,0.9c-0.1-0.4-2.8-4.9-3.1-4.8c-0.3,0.1-0.5,0.4-0.3,0.8
	c0.2,0.4,3.1,4.7,3.2,5s0.1,1.8-0.2,1.1c-0.3-0.7-3-5.2-3.3-5.2s-0.6,0.2-0.4,0.8s3.6,5.2,3.6,5.3s-0.3,1.3-0.4,1.1
	s-3.8-5.7-4.1-5.4c-0.3,0.3-0.4,0.5-0.3,1c0.1,0.4,3.9,4.7,3.8,5.2c0,0.5-0.1,1.7-0.4,1.5s-3.6-5.6-3.9-5.5s-0.7,0.6-0.6,0.7
	c0.1,0.2,4.1,5.5,4.1,5.8c0,0.2-0.2,1-0.5,0.9s-4-5.2-4.2-5.1c-0.2,0.1-0.3,0.8-0.3,0.9c0.1,0.1,3.7,4.4,3.6,4.5s-0.9,0.2-1.2,0.1
	s-3.1-3.7-3.2-3.7s-0.8,0.6-0.6,0.8c0.2,0.3,2.3,2.6,2.1,2.7c-0.2,0-1.2,0-1.3-0.2s-1.5-2.4-1.7-2.1c-0.3,0.3-0.5,0.3-0.3,0.6
	s1.3,1.3,1,1.4c-0.3,0.1-2.6,0.4-2.6,0.2s3.5-9.4,3.8-10.3c0.3-0.9,0.6-1.6-0.1-1.6c-0.6,0-6.1,0.1-6-0.5c0.2-0.5,1.3-5,1.9-5
	s5.2,0.5,5.8,0.1c0.6-0.4,1.3-3.5,1.4-4.5s0.2-1.3-0.1-1.5c-0.3-0.2-3.2-0.3-3.8-0.3c-0.6,0-1.1,0.1-1.1-0.1s1.6-4.7,2-4.9
	c0.3-0.2,4.1,0.3,4.8,0.3c0.6,0,1-1.4,1.8-3.5c0.8-2.1,3-8.9,3.3-8.9c0.5-0.1,7.8,0.4,7.9,0.5c0.2,0.1-1.5,6.6-2.1,8.2s-1,3.7-0.7,4
	s2.1,0.4,2.7,0.5s2.1,0.3,2.6-0.8s4-12.6,4.3-12.9c0.2-0.3,6-0.2,6.3-0.1c0.4,0.1,0.2,1.5,0.2,1.7s-4.2,11.2-3.6,11.8
	s2.9,0.6,3.4,0.6c0.4,0,1.8-0.1,1.9,0.3C42.424,15.973,41.324,19.473,40.724,19.473z M24.924,19.773c-0.7-0.1-2-0.1-2.3,0.2
	c-0.3,0.4-1.7,4.6-1.5,5.1s3.8,0.6,4.4,0.6c0.6-0.1,1.4-4.2,1.7-4.9C27.524,19.973,25.624,19.873,24.924,19.773z M25.124,24.473
	c-0.3,0-1.6,0.1-1.7-0.1s0.8-2.7,0.8-2.7c0.2-0.1,1.4,0.1,1.5,0.3C25.924,22.173,25.424,24.473,25.124,24.473z M18.424,29.873
	c0.1-0.3-0.9-2.3-1-2.4c-0.2-0.1-0.7-0.2-0.7,0.1s1.3,2.7,1.6,2.9C18.524,30.573,18.324,30.173,18.424,29.873z M9.824,15.273
	c-0.6-0.1-1.4,2.4-1.2,2.7c0.2,0.2,0.1,0.5,0.6,0.4c0.6-0.1,0.7-1.3,0.7-1.8c0.1-0.5,2.8,0.3,3.2,0.3c0.3,0,0.4-0.4,0.5-0.9
	S10.524,15.373,9.824,15.273z M23.324,4.473c0.4,0,0.4-0.7,0.2-1c-0.2-0.4-2.9-0.3-3.2-0.3c-0.3,0-2.2,5.9-2.1,6.2
	c0,0.2,0.6,0.4,0.9,0.3c0.4-0.1,1.4-4.7,1.5-5.2C20.724,3.973,22.924,4.373,23.324,4.473z M34.224,2.873c-0.3,0.2-1.4,4.3-1.2,4.6
	c0.1,0.2,0.5,0.1,0.8,0s0.9-3,0.9-3.4c0.1-0.4,1-0.2,1.3-0.3s0.3-0.6,0.1-0.7C35.924,2.873,34.524,2.773,34.224,2.873z"/>
<g>
</g>
<g>
</g>
<g>
</g>
<g>
</g>
<g>
</g>
<g>
</g>
<g>
</g>
<g>
</g>
<g>
</g>
<g>
</g>
<g>
</g>
<g>
</g>
<g>
</g>
<g>
</g>
<g>
</g>
</svg>
