<?xml version="1.0" encoding="iso-8859-1"?>
<!-- Generator: Adobe Illustrator 18.1.1, SVG Export Plug-In . SVG Version: 6.00 Build 0)  -->
<svg version="1.1" id="Capa_1" xmlns="http://www.w3.org/2000/svg" xmlns:xlink="http://www.w3.org/1999/xlink" x="0px" y="0px"
	 viewBox="0 0 49.672 49.672" style="enable-background:new 0 0 49.672 49.672;" xml:space="preserve">
<path id="stack_x5F_overflow" d="M42.882,36.284c-0.1-0.4-1.8-2.2-2.4-2.5c-0.6-0.3-4,0.1-4.6,0.2c-0.3,0-0.1,1.2,0,2.4
	s0.6,5.1,0.3,6c-0.3,0.8-1,0.8-3.8,0.7s-9.7,0-14-0.2c-4.2-0.2-5.8-0.2-6-0.4s-0.6-6.8-0.7-8.5s-3.9-1.2-4.6-1.2s-0.8,1.9-0.6,4.1
	c0.1,2.2,0.4,5,0.8,8.1c0.4,3.1,0.7,3.8,1.6,4.3s3.9,0.5,10.9,0.1s20.3-0.2,21.9-0.5s1.6-1.6,1.6-3.6
	C43.182,43.184,43.082,36.684,42.882,36.284z M40.282,42.884c-0.1,3.2,0.1,3.9-0.3,3.9c-0.5,0-9.2,0.3-16.4,0.1s-11.8-0.1-12.7-0.1
	c-0.8,0-1.5,0.3-1.9,0c-0.3-0.3-1.1-4.4-1.3-7s-0.4-5.5,0-5.9c0.1-0.1,2.4-0.9,2.9,0.5s0.6,7.4,0.6,8.1c0,0.7,0.7,0.9,1.4,1
	c0.7,0,6.6,0.4,13,0.5s10.3,0.1,10.8,0s1.1-0.4,1.1-2.2s-0.7-6.8-0.6-6.9c0.1-0.1,2.6-0.5,2.8-0.1S40.382,39.684,40.282,42.884z
	 M15.382,42.284c0.2,0.1,0.4,0,2.5,0.1s10.7,0.2,12.8,0.1c2.1,0,3.4-0.1,3.6-0.5c0.2-0.5,0.1-2.1-0.1-2.9c-0.2-0.8-1.6-0.6-4.3-0.7
	c-2.7-0.1-15.3-0.1-15.3-0.1c-0.4,0.1-0.3,2.4-0.3,2.7C14.282,41.284,15.182,42.084,15.382,42.284z M15.382,39.184
	c0-0.2,9.5-0.1,12.9-0.1c3.5,0,4.7,0,4.8,0.2c0,0.3,0.2,1.8,0,1.8s-5.3,0-10.2-0.2s-7.1,0.1-7.3-0.1
	C15.282,40.684,15.382,39.384,15.382,39.184z M18.982,37.284c2.8,0.2,11.6,0.5,13.1,0.4c1.5-0.1,1.8-0.3,2-0.5s0.4-2.9-0.1-3.2
	s-0.7-0.1-1.5-0.1c-0.8,0-5.4,0-10.8-0.3s-7.4-0.4-7.6-0.2s-0.3,1.9,0,2.7s0.5,0.4,1.1,0.8
	C15.882,37.284,16.282,37.084,18.982,37.284z M14.882,34.184c0.1-0.1,12,0.4,14.3,0.6s3.6,0,3.7,0.3s0.3,1.1-0.3,1.1
	c-0.5,0-9-0.4-12.5-0.5s-5,0.1-5.1-0.1C14.782,35.284,14.682,34.384,14.882,34.184z M14.782,29.184c0.4,0.2,5.8,0.6,10.9,0.8
	s7.8,0.4,8.2,0.2c0.4-0.3,0.3-2.5-0.1-3.1c-0.4-0.6-7.1-0.8-11.4-1.3c-4.2-0.5-7.9-0.7-8.2-0.7c-0.5-0.1-0.5,2.5-0.5,3
	C13.782,28.484,14.282,28.884,14.782,29.184z M15.082,25.884c0.2-0.1,7.4,0.8,10.4,1.1s7,0.5,7.1,0.8c0,0.2,0.2,0.8-0.1,0.8
	s-7.1-0.3-10.2-0.5s-7.2-0.4-7.3-0.6C14.982,27.284,14.982,25.884,15.082,25.884z M16.582,21.784c0.3,0.5,0.9,0.5,3.3,0.9
	c2.5,0.4,13.4,3.4,13.8,3.6c0.5,0.2,1.3-1,1.5-1.7c0.3-0.6,0.1-1.4,0-2.1s-0.6-0.8-5.1-2.2s-13.2-3.8-13.6-4c-0.7-0.4-1.1,3.1-1,3.5
	C15.582,20.284,16.282,21.384,16.582,21.784z M17.082,17.284c0.1-0.1,5.4,1.3,8.9,2.5c3.5,1.1,8,2.9,8.1,3.1s0.2,1.5-0.6,1.3
	c-0.9-0.2-10.8-2.9-13.2-3.4c-2.5-0.6-3.1-0.3-3.3-0.8C16.682,19.484,16.782,17.584,17.082,17.284z M24.182,14.284
	c2.8,1.6,10.4,7.1,10.8,7.4c0.4,0.3,1.1-0.1,1.8-0.8s1.7-2.3,1.5-2.8c-0.3-0.4-6.2-5-8.2-6.7c-2-1.6-7.3-4.9-7.5-4.9
	c-0.6,0.2-2.6,2.4-2.9,3s0.8,2.1,0.9,2.5C20.782,12.484,21.382,12.584,24.182,14.284z M22.782,7.784c0.2-0.1,5,3.2,8.7,6.1
	s5.3,4.1,5.2,4.4s-0.4,1.5-1.2,1.1s-12.5-8.8-13-9.1s-1.1-0.7-1.1-0.9C21.382,9.184,22.482,7.884,22.782,7.784z M29.782,6.684
	c1.2,1.3,8.4,10.7,8.7,10.8s2.9-0.8,3.2-1.1s0.7-1.1,0.2-1.9c-0.5-0.9-9.5-14-10.4-14.4c-0.9-0.5-2.4,1.4-2.5,1.6s-0.5,3-0.4,3.3
	C28.682,5.284,28.582,5.384,29.782,6.684z M30.882,1.284c0.5,0.1,9.8,12.7,9.6,13.1c-0.2,0.5-0.4,1.3-0.8,0.6
	c-0.5-0.7-9.8-12.9-9.8-13C29.782,1.784,30.482,1.084,30.882,1.284z M7.982,35.584c-0.1,0.2,0.3,3.3,0.3,3.7s0.6,0.2,0.9,0
	c0.3-0.1,0-2.8,0-3.1s0.8-0.5,0.7-0.7C9.782,35.284,8.182,35.084,7.982,35.584z M38.482,43.884c-0.1,0.2,0,1.2-0.1,1.4
	c0,0.2-2.6,0-2.8,0.2s-0.1,0.8,0.2,0.9c0.3,0.1,3,0.1,3.5-0.1c0.5-0.2,0.2-1.4,0.2-2.1C39.582,43.384,38.582,43.684,38.482,43.884z"
	/>
<g>
</g>
<g>
</g>
<g>
</g>
<g>
</g>
<g>
</g>
<g>
</g>
<g>
</g>
<g>
</g>
<g>
</g>
<g>
</g>
<g>
</g>
<g>
</g>
<g>
</g>
<g>
</g>
<g>
</g>
</svg>
