<?xml version="1.0" encoding="iso-8859-1"?>
<!-- Generator: Adobe Illustrator 18.1.1, SVG Export Plug-In . SVG Version: 6.00 Build 0)  -->
<svg version="1.1" id="Capa_1" xmlns="http://www.w3.org/2000/svg" xmlns:xlink="http://www.w3.org/1999/xlink" x="0px" y="0px"
	 viewBox="0 0 47.114 47.114" style="enable-background:new 0 0 47.114 47.114;" xml:space="preserve">
<path id="www" d="M5.421,22.506c0.5,0,5.1-0.4,5.9-0.6c0.7-0.2,0.4-1.8,0.4-3.5s0.6-5.3,0.5-5.5s-3.5-0.6-3.8-0.5
	c-1.8,0.9-4.1,6.9-4.2,8.2S5.021,22.506,5.421,22.506z M7.521,17.506c0.6-1.1,1.5-2.5,1.8-2.7s1.6,0.1,1.6,0.1s-0.1,6.2-0.4,6.2
	c-0.3,0.1-3.8,0.3-3.9,0.1C6.421,20.906,6.921,18.606,7.521,17.506z M32.421,11.906c0.3,0.3,1.2,0.2,1.7,0.1c0.5-0.1,2,0.2,2.7-0.2
	s0.2-1-0.5-1.9s-2.5-2.3-4.2-3.1c-1.7-0.8-2.7-0.6-2.8-0.3c-0.2,0.5,0.6,1.2,1,1.7S32.221,11.706,32.421,11.906z M35.021,10.806
	c-0.1,0.2-1.6,0.4-1.9,0.2c-0.3-0.2-1.3-2.5-1.3-2.6C31.821,8.406,35.121,10.606,35.021,10.806z M13.421,33.906
	c-0.3-0.2-2.6,1-2.6,1.4c0.1,0.4,1.8,1.1,2.2,1.4s1.9,1,2.2,0.9s0.1-0.3-0.2-0.9S13.721,34.106,13.421,33.906z M34.221,14.306
	c-1,0.2-0.5,1.6-0.8,2c-0.1,0.1,0.2,5,0.7,5.6c0.5,0.7,4.8,0.5,5.3,0.4s0.7-0.4,0.7-1.5s-0.3-5.1-0.9-6.2
	C38.721,13.606,35.221,14.106,34.221,14.306z M38.121,21.006c-0.2,0.2-2.7,0.4-2.9,0.2s-0.5-3.7-0.5-4c0-0.4,2.8-0.3,3.1-0.1
	C38.121,17.306,38.321,20.806,38.121,21.006z M3.321,19.306c0.1-0.7-0.6-1-1-0.4s-0.6,3.2-0.3,5.5s2.2,6,2.3,6.1
	c0.5,0.3,0.8-0.1,0.9-0.4s-0.8-1.5-1.8-4.2C2.621,23.206,3.221,20.006,3.321,19.306z M11.821,24.806c-0.1-0.2-1.9,0-2.7,0.1
	c-0.9,0.1-2.2,0.1-2.7,0s-1.7,0.1-1.8,0.4c-0.2,0.5,0.3,2.4,1.1,4.1c0.8,1.8,1.7,2.9,2.6,3s1.5-1,2.5-1.5c1.1-0.5,1.9-0.2,2.2-0.6
	C13.221,30.106,11.921,25.006,11.821,24.806z M11.821,29.606c-0.2,0.3-3,1.4-3.2,1.3c-0.2-0.1-1.3-3.5-1.3-3.9s3.6-0.8,3.7-0.8
	S12.021,29.306,11.821,29.606z M16.221,33.106c-0.3,1,3.1,5.8,3.3,5.9c0.3,0.1,2.1,0,2.4-0.1s0.1-6.5-0.3-6.9
	C21.221,31.606,16.321,32.706,16.221,33.106z M20.921,38.006c-0.4,0-0.4,0.2-0.7-0.1c-0.3-0.2-1.8-2.6-2-2.9c-0.1-0.2,2-1.6,2.3-1.3
	C20.921,34.106,21.321,38.006,20.921,38.006z M13.021,10.806c0.8,0,1.9-2.9,2.1-3.2c0.2-0.4,0.3-1-0.2-1s-4.8,3.1-4.9,3.3
	C9.521,10.406,12.221,10.806,13.021,10.806z M12.921,9.006c0.1,0-0.1,0.8-0.3,0.8s-0.3-0.1-0.4-0.2
	C11.821,9.306,12.821,9.006,12.921,9.006z M15.121,24.806c-0.3,0.5,0.2,4,0.6,4.3c0.4,0.3,5.4,0.3,6.2,0.1s0.7-3.8,0.2-4.4
	C21.721,24.306,15.321,24.406,15.121,24.806z M20.921,28.106c-0.3,0-3,0.4-3.2,0.1c-0.2-0.3,0-1.4,0.1-1.6c0.1-0.2,3-0.4,3.2,0
	C21.221,26.806,21.221,28.106,20.921,28.106z M19.521,5.506c-1.2,0.8-3.1,5.1-3.1,5.6s0.5,0.7,1,0.8c0.5,0.2,4,0.6,4.4,0.4
	c0.5-0.1,0.5-1,0.5-2s0.5-4.6,0.2-4.9S20.321,5.006,19.521,5.506z M21.321,10.306c0,0.5,0,1.2-0.3,1.1c-0.3,0-2.3,0-2.3-0.3
	s1.2-3.5,2.8-4.1C21.721,7.006,21.321,9.706,21.321,10.306z M25.621,15.206c-0.6,0.4-0.5,6.5-0.1,6.9s4.5,0.5,5.1-0.1
	s-0.3-6.3-0.8-6.8S26.321,14.706,25.621,15.206z M29.021,21.106c-0.3,0.1-1.8,0.2-2,0s0-3.7,0-4s1.1,0.1,1.3,0.1
	C28.621,17.206,29.321,21.006,29.021,21.106z M34.721,24.406c-0.7,1.2-1.8,5.7-1.5,6.1s5.5,1.7,6.1,1.4c0.6-0.3,1.8-5.7,1.4-6.3
	S35.121,23.806,34.721,24.406z M38.021,30.706c-0.3,0-3.9-0.8-4-1c-0.1-0.1,1-3.1,1.1-3.3c0.2-0.3,3.5,0.3,3.7,0.9
	C38.921,27.906,38.321,30.706,38.021,30.706z M32.421,32.606c-0.2,0.2-1.2,2.6-1.5,3.4s-1.1,1.9-0.2,2c1,0.1,2.2-0.6,3.7-1.4
	c1.4-0.8,3.1-1.9,3-2.3S32.821,32.206,32.421,32.606z M31.621,36.706c-0.3-0.2,0.9-2.2,1-2.4c0.2-0.3,1.6,0.3,1.6,0.6
	C34.121,35.106,31.921,36.906,31.621,36.706z M21.821,22.206c0.6-0.5,0.6-6.4,0.3-7.1s-5-1.2-5.4-1c-1.4,0.7-1.6,7.6-1.3,7.9
	C15.621,22.306,21.221,22.606,21.821,22.206z M17.821,16.506c0-0.3,2.9-0.3,3.2,0.1c0.4,0.3,0.3,4.6-0.1,4.7s-3.2,0.3-3.3-0.1
	C17.421,20.706,17.821,16.706,17.821,16.506z M47.021,21.606c-0.4-4.2-2.1-10.9-6.8-15.5s-10.4-5.6-15.5-5.5
	c-8.4,0.1-11.2,2.6-15.5,5.4s-8.1,7.6-9,14.6c-1,7,1.5,12,5.4,16.2c3.9,4.3,8.7,8.9,17.2,9.6s15.8-2,20.1-7
	C47.121,34.306,47.321,25.706,47.021,21.606z M45.621,22.006c-0.4-0.3-3.7-5-3.9-5s-0.5,0.7-0.4,0.8s4.1,5,4.2,5.2s-0.1,1.7-0.1,1.5
	s-3.3-4.5-3.6-4.5s-0.5,0.5-0.4,0.8s3.8,4.7,3.9,5c0,0.3-0.3,1.1-0.3,1.1s-2.9-3.6-3.1-3.4s-0.3,0.6-0.2,0.9c0.2,0.4,3,3.3,3,3.6
	c0.1,0.3-0.2,1.4-0.4,1.2s-1.9-2.7-2-2.7c-0.2,0.1-0.7,0.3-0.3,0.8c0.4,0.6,2.1,2.7,2.1,3c0,0.2-0.5,1.6-0.5,1.5
	c-0.1-0.1-1.6-2.2-1.8-2.1c-0.3,0-0.7,0.3-0.5,0.6s1.9,2.2,1.9,2.4s-0.2,1.5-0.5,1.3s-1.7-2.5-1.8-2.5s-0.9,0.3-0.7,0.7
	c0.2,0.4,2,2.4,2,2.6c0,0.2-0.3,1.1-0.5,0.9c-0.3-0.2-1.6-2.5-1.9-2.5s-0.9,0.7-0.5,1s1.8,2.2,1.8,2.4s-0.6,1-0.7,0.9
	s-1.6-2.6-1.9-2.7c-0.3-0.1-0.9,0.3-0.7,0.6s2.1,2.6,2,2.9s-0.4,0.7-0.6,0.4s-1.5-2.2-1.7-2.3s-0.7,0.4-0.5,0.7s1.8,2.2,1.7,2.4
	s-0.6,0.5-0.7,0.4s-1.6-2.5-1.8-2.4s-0.7,0.1-0.5,0.6s1.8,2.2,1.6,2.4s-0.6,0.9-0.9,0.7s-1.6-2.7-1.9-2.7s-0.9,0.4-0.7,0.8
	c0.3,0.4,1.7,2.3,1.7,2.5s-0.5,0.8-0.8,0.6s-1.8-3-2.2-2.9c-0.3,0-0.8,0.2-0.6,0.6c0.2,0.4,2.2,2.6,1.9,2.7
	c-0.3,0.2-0.8,0.3-0.9,0.2c-0.1-0.1-2-2.5-2.4-2.5s-0.9,0.2-0.7,0.4s2,2.3,1.9,2.4c-0.1,0.1-1.2,0.4-1.3,0.2s-1.4-2.4-1.8-2.4
	s-0.7,0.3-0.6,0.5s1.3,1.9,1.2,2s-1,0.1-1.2-0.1c-0.2-0.2-0.9-1.7-1.2-1.7s-0.9,0.2-0.7,0.5c0.3,0.3,0.8,1.3,0.8,1.4
	c0,0.1-0.7,0.4-1,0.2s-1-1.6-1.3-1.5s-0.8,0.2-0.6,0.5s0.7,1,0.6,1.2c-0.1,0.1-7.2,0.1-10.1-1.3c-3-1.4-5.8-3.6-7.8-5.6
	c-2-2.1-3.3-4.4-4.2-6.2c-1-1.8-1.5-4.9-1.4-7.8c0.1-2.9,0.5-5.8,2.2-8.6c1.8-2.9,5.3-6.7,8.1-8.4c2.8-1.8,5.7-2.6,8.3-3.2
	c2.6-0.6,5.2-0.5,6-0.5c4.7-0.2,9.3,1.4,12.4,3.7c3.1,2.3,2.3,2.9,2.3,3.1c0.1,0.2,2.3,2.8,2.5,3.1c0.3,0.4,0.7,1.6,0.5,1.4
	s-2.1-2.8-2.5-2.6s-0.7,0.3-0.3,0.6s4,4.6,4.3,5.3s0.5,2.6,0.3,2.4c-0.2-0.3-3.4-5.2-3.8-5c-0.4,0.2-0.6,0.1-0.5,0.6
	c0.2,0.6,4.7,5.5,4.7,5.9S46.021,22.306,45.621,22.006z M30.521,25.706c-0.3-0.8-4.4-1.1-4.7-0.8c-0.5,0.4-0.9,4.2-0.4,4.5
	c0.4,0.3,3.7,0.5,4.3,0.3C30.121,29.506,30.721,26.406,30.521,25.706z M28.421,28.306c-0.2,0.1-1.9,0.2-2.1,0c-0.2-0.2,0-1.7,0.1-2
	c0-0.3,1.8,0.1,2.1,0.4S28.621,28.206,28.421,28.306z M27.921,12.606c0.5,0,1.3,0.2,1.3-0.3c0.1-0.5-0.4-2.6-1.4-4.3
	s-2.1-2.8-2.4-2.6c-0.4,0.3-0.4,0.6-0.4,1.2c0.1,0.6,0.1,5.2,0.3,5.6S27.521,12.606,27.921,12.606z M26.421,8.606
	c0-0.2,1.1,2.8,0.9,2.9c-0.2,0.1-0.7,0.1-0.8-0.1C26.421,11.206,26.321,8.906,26.421,8.606z M25.521,32.006
	c-0.2,0.4-0.3,6.9-0.3,7.2c0,0.4,1,0.5,1.5,0.3c0.5-0.1,0.5-0.5,1-1.7c0.5-1.3,2.1-5,1.7-5.4
	C29.121,31.806,25.721,31.706,25.521,32.006z M26.421,38.206c-0.2,0,0.2-4.9,0.2-4.9c0.5-0.2,1.6,0.2,1.6,0.3
	C28.221,33.706,26.521,38.206,26.421,38.206z"/>
<g>
</g>
<g>
</g>
<g>
</g>
<g>
</g>
<g>
</g>
<g>
</g>
<g>
</g>
<g>
</g>
<g>
</g>
<g>
</g>
<g>
</g>
<g>
</g>
<g>
</g>
<g>
</g>
<g>
</g>
</svg>
