<?xml version="1.0" encoding="iso-8859-1"?>
<!-- Generator: Adobe Illustrator 18.1.1, SVG Export Plug-In . SVG Version: 6.00 Build 0)  -->
<svg version="1.1" id="Capa_1" xmlns="http://www.w3.org/2000/svg" xmlns:xlink="http://www.w3.org/1999/xlink" x="0px" y="0px"
	 viewBox="0 0 44.914 44.914" style="enable-background:new 0 0 44.914 44.914;" xml:space="preserve">
<path id="lastfm" d="M44.303,25.927c-1.1-2.6-4.8-4.7-5.7-5.1c-0.8-0.4-2.8-1.6-3.3-3.2s0.7-3,2.3-3.4c1.5-0.3,3.8,2.1,4.2,2.5
	c0.5,0.4,1.8-1.1,2.1-1.5s0.1-1.3-0.9-3.2c-1-1.8-2.9-3.2-7.3-3.2c-4.4,0-6.8,3.9-6.7,6.5c0.1,2.7,2.1,4.6,3.6,6
	c1.5,1.3,5.3,2.9,6.1,3.7c0.7,0.8,0.4,2.4-0.2,3.3c-0.6,0.9-2.3,1.3-3,1.2c-0.7-0.1-3.5-0.8-4.5-2.3c-1-1.5-4.4-7.3-7.2-11.9
	c-2.7-4.7-6.3-5.9-11.1-6.2s-8.9,2.9-10.3,5.2c-1.4,2.3-2.8,6.5-2.3,9.8c0.6,3.3,1.6,4.7,3.9,7.2c2.3,2.5,4.9,4.2,8,4.6
	s5.8,0,7.8-0.7c2.1-0.7,4-2.9,4.5-4.1c0.5-1.1-0.4-2.4-0.8-3c-0.4-0.6-1.3-1.4-1.8-1.1c-0.6,0.2-2.7,1.6-4.5,2.5s-4,1.2-5.8,0.8
	c-1.8-0.4-4.4-2.5-4.8-4.9c-0.4-2.4-0.2-5.4,1.6-6.9s4.9-3,7-3.1s3.6,1.1,5.6,4.8c2.1,3.7,5.4,9.5,7.7,11.8s4,3.4,7.2,3.9
	s6-0.5,7.5-2.7C45.003,30.827,45.403,28.527,44.303,25.927z M41.803,30.627c-0.9,1.7-3.8,2.7-5.6,2.8c-1.8,0.2-5.9-1.5-7.5-3.4
	s-6.2-10.4-8-12.8c-1.7-2.4-3.5-3.4-5.6-3.6c-2.1-0.1-4.7-0.3-7.4,1.8c-2.7,2.2-3,6.1-2.3,9.1s2.4,5,4,5.9c1.5,0.9,4.6,1,6.3,0.6
	s5.1-2.8,5.4-2.9c0.2,0,1.1,1,1.2,1.4c0,0.4-0.8,2-3.5,3c-2.6,1-6.3,1.7-9.7,0.4c-3.3-1.3-6.4-5-7.2-6.5c-0.9-1.4-0.9-6.1,0.2-8.8
	c1.1-2.7,2.3-5.8,6.4-7.1c4.1-1.3,8.1-0.7,10.8,1s6.8,8.3,8,10.9s3.4,5.6,5,6.7c1.6,1.1,3.1,1.3,5.3,0.7c2.2-0.6,2.9-2.2,2.8-3.5
	c-0.1-1.3-0.6-2.8-1.6-3.3s-5.1-2.5-6.6-4.1c-1.5-1.6-2-3.9-1.7-5c0.2-1.1,1.9-3.3,4.2-4s4.9-0.5,6.2,0.7c1.2,1.1,1.9,2.4,1.8,2.6
	c-0.1,0.3-0.5,1.3-0.8,0.9s-2.2-3-4.5-2.7c-2.4,0.2-4.1,2-4,4s0.4,3.1,2.5,4.4c2,1.3,4.7,2.3,6.2,4.3
	C43.403,26.627,42.703,28.927,41.803,30.627z M10.403,11.627c-0.5-0.1-3.5,1.2-5.1,2.8c-1.6,1.5-2.4,4-2.4,4.3
	c0,0.2,0.5,0.4,0.8,0.3s1.2-2.4,2.2-3.9s4.7-2.7,5-2.9S10.903,11.727,10.403,11.627z M36.103,31.527c-0.3-0.1-1.2,0-2.9-0.6
	c-1.7-0.6-3.1-1.7-3.3-1.8c0,0-1.2,0.2-0.2,1s4.2,2.2,5.3,2.4C36.303,32.627,36.403,31.627,36.103,31.527z M33.803,11.627
	c-0.6-0.1-2,1.1-2.4,2.1s-0.4,2.9-0.2,3.2c0.1,0.2,0.7,0.2,1,0.1c0.3,0-0.1-1.2,0.2-2.4s1.1-1.6,1.7-2.2
	C34.603,12.027,34.403,11.727,33.803,11.627z"/>
<g>
</g>
<g>
</g>
<g>
</g>
<g>
</g>
<g>
</g>
<g>
</g>
<g>
</g>
<g>
</g>
<g>
</g>
<g>
</g>
<g>
</g>
<g>
</g>
<g>
</g>
<g>
</g>
<g>
</g>
</svg>
