<?xml version="1.0" encoding="iso-8859-1"?>
<!-- Generator: Adobe Illustrator 18.1.1, SVG Export Plug-In . SVG Version: 6.00 Build 0)  -->
<svg version="1.1" id="Capa_1" xmlns="http://www.w3.org/2000/svg" xmlns:xlink="http://www.w3.org/1999/xlink" x="0px" y="0px"
	 viewBox="0 0 44.978 44.978" style="enable-background:new 0 0 44.978 44.978;" xml:space="preserve">
<path id="picasa" d="M13.088,5.056c0.2,0,3.2,2.3,6.4,4.4c3.2,2.1,10.4,8.7,10.6,8.8c0.3,0.1,1-0.8,1.1-1.6
	c0.2-0.8-0.5-14.5-0.4-14.9c0-0.4,0.1-1-2.3-1.2s-9.9,0-12.7,0.8c-2.8,0.7-3.6,1.4-3.6,2C12.188,3.856,12.388,4.956,13.088,5.056z
	 M21.388,1.456c4.7-0.4,8.3,0.1,8.4,0.3c0,0.2,0.7,14.3,0.5,14.1c-0.2-0.2-9.8-7.5-11.8-9c-2.1-1.5-4.5-3.6-4.6-3.8
	C13.888,2.956,16.688,1.856,21.388,1.456z M17.388,3.756c0.4,0.1,0.5,0,2.5-0.5s7,0.1,7.5,0c0.5,0,0.8-0.7,0.4-1s-2.4-0.3-4.5-0.2
	c-2.1,0-5.4,0.8-5.9,0.9S16.988,3.656,17.388,3.756z M43.888,16.156c-1.3-5.3-3.4-7.1-6.7-10.9c-3.3-3.8-5-4.3-5.2-3.7
	c-0.1,0.4,0.1,9,0.2,14c0,5,0,14,0.2,14.3s1.7,0.2,2.5,0.2s8.1,0.2,8.5,0s1.2-1.7,1.4-3C45.088,25.656,45.188,21.456,43.888,16.156z
	 M43.988,25.456c-0.2-0.1-5.8-7.3-6.3-7s-0.4,0.9-0.3,0.9s6.3,6.8,6.4,7s-0.1,1.8-0.4,1.7c-0.3-0.1-6.8-7.8-7.1-7.8
	s-0.3,0.3-0.2,0.5c0.1,0.1,6.3,7.3,6.2,7.4s-1.7,0.3-2.2,0c-0.4-0.3-3.4-4.1-3.7-4c-0.3,0.1-0.3,0.8-0.1,0.9c0.2,0.2,3.1,3.1,3,3.1
	s-1.7,0-2-0.1c-0.2-0.1-2.4-2.8-2.6-2.7s-0.5,0.3-0.3,0.5s1.9,2.1,1.7,2.1c-0.2,0-2.7,0.3-2.9,0s-0.1-11.1-0.2-16.7
	s-0.3-8.4-0.1-8.5c0.3-0.2,5.1,4.8,4.9,4.8s-0.9,0-0.9,0.2s0.7,0.7,1.2,1s2.6,2.2,3.4,3.7c0.8,1.6,1.1,2.9,1.1,2.9s-4.1-5.5-4.8-5.5
	c-0.7,0-0.4,0.6-0.2,0.8c0.2,0.2,5.2,5.6,5.2,5.6s1,2.9,0.6,2.5c-0.5-0.5-5.4-6.3-5.7-6.2c-0.3,0-0.1,0.7,0.3,1.1s5.6,5.8,5.6,5.8
	s0.3,0.9,0.4,1.8s0.1,1.4,0.1,1.4s-5.7-6.9-6-6.9s-0.6,0.2-0.4,0.4c0.2,0.2,6.3,7.2,6.3,7.2S44.188,25.556,43.988,25.456z
	 M30.388,31.256c-6,0-16.5-0.4-16.7-0.3c-0.3,0.1-0.3,10.2-0.1,11.1c0.2,0.9,2,1.8,4,2.1c2.1,0.3,5.6,0.8,11-0.6s9-4.1,11.4-6.7
	c2.5-2.6,4.4-5.4,4.1-5.8C43.688,30.756,36.388,31.256,30.388,31.256z M41.088,34.156c-0.2-0.3-1.1-1.8-1.4-1.6
	c-0.2,0.2-0.3,0.2-0.2,0.3c0.1,0.1,1,1.5,1,1.7c-0.1,0.2-0.8,1.2-1,1s-1.7-2.6-2-2.6c-0.2,0-0.6,0.3-0.4,0.4
	c0.1,0.1,1.8,2.5,1.8,2.7s-0.6,1-0.9,0.8s-2.6-4.2-2.8-4.1c-0.3,0.1-0.6,0.2-0.6,0.4c0.1,0.1,3,4.1,3,4.2s-0.9,1.1-1.2,1
	c-0.2-0.1-3.4-5.3-3.6-5.3s-0.6,0.2-0.4,0.4c0.1,0.2,3.4,5.1,3.4,5.3c-0.1,0.2-0.9,0.9-1,0.7s-4-6-4.4-6c-0.3-0.1-0.7,0.4-0.5,0.5
	s4.6,5.6,4.5,5.8c-0.1,0.1-1.7,1.3-1.8,1.2c-0.1-0.1-4.3-7-4.6-7c-0.2,0-0.3,0.2-0.3,0.2s4.4,7,4.3,7c-0.1,0.1-1.1,0.6-1.5,0.5
	s-4.3-6.7-4.5-6.7s-0.6,0.4-0.4,0.6s4.5,6.3,4.3,6.4s-1.2,0.4-1.4,0.2c-0.2-0.2-3.6-5.4-3.9-5.4s-0.7,0.3-0.5,0.4s3.6,5,3.6,5
	s-1.2,0.3-1.4,0.2s-3.2-4.4-3.4-4.3c-0.2,0-0.5,0.4-0.4,0.4c0.1,0.1,3.1,3.9,2.9,3.9s-1.2,0.2-1.5,0s-2.3-3.6-2.5-3.6
	c-0.3,0-0.9,0.1-0.6,0.4c0.2,0.3,2.6,3.3,2.3,3.3c-0.3,0-1.2,0.1-1.3,0c-0.1-0.1-2.2-2.8-2.4-2.8c-0.1,0-0.6,0.4-0.4,0.5
	c0.2,0.2,1.9,1.9,1.5,1.9c-0.3,0-2.6-0.3-3.6-0.6c-1-0.4-2-0.9-2-0.9s-0.1-8,0-8.4c0-0.2,14.7,0.2,18,0.1s9.6-0.4,9.8-0.3
	C42.488,32.156,41.288,34.456,41.088,34.156z M10.588,25.056c-0.5,0.2-8.1,7.4-8.2,7.6c-0.3,1.5,1.4,2.9,4.8,6.4s4,3.4,4.5,3.4
	c0.5-0.1,0.3-14.4,0.1-15.5C11.788,25.956,11.088,24.956,10.588,25.056z M10.488,39.456c-0.2-0.4-2.9-2.4-4.1-3.6s-2.6-2.7-2.5-3.2
	c0.1-0.3,6.3-6.4,6.4-6C10.488,27.056,10.688,39.756,10.488,39.456z M7.888,30.156c-0.2,0-2.3,2.1-2.5,2.4c-0.2,0.5,0.3,1,0.6,1
	c0.3,0,0.5-0.1,0.6-0.7c0.1-0.5,1-1.4,1.4-1.8S8.088,30.156,7.888,30.156z M2.588,31.256c0.5,0.2,2.1-1.7,4.5-4.2
	c2.4-2.6,14-14.4,14.1-14.7c0.1-0.3-0.3-1-0.6-1.4c-0.4-0.4-9.9-6.5-10.3-6.7s-3.6,2.8-6.1,6s-3.6,6.6-4,9.7
	c-0.5,3.1,0.1,6.4,0.6,7.9C1.388,29.356,2.188,31.156,2.588,31.256z M2.488,14.956c1-2.6,4.1-6.3,4.8-7c0.7-0.7,2.7-2.6,2.9-2.6
	c0.3,0,8.8,5.5,8.9,5.8s-7.5,8.7-9.4,10.6c-1.8,1.9-6.9,6.7-7.2,6.6c-0.4-0.2-1.3-3.1-1.6-5.3
	C0.788,20.956,1.488,17.556,2.488,14.956z M5.288,15.856c0.5,0,1-0.8,1.6-1.8c0.6-0.9,4.3-4.7,4.5-5.6s-0.8-0.9-1-0.8
	c-0.4,0.3-3.3,3.2-4.7,5C4.288,14.556,4.788,15.856,5.288,15.856z"/>
<g>
</g>
<g>
</g>
<g>
</g>
<g>
</g>
<g>
</g>
<g>
</g>
<g>
</g>
<g>
</g>
<g>
</g>
<g>
</g>
<g>
</g>
<g>
</g>
<g>
</g>
<g>
</g>
<g>
</g>
</svg>
