<?xml version="1.0" encoding="iso-8859-1"?>
<!-- Generator: Adobe Illustrator 18.1.1, SVG Export Plug-In . SVG Version: 6.00 Build 0)  -->
<svg version="1.1" id="Capa_1" xmlns="http://www.w3.org/2000/svg" xmlns:xlink="http://www.w3.org/1999/xlink" x="0px" y="0px"
	 viewBox="0 0 48.515 48.515" style="enable-background:new 0 0 48.515 48.515;" xml:space="preserve">
<path id="pinterest" d="M44.556,12.229c-0.9-2.2-3.7-6-6.7-8.2s-8.8-4.3-12.8-4s-8.8,2-11.2,3.3s-5.3,4.6-6.8,6.2
	c-1.4,1.6-3.5,5-4.1,8.5s0.5,5.6,2,6.3c6.3,3.1,8.8-2.2,10.4-4.8c1.6-2.7,3-6.3,5.6-8.8s7.6-3.9,10-2.8s4.6,3.8,5.6,6.7
	c1,3,0.3,7.1-0.4,9.3s-2.4,3.8-4.8,4.7c-2.4,0.9-4.2,0.2-4.6-0.1c-0.4-0.3-0.6-0.7-0.3-1.8c0.3-1.2,1.1-4.4-0.9-7.5
	s-6.2-2.3-8.3-0.7c-2.1,1.6-3.5,4.2-4.1,7.6c-0.7,3.4,1.4,7,1.4,7s-0.3,0.4-0.8,2.2c-0.5,1.7-1,4.6-1.1,7s-0.4,5.3,0.9,5.9
	c1.3,0.6,2.8,0.3,4.5-1.3s4.7-6.6,4.7-6.6s2,0.3,4,0.2c2.1-0.1,4-0.1,8.9-3.1c4.9-2.9,7.7-9.5,9.3-14.8
	C46.456,17.529,45.456,14.429,44.556,12.229z M43.456,18.729c-0.1-0.2-0.9-1.5-1.1-1.2c-0.3,0.2-0.3,1.1,0.1,1.6
	c0.4,0.5,0.9,1.1,0.9,1.3c0,0.2-0.2,1.5-0.3,1.4c-0.2-0.1-1.1-1.8-1.4-1.5c-0.3,0.4-0.3,0.9,0,1.1c0.3,0.3,1.1,1.3,1.1,1.6
	c0,0.2-0.5,2.2-0.7,2.1s-0.9-2.4-1.2-2.3s-0.6,0.5-0.4,0.9c0.1,0.4,1.2,2.2,1.1,2.6c0,0.4-0.4,1.1-0.5,0.9s-1.1-2.6-1.3-2.6
	s-0.6,0.4-0.5,0.9s1.1,2.4,1.1,2.6s-0.5,1-0.6,0.9s-1.1-2.4-1.3-2.4s-0.6,0.3-0.6,0.6s1.4,2.5,1.3,2.8c-0.1,0.3-0.8,1.2-0.9,1.1
	c-0.1-0.2-1.2-3-1.4-3s-0.5,0.3-0.5,0.7s1.4,2.8,1.3,2.9c-0.1,0.1-0.5,0.6-0.7,0.5s-1.2-2.5-1.4-2.4c-0.3,0-0.8,0.6-0.6,0.7
	c0.1,0.1,1.3,2.4,1.3,2.5s-0.7,0.6-0.8,0.6s-1.3-2.7-1.6-2.7s-0.7,0.3-0.6,0.7c0.2,0.4,1.4,2.4,1.3,2.6c-0.1,0.2-0.9,0.7-1,0.6
	c-0.1-0.1-1.6-3.2-1.8-3.2s-0.8,0.5-0.7,0.7s1.6,2.8,1.5,2.9s-1,0.5-1.1,0.4s-1.5-3.4-1.7-3.4s-0.8,0.3-0.7,0.5
	c0.1,0.3,1.6,3.4,1.6,3.4s-0.8,0.4-1,0.3c-0.1-0.1-1.7-4.2-1.9-4.2s-0.9,0.2-0.8,0.4c0.1,0.2,1.8,4,1.8,4.1s-0.8,0.4-0.9,0.3
	s-2-4.5-2.2-4.5s-0.6,0.3-0.6,0.3s2.1,4.2,2,4.3c-0.1,0-0.9,0.2-1.1,0c-0.1-0.2-2-4.8-2.2-4.8s-0.9,0-0.8,0.2s2,4.8,1.8,4.8
	s-0.8,0.1-0.9,0s-2-5-2.2-5.2c-0.2-0.2-0.8,0.2-0.7,0.3s2.3,4.9,2,4.9c-0.2,0-1.5-0.5-1.6-0.6s-1.5-4.3-1.9-4.4
	c-0.4-0.1-0.9-0.1-0.7,0.3c0.2,0.4,1.8,3.8,1.7,3.8c-0.1,0.1-0.5,0.4-0.6,0.3c-0.1,0-1.6-2.6-1.9-2.6c-0.3,0-0.6,0.3-0.5,0.6
	s1.7,2.8,1.7,3s-0.2,0.6-0.3,0.4c-0.1-0.2-1.3-2.6-1.6-2.4c-0.3,0.2-0.4,0.8-0.3,1c0.1,0.3,1.4,2.1,1.3,2.5
	c-0.1,0.4-0.2,0.5-0.4,0.4s-1.3-2.4-1.5-2.2c-0.3,0.1-0.6,0.7-0.4,1c0.2,0.3,1.6,2.1,1.5,2.4s-0.3,0.6-0.4,0.5
	c-0.1-0.1-0.9-1.8-1.1-1.8c-0.2,0-0.5,0.7-0.4,0.9s1.1,1.6,1,1.8s-0.3,0.6-0.4,0.5c-0.1-0.1-0.9-1.2-1.1-1.2s-0.6,0.5-0.4,0.8
	c0.2,0.3,1.1,1.4,1,1.6c-0.1,0.2-0.5,0.8-0.6,0.6s-0.7-1.2-0.9-1.2s-0.5,0.6-0.3,1s0.7,0.9,0.5,1.2c-0.1,0.3-0.9,0.6-1,0.5
	s-0.6-3.2,0.2-6.8s2.1-6.4,1.9-6.6c-0.1-0.3-2-2.8-1.6-6s2-6.1,3.6-7.2s4.2-2.4,6.9,0c2.7,2.3,0.5,8,0.5,8.3s0.6,2.2,2.2,2.4
	c1.6,0.2,5.6,0,7.2-1.8c1.6-1.8,3.7-4.6,3.6-8.7c-0.1-4.1-0.7-7.4-2.8-9.7c-2-2.3-4.6-3.5-6.8-3.8s-6.7,0.1-8.9,1.9
	s-3.4,2.9-4.5,5.1c-1.2,2.3-1.6,4.8-3.3,6.1s-2.9,2.1-4,1.5c-0.7-0.4-2.2-2.5-1.7-5.4s3.9-7,5.5-8.9s7.8-4.6,10.4-5.1
	c2.7-0.5,7.5-0.4,11,1.1s5.7,2.8,7.1,4.9c1.4,2.1,2.7,4.4,3,5.8c0.4,1.4,0.5,1.7,0.4,1.7s-0.4-0.6-0.7-0.4s-0.6,0.7-0.2,1.2
	c0.4,0.5,1.1,0.7,1.1,1.1C43.656,17.129,43.556,18.929,43.456,18.729z M9.656,10.729c-0.6-0.1-2,3.2-2.2,4.8s0.3,2.2,0.8,2.2
	c0.5-0.1,0.2-1.3,0.2-2.3s0.7-2.8,1.2-3.6C10.256,11.129,10.356,10.829,9.656,10.729z M18.856,20.729c-1.1,0.7-2.1,2.2-2.4,3.1
	c-0.3,0.9-0.1,2.3,0.4,2.3c0.9,0,0.5-2,1.3-3.4s2.3-1.4,2.5-1.4s0.4-0.2,0.4-0.7S19.956,20.029,18.856,20.729z M35.956,4.829
	c-1.6-1.1-3.7-2-4.5-2.2c-0.5-0.1-0.8,0.5-0.2,0.8s3.4,1.2,4.8,2.7c1.5,1.5,2.4,3.4,2.8,3.4c0.5,0,0.8-0.3,0.2-1.2
	C38.656,7.529,37.556,5.929,35.956,4.829z"/>
<g>
</g>
<g>
</g>
<g>
</g>
<g>
</g>
<g>
</g>
<g>
</g>
<g>
</g>
<g>
</g>
<g>
</g>
<g>
</g>
<g>
</g>
<g>
</g>
<g>
</g>
<g>
</g>
<g>
</g>
</svg>
