<?xml version="1.0" encoding="iso-8859-1"?>
<!-- Generator: Adobe Illustrator 18.1.1, SVG Export Plug-In . SVG Version: 6.00 Build 0)  -->
<svg version="1.1" id="Capa_1" xmlns="http://www.w3.org/2000/svg" xmlns:xlink="http://www.w3.org/1999/xlink" x="0px" y="0px"
	 viewBox="0 0 46.617 46.617" style="enable-background:new 0 0 46.617 46.617;" xml:space="preserve">
<path id="mail" d="M46.572,30.308c0.1-2.3-0.5-19.9-0.6-21.5s-3-2.1-4.5-2.1s-5.1,0.2-5.8,0.2s-7.8-0.1-12.7,0
	c-5,0.1-16.1,0.2-18.1,0.2s-4.1,0.3-4.4,0.6c-1,1.4-0.1,10.7-0.1,17.1s0.3,9.9,0.6,10.8s1.4,3.3,1.8,3.7c0.4,0.4,1.2,0.3,4.1,0.4
	c3,0.1,3.2,0.2,10.2,0.2s14.2-0.2,20.4-0.4s6.7-0.3,8.2-1.3C47.072,37.008,46.472,32.608,46.572,30.308z M45.472,21.708
	c-0.2-0.2-1.6-2.3-1.8-2.3s-0.2,0.6-0.2,0.8c0.1,0.3,1.9,2.3,1.9,2.4c0,0.2,0.1,1.5,0.1,1.4c-0.1-0.1-1.5-2.6-1.8-2.5
	c-0.3,0.2-0.3,0.7-0.3,0.9s2.1,2.4,2.1,2.6c0,0.3,0.1,1.5,0,1.3c-0.1-0.3-1.7-2.8-2-2.6s-0.3,0.6-0.2,0.9c0.1,0.3,2.1,2.5,2.1,2.8
	s0.2,2,0,1.9s-1.5-2.7-2.1-2.9c-0.6-0.1-0.7,0.3-0.4,0.6c0.3,0.2,1.3,2,1.5,2.5c0.3,0.5,1,1.2,1,1.3c0,0.2,0.1,2.3-0.1,2.2
	s-1.2-2.7-1.9-3.5s-1-1.2-1.2-1s-0.1,0.6,0.1,0.9c0.2,0.3,2.1,3.3,2.2,3.6c0.2,0.3,0.3,0.5,0.2,0.7s-0.3,0.4-0.3,0.6
	s-0.1,0.2-0.1,0.1c0-0.2-2.4-3.7-2.8-4.3s-0.5-0.7-0.8-0.6c-0.4,0.2,0,0.7,0.2,0.9c0.1,0.2,3.2,4.5,3.2,4.9s-0.4,0.7-0.6,0.6
	s-3.1-4.8-3.5-5.5c-0.4-0.6-0.6-0.6-0.8-0.4c-0.2,0.3,0.3,0.8,0.7,1.4c0.4,0.7,2.3,3.8,2.6,4.1s0.3,0.7,0.3,0.7s-0.8,0.3-1,0.1
	s-3.5-5.6-3.7-5.6s-0.5,0.4-0.5,0.5c0.1,0.1,3.5,5.1,3.2,5.2c-0.3,0-1.2,0.2-1.4,0s-2.4-4.3-2.8-4.3c-0.4,0-0.6,0.6-0.6,0.7
	s2.5,3.5,2.3,3.6s-0.7,0.3-1,0.1s-2.3-4.2-2.5-4.3s-0.9,0.3-0.7,0.5s2.6,4,2.2,4c-0.4,0-0.9,0.1-1-0.1c-0.2-0.2-2.2-3.7-2.5-3.7
	c-0.2-0.1-0.7,0.1-0.6,0.4s2.7,3.5,2.3,3.5s-1.4,0.2-1.6,0c-0.2-0.3-1.9-3.4-2.3-3.5c-0.3-0.1-0.6,0.3-0.5,0.5s2,3,1.7,3
	c-0.2,0-1.2,0.1-1.3-0.1c-0.2-0.1-1.5-3-1.8-3s-0.6,0.3-0.6,0.5c0.1,0.2,1.6,2.6,1.3,2.6c-0.3,0.1-0.8,0.1-1.1-0.1
	c-0.2-0.2-1.7-2.7-2-2.7c-0.3-0.1-0.8,0.2-0.7,0.4s1.6,2.4,1.4,2.4c-0.3,0-1.2,0.1-1.3,0s-1.7-2.2-1.9-2.3s-0.7,0.1-0.6,0.3
	c0.2,0.2,1.6,1.9,1.3,1.9c-0.3,0.1-7,0.3-11.4,0.4c-4.4,0.1-6.9,0.1-8.6-0.2s-2.3-0.8-2.7-1.2c-0.4-0.3-0.7-3.7-0.7-7.4
	c-0.1-3.6-0.3-12-0.4-14.1c-0.1-2.1-0.2-4.7,0.1-5.2c0.2-0.3,1.9-0.4,7.6-0.6c5.6-0.3,11.3-0.2,18.7-0.3s11.2-0.2,13.1-0.1
	s3.9,0.4,4.3,1.1c0.4,0.7,0.5,6.1,0.4,6c-0.2-0.1-0.9-1-1.1-0.8s-0.4,0.5-0.2,0.7s1.3,1.1,1.4,1.4c0,0.3,0.1,0.8,0,0.6
	s-0.9-1.2-1.1-0.9c-0.2,0.2-0.4,0.6-0.2,0.8s1.3,1.4,1.4,1.7c0.1,0.3,0,0.9-0.1,0.7s-1.3-1.9-1.6-1.7c-0.3,0.3-0.2,0.9-0.1,1
	c0.1,0.1,1.8,1.7,1.8,1.8S45.672,21.908,45.472,21.708z M9.572,13.408c0.6,0.6,5.1,4.3,8.3,6.7s4.1,2.7,6.4,2.6
	c2.3-0.1,3.7-1,5.8-2.3c2.1-1.2,8-7,8.8-8.1c0.8-1,0.3-1.2-0.3-1.4c-0.5-0.2-2.6-0.2-9.9-0.1c-7.3,0.2-15.8,0.2-17.5,0.3
	s-2.8,0.2-2.9,0.4C7.972,12.108,9.072,12.808,9.572,13.408z M24.072,13.608c5.5,0,11.8-0.3,12,0s-4,4.3-6.6,5.9
	c-2.6,1.6-3.8,2.3-6.1,2s-6.7-4.1-8.3-5.3s-2.7-2.1-2.6-2.3C12.472,13.708,18.572,13.608,24.072,13.608z M41.572,12.908
	c-0.7-0.1-3,2.8-4.5,4.7c-1.5,1.8-3,3.8-3.1,3.9c-0.2,0.5,0.4,0.6,1.8,1.9c1.5,1.3,3.3,3.9,4,4.8c0.7,0.9,1.2,1.1,1.7,0.7
	c0.5-0.4,0.4-0.8,0.5-2.5s0.2-7.8,0.3-10.3S42.272,13.008,41.572,12.908z M41.072,27.608c-0.3-0.2-2.4-3.2-2.9-3.6
	c-0.5-0.5-1.4-1.1-1.4-1.5c0-0.2,4.4-5.5,4.6-5.3C41.472,17.308,41.372,27.708,41.072,27.608z M34.472,26.208
	c-1.1-1.3-1.8-2.6-2.6-2.6s-2.3,1-3.6,1.8c-1.3,0.9-2.4,1.4-3.5,1.4s-3.8-1.4-4.1-1.6c-0.4-0.3-2.2-0.9-2.6-0.8
	c-0.9,0.1-5.3,6-5.7,6.5s0.6,1.4,1.2,1.5s2.3,0,10.2-0.3c8-0.3,11.8-0.6,12.5-0.8s0.7-0.8,0.6-1.3
	C36.672,29.408,35.572,27.508,34.472,26.208z M35.672,30.208c-0.2,0.2-5.6,0.6-12.5,0.9c-6.9,0.3-8,0.2-7.9,0.1s3.6-4.2,4-4.2
	c0.2,0,3.9,1.8,5.5,1.8c1.6,0.1,3.5-0.7,5.1-1.8c1.6-1.2,2.4-1.8,2.7-1.7c0.3,0,2.3,2.9,2.7,3.7
	C35.672,29.608,35.772,30.008,35.672,30.208z M12.172,19.008c-1.6-1.6-5.7-5.1-6.1-5c-1.9,0-1.3,3-1.2,6.8s0.7,8.8,1,10.1
	s1.3,1.3,2,1.1c0.8-0.2,1.4-1.2,2.9-3.2c1.5-1.9,3.8-5.1,4-6.4C14.972,21.008,13.772,20.608,12.172,19.008z M8.972,29.508
	c-0.7,0.8-0.6,0.9-0.8,0.8c-0.2,0,0-7.6-0.1-9.1s-0.2-3-0.1-3.3c0.1-0.2,2.4,1.8,3.6,2.8s1.9,1.6,1.9,1.9
	C13.572,22.908,9.672,28.608,8.972,29.508z M25.472,23.608c-1.2,0.2-2.6-0.2-2.9-0.3c-0.5-0.1-0.6,0.6-0.3,0.9
	c0.3,0.3,1,0.5,2.9,0.5s3.1-0.8,3.3-1.1s-0.1-0.8-0.5-0.9C27.672,22.608,26.672,23.408,25.472,23.608z M4.472,34.708
	c-0.3-0.3,0-1.9-0.2-2.2s-0.9-0.3-1,0c-0.2,0.4-0.1,1.7,0.1,2.4c0.2,0.7,0.7,1.1,1.4,1s0.7-0.8,0.6-1
	C5.372,34.808,4.772,34.908,4.472,34.708z M3.472,11.208c0.2-0.6,1.1-0.6,1.4-0.7c0.3-0.2,0.3-0.1,0.3-0.4c-0.1-0.3-0.4-0.7-1.4-0.5
	s-1.5,1.1-1.5,1.9s0,2.5,0.2,2.6c0.4,0.2,0.8,0.2,0.9,0C3.572,13.908,3.272,11.808,3.472,11.208z M43.672,10.408
	c0.2-0.2,0.3-0.4-0.3-1.3c-0.6-0.9-2-1.2-2.3-1.1c-0.8,0.4-0.4,1.3,0.4,1.3s1.1,0.9,1.3,1.2S43.472,10.708,43.672,10.408z"/>
<g>
</g>
<g>
</g>
<g>
</g>
<g>
</g>
<g>
</g>
<g>
</g>
<g>
</g>
<g>
</g>
<g>
</g>
<g>
</g>
<g>
</g>
<g>
</g>
<g>
</g>
<g>
</g>
<g>
</g>
</svg>
