<?xml version="1.0" encoding="iso-8859-1"?>
<!-- Generator: Adobe Illustrator 18.1.1, SVG Export Plug-In . SVG Version: 6.00 Build 0)  -->
<svg version="1.1" id="Capa_1" xmlns="http://www.w3.org/2000/svg" xmlns:xlink="http://www.w3.org/1999/xlink" x="0px" y="0px"
	 viewBox="0 0 50.841 50.841" style="enable-background:new 0 0 50.841 50.841;" xml:space="preserve">
<path id="qq" d="M46.325,27.716c-0.3-5.5-4.1-8.8-4.1-8.8s-1.2-5.9-1.7-8.2c-0.6-2.3-6.6-12.3-15.8-10.5s-12,5.9-14.4,10
	s-1.3,10.1-1.3,10.1s-1.5,1.9-2.4,4c-0.9,2.2-1.8,5.4-2.1,8.1s0.3,4.4,2.3,5.3s3.1-0.2,3.1-0.2c0.5,1.1,2.9,2.7,2.9,2.7
	s-2.5,1.1-3.6,2.7s-0.8,4.5,1.1,5.8c1.9,1.3,3.3,2.3,7.1,2.1s7.8-2.4,7.8-2.4c1,0.4,3.8-0.1,3.8-0.1s1.5,1,4,1.4s5.2-0.1,7.5-1.3
	s3.6-3.1,2.8-5.7s-3.1-3.2-3.1-3.2s0.1-0.3,0.7-1.5s0.7-3.4,0.7-3.4s0.7,0.2,1.2,0.4c0.5,0.2,1.2-0.2,2.1-0.7
	S46.625,33.216,46.325,27.716z M41.225,41.616c0.6,0.7,0.5,3.2,0.1,3.1s-2-3.5-2.2-4C39.025,40.416,40.625,40.916,41.225,41.616z
	 M45.225,30.116c-0.4-0.6-4.8-8.7-5.2-8.6s-0.7,0.2-0.4,0.5s5.6,9.3,5.6,9.3s-0.4,1.1-0.9,1.5s-1,0.5-1,0.5s-4.2-7-4.4-7
	s-0.7,0.5-0.5,1c0.3,0.5,4.2,6,3.9,6s-1.6-1.4-1.9-1.3c-0.3,0.1-0.6,0.4-0.6,0.4s-1.8-3.7-2.2-3.7s-0.6,0.2-0.5,0.4s2.5,4.4,2.5,4.4
	s0.1,2.1-0.2,1.9s-2.2-4.5-2.5-4.5s-0.6,0.7-0.5,0.9c0.1,0.2,2.6,4.7,2.6,4.7s-0.3,1.9-0.5,1.6s-2.7-4.3-2.7-4.3s-0.4,0.9-0.2,1.1
	s2.6,4,2.6,4l-0.2,0.4l-0.7-0.2l3.6,6.6c0,0-0.5,0.6-0.7,0.4s-5.4-8.9-5.6-8.9s-0.3,0.6-0.3,0.6l5.3,8.7c0,0-0.8,0.8-1.1,0.5
	s-5-8.1-5.2-8.1s-0.9,0.2-0.7,0.5s5,8,5,8s-1,0.6-1.4,0.2s-4.1-7.1-4.3-7.1s-0.6,0.5-0.6,0.5s4.2,6.8,4,6.8s-1.5-0.3-1.5-0.3
	s-3.6-6.1-3.9-6.2s-0.8-0.1-0.6,0.2s3.6,5.9,3.6,5.9s-0.6,0.3-1.1-0.2s-3.2-5.3-3.4-5.3s-0.8,0.1-0.5,0.5s2.9,4.4,2.6,4.4
	s-1.2-0.2-1.6-0.5c-0.4-0.3-2.1-3.4-2.3-3.4s-1,0.2-0.6,0.7s1.3,2,1.1,2s-0.4,0.3-0.7-0.1s-1.1-1.7-1.3-1.7s-1,0.1-0.6,0.5
	s0.9,1.4,0.9,1.4s-1,0.1-2.1,0.5c-1.2,0.4-3.8,2.3-7.6,2.4c-3.7,0.2-5.2-1.4-5.8-2.7c-0.6-1.3,0.7-3.2,1.6-3.8s2.1-0.7,2.6-0.5
	s0.8,0.3,1,0.2c0.3-0.1,0.5-0.5,0.1-0.7c-0.4-0.3-2.6-2.3-3.4-3.7s-0.8-3.8-1.8-3.5c-0.3,0.1-1.3,2-1.9,2.1s-1.9,0.6-2.4-1.1
	s-0.3-4.6,1.1-8.1c1.4-3.4,3-6.4,3-6.4s-0.9-5.1,0.7-8.2c1.5-3.1,3.9-6.9,7.1-8.5c3.2-1.6,9.9-3.5,15.2-0.5s6.7,8.8,6.7,8.8
	s-0.8-1-1.1-0.7c-0.4,0.3-0.2,0.6-0.1,0.6s1.5,1.9,1.7,2.7s0.4,1.6,0.4,1.6s-1.8-2.5-2-2.3s-0.6,0.7-0.4,0.8
	c0.2,0.1,2.7,3.2,2.7,3.2l0.1,1.7c0,0-2.2-3-2.3-2.9s-0.2,0.8,0.1,1.1s1.8,2.4,2.1,2.5s1.6,0,2.5,1.7s1.3,3.5,1,3.3
	s-2.1-4.5-2.6-4.4s-0.2,0.8-0.2,0.8l3.3,5.4C44.725,26.816,45.625,30.716,45.225,30.116z M38.625,23.616c0,0.2,0.5,1.2,0.8,1.8
	c0.4,0.6,3.5,6.1,3.6,6.3c0.1,0.1,0.5,0.1,0.5-0.1s-0.6-1-1.2-2.2c-0.6-1.2-3.2-5.9-3.3-6
	C39.025,23.216,38.625,23.416,38.625,23.616z M31.425,21.416c-0.3-0.2-1,0.7-1.4,0.6s-1-0.9-1.3-0.9c-0.9,0.1-0.6,0.8-0.3,1.2
	c0.3,0.3,1.9,0.9,2.5,0.4C31.625,22.216,31.625,21.616,31.425,21.416z M28.625,11.716c-1.1,0.7-2.3,1.9-2.5,3.6s0.4,3.5,1.2,4.5
	c1,1.3,2.5,1.1,3.3,1c0.8-0.2,1.8-1.3,2.2-3.2c0.4-1.8,0.3-4.1-0.6-5.1C31.225,11.416,29.725,11.016,28.625,11.716z M30.725,19.416
	c-0.8,0.5-1.6,0.6-2.5-0.3s-1.1-2.6-0.8-4.2s1.2-2,1.6-2.2c1-0.6,2.5,0.3,2.8,1.8C32.025,15.916,31.525,18.916,30.725,19.416z
	 M21.925,11.816c-1.6,0.2-2.4,1.3-3.1,2.4c-0.6,1.1-0.8,3.3-0.4,4.6c0.4,1.3,1.6,2.5,2.5,2.7c0.8,0.2,2.3,0.3,3.1-0.9
	c0.9-1.2,1.1-4.2,0.8-6.2C24.625,12.416,22.925,11.616,21.925,11.816z M23.025,19.916c-0.7,0.6-1.6,0.8-2.5,0.2s-1.2-2-1.3-2.8
	c-0.1-0.9,0.5-2.7,0.9-3.2s0.9-1.1,1.8-1.3c0.3,0,2,0.4,2,2.2C24.025,16.816,23.725,19.316,23.025,19.916z M22.125,15.316
	c-0.7,0.1-1.2,0.9-1.1,1.3c0.1,0.4,0.5,1.4,1.2,1.2s1.5-0.8,1.3-1.5S22.925,15.216,22.125,15.316z M29.425,15.016
	c-1.6,0.1-1.5,1.1-1.5,1.8c-0.1,0.7,0.4,0.8,0.7,0.7c0.3-0.1,0.2-1,0.6-1.2c0.4-0.2,0.8,0.5,1.1,0.6c0.3,0.2,0.8-0.2,0.7-0.5
	S30.225,14.916,29.425,15.016z M17.425,7.316c-0.4,0-1.8,1-3,2.7c-1.1,1.7-1.7,3.9-1.8,5.2s0.4,1.5,0.6,1.6c0.2,0.1,0.5,0.2,0.6,0
	s0.1-1.9,1-4.8c0.9-2.8,2.9-3.3,3.2-3.9C18.325,7.516,17.825,7.416,17.425,7.316z M31.025,6.416c0.5,0.2,1.2,0.1,1.3-0.3
	s-0.8-1.9-3.4-2c-2.6-0.1-3.4,1-3.5,1.2c-0.1,0.3,0.2,0.9,0.7,0.8s0.9-0.9,2.3-0.9C29.725,5.116,30.625,6.216,31.025,6.416z
	 M10.325,26.016c-0.3,0-2.2,1.6-2.7,3.5c-0.6,1.9-0.4,4-0.3,4.1c0.2,0.2,0.6,0.3,0.8,0s0.1-1.9,0.5-3.4c0.5-1.6,1.3-2.3,1.8-3.1
	S10.625,26.016,10.325,26.016z"/>
<g>
</g>
<g>
</g>
<g>
</g>
<g>
</g>
<g>
</g>
<g>
</g>
<g>
</g>
<g>
</g>
<g>
</g>
<g>
</g>
<g>
</g>
<g>
</g>
<g>
</g>
<g>
</g>
<g>
</g>
</svg>
