<?xml version="1.0" encoding="iso-8859-1"?>
<!-- Generator: Adobe Illustrator 18.1.1, SVG Export Plug-In . SVG Version: 6.00 Build 0)  -->
<svg version="1.1" id="Capa_1" xmlns="http://www.w3.org/2000/svg" xmlns:xlink="http://www.w3.org/1999/xlink" x="0px" y="0px"
	 viewBox="0 0 43.683 43.683" style="enable-background:new 0 0 43.683 43.683;" xml:space="preserve">
<path id="reddit" d="M41.245,16.247c-2.6-1.6-6.1,0.2-6.3,0.2s-2.5-1.5-4.2-2.4c-1.7-0.8-5.8-1-6-1c-0.2-0.1,2-5.8,2.1-6.2
	c0.1-0.4,1.8,0.6,1.8,0.6c0.5,1.3,1.3,2.7,3.2,3.4c1.8,0.7,5.1-0.5,5.9-2.7s0.4-5.3-2.7-6.4c-3.1-1.1-6.2,1-6.2,1s-3.5-1.2-4.3-1.3
	c-0.8,0-1.6,1.5-2.7,3.1c-1,1.6-4.4,9.9-4.4,9.9c-2.1,0.1-6.2,1.2-6.2,1.2c-1.1-1.4-4-1.5-5.2-1.3c-1.3,0.2-5.6,1.5-6,5.1
	c-0.4,3.5,2,4.8,2,4.8s-0.4,1.2-0.4,2.8c0,1.5,0.5,4.6,1.5,6.4s4.8,4.7,10.2,7s9.8,2,13,1.3c3.2-0.6,5.1-0.8,9.7-4.8
	c4.6-4,5.2-10.1,5.2-10.1s2.3-3.2,2.4-4.6C43.745,20.747,43.845,17.847,41.245,16.247z M42.245,20.947c-0.2,0.5-1,2.2-1.7,2.6
	s-0.9,0.5-0.9,0.5s-4.6-5-5.2-5c-0.6,0-0.6,0.8-0.4,0.9c0.2,0.1,5.2,4.4,5.2,4.4s0.1,1.7-0.1,1.6c-0.2-0.1-4.5-4.3-4.8-4.3
	s-0.5,0.6-0.4,0.7c0.2,0.1,4.9,4.2,4.9,4.2s-0.2,0.9-0.4,0.8c-0.2,0-4.2-3.9-4.4-3.8c-0.2,0-0.5,0.7-0.4,0.8s4.6,3.6,4.5,3.8
	c0,0.2-0.7,1.4-0.7,1.3c-0.1-0.1-3.9-3.5-4.2-3.4s-0.4,0.7-0.3,0.9c0.2,0.1,4.1,3.3,4.1,3.4s-0.6,1-0.8,0.9c-0.1-0.1-3.2-3-3.3-3
	s-0.6,0.5-0.6,0.7c0.1,0.2,3.3,2.7,3.2,2.9c0,0.1-0.5,1.1-0.7,0.9s-1.4-1.9-1.8-1.7c-0.4,0.1-0.7,0.5-0.6,0.6c0.1,0.1,2.1,1.9,1.8,2
	c-0.2,0.1-1,0.8-1.1,0.7c-0.1-0.2-2-2.3-2.3-2.2c-0.2,0.1-0.8,0.4-0.6,0.6s2.1,2.2,2,2.2s-0.8,0.9-1.1,0.7c-0.4-0.2-1.4-2-1.8-1.8
	c-0.3,0.1-0.6,0.4-0.5,0.5s1.7,1.8,1.5,2.1c-0.3,0.2-0.7,0.7-0.9,0.4c-0.2-0.2-1.8-2.3-2.1-2.3c-0.2,0-0.5,0.5-0.5,0.5
	s1.8,2,1.5,2.3c-0.3,0.2-0.9,0.3-1.1,0.2c-0.1-0.1-1.7-2.1-2-2.1s-0.7,0.3-0.7,0.6c0.1,0.2,1.9,1.7,1.6,1.8c-0.3,0.1-1,0.6-1.2,0.2
	s-1.7-2-2-2c-0.2,0-0.5,0.5-0.5,0.5s1.3,1.4,1.1,1.5s-1.2,0.2-1.3,0c-0.1-0.1-1.3-1.5-1.6-1.5s-0.7,0.5-0.5,0.6s1.3,0.9,0.8,1.1
	s-7.3-0.2-11-3c-3.8-2.8-6-5.6-6.6-7.2c-0.7-1.5-0.3-3.6-0.3-4.2c0,0-1.8-1-2-3s1.4-4,2.2-4.7c0.7-0.7,3.7-1.5,5.2-0.6
	s2.5,1.2,2.6,1.1c0.1,0,0.9-0.3,2.8-0.7c1.8-0.4,4.5-0.6,4.7-1c0.1-0.4,2.9-7,4-9.2c1.1-2.3,2-3.3,2.3-3.2c0.3,0.1,3.4,1.4,3.9,1.2
	c0.5-0.2,2.7-1.5,4.9-1.1s2.7,1.2,3,2.1c0.3,0.8,0.5,1.6,0.5,1.6s-1.3-1.8-1.5-1.4c-0.2,0.3-0.3,0.1-0.2,0.3s1.4,2.2,1.3,2.4
	c0,0.2-0.3,1-0.4,0.8c-0.1-0.1-1.4-2.4-1.8-2.4c-0.4,0-0.6,0.2-0.5,0.4c0.1,0.2,1.9,2.5,1.8,2.6s-0.8,0.4-0.9,0.3
	c-0.1-0.1-1.6-2.1-1.8-2s-0.8,0.1-0.7,0.3c0.2,0.3,1.8,1.9,1.7,2c-0.2,0.1-0.7,0.2-0.8,0.1s-1.4-2-1.6-2s-0.7,0.2-0.7,0.3
	c0.1,0.1,0.9,1.6,0.8,1.6c-0.1,0-0.9-0.3-1.5-1.3s-0.6-2.2-0.7-2.4c-0.2-0.2-3.9-1.8-4.4-1.6c-0.5,0.2-3.2,9-2.9,9.5s1,0.6,1.2,0.6
	s4-0.7,6.7,0.4s4.3,3.1,5,3c0.6-0.2,1-0.7,1.8-0.9c0.8-0.2,2.9-0.7,4.4,0.5C42.845,18.647,42.445,20.547,42.245,20.947z
	 M6.145,16.947c-1.3,0.2-2.5,1.3-2.6,1.6c-0.1,0.3,0.1,0.6,0.3,0.7c0.3,0.1,0.9-0.6,1.8-0.9c0.8-0.4,1.6,0,2.3,0.1s1-0.1,0.9-0.6
	C8.845,17.347,7.445,16.747,6.145,16.947z M7.845,21.247c-1.1,0.5-2.1,1.6-2.5,2.6s0.2,1.8,0.6,1.8s0.3-0.9,0.5-1.6s1.5-1.5,2-2
	C8.845,21.547,8.245,21.047,7.845,21.247z M15.745,27.247c1.5,0.3,3-0.1,3.9-1c1-0.9,1.4-3.5,0.3-4.1c-1-0.6-2.7-1.6-4.5-0.9
	c-2.5,0.8-2.8,3-2.4,3.8C13.645,25.747,14.245,27.047,15.745,27.247z M16.145,23.547c0.5-0.3,1.9-0.4,2.7,0c0.7,0.4,1,1.3,0.2,2.2
	c-0.8,0.9-2.9,0.6-3.3,0.5C15.445,26.147,14.245,24.447,16.145,23.547z M26.545,27.247c1.1,0.2,3.2-0.3,4.1-1.5
	c0.9-1.2,0.7-3.6-0.6-4.3c-1.3-0.7-3.8-0.8-5.5,0.2c-1.3,0.8-1.4,2.8-0.9,3.3C24.045,25.547,25.445,27.047,26.545,27.247z
	 M27.445,22.547c0.6-0.1,2.5,0.2,2.7,1.2s-0.6,1.8-1.6,2.1c-1,0.3-2.3,0.3-2.6-1C25.545,23.747,26.245,22.947,27.445,22.547z
	 M36.345,18.247c-0.6-0.1-0.8,0.4-0.8,0.6s3.9,3.5,4.1,3.7s0.7,0.4,0.7,0.1C40.345,22.147,36.745,18.347,36.345,18.247z
	 M38.445,17.547c-0.5,0.2-0.3,0.7-0.3,0.9c0.1,0.2,0.3,0.3,0.9,0.4c0.6,0.1,1,1.2,1.2,1.5s0.6,0.4,1,0.1s-0.1-1.2-0.6-1.9
	C40.045,17.847,38.945,17.347,38.445,17.547z M29.945,28.047c-0.8,0-3.1,2.2-4.5,2.7c-1.4,0.6-4.3,0.9-6.7,0.6s-4.8-1.6-5.3-1.5
	c-1.1,0.1-1.3,2-0.6,3s3,2.1,5.4,2.3c2.5,0.1,4.5-0.3,7.9-1.4s5-3.1,5-3.7C31.345,29.547,30.745,28.047,29.945,28.047z
	 M29.045,31.347c-1.5,0.9-4.1,2-7,2.5s-5,0.1-5.6-0.1c-0.6-0.1-1.6-0.5-1.2-1c0.3-0.4,3.9,0.5,6.2,0.4s5.1-1,6.5-1.8
	s2.3-1.5,2.3-1.5S30.545,30.447,29.045,31.347z M31.245,5.647c0.3,0,0.5-0.5,1.2-0.9c0.7-0.4,1.7-0.2,1.8-0.2s0.2-0.2,0.1-0.7
	c-0.1-0.5-1-0.6-1.9-0.3c-0.9,0.3-1.7,0.9-1.8,1.3C30.545,5.247,30.945,5.647,31.245,5.647z"/>
<g>
</g>
<g>
</g>
<g>
</g>
<g>
</g>
<g>
</g>
<g>
</g>
<g>
</g>
<g>
</g>
<g>
</g>
<g>
</g>
<g>
</g>
<g>
</g>
<g>
</g>
<g>
</g>
<g>
</g>
</svg>
