<?xml version="1.0" encoding="iso-8859-1"?>
<!-- Generator: Adobe Illustrator 18.1.1, SVG Export Plug-In . SVG Version: 6.00 Build 0)  -->
<svg version="1.1" id="Capa_1" xmlns="http://www.w3.org/2000/svg" xmlns:xlink="http://www.w3.org/1999/xlink" x="0px" y="0px"
	 viewBox="0 0 43.889 43.889" style="enable-background:new 0 0 43.889 43.889;" xml:space="preserve">
<path id="renren" d="M10.676,27.095c1-2,1.5-7.7,1.4-10.6s0.1-7.6-2.6-8c-2.7-0.5-4,0.6-6.3,2.6s-3.5,6.9-3.1,10.1s1.9,7.3,3.4,8.6
	C5.976,31.795,9.676,29.095,10.676,27.095z M5.676,27.795c-1.2-0.3-3.5-2.4-4.1-5.2c-0.6-2.9-0.3-8.3,1.6-10.5
	c1.9-2.2,5.3-3.5,6.6-2.7c1.2,0.9,1.6,6.6,1.2,9.8C10.676,22.395,9.076,28.695,5.676,27.795z M28.576,29.395
	c1.9-2.6,3.5-8.5,3.5-12.9c0.1-4.4-1.5-6.8-1.8-7.1s-0.9-0.5-2.9,0s-4.6,3-4.6,3s-0.3-0.5-2-2.3s-4.5-2.3-5.2-1.8
	c-0.9,0.6-1.3,1.7-1.4,2.6s0.5,6.3,1,10.1c0.5,3.8,1,4.5,2.3,6.2c1.4,1.7,3.4,2.5,3.4,2.5c0.6,1.4,2.1,3.1,2.7,3.3
	S26.676,31.995,28.576,29.395z M19.476,21.395c0.4,2.7,1.9,6.5,1.5,6.5s-2.9-1.3-3.8-3.2s-1.4-8.3-1.7-9.6s-0.6-5,0.6-5.5
	c0.4-0.2,3,0.7,4.4,1.8s1.4,2.3,1.4,2.3S19.076,18.695,19.476,21.395z M22.276,26.995c-0.3-0.1-0.5-5.4-0.3-7.1s1.3-3.3,1.7-3.7
	c0.3-0.3,1.1,2.6,0.3,6.5C22.976,26.495,22.576,27.095,22.276,26.995z M24.476,30.695c-1.3-0.7-1.8-1.7-1.5-2.2s2.5-5,2.3-8.1
	s-1.6-7.1-1.4-7.4c0.3-0.4,4.2-3.4,5.6-2.6s2.9,6.7,0.7,12.4C27.976,28.495,25.676,31.295,24.476,30.695z M40.576,12.695
	c-2.4-3.3-5.8-3.3-6.7-3.3c-1.8,0.1-1,10.4-1,12.3s1,3.8,2.7,6.1c1.8,2.3,3.7,3,4.6,3.1s2.5-1.5,3.4-6.9
	C44.576,18.595,43.076,15.995,40.576,12.695z M42.576,24.795c-0.2,1.1-0.9,3.6-1.3,3.5c-0.4,0-3.3-4.6-3.6-4.4
	c-0.3,0.1-0.6,0.3-0.3,0.6c0.3,0.3,3.4,4.3,3.3,4.4c-0.1,0.1-1,0-1.8-0.6c-0.8-0.5-3-3.3-3.5-4.4s-0.4-7.4-0.5-8.7
	c0-1.2-0.2-4.9,0-5.1s3.8,1.1,5.4,3.4s2.1,4.1,1.8,3.9c-0.2-0.2-2.5-4-2.8-3.9c-0.4,0.1-0.3,0.5-0.2,0.8c0.1,0.2,2.4,4,2.6,4.1
	c0.3,0.1,0.6,0,0.6,0s0.5,3,0.2,3c-0.2-0.1-3.4-5.4-3.9-5.5s-0.8-0.2-0.5,0.4c0.4,0.7,3.5,5.5,3.8,5.6s0.5-0.1,0.5-0.1
	S42.776,23.695,42.576,24.795z M38.276,18.595c-0.3,0-0.5,0.3-0.5,0.5s3.7,5.2,3.9,5.3c0.2,0.2,0.3-0.1,0.4-0.4
	C42.176,23.795,38.576,18.595,38.276,18.595z M38.076,21.495c-0.4,0-0.7,0.3-0.6,0.5c0.1,0.2,3.4,4.8,3.7,4.9s0.3,0,0.3-0.4
	C41.476,26.095,38.576,21.495,38.076,21.495z M36.276,30.295c-1.3-1.1-3-3.2-3.5-4.4c-0.5-1.1-1-1.1-1.3-0.9
	c-0.4,0.2-0.7,2.2-1.7,4.1s-3,3.1-3.5,3.3c-0.5,0.3-0.1,1,0.5,1.5s1.5,1.3,3.3,1.7c1.8,0.4,4,0.1,5.5-0.5s2.7-1.6,2.6-2.5
	C38.076,31.695,37.576,31.395,36.276,30.295z M35.576,33.295c-0.4,0.2-1.7,0.6-2,0.3c-0.3-0.3-1.4-3-1.7-3c-0.4,0-0.7,0.2-0.5,0.6
	c0.3,0.4,1.3,2.4,1,2.4s-0.6,0.1-0.7-0.1c-0.1-0.3-0.8-1.9-1.2-1.9s-0.7,0-0.5,0.3c0.2,0.3,0.7,1.6,0.3,1.5c-0.4,0-2.6-0.2-2.5-0.7
	s1.5-0.9,2.5-2.4s1.6-2.6,1.6-2.6c0.3-0.2,1.7,2.3,2.3,2.8c0.5,0.5,1.1,0.8,1,1s-0.1,0.4,0,0.6
	C35.276,32.295,35.976,33.095,35.576,33.295z M36.476,32.895c-0.2,0-0.3-0.9-0.3-0.9c0.4,0,0.4,0.1,0.6,0.5
	C36.876,32.795,36.676,32.895,36.476,32.895z M32.676,30.795c0,0.1,0.9,2.3,1.3,2.6c0.4,0.3,0.7,0,0.7-0.2c0.1-0.2-0.5-1.4-0.9-2.1
	C33.376,30.295,32.676,30.595,32.676,30.795z M17.876,29.995c-0.6-0.5-1.4-0.6-2.9-2c-1.4-1.3-1.8-3.4-2.1-3.5
	c-1-0.2-1.3,2.5-2.1,4.2s-2.6,2.4-3,2.5c-0.3,0.1-1,0.6-1.1,1.2c0,0.6,1.2,1.2,5.3,1.5s5.2-1.1,6-2
	C18.876,31.095,18.476,30.495,17.876,29.995z M14.776,29.495c-0.4,0-0.7,0-0.6,0.3c0.1,0.3,1,1.6,0.6,1.8c-0.4,0.1-0.4,0.2-0.5,0
	s-1.2-2.2-1.5-2c-0.3,0.1-0.4,0.4-0.2,0.6s1,1.6,0.7,1.7s-0.7,0.2-0.7,0c-0.1-0.2-0.9-1.9-1.2-1.7c-0.4,0.1-0.6,0.2-0.5,0.4
	c0.2,0.2,1,1.2,0.6,1.2s-2.3,0.1-2.2-0.4c0-0.5,2.2-1.8,2.7-2.8s0.7-2,0.9-2s0.9,1.8,1.5,2.3
	C14.876,29.295,15.276,29.495,14.776,29.495z M15.676,31.395c-0.2-0.1-0.4-1.3-0.4-1.3c0.3,0,1.2,0.7,1.5,0.7
	S15.876,31.495,15.676,31.395z M8.076,11.095c-0.5-0.3-2,0-3.6,1.7s-1.8,3.6-1.6,4s1,0.3,1.1,0c0.2-0.3-0.1-1,0.8-2.6
	c0.9-1.6,2.6-2.1,3.2-2.3C8.476,11.795,8.576,11.395,8.076,11.095z"/>
<g>
</g>
<g>
</g>
<g>
</g>
<g>
</g>
<g>
</g>
<g>
</g>
<g>
</g>
<g>
</g>
<g>
</g>
<g>
</g>
<g>
</g>
<g>
</g>
<g>
</g>
<g>
</g>
<g>
</g>
</svg>
