<?xml version="1.0" encoding="iso-8859-1"?>
<!-- Generator: Adobe Illustrator 18.1.1, SVG Export Plug-In . SVG Version: 6.00 Build 0)  -->
<svg version="1.1" id="Capa_1" xmlns="http://www.w3.org/2000/svg" xmlns:xlink="http://www.w3.org/1999/xlink" x="0px" y="0px"
	 viewBox="0 0 45.113 45.113" style="enable-background:new 0 0 45.113 45.113;" xml:space="preserve">
<path id="rss" d="M6.755,29.851c-2.4,0.1-4.8,2.7-4.5,5.3s0.6,4,1.5,5.3s3.8,2.4,6.2,2.4s4.6-1,4.9-3.7s0.1-4.5-1.3-6.4
	C12.255,30.851,10.355,29.651,6.755,29.851z M11.155,39.251c-1.6,1.1-4.1,0.9-5.9-0.1c-1.8-1-2.4-3.7-1.7-5.4s2.3-3.2,4.3-3.1
	c2.2,0.1,4.1,1.1,4.9,3C13.555,35.451,12.655,38.151,11.155,39.251z M44.655,32.351c-0.2-6.3-1.7-10.9-4.2-15.1
	c-2.6-4.2-5.7-8.6-12.8-12.2c-7.1-3.6-13.8-4.8-18.2-5s-7.1,0.2-8.1,1s-0.9,3.6-0.9,5.3s0.3,2.1,0.8,3.1s1.8,1.5,3.9,2.1
	c1.3,0.3,9.8,1.3,14.2,2.8c4.4,1.4,7.1,4.3,9.2,7.5c2.1,3.2,3.7,9,4.3,12.3s0.3,8.5,0.7,9.5c0.5,0.9,3.8,1.2,5.5,1.4
	s2.8-0.1,3.6-0.7C43.555,43.651,44.755,38.551,44.655,32.351z M43.455,35.251c-0.1-0.1-4.2-4.3-4.3-4.1s-0.2,1,0.1,1.2
	c0.3,0.3,4,3.5,4.1,3.7s0.1,1.4-0.1,1.4c-0.1-0.1-4.3-4.3-4.4-4.2s-0.2,0.8,0,1c0.3,0.2,4.3,4,4.3,4.3s0,1.4-0.2,1.4
	s-4.2-4.4-4.3-4.3s-0.3,0.7-0.1,1s3.9,3.8,3.9,3.8s-0.7,0.4-0.8,0.3c-0.1-0.1-3.4-3.2-3.5-3.2c-0.1,0.1-0.5,0.4-0.4,0.6
	c0.1,0.2,3,2.7,2.9,2.7s-1.3,0.1-1.4,0s-2.1-2.1-2.3-2.1c-0.1,0-0.5,0.5-0.4,0.6s1.2,1.2,1.1,1.2s-1.2-0.1-1.3-0.2s-0.1-2.9-1.3-8.6
	c-1.2-5.7-3.1-11.2-5.4-13.9c-2.3-2.7-7.8-6.4-13.6-7.5s-12.5-1.7-13.6-2.1c-0.8-0.2-0.9-0.7-1-2s0.1-4,0.5-4.5s2.7-0.7,4.9-0.7
	s6.6,0.2,10.6,1.3s11.4,3.4,15.6,7.6c4.2,4.2,6.5,8.1,6.5,8.1s-1.2-1.1-1.2-0.7c0,0.3-0.2,0.9,0.7,1.5c0.8,0.6,1.8,2,2.3,2.8
	s0.5,1.2,0.5,1.2s-2.5-2.6-2.7-2.4c-0.2,0.2-0.3,0.7,0.1,1c0.4,0.3,3,3,3.1,3.2s0.6,1.5,0.4,1.5s-3.4-2.9-3.5-2.9s-0.2,0.8,0,1
	c0.2,0.1,3.6,3,3.7,3.3c0.1,0.3,0.4,2.2,0.3,2.1c-0.2-0.1-3.7-4-3.9-3.9s-0.2,0.8-0.1,0.9c0.1,0.1,4.1,4,4.2,4.3
	c0.1,0.3,0.2,1.4,0,1.3c-0.2-0.1-4.2-4.3-4.3-4.1s-0.2,1,0,1.1s4.4,4,4.4,4.3C43.655,33.951,43.555,35.351,43.455,35.251z
	 M22.955,19.551c-2-1.4-7.1-4-10.6-4.9c-3.5-1-4.6-1.1-7.9-1c-1,0-2.8,0.5-2.9,1.6c-0.1,1.1-0.5,5.2,0,6.1c0.6,0.9,1.8,3.1,2.7,3.4
	c0.9,0.3,8,1.8,11.4,5.5s4,5.7,4.2,7.9s-0.4,5.5,0.3,6s3.1,0.7,5.1,0.9s3.2-0.2,4.3-1.2s1.5-2.4,1.6-4.2s-0.4-7.6-1.9-11.2
	S24.855,21.051,22.955,19.551z M29.455,32.951c0,0.1-2.6-2.3-2.8-2.4c-0.1,0-0.4,0.5-0.4,0.7s3.2,2.8,3.4,3c0.2,0.1,0.2,0.6,0.2,0.8
	s-3.2-2.8-3.3-2.8s-0.3,0.6-0.1,0.9c0.2,0.2,3.4,2.9,3.5,3.1s0.1,0.9,0,1.2s-2.9-2.7-3.1-2.7c-0.2,0-0.3,0.4-0.1,0.7s3,2.8,3.2,2.9
	c0.2,0.1,0.2,1.1,0.1,1.3c-0.1,0.2-2.8-2.8-3-3.1c-0.3-0.3-0.4-0.2-0.6,0.1s0.1,0.5,0.3,0.8s3.2,3,3.2,3s-0.2,0.7-0.4,0.7
	s-2.7-2.9-3-3.1c-0.2-0.2-0.6,0.4-0.6,0.6c0,0.2,2.7,2.7,2.8,2.9s-1,0.2-1.3,0.2s-2.2-1.9-2.4-2.2s-0.5,0.2-0.6,0.5s1.6,1.6,1.6,1.6
	s-0.3,0.1-0.8,0s-1.2,0-1.7-0.4s-0.7-3.6-1.3-7.5s-3.1-6.3-7.4-9c-4.3-2.8-8.4-3.1-10-3.3c-1.5-0.2-2.2-0.7-2.5-1s-0.2-4.2,0.1-4.9
	c0.2-0.7,1.3-0.9,2.9-1c3.1-0.1,6.5,0.9,9.7,2.1c3.2,1.2,6.7,3,8.1,4.2c1.4,1.2,3.2,4,3.1,4.1c0,0.1-0.8-0.4-1.1-0.6
	s-0.1,0.6-0.1,0.7s2.7,1.8,2.8,1.9s0.4,1.1,0.4,1.3s-1.7-1.3-2-1.5s-0.3,0.4-0.3,0.7s2.9,2.3,3,2.5s0.1,0.4,0.1,0.6
	c0,0.2-2.6-2.2-2.8-2.2s-0.2,0.7-0.1,0.9c0.1,0.2,3.2,2.6,3.2,2.7C29.355,32.051,29.455,32.851,29.455,32.951z M4.455,2.451
	c-0.9,0.4-1.3,2.2-1.2,2.9s0.7,1.5,1.1,1.3c0.3-0.1,0.3-0.9,0.2-1s-0.3-0.6-0.1-1.4c0.2-0.8,1-0.8,1.3-1.1
	C6.155,2.651,5.455,1.951,4.455,2.451z M4.255,16.751c-0.6,0-1.2,0.8-1.2,1.3c0,0.4,0.5,1.4,0.9,1.4c0.3,0,0.4-0.4,0.3-0.8
	s0.3-0.8,0.5-1.1C4.955,17.151,4.855,16.751,4.255,16.751z M6.355,33.251c-0.7,0.2-1.8,1.7-1.8,2.1c-0.1,1.6,0.3,1.7,0.7,1.7
	s0.3-0.6,0.3-1.3s0.8-1.6,1.3-2C7.355,33.451,6.955,33.051,6.355,33.251z"/>
<g>
</g>
<g>
</g>
<g>
</g>
<g>
</g>
<g>
</g>
<g>
</g>
<g>
</g>
<g>
</g>
<g>
</g>
<g>
</g>
<g>
</g>
<g>
</g>
<g>
</g>
<g>
</g>
<g>
</g>
</svg>
