<?xml version="1.0" encoding="iso-8859-1"?>
<!-- Generator: Adobe Illustrator 18.1.1, SVG Export Plug-In . SVG Version: 6.00 Build 0)  -->
<svg version="1.1" id="Capa_1" xmlns="http://www.w3.org/2000/svg" xmlns:xlink="http://www.w3.org/1999/xlink" x="0px" y="0px"
	 viewBox="0 0 38.437 38.437" style="enable-background:new 0 0 38.437 38.437;" xml:space="preserve">
<path id="share" d="M38.247,29.007c-0.4-1.4-3.1-5.1-7.9-5.2c-4.8-0.1-6,2.2-6,2.2s-0.8-0.3-3.4-1.7c-2.7-1.5-4.8-2.9-4.8-2.9
	s0.1-1.3,0.2-1.5s1.1-1.1,1.9-1.5s7.6-3.5,7.6-3.5s2.5,1.5,4.1,1.5s4.1-0.6,6-3.2c1.8-2.6,3.2-4.9,1.5-8.7c-1.8-3.7-4.3-4.6-6.6-4.5
	c-2.3,0.1-5.4,0.7-7.5,3.6c-2.1,2.9-1,5.7-1,5.7l-9.3,4.4c0,0-1.6-1.8-4-1.8s-4.6,0.4-6.4,2.9c-1,1.4-3.6,4.9-2.2,8.4
	c1.4,3.4,3.9,4.8,7,5.2s5.3-0.8,5.8-0.8s1.9,0.4,4.5,1.4c2.6,1.1,5.4,3,5.4,3s0.4,1.4,1.1,2.6s2,2.6,4.9,3.5s6.5-0.1,7.8-2.3
	C38.247,33.707,38.647,30.507,38.247,29.007z M37.247,31.807c-0.3-0.2-4.1-3.9-4.4-3.9c-0.4-0.1-0.7,0.3-0.5,0.6s4.6,3.6,4.7,4
	s-0.1,1.8-0.6,1.4c-0.5-0.4-4-4.2-4.4-4.1c-0.4,0.1-0.6,0.7,0,1.1c0.6,0.3,3.8,3.2,3.8,3.4c0,0.3-0.8,1.1-1,0.8s-2.7-3.3-3.1-3.3
	c-0.4-0.1-0.8,0.3-0.6,0.5c0.3,0.2,3,3,3,3.2s-0.5,0.6-0.9,0.2c-0.3-0.3-2.9-3.3-3.2-3.3c-0.3,0-0.8,0.4-0.3,0.8
	c0.5,0.4,3.2,2.6,2.8,2.7s-1.4,0.4-1.7,0c-0.3-0.4-2.1-2.6-2.5-2.7c-0.4,0-1,0.4-0.7,0.6c0.3,0.3,2.1,1.6,1.7,1.7
	c-0.4,0.1-1.2-0.1-1.9-0.7c-0.7-0.6-1.8-1.6-2.1-2.9c-0.3-1.2-0.5-2.1-0.7-2.3c-0.2-0.1-10-4.3-10.7-4.8s-1.4-0.6-1.7-0.3
	s-2.9,1.7-6.3,0.7s-3.9-2.9-4-5.3c-0.1-2.4,1.1-5.4,4.4-6.9c0.8-0.3,3-0.5,3.8-0.1s2.1,2.3,2.6,2.3c0.6,0,1.4-1.1,4.2-2.6
	c2.8-1.4,6.4-2.7,6.5-3s0.3-0.4,0.1-0.7s-0.9-1.8-0.1-3.7s2.3-3.5,4.9-4.1s4.9,0.4,6,1.1s2.2,2.7,2.5,3.7s0.2,2.7-0.1,3.3
	s-0.4,0.8-0.6,0.6s-3-2.3-3.3-2.2s-0.5,0.4-0.3,0.6c0.3,0.2,3.3,2.2,3.2,2.5c-0.1,0.3-0.4,1.3-0.7,1.1c-0.3-0.2-3-2.9-3.3-2.8
	c-0.3,0.1-0.3,0.5-0.1,0.8c0.2,0.3,3.1,2.3,3,2.4c-0.1,0.1-0.7,0.7-0.9,0.4c-0.2-0.2-2.8-2.4-3-2.3c-0.2,0-0.8,0.5-0.4,0.8
	s2.3,1.7,2.2,1.8c-0.1,0.1-1.5,0.6-1.8,0.3c-0.3-0.4-1.5-1.5-1.9-1.4c-0.3,0.1-0.4,0.3-0.2,0.6c0.2,0.3,1.1,0.8,0.7,0.9
	c-0.4,0.1-1,0-1.3-0.2c-0.2-0.2-1.6-1.3-2-1.3c-0.4-0.1-9.5,4.5-10.2,4.9c-0.8,0.5-0.8,1.4-0.8,1.6c0,0.3,0.1,1.5,0.1,1.9
	s-0.2,1.1-0.1,1.3s2.2,1.6,4.6,2.9c2.4,1.3,4.5,2.5,5,2.4c0.5,0,1.1-1.2,1.8-1.6s3.2-1,5.7-0.3s3.9,2.7,3.9,2.7s-2.1-1.7-2.5-1.6
	c-0.3,0.1-0.5,0.6-0.1,0.8s2.9,2,3.3,2.4c0.4,0.5,0.5,0.7,0.6,1C37.447,30.707,37.447,32.007,37.247,31.807z M6.447,14.707
	c-0.3-0.1-1,0.1-2.1,0.9c-1.1,0.9-1.3,2.4-1.3,3.2s0.2,2.4,0.6,2.7c0.7,0.5,0.7-0.5,0.7-0.9s-0.2-1.9,0-2.6s1.5-2.1,2-2.4
	C6.747,15.307,6.747,14.807,6.447,14.707z M25.447,8.207c0.4-0.4-0.1-1.3,0.3-2.4s2.1-2.2,2.8-2.4c0.8-0.2,0.5-0.6,0.1-0.8
	s-2.4,0.7-3.5,2.3s-1,3.2-0.7,3.4C24.647,8.607,24.947,8.607,25.447,8.207z M35.847,8.707c0.6,0.3,0.7,0,0.6-0.3
	c0-0.3-2.8-3-3.1-2.7c-0.3,0.3-0.4,0.6-0.2,0.9S35.347,8.407,35.847,8.707z M36.347,6.207c0.4,0.2,0.2-0.3,0.1-0.6s-2.3-2.2-2.7-1.9
	c-0.2,0.2-0.2,0.6-0.2,0.8C33.647,4.807,35.847,6.007,36.347,6.207z"/>
<g>
</g>
<g>
</g>
<g>
</g>
<g>
</g>
<g>
</g>
<g>
</g>
<g>
</g>
<g>
</g>
<g>
</g>
<g>
</g>
<g>
</g>
<g>
</g>
<g>
</g>
<g>
</g>
<g>
</g>
</svg>
