<?xml version="1.0" encoding="iso-8859-1"?>
<!-- Generator: Adobe Illustrator 18.1.1, SVG Export Plug-In . SVG Version: 6.00 Build 0)  -->
<svg version="1.1" id="Capa_1" xmlns="http://www.w3.org/2000/svg" xmlns:xlink="http://www.w3.org/1999/xlink" x="0px" y="0px"
	 viewBox="0 0 46.517 46.517" style="enable-background:new 0 0 46.517 46.517;" xml:space="preserve">
<path id="weibo" d="M34.4,21.318c0,0,0.1-0.3,0.2-0.5s0.6-1.8-0.3-4.1c-0.9-2.3-3.4-2.4-5.2-2.3c-1.8,0.1-4,1.6-4.2,1.6
	s-0.1-0.5-0.1-0.9c-0.1-0.5-0.4-1.9-1.6-3.4c-1.1-1.4-2.7-2-5-1.8s-5.9,3-7.7,4.4c-1.8,1.4-5.3,5.6-7.1,8c-1.7,2.4-3.4,6.2-3.4,8.5
	c0,4.4,5.1,7.6,9,9.6c3.8,2,7.5,2.2,14.2,2c6.8-0.1,11.9-2.6,14.6-5.8c2.6-3.2,2.9-5.6,2-8.9C38.8,24.318,34.4,21.318,34.4,21.318z
	 M33.9,23.718c0.1,0.1,4,5.5,4,5.8c0.1,0.2,0,1.5-0.3,1.3s-4.7-6.8-5-6.7c-0.3,0.1-0.6,0.6-0.4,0.8c0.2,0.2,5.2,6.3,5.1,6.7
	c0,0.4-0.4,0.9-0.5,0.7c-0.1-0.1-4.4-5.9-4.7-5.9s-0.5,0.3-0.3,0.5c0.1,0.2,4.6,5.7,4.6,6s0,0.8-0.4,0.7c-0.4-0.1-4.5-5-4.8-5
	s-0.8,0.4-0.4,0.7c0.4,0.3,4.4,4.9,4.4,5.2c0,0.2-0.6,1.1-1,0.9s-3.3-4.9-3.6-4.8c-0.3,0.1-0.9-0.1-0.5,0.5c0.4,0.7,3.4,4.7,3.2,4.9
	c-0.1,0.2-0.8,0.6-1,0.5s-3.3-4.9-3.6-4.9s-0.8,0.3-0.5,0.7c0.2,0.3,3.4,4.4,3.4,4.6c-0.1,0.2-0.7,0.6-1,0.3
	c-0.2-0.2-2.6-4.1-2.9-4.1s-0.8,0.5-0.7,0.5c0.1,0.1,2.8,4,2.7,4.2c0,0.2-0.6,0.6-0.9,0.4s-2.8-3.9-3-3.9c-0.3,0-0.9,0.2-0.6,0.5
	s2.7,3.5,2.6,3.7s-0.4,0.5-0.6,0.4s-2.7-3.7-2.9-3.7s-0.8,0.3-0.6,0.6c0.2,0.3,2.5,3.2,2.4,3.5s-0.7,0.4-0.9,0.3
	c-0.1-0.1-2.8-3.7-3-3.7s-0.7,0.4-0.5,0.6s2.4,3,2.3,3.1s-0.8,0.2-0.9,0.1c-0.2-0.1-2.6-3.6-2.9-3.6s-0.9,0.2-0.7,0.4
	c0.2,0.2,2.5,3.2,2.3,3.3c-0.3,0.1-0.9,0.2-1.1,0s-2.4-3.2-2.7-3.2s-0.8,0.3-0.6,0.5c0.2,0.2,1.8,2.4,1.6,2.5
	c-0.2,0.1-0.7,0.3-0.8,0.1c-0.1-0.2-2.2-3-2.4-3c-0.2,0-0.9,0.1-0.6,0.5s1.9,2.2,1.7,2.3c-0.2,0.1-0.6,0.3-0.9,0
	c-0.3-0.4-2.1-2.8-2.3-2.7c-0.2,0-1,0.4-0.8,0.7c0.3,0.2,1.7,1.8,1.3,1.9c-0.5,0.1-1.1,0.3-1.2,0c-0.2-0.3-1.1-2.4-1.6-2.4
	s-0.6,0-0.5,0.4s1.1,1.4,0.7,1.5s-4.3-1.2-6.5-3.1s-3.4-5.1-3-8c0.2-1.2,2.7-4.9,4.8-7.5c2.1-2.6,4.5-5.3,7-6.9s4.2-2.9,6.4-2.1
	c2.2,0.8,3.6,2.3,3.6,4s-0.2,2.4,0.1,2.7c0.4,0.3,0.4,0.5,0.5,0.2s3.3-3,5.9-2.8s4.1,1.2,3.8,3.3c-0.2,2.1-0.7,2.6-0.9,2.8
	c-0.2,0.2-0.1,0.9,0,1.1c0.2,0.1,1.4,0,1.7,0.2c0.3,0.3,2,1.8,2.6,3.2c0.6,1.4,0.7,2.4,0.7,2.4s-3.3-5-3.6-4.9
	S33.8,23.618,33.9,23.718z M12.7,16.018c0.3,0.1,0.9-0.4,1-0.8c0.2-0.4,1.3-1.3,2.7-1.8c1.4-0.5,2.5,0.6,2.7,0.7s0.3,0.2,0.5-0.2
	c0.2-0.4,0.2-1-0.9-1.4c-1.1-0.5-2-0.3-3.1,0.1s-2.7,1.7-3,2.3C12.2,15.318,12.4,15.918,12.7,16.018z M29.4,16.918
	c-1.2-0.2-2.6,0.6-3.3,1.1c-0.6,0.5-0.5,1.3-0.2,1.5c0.5,0.2,0.8-0.6,1.5-1.1c0.6-0.5,1.7-0.5,2.4-0.2c0.7,0.3,1.1,1,1.7,0.5
	C32.1,18.118,30.5,17.118,29.4,16.918z M21.4,22.418c-5.4-1.3-8.6-0.1-11.2,1.1c-3.6,1.8-5.5,4.8-4.8,6.6c0.7,1.8,1.4,3.7,5.7,4.7
	s7.5,1.2,12.1-0.7c4.6-2,4.6-4.2,4.5-6.6C27.5,25.218,26.8,23.718,21.4,22.418z M24.2,32.218c-2.5,1.5-4.5,2.8-8.6,2.5
	s-5.9-1.3-7.1-2.7c-1.2-1.4-0.8-4.9,3.1-7.1c1.5-0.8,3-2,7.8-1.5c4.7,0.5,7.1,2.8,7.2,3.6C26.7,27.918,26.7,30.618,24.2,32.218z
	 M13.7,24.618c-1.3,0.6-3,2.5-3.1,3.8c-0.1,1.4,1,4.1,2.8,4.3c1.8,0.2,4.6,0.4,6-0.9c1.3-1.3,2-4,0.3-5.9
	C18.1,24.018,15.2,23.918,13.7,24.618z M16.3,30.018c-1.4,0.8-3.1,0.2-3.9-0.6c-0.7-0.8-0.6-2.6,1.5-3.8c1.1-0.6,2.8-0.7,4,0.8
	S17.7,29.218,16.3,30.018z M33.3,10.318c-1.4,0.9-0.9,2.6-0.6,3.1s2.7,2.7,3.1,3.2s1.3,3,2.6,3.5c1.3,0.5,2.2-0.4,2.6-1.2
	c0.4-0.9,0.3-3.4-1.8-6.2C37.2,10.018,33.8,10.018,33.3,10.318z M39.2,17.618c-0.6-0.5-1.2-2.4-2.6-3.2c-1.4-0.8-2.3-1.3-2.6-1.6
	c-0.4-0.3-0.2-0.6-0.1-0.9c0.2-0.6,2.1-0.7,3.6,0.5s2.5,3.2,2.5,4C40,17.318,39.8,18.118,39.2,17.618z M45.8,11.618
	c-0.8-3.2-3.9-5.3-5.9-6.5s-4.8-1.7-5.6,0.1c-0.7,1.8,0.2,2.6,0.8,3.4c1,1.2,3.4,2,4.7,3.8c1.3,1.7,2.9,6.8,3.5,7.4
	c0.5,0.6,1.4,1.2,2.5,0C46.9,18.518,46.6,14.718,45.8,11.618z M44.8,17.618c-0.8,0-0.7-2.1-2.1-4.6s-3-3.8-4.1-4.4
	c-1.1-0.7-2.5-1.3-2.9-1.5c-0.5-0.3-0.7-1.7,0.1-2c0.8-0.3,4.3,1,6.3,2.9c2.1,1.9,3.1,4.8,3.1,6.7S45.6,17.618,44.8,17.618z"/>
<g>
</g>
<g>
</g>
<g>
</g>
<g>
</g>
<g>
</g>
<g>
</g>
<g>
</g>
<g>
</g>
<g>
</g>
<g>
</g>
<g>
</g>
<g>
</g>
<g>
</g>
<g>
</g>
<g>
</g>
</svg>
