<?xml version="1.0" encoding="iso-8859-1"?>
<!-- Generator: Adobe Illustrator 18.1.1, SVG Export Plug-In . SVG Version: 6.00 Build 0)  -->
<svg version="1.1" id="Capa_1" xmlns="http://www.w3.org/2000/svg" xmlns:xlink="http://www.w3.org/1999/xlink" x="0px" y="0px"
	 viewBox="0 0 45.031 45.031" style="enable-background:new 0 0 45.031 45.031;" xml:space="preserve">
<path id="skype" d="M44.843,28.584c-0.2-1.4-2.4-5.3-2.4-5.3s0.1-1.7-0.5-4.4c-0.6-2.7-2.1-5.5-6.3-9.6c-4.3-4.1-12.8-4.4-12.9-4.4
	s-1.1-1.4-2.7-2.4s-5.2-2.5-10-1.1c-4.8,1.3-7.1,4.7-8.2,6.7s-2.5,4.9-1.5,8.7c0.9,3.8,3.6,5.7,3.6,5.7c0.6,6.9,2.8,11.2,4.7,13.8
	c1.9,2.6,5.4,5.1,8.8,6.5c3.3,1.4,11.8,0.5,11.8,0.5c2.4,1.2,4.9,1.1,7.6,0.5s5-3.1,6.9-6.9
	C45.443,33.084,45.043,29.984,44.843,28.584z M43.143,30.184c-0.1-0.1-5.9-6.9-6.2-6.8c-0.3,0.1-0.4,0.5-0.2,0.7
	c0.2,0.1,6.3,6.6,6.4,6.8c0,0.2,0,1.8-0.1,1.7c-0.1-0.1-6-6.5-6.2-6.4s-0.4,0.4-0.2,0.7c0.1,0.3,6.3,6.2,6.3,6.5s-0.5,2.1-0.8,2
	c-0.3-0.2-5.9-6.9-6.1-6.7s-0.4,0.5-0.1,0.8s6.1,6.3,6.1,6.4c0,0.2-0.8,1.7-1,1.6c-0.2-0.2-6.2-7.3-6.5-7.2
	c-0.3,0.1-0.4,0.5-0.2,0.7c0.1,0.2,6.5,6.7,6.4,6.9c-0.1,0.1-1.1,1.1-1.4,0.9c-0.3-0.1-5.9-6.9-6.1-6.8c-0.2,0.1-0.5,0.7-0.4,0.8
	c0.1,0.1,6.1,6.2,6,6.3c-0.1,0.2-1.4,1.2-1.5,1c-0.2-0.1-6-6.3-6.1-6.3s-0.5,0.4-0.3,0.6s6,5.8,5.8,6s-1.6,0.7-1.8,0.6
	c-0.2-0.1-4.6-5-5-5s-0.6,0.5-0.3,0.7c0.3,0.2,4.5,4.5,4.2,4.5s-1.8,0-2.1-0.2c-0.3-0.1-3.6-4.5-3.9-4.4c-0.3,0-0.6,0.4-0.3,0.7
	c0.3,0.3,3.1,3.5,2.8,3.5c-0.3,0-1.3-0.6-1.4-0.6s-0.7,0-0.7,0s-2.9-3.2-3.1-3.2s-0.7,0.3-0.6,0.4c0.2,0.1,2.8,2.7,2.6,2.9
	c-0.2,0.2-1.3,0.4-1.5,0.2c-0.1-0.2-2.6-2.9-2.9-2.8s-0.8,0.2-0.5,0.5c0.3,0.2,2.7,2.4,2.3,2.5c-0.4,0-1,0-1.2-0.1s-2.7-2-3.2-2
	s-0.9,0.3-0.6,0.5s2.2,1.3,1.8,1.4c-0.4,0.1-3.5-0.5-5.6-1.3s-4.7-2.6-6.5-4.9s-2.9-5-3.2-7.2c-0.4-2.2-0.7-4.8-0.7-4.8
	s-2.9-2.5-3.6-4.8s-0.6-5.5,1.3-8.6s5.4-6.2,8.1-6.7s7.9,0.3,9.6,1.8s2.1,2,2.1,2s8.7,0.8,11.6,3.4s3.1,2.9,3.1,2.9s-1-0.8-1.2-0.6
	c-0.1,0.2-0.2,0.6,0.5,1.3c0.8,0.8,1,1.4,1.3,1.3s0.1-0.7,0.1-0.7s2.1,2.6,2.3,3.7c0,0-3.4-3.5-3.6-3.3s0,1,0.3,1.2
	c0.2,0.2,3.7,3.2,3.8,3.3c0.1,0.2,0.6,2.6,0.4,2.1s-4.4-4.3-4.6-4.1c-0.2,0.1-0.3,0.5-0.2,0.7c0.2,0.2,4.8,4.1,4.9,4.3
	c0,0.2-0.1,2.1,0.2,2.3c0.2,0.3,0.9,1.6,0.8,1.5c-0.1-0.2-5.7-5.7-6-5.7s-0.4,0.4-0.3,0.5s6.6,5.9,6.6,6.1s0.4,1.3,0.5,2.3
	C43.343,29.384,43.243,30.284,43.143,30.184z M6.843,8.384c-0.9,0.4-2.5,1.7-3.4,3.5s-0.8,4.2-0.5,4.4c0.5,0.4,0.9-0.1,0.9-0.7
	s0-2.3,0.7-3.6s2.5-2.6,3.2-2.9s0.8-0.6,0.6-0.9C8.143,7.884,7.843,7.984,6.843,8.384z M11.443,15.084c-0.6,0.5-1.4,2.1-1.5,3.3
	c-0.1,1.2,0.6,2.4,0.9,2.5c0.4,0.1,0.7-0.1,0.8-0.4c0.1-0.3-0.4-1.1-0.5-1.8s0.7-1.7,1-2.5
	C12.543,15.284,12.043,14.584,11.443,15.084z M30.143,9.984c-0.3,0.1-0.6,0.3-0.5,0.6c0.1,0.3,1,0.8,2.3,1.6c1.3,0.8,1.5,3,1.7,3.4
	s0.5,0.2,0.8,0s0.1-0.7-0.9-2.9C32.643,10.484,30.443,9.884,30.143,9.984z M28.943,13.084c-3-1.8-6.9-1.6-9-1.3
	c-2.7,0.4-5.4,1.9-6.3,4.8s1,5.3,2.2,6.3c1.1,0.9,5.3,2.1,6.9,2.7s2.3,2.1,1.9,2.9c-0.4,0.9-1.2,1-3.3,0.7c-2.1-0.3-4.7-2.8-6.6-3.1
	c-2-0.3-2.4,1.8-2.2,3.4c0.2,1.5,1.8,3.4,4.6,4.6c2.8,1.1,6.5,0.8,9,0s4.4-2.4,5-5.5c0.6-3.2,0-4.2-2.1-5.5c-2-1.3-7.2-2.1-8.6-2.6
	s-1.3-2.3-0.7-2.8c0.6-0.6,3.2-1.4,4.1-1.1c1,0.3,3.6,2.8,4.9,3.3c1.2,0.5,2.5-0.9,2.8-1.9
	C31.943,16.984,31.843,14.884,28.943,13.084z M30.543,18.084c-0.3,0.8-1.3,1.5-2.8,0.2c-1.5-1.2-2.5-3-4.8-2.8
	c-2.4,0.2-3.9,1.2-4.3,2.2c-0.4,0.9-0.3,3,1.2,3.7s5.9,1.5,7.9,2.5c2,0.9,3.1,1.4,2.3,4.4c-0.9,3-2.1,4.6-5,5.3
	c-3,0.7-5.8,0.5-7.5-0.2c-1.6-0.7-2.9-2.2-3-3s-0.1-2.2,1.4-1.4c1.5,0.8,3,2.4,6,2.2s4.4-1.1,4-3s-1-2.8-2.9-3.5
	c-1.9-0.8-5-1.7-6.3-3s-1.1-4-0.2-5.2s2.5-2.6,6.5-2.5c1.5,0,4.1,0.2,6.1,1.3C31.143,16.484,30.943,17.184,30.543,18.084z"/>
<g>
</g>
<g>
</g>
<g>
</g>
<g>
</g>
<g>
</g>
<g>
</g>
<g>
</g>
<g>
</g>
<g>
</g>
<g>
</g>
<g>
</g>
<g>
</g>
<g>
</g>
<g>
</g>
<g>
</g>
</svg>
