<?xml version="1.0" encoding="iso-8859-1"?>
<!-- Generator: Adobe Illustrator 18.1.1, SVG Export Plug-In . SVG Version: 6.00 Build 0)  -->
<svg version="1.1" id="Capa_1" xmlns="http://www.w3.org/2000/svg" xmlns:xlink="http://www.w3.org/1999/xlink" x="0px" y="0px"
	 viewBox="0 0 46.207 46.207" style="enable-background:new 0 0 46.207 46.207;" xml:space="preserve">
<path id="slideshare" d="M45.948,21.272c-0.8-1.7-2.2-1-2.2-1s-0.3-10.9-0.3-13.5c0.1-2.6-0.8-4.1-1.7-4.7s-7.5-1.6-8.6-1.5
	s-3.2,0.2-4.6,0.1s-5.5,0.1-9,0.4c-3.4,0.4-7.8-0.2-11.7,0.3c-3.8,0.5-4.1,2.3-4.1,3.5c-0.1,1.2,0.4,16.7,0.4,16.7s-2.2-1.9-2.8-1.4
	c-2.4,2.2-1.1,5.5,0.1,6.4s6.6,4.1,6.6,4.1s0.2,5.3,0.5,7.9c0.3,2.5,0.1,3.4,2.7,5.3s6,2.1,8.3,1.4s3.2-2.4,3.6-4.5s0.5-7.7,0.5-7.7
	c0.5,0.5,2,0.6,2,0.6s-0.2,7.3,0.6,9.4c0.8,2.1,2.3,2.4,3.9,2.4s3.9,0.3,6.5-1.6c2.5-1.9,3.2-3.3,3.4-5s-0.9-7.9-0.8-8.4
	s0.9-0.6,1.6-1.1s2.3-1.4,3.5-3C45.548,24.672,46.748,22.972,45.948,21.272z M5.148,3.772c0.6-0.8,1.2-1.4,4.4-1.5
	c3.2-0.1,6.7,0.3,9.3,0c2.6-0.3,5.4-0.9,7.1-0.7s5.5,0.3,7.5,0.2s6.6,0.4,7.6,1.2s1.5,2.3,1.4,4.7c0,2.4,0.2,7.8,0.3,9.8
	c0.1,2,0.1,2.9,0,3.1s-1.6,1.6-1.7,1.4c-0.1-0.2-0.8-11.1-1-13.1c-0.3-1.9-0.5-3.8-2.4-4.1s-6.7-0.5-12-0.3s-10.4,0.4-13.1,0.6
	c-2.7,0.2-4.7,0.5-5.2,1.9s0.1,5.9,0.1,9.7s0.4,6.5,0.2,6.6s-2-1.2-2.2-1.3s-0.2-10.1-0.3-11.5C4.848,9.172,4.648,4.572,5.148,3.772
	z M25.248,27.972c0,0-0.4-0.4-2.1-1.4s-2.1-1-2.8-0.9s-4,0.1-6.2-0.1s-3.9-1.1-4.5-1.3c0,0,0.3-11.7,0.5-13.2s0.9-3,1.9-3.3
	c1-0.3,8.3-1.2,10.7-1.4c2.4-0.2,10.3-0.6,12.1-0.6s3.4,0.1,3.9,1s0.9,5,1,9s0.3,6.9,0.2,7.1s-2.9,1.9-5,2.2c-2.1,0.4-3.9,0.3-5.6,0
	c-1.7-0.2-2.7-0.3-3.1-0.1s-0.8,0.6-0.8,1S25.248,27.972,25.248,27.972z M22.448,31.172c-1.4-0.9-1.5-1.1-1.7-1s-0.4,0.4-0.4,0.5
	c0.1,0.1,0.2,0.5,0.2,0.5s-0.8-0.8-1-0.7s-0.5,0.3-0.4,0.4s1.3,1.4,1.5,1.6c0.2,0.2,0.5,0.5,0.5,0.7s-0.1,1-0.1,0.9
	s-1.9-2.7-2.2-2.7s-0.6,0.3-0.5,0.5s2.9,3.4,3,3.6c0,0.2,0.1,1.4-0.1,1.3s-2.7-3.7-3.1-3.7s-0.5,0.4-0.5,0.6s3.4,4,3.5,4.2
	s0.2,1.4,0,1.2s-3.2-4-3.4-3.9c-0.2,0.1-0.6,0.9-0.4,1.1c0.2,0.2,3.7,3.7,3.7,3.8s-0.3,1.7-0.4,1.5c-0.1-0.1-3.2-4.3-3.4-4.3
	s-0.4,0.8-0.3,1s3,3.6,3,3.9s-0.2,0.5-0.4,0.3s-2.9-3.4-3.1-3.3c-0.1,0-0.6,0.4-0.5,0.6c0.1,0.2,2.8,3,2.7,3.1
	c0,0.2-0.1,0.3-0.3,0.2s-2.9-2.8-3-2.8s-0.6,0.4-0.5,0.6c0.1,0.2,2.7,2.2,2.4,2.4c-0.3,0.2-1.2,0.2-1.3,0c-0.1-0.2-1.5-1.9-1.7-1.9
	s-0.8,0.2-0.6,0.4c0.1,0.2,1.2,1.3,1.1,1.4c-0.1,0.1-2.1-0.7-3.1-1.5s-1.9-2.3-1.9-4.3c0-1.9,0.5-5.3,0.7-6.6s0.1-1.5-0.3-1.7
	s-3.7-1.8-5.6-3.1c-1.9-1.2-2.8-2.4-3-2.8c-0.2-0.4-0.1-2,0.2-2.1c0.1-0.1,3.2,2.5,4.8,3.2c1.6,0.7,4.4,2,6.1,2.2s5,0.5,6.4,0.3
	c1.3-0.1,2.5-0.2,2.8,0s2,2.3,4.2,2.4c2.2,0.1,4.8-0.9,5.2-0.9s0.8,0.3,0.6,0.9s-1.5,2.3-3.8,2.6
	C25.548,32.172,23.848,32.072,22.448,31.172z M44.448,23.672c-1.1,1.7-2.5,3.3-4.3,4.2c-1.8,1-2.7,1.4-3.1,1.4s-0.6,0.1-0.6,0.2
	c-0.1,0.2,0.1,1.6,0.1,1.6s-0.8-1-1-0.8s-0.3,0.4-0.1,0.6c0.1,0.2,1.3,1.7,1.3,1.8s0.2,1.3,0.1,1.2s-1.2-1.7-1.4-1.7s-0.4,0.7-0.3,1
	s1.7,2,1.7,2.3s0.2,2.2,0.1,2s-1.9-3.2-2.2-2.9c-0.3,0.3-0.5,0.5-0.3,0.7s2.3,3,2.4,3.4s-0.5,1.1-0.7,1s-1.8-3.1-2.1-3.2
	s-0.7,0.4-0.6,0.5c0.2,0.2,2.1,3.2,2.1,3.3s-0.6,0.9-0.7,0.7s-1.8-3.4-2.1-3.4c-0.3-0.1-0.6,0.5-0.6,0.7s2,3.1,1.9,3.2
	c-0.2,0.1-0.6,0.4-0.8,0.2c-0.2-0.2-1.5-2.5-1.9-2.5s-0.8,0.4-0.7,0.5s2.1,2.4,1.8,2.4c-0.3,0-1.4,0.2-1.6,0.1s-1.4-2.3-1.7-2.4
	c-0.2,0-0.7,0.2-0.6,0.4s1.1,1.7,0.9,1.8s-1.5-0.3-2-0.6s-0.7-0.5-0.8-2.6c-0.2-2.1-0.2-5.1-0.2-5.1s2.2,0.2,3.8-0.8
	c1.6-1,2.7-3.1,2.7-3.9c0-0.8-0.7-1.4-1.3-1.5s-2.1,0.3-2.7,0.4c-0.6,0.1-2,0.6-2.7,0.3c-0.2-0.1,0.1-2.4,0.2-2.5s3,0.7,5.2,0.6
	c2.2-0.1,5.2-0.5,7.3-1.8c2.2-1.3,4.8-3.4,5.2-3.4C44.648,21.272,45.548,21.972,44.448,23.672z M13.648,27.772
	c-1-0.3-2.5-1.1-2.8-0.8c-0.7,0.6-0.2,1,0.6,1.2c0.7,0.2,3.1,0.5,3.4,0.5s0.7-0.3,0.6-0.5
	C15.148,27.972,14.648,27.972,13.648,27.772z M5.448,6.272c-0.1,0.7,0.3,1.2,0.6,1.4c0.1,0.1,0.3,0.2,0.5-0.2s-0.2-2.3,0.1-2.7
	c0.3-0.4,2.2-0.3,2.6-0.3c0.4-0.1,0.2-0.4-0.1-0.7c-0.3-0.3-1.5-0.4-2.8,0C5.148,3.972,5.548,5.572,5.448,6.272z M19.548,12.572
	c-1.7-1-3.8-0.9-5.4-0.2c-2.5,1.2-3.3,4.3-2.9,6.3s1.6,3.6,3.9,4.7c2.2,1.1,4.2,1,5.9-0.5c1.7-1.5,1.9-4.3,1.5-6.2
	C22.148,14.872,21.148,13.572,19.548,12.572z M20.648,17.872c-0.3,2.4-1.8,3.8-3.7,3.9s-3.1-0.9-4.1-1.9s-1.2-4.1,0.9-6
	c1-0.9,2.6-1.5,4.4-0.8C19.948,13.772,21.048,15.472,20.648,17.872z M31.448,23.872c3-0.3,4.3-1.5,5.3-3.8s0.6-4.1-0.2-5.2
	c-0.7-1.1-2.4-3.5-5.7-3.5s-4.3,0.9-5.6,2.1c-1.1,1.1-1.7,2.8-1.5,3.5s0.3,2.6,2,4.6C27.548,23.472,28.448,24.172,31.448,23.872z
	 M25.848,14.472c0.8-0.9,2.4-2.2,4.3-2.1s3.6,1,4.3,2.1c0.8,1.1,1.1,2.8,0.4,4.3s-2.1,3.1-4.9,3.1s-3.7-1.6-4.6-3.6
	C24.548,16.372,25.448,14.972,25.848,14.472z M14.748,14.172c-0.9,0.2-1.6,1.5-1.9,2.1s-0.1,1.2,0.2,1.4c0.6,0.4,0.7-1.1,1-1.6
	s1.2-1,1.4-1.3S15.548,14.072,14.748,14.172z M27.548,17.072c0-0.4,0.4-1.3,1.1-1.8s0.6-0.9,0-1s-1.3,0.5-1.7,1.3
	c-0.8,1.5-0.5,2.4,0,2.4S27.548,17.572,27.548,17.072z M37.948,3.872c0.4,0.1,1.8,0.2,2.1,0.2c0.3,0.1,0.6,1,0.7,1.4s0.8,0.4,1,0.1
	s0.2-1.3-0.8-2.2s-3.2-0.8-3.3-0.6C37.248,3.172,37.548,3.872,37.948,3.872z"/>
<g>
</g>
<g>
</g>
<g>
</g>
<g>
</g>
<g>
</g>
<g>
</g>
<g>
</g>
<g>
</g>
<g>
</g>
<g>
</g>
<g>
</g>
<g>
</g>
<g>
</g>
<g>
</g>
<g>
</g>
</svg>
