<?xml version="1.0" encoding="iso-8859-1"?>
<!-- Generator: Adobe Illustrator 18.1.1, SVG Export Plug-In . SVG Version: 6.00 Build 0)  -->
<svg version="1.1" id="Capa_1" xmlns="http://www.w3.org/2000/svg" xmlns:xlink="http://www.w3.org/1999/xlink" x="0px" y="0px"
	 viewBox="0 0 47.112 47.112" style="enable-background:new 0 0 47.112 47.112;" xml:space="preserve">
<path id="sound_x5F_cloud" d="M47.004,25.939c-0.2-1.1-1.1-2-1.1-2s-0.1-0.2-0.4-0.9s-0.8-1.5-1.8-2.4s-4-1.7-4-1.7s0.1-0.1,0.2-0.3
	c0.1-0.2,0.1-0.9,0.1-2s-0.6-3-1.8-4c-1.2-1-3.8-2.5-7.3-2.7s-6.1,1.1-6.9,1.8c-0.5,0.4-1.3,1.9-1.3,3.6s0.5,6.4,0.5,8.9
	s0,6.4-0.1,8.5s0.2,3.4,0.4,3.5s0.5,0.2,2.7,0.3s4.4,0.3,7.5,0.3c3,0,5.6-0.3,7.6-0.8c1.9-0.5,3.6-2,4.9-4
	C47.404,30.039,47.104,27.039,47.004,25.939z M44.804,29.039c-0.1-0.1-1.7-3.9-1.8-4c-0.2-0.1-1,0.1-0.8,0.3s2.3,4.3,2.3,4.5
	s-0.4,1-0.5,0.9s-2.9-5.7-3-6.1c-0.2-0.3-0.5-0.4-0.7-0.4c-0.2,0.1-0.1,0.3-0.1,0.4s2.8,5.6,3,5.9s0.3,0.7,0.3,0.8
	c-0.1,0.2-1.3,0.6-1.4,0.4s-3.1-7.5-3.3-7.5c-0.2-0.1-0.7,0.2-0.7,0.3c0,0.1,3.6,7.1,3.6,7.3c0,0.2-2.4,0.6-2.5,0.4s-0.9-2-1.3-3.5
	s-1.4-4-1.9-4s-0.5,0.4-0.4,0.5s1,1.6,1.6,3.5s1.3,3.3,1.3,3.5s-0.1,0.2-0.3,0.3c-0.2,0.1-0.9,0.3-1.3-0.1s-1.9-4.3-2.5-5.7
	c-0.7-1.4-0.8-1.8-1.1-1.7s-0.5,0.2-0.5,0.6s2.2,4.3,2.5,5.1s0.8,1.8,0.7,1.9c-0.1,0.2-0.8,0.2-1,0.1s-2.7-5.4-3.1-5.9
	c-0.3-0.5-0.5-0.6-0.8-0.4c-0.3,0.3,0.1,0.7,0.4,1.3c0.4,0.6,2.3,4.3,2.4,4.6c0.1,0.3,0.2,0.6,0,0.5s-1.1,0.1-1.2,0
	c-0.1-0.2-2.2-5.3-2.4-5.4c-0.2-0.1-0.6,0.2-0.5,0.6s1.4,3.2,1.8,4c0.4,0.8,0.5,1,0.4,1c-0.1,0-0.9,0.2-1-0.1s-2.3-4.8-2.4-4.9
	s-0.6,0-0.5,0.5s2.4,4.4,2.3,4.5s-1.5,0.1-1.7,0s-1.4-3-1.6-3s-0.6,0.4-0.6,0.5s1.5,2.6,1.3,2.6s-1.1-0.1-1.1-0.1s-0.8-1.8-1-1.8
	s-0.6,0.4-0.5,0.6c0.1,0.2,0.7,1.2,0.6,1.3c-0.1,0.1-1.3,0.1-1.3,0s-0.1-6.9-0.2-9.4s-0.5-6.5-0.5-7.7s0.2-1.8,0.5-2.2
	c0.6-0.9,1.1-1.7,3.6-2.2c2.5-0.4,5.3-0.3,7.1,0.5c1.8,0.7,3.3,1.6,3.6,3.3s0.4,2.6,0.2,3.4c-0.2,0.7-0.6,1.2-0.4,1.5
	c0.2,0.2,0.7,0.3,0.8,0.3c0.1-0.1,0.3-0.4,1.8,0.3c1.5,0.7,2.8,1.3,3.4,2.6c0.7,1.3,0.7,1.6,0.7,1.8c0,0.2,0,1.1,0,1
	c-0.1-0.2-0.5-1.1-0.7-1.1s-0.6,0.4-0.5,0.5s1.3,2.3,1.3,2.5S44.904,29.139,44.804,29.039z M3.804,24.939c-0.9,0-1.9,0.5-2.5,1
	c-1.4,1.1-1.5,5.5-1.1,6.9c0.4,1.4,1.9,3.3,2.6,3.9s1.7,0.5,2,0.3s0.4-10.3,0.3-11.2S4.704,24.939,3.804,24.939z M3.504,34.539
	c-0.1,0.1-0.6-0.3-1.2-0.8s-1.1-1.6-1.2-2.6c-0.1-1,0.1-2.5,0.3-3.3c0.2-0.8,1.2-2,1.9-2.2c0.2,0,0.2,1.5,0.2,2.4
	C3.304,28.839,3.504,34.439,3.504,34.539z M9.404,18.039c-1.1,0.4-2.2,1.7-2.5,2.7s0,2.8,0.1,3s-0.9,0.7-0.9,0.9
	c0,0.3,0.1,1.1,0.2,3.8c0.1,2.7,0.1,6.5,0.2,6.8s1.1,1.5,1.4,1.6c0.3,0.1,3.6,0,3.7-0.2s-0.1-16.2-0.1-17.1
	C11.304,18.739,10.504,17.739,9.404,18.039z M9.504,34.539c-0.1,0.1-1.7,0.3-1.9,0.2c-0.2-0.1-0.2-5.1-0.3-6.8
	c-0.1-1.7-0.3-2.9-0.2-3.1c0-0.2,0.2-0.3,0.6-0.3c0.4,0,0.8-0.1,0.7-0.4c-0.1-0.3-0.6-1-0.5-2.3c0.1-1.3,1.5-2.6,1.6-2.4
	s0.1,5.8,0.1,7S9.504,34.439,9.504,34.539z M22.604,26.439c0-1.7-0.2-8.3-0.3-8.7c-0.1-0.4-2.3-1.4-2.6-1.6
	c-0.3-0.1-1.2,0.7-1.5,0.6s-1.3-1.1-1.7-1.3c-0.4-0.2-3.9,0.6-3.9,0.8c-0.1,0.2-0.1,5.3,0,7.1c0,1.8-0.1,10.6,0,10.9
	s1.8,2.3,1.9,2.4c0.2,0,3.6,0,3.6-0.1s0-16.6,0-16.6s0.1-0.1,0.2,0s0.2,5.4,0.2,6.5s-0.1,7.8,0,8s0.6,1.8,0.8,2s3.1,0.2,3.3,0.1
	c0.2-0.1,0-1,0-1.9S22.604,28.039,22.604,26.439z M16.004,33.639c-0.1,0.1-2.2,0.1-2.3,0c-0.2-0.1-0.2-16.2-0.1-16.5
	c0-0.2,2.1-0.7,2.3-0.5C16.104,16.839,16.104,33.539,16.004,33.639z M21.104,34.139c-0.1,0.1-1.4,0-1.5,0c-0.1-0.1,0-8.3-0.1-10.7
	c-0.1-2.4-0.4-5.8-0.4-5.9c0.1-0.2,1.6-0.1,1.6,1.2s0.4,8.6,0.4,11.2S21.104,34.039,21.104,34.139z M32.104,12.339
	c-1.3-0.4-3.4,0.3-4,0.6c-0.6,0.3-1.1,0.5-1.1,0.8c0,0.8,0.7,0.5,1.2,0.4c0.6-0.1,1.8-0.9,3.7-0.6c1.9,0.3,2.6,1.6,2.9,1.8
	c0.3,0.3,0.8,0.1,0.9-0.2c0.1-0.3-0.2-0.8-0.7-1.3C34.504,13.239,33.404,12.739,32.104,12.339z M41.004,21.539
	c-0.7-0.3-1,0.6-0.8,0.8c0.2,0.1,0.5,0.1,1,0.5s0.7,1,1,1.2s0.9,0,0.9-0.4C43.104,23.139,41.704,21.839,41.004,21.539z"/>
<g>
</g>
<g>
</g>
<g>
</g>
<g>
</g>
<g>
</g>
<g>
</g>
<g>
</g>
<g>
</g>
<g>
</g>
<g>
</g>
<g>
</g>
<g>
</g>
<g>
</g>
<g>
</g>
<g>
</g>
</svg>
