<?xml version="1.0" encoding="iso-8859-1"?>
<!-- Generator: Adobe Illustrator 18.1.1, SVG Export Plug-In . SVG Version: 6.00 Build 0)  -->
<svg version="1.1" id="Capa_1" xmlns="http://www.w3.org/2000/svg" xmlns:xlink="http://www.w3.org/1999/xlink" x="0px" y="0px"
	 viewBox="0 0 47.294 47.294" style="enable-background:new 0 0 47.294 47.294;" xml:space="preserve">
<path id="we_x5F_chat" d="M47.034,22.085c-0.4-2.3-2.4-5-5.5-6.3s-8-1-10.4-0.7s-4.5,1.5-4.8,1.5s0.2-0.6,1.1-1.2
	c0.9-0.5,2.1-0.7,2.5-1.1s0.8-1.5,0.5-2.3s-2.1-2.4-3.9-3.7s-4.5-2.5-6.9-2.5c-2.3,0-6.2,0.5-8.9,1.2c-2.7,0.7-5.7,3-7.1,4.4
	s-3.4,4.7-3.6,7s0.5,4.2,1.7,6.1c1.2,1.8,3.8,3.5,3.9,3.6s-0.1,0.5-0.8,1.7c-0.7,1.2-1.7,3.2-1.7,3.4c0,0.6,1.8,1.7,2.3,1.9
	c0.5,0.1,1.5-0.1,2.7-0.7c1.2-0.6,3.7-3.3,3.7-3.3s2.4,0.4,3.7,0.4c1.3,0,3.2-0.5,4.3-1.1c1.1-0.6,1-1.6,1-1.6s0.7,1.5,1.7,2.8
	c0.9,1.2,3.1,3.4,6.3,4.4c3.2,1,7.7,0.6,7.7,0.6c0,0.1,1.7,1.4,3,2.7s3.1,2.4,3.6,2.2c0.5-0.1,0.6-0.6,0.7-2s0-6.7,0-6.7
	s0.9-0.5,2.3-2.7C47.534,28.085,47.434,24.485,47.034,22.085z M19.634,20.185c0,0-0.6-3.2-0.9-3.2s-0.7,0.4-0.6,0.5s1.1,3,1.1,3.4
	s-0.4,1.6-0.4,1.5c-0.1-0.2-1.2-4.4-1.6-4.6c-0.4-0.2-0.7,0.3-0.6,0.4c0.1,0.1,0.9,2.5,1.2,3.1c0.2,0.7,0.6,1.7,0.6,1.9
	c0,0.1-0.2,1.4-0.1,1.9s0,1,0,1s-1.6-5.1-1.8-5.5c-0.2-0.4-0.2-0.6-0.5-0.7c-0.3,0-0.5,0.6-0.4,0.7c0.1,0.1,2.1,6.2,2.3,6.4
	s0.5,0.2,0.5,0.3c0.1,0.1,0.1,0.5-0.1,0.8c-0.2,0.2-0.9,0.4-1.1,0.3c-0.2-0.1-1.6-5-2-6.1c-0.3-1-0.1-1.2-0.6-1.2s-0.5,0.2-0.4,0.4
	s0.9,3.5,1.4,5.1s0.8,1.9,0.7,2c-0.1,0.1-0.7,0.1-0.8,0.1c-0.1-0.1-1.9-5.5-2-5.9s-0.2-0.8-0.5-0.8s-0.5,0.3-0.5,0.4
	c0,0.2,1.4,4.4,1.7,5.1c0.3,0.7,0.6,1.3,0.5,1.3s-0.9,0-0.9-0.1s-1.3-3.4-1.7-4.4c-0.4-1-0.5-1.6-0.7-1.6s-0.5,0.4-0.5,0.5
	s1.5,3.9,1.6,4.2s0.5,1,0.4,1s-0.6,0-0.8-0.3c-0.2-0.4-1.7-4.3-1.9-4.5s-0.8,0-0.8,0.1s1.5,3.5,1.6,3.8s0.2,0.7,0.2,0.7
	c0,0.1-0.4,0.3-0.5,0.3c-0.1-0.1-1.3-3-1.5-3c-0.3,0-0.6,0.3-0.6,0.5s1.1,2.3,1.2,2.4c0.1,0.2,0.4,0.4,0.2,0.6s-0.4,0.3-0.5,0.2
	s-0.4-1.1-0.7-1.1c-0.3,0-0.8,0.3-0.7,0.6c0.1,0.3,0.6,0.9,0.5,1.1c-0.1,0.2-1.8,0.9-2.4,1.4s-1.1,0.9-1.3,0.8
	c-0.1-0.1,1.6-3.2,1.8-3.5s0.2-0.8,0-1c-0.2-0.1-2.7-2-3.6-3s-1.8-2.7-2-3.8s0-3.3,0.7-4.7c0.6-1.4,2.1-3.7,4.4-5.4
	c2.2-1.7,4.7-2.8,8.2-3.3s6.4-1,9.8,0.8c3.4,1.9,4.6,3.3,4.9,3.8s0.3,1.3,0.1,1.4c-0.2,0.1-2,0.7-3.1,1.3s-2,1-2,1s1.1-1.6,0.4-2.4
	c-0.7-0.8-2.3-1.9-4-1.3c-1.7,0.6-2.3,2.1-1.9,3s2,1.3,2.7,1.4c0.7,0.1,1.9-0.1,1.9-0.1s-1.9,1.4-2.3,2
	C20.634,18.985,19.634,20.185,19.634,20.185z M22.334,15.285c-0.8,0.1-1.4-0.1-1.3-0.6c0-0.2,0.7-0.7,1.2-0.8
	c0.6-0.2,1.2-0.1,1.4,0.3C23.734,14.585,23.134,15.185,22.334,15.285z M45.434,25.285c-0.1,0-1.6-3.8-1.8-3.7
	c-0.3,0.1-0.6,1-0.5,1.1c0.1,0.2,2.1,3.9,2.1,4c0,0.2-0.2,1-0.3,0.9c-0.1,0-2-4.4-2.3-4.4s-0.5,0.7-0.4,0.8c0,0.1,2.5,4.6,2.5,4.7
	c0,0.2-0.7,1.2-0.8,1.1c-0.1-0.1-2.1-4.5-2.3-4.5c-0.2-0.1-0.7,0.4-0.7,0.5s2.3,4.4,2.3,4.6c0,0.2-0.8,0.9-1,0.8
	c-0.2-0.1-1.8-4.8-2-4.9c-0.2-0.1-0.9,0.4-0.9,0.5c0,0.2,2,4.7,2,4.9c0,0.3,0.5,3.9,0.3,3.8c-0.2-0.1-3-6.9-3.3-7.3
	c-0.2-0.4-0.2-0.4-0.4-0.4c-0.2,0-0.4,0.3-0.3,0.7s4,8,3.9,8.1s-2.1-1.2-2.4-1.6c-0.3-0.5-3.2-6.4-3.4-6.4c-0.2-0.1-0.7,0.2-0.7,0.4
	s3.1,5.1,2.9,5.1c-0.2,0.1-1.6-0.1-1.7-0.1s-2.2-4.8-2.4-4.9c-0.2-0.1-0.9,0.3-0.8,0.5s2.4,4.3,2.2,4.4c-0.2,0-0.9,0.1-1,0.1
	c-0.2,0-2.5-4.5-2.8-4.6c-0.2-0.1-0.7,0.3-0.6,0.7c0.1,0.3,2.2,4,2.1,4s-1.1,0-1.2-0.1s-1.7-3.6-2-3.7c-0.3-0.1-0.7,0.4-0.7,0.6
	c0.1,0.2,1.7,3,1.5,3s-2.7-3.1-2.9-3.1s-0.8,0.2-0.6,0.6s1.5,1.7,1.4,1.9s-3.5-1-5.1-2.6s-2.5-4.1-2.5-5.9c0-1.7,1.7-4,2.4-4.8
	c0.8-0.8,2.8-2.3,3.9-2.9c1.4-0.6,3.7-1.2,6.5-1.3s4.7,0,7,1.4s3,2.5,3.7,3.4s0.9,2.6,1,3.1S45.534,25.285,45.434,25.285z
	 M20.134,16.685c-0.3-0.1-0.7,0.2-0.6,0.4s0.8,1.1,0.9,1.2c0.1,0.1,0.4-0.2,0.4-0.4S20.434,16.785,20.134,16.685z M12.934,12.785
	c-1.2-0.9-2.9-0.4-3.5,0c-1.5,1.1-1,3-0.1,3.3c0.9,0.4,2.2,0.5,3.4-0.2C14.034,15.285,14.134,13.685,12.934,12.785z M11.734,15.285
	c-0.7,0.3-1.3,0.2-1.3-0.4c0.1-0.5,0.5-0.8,0.8-1c0.4-0.2,1.1-0.4,1.5,0C13.034,14.285,12.434,14.985,11.734,15.285z M4.934,14.285
	c-0.6,0.1-1.9,1.5-2.2,2.5c-0.3,1-0.5,2.7-0.2,3.7c0.4,1,1.3,1.5,1.6,1.6c0.4,0.2,0.6-0.2,0.6-0.4s-0.1-0.4-0.5-0.7
	c-0.4-0.4-0.9-1.1-0.7-2.9c0.2-1.8,1.2-2.7,1.7-3.1S5.534,14.085,4.934,14.285z M25.734,18.985c-0.6,0.1-1.5,1.1-1.9,1.8
	c-0.4,0.6-1.2,2.4-1.2,3.8c0,1.4,1.2,3.1,1.6,3.3s0.9-0.3,0.8-0.6s-1.7-1.6-1.1-3.7c0.6-2.1,1.9-3.4,2.2-3.8
	C26.334,19.385,26.034,18.885,25.734,18.985z M29.834,19.185c-0.7,0-1.6,0.2-2.4,0.9c-0.7,0.7-1.1,2.1-0.1,3.2s2.3,1.6,3.6,0.9
	c1.2-0.6,2.1-1.8,1.6-3.3C31.934,19.485,30.734,19.185,29.834,19.185z M30.834,22.985c-0.6,0.5-1.2,0.6-1.5,0.4s-0.4-1.6-0.2-1.9
	c0.2-0.3,0.8-0.6,1.1-0.6c0.4,0,1.1,0.3,1.3,0.5C31.734,21.485,31.334,22.485,30.834,22.985z M37.434,19.885c-1.3,0-2.6,1.2-2.4,2.6
	c0.2,1.3,0.6,2,1.7,2.4c1,0.4,2.1,0.5,2.9-0.3s1-1.8,0.5-3C39.534,20.285,38.134,19.885,37.434,19.885z M38.634,23.885
	c-0.5,0.2-1,0.3-1.4-0.4s-0.1-1.8,0.8-1.9c0.2,0,1,0.2,1.3,0.8C39.634,22.985,39.134,23.685,38.634,23.885z"/>
<g>
</g>
<g>
</g>
<g>
</g>
<g>
</g>
<g>
</g>
<g>
</g>
<g>
</g>
<g>
</g>
<g>
</g>
<g>
</g>
<g>
</g>
<g>
</g>
<g>
</g>
<g>
</g>
<g>
</g>
</svg>
