<?xml version="1.0" encoding="iso-8859-1"?>
<!-- Generator: Adobe Illustrator 18.1.1, SVG Export Plug-In . SVG Version: 6.00 Build 0)  -->
<svg version="1.1" id="Capa_1" xmlns="http://www.w3.org/2000/svg" xmlns:xlink="http://www.w3.org/1999/xlink" x="0px" y="0px"
	 viewBox="0 0 44.866 44.866" style="enable-background:new 0 0 44.866 44.866;" xml:space="preserve">
<path id="forum" d="M40.689,27.898c2.6-2.5,4.6-7,4.1-11.4s-4.6-10.5-11.1-11.8s-14.3-2.1-21.2,0.6c-6.9,2.7-10.6,6.5-11.7,10
	c-1.1,3.5-1.9,9.3,3.7,14.1c5.6,4.8,16.8,4.5,16.8,4.5s2.9,2.5,6.2,4.5s9.3,3.3,10.2,2.9c0.9-0.4,0.6-1.6,0.6-2.2c0.1-0.7,0,0-1.5-2
	s-2.3-5.9-2.1-6C35.089,30.997,38.089,30.398,40.689,27.898z M32.389,27.398c0.3,0.3,2.3,2.4,2.1,2.6c-0.1,0.2-0.9,0.1-1.1,0.3
	s-0.2,0.6-0.2,0.6s-2.1-3.4-2.4-3.4c-0.3,0-1.1-0.2-0.9,0.5s3.4,4.4,3.6,4.7c0.2,0.2,1,2.7,2,4.1s1.4,1.9,1.1,1.9s-1,0.2-1.2-0.2
	s-6.6-10-7.1-10.1s-0.9,0-0.7,0.4c0.2,0.3,7,9.5,7,9.5s-1.8-0.5-2.3-0.8s-5.8-8.8-6.2-8.9c-0.4-0.2-1.2,0.3-0.9,0.6s5.6,7.9,5.6,7.9
	s-2.5-0.9-2.9-1.4s-3.9-6.5-4.3-6.7s-0.7,0.1-0.7,0.3c0.1,0.2,4.2,5.9,4,5.9s-2.2-1.1-2.8-2.1c-0.7-1-0.9-1.9-1.3-2s-1,0.3-1.1,0.1
	s-1.9-2.4-2.2-2.4s-0.4,0.4-0.2,0.6c0.2,0.3,1.2,1.7,0.9,1.7s-0.7,0.2-1,0s-1.7-2.2-2.2-2.1c-0.5,0.1-0.8,0.6-0.5,0.8
	s1.1,1.1,0.8,1.2c-0.3,0-6-0.2-10-2.6c-4-2.4-5.6-4.7-6.1-7s0.8-6.2,0.8-6.2c0.6-1.8,2.1-4,4.9-6c2.9-1.9,5.5-3.8,12.4-4.4
	c6.8-0.7,12.8-0.6,18,2.7c5.1,3.4,5.9,7.6,6.1,8.3s0.4,2,0.3,1.7c-0.1-0.2-1.1-1.1-1.3-0.8s-0.5,0.1-0.2,0.6s1.4,1.3,1.5,1.6
	c0,0.3,0,1.4-0.2,1.2s-1.7-2.1-2.1-1.7c-0.4,0.3-0.6,0.4-0.3,0.6c0.3,0.2,2,1.9,2,2.3s0,0.9-0.3,0.7s-2.1-2.6-2.3-2.3
	s-0.6,0.3-0.4,0.6c0.2,0.3,2.3,2.4,2.3,2.8c0,0.4-0.3,0.9-0.4,0.7s-1.9-2.5-2.3-2.4c-0.4,0.1-0.5,0.3-0.4,0.6
	c0.1,0.4,2.3,2.4,2.1,2.7s-0.4,0.8-0.6,0.6c-0.2-0.2-2.1-2.9-2.5-2.8c-0.4,0-0.8,0.3-0.5,0.7s2.6,2.6,2.4,3
	c-0.1,0.4-0.5,1.1-0.8,0.9c-0.3-0.2-2.9-3.4-3.1-3.4c-0.2,0.1-0.9,0.3-0.5,0.7s2.8,3,2.6,3.3s-0.6,1.1-0.9,0.8
	c-0.3-0.3-2.6-3.7-3-3.5c-0.4,0.1-0.8,0.2-0.5,0.7s2.7,3.2,2.6,3.4c-0.2,0.2-0.6,0.8-1,0.5s-2.3-3.4-2.7-3.3
	C32.689,26.698,32.089,27.097,32.389,27.398z M8.889,11.198c-0.7,0.1-4.3,2.4-5.1,4.4c-0.9,2-0.1,4.8,0.1,4.9c0.4,0.3,1.1,0,0.9-0.7
	c-0.3-0.6-0.2-1.9,0.2-3.8s3.6-3.7,4.1-4C9.489,11.797,9.589,11.198,8.889,11.198z M37.489,11.097c0.4,0.3,0.6-0.1,0.8-0.4
	c0.1-0.4-0.3-1.3-2.3-2.5s-6.5-1.5-6.9-0.7c-0.1,0.1-0.1,0.7,0.3,0.8s2,0.1,3.9,0.2C35.189,8.497,37.089,10.797,37.489,11.097z
	 M12.589,15.297c-2.5,1.2-2.1,4.3-1,5.3s3.2,1,4.5,0.3s2.4-2.2,1-4C15.789,15.097,13.389,14.898,12.589,15.297z M16.389,19.497
	c-0.3,0.5-2.7,1-3.1,0.8c-0.5-0.2-1.4-2,0.4-2.6c0.5-0.2,1.6-0.2,2.2,0.2S16.689,18.997,16.389,19.497z M22.389,15.898l-0.1,0.1
	c-1.2,0.5-1.6,2.1-1.5,2.6s0.4,2.2,2.3,2.8c1.8,0.6,4.2,0,4.9-0.9c0.8-0.8,1.2-2.6,0-4C26.689,15.097,24.089,14.997,22.389,15.898z
	 M26.589,20.198c-0.8,0.4-2.6,0.4-2.9,0.2c-0.4-0.3-1.5-2.1,0.7-2.9c0.9-0.3,2.3,0.1,3,0.6
	C28.089,18.497,27.389,19.698,26.589,20.198z M33.789,20.898c1.6,0.8,2.9,0.3,3.8-0.3s1.6-1.8,0.4-3.9c-1.2-2.2-3.9-1.8-5-0.7
	C31.089,17.797,32.189,20.097,33.789,20.898z M34.189,17.997c0.4-0.3,1.7-0.3,2.4,0s1.3,1.1,0.8,1.4c-0.6,0.4-1.7,1.1-2.6,0.9
	C33.789,20.097,32.889,18.997,34.189,17.997z"/>
<g>
</g>
<g>
</g>
<g>
</g>
<g>
</g>
<g>
</g>
<g>
</g>
<g>
</g>
<g>
</g>
<g>
</g>
<g>
</g>
<g>
</g>
<g>
</g>
<g>
</g>
<g>
</g>
<g>
</g>
</svg>
