<?xml version="1.0" encoding="iso-8859-1"?>
<!-- Generator: Adobe Illustrator 18.1.1, SVG Export Plug-In . SVG Version: 6.00 Build 0)  -->
<svg version="1.1" id="Capa_1" xmlns="http://www.w3.org/2000/svg" xmlns:xlink="http://www.w3.org/1999/xlink" x="0px" y="0px"
	 viewBox="0 0 48.547 48.547" style="enable-background:new 0 0 48.547 48.547;" xml:space="preserve">
<path id="stumble_x5F_upon" d="M31.55,22.616c0.6-0.1,3.4-3.9,3.7-4.5s0.3-3.1,0-4.5c-0.3-1.3-1.1-4.3-3.3-6s-5.1-1.7-10.1-1
	s-6.9,2.7-8.5,5.3c-1.6,2.6-1.4,6-1.5,8.3s0.9,9,0.8,10.5c-0.1,1.5-1.3,2.1-2.9,2.1s-2.2-1.2-2.3-1.9c-0.2-0.7-0.1-4.1-0.4-4.6
	c-0.3-0.5-1.4-0.3-2.3-0.3c-0.9,0-4.2,0.2-4.5,0.4c-0.4,0.4-0.2,1.7-0.2,4.3c0,2.6,0.9,5.8,2.3,7.5c1.3,1.7,3.8,3.9,6.7,4.1
	s5.1-0.1,8.4-1.6c3.4-1.5,4.4-4.1,4.8-7.7c0.4-3.6-0.7-15.6-0.6-16.8c0.2-1.2,3.2-1.8,4-1.2c0.8,0.6,0.7,3.8,0.7,4.3s0.9,1.3,2,1.9
	S30.95,22.716,31.55,22.616z M26.45,14.116c-1.3-0.9-3-1.1-4.5-0.5s-1.9,1.8-2,3.1c-0.1,1.3,0,4.1,0,4.1s-1.2-2.6-1.6-2.6
	c-0.3,0-0.7,0.1-0.6,0.3c0.1,0.1,2.4,3.8,2.4,4s0.2,2.3,0,2.2c-0.2-0.1-2-3.9-2.3-4s-0.7,0.4-0.5,0.6c0.2,0.1,2.8,4.7,2.8,4.8
	c0,0.1,0,1.8,0,1.8s-2-4.1-2.2-4.2s-0.7,0.2-0.6,0.5s2.9,5.6,2.9,5.6v2c0,0-2.5-5.6-2.6-5.6c-0.2,0-0.6,0.4-0.5,0.8s3.1,6,3.1,6.2
	s-0.2,1.3-0.3,1.1c-0.2-0.2-2.3-5.1-2.6-5.1c-0.3,0-0.7,0.4-0.6,0.6c0.1,0.3,2.6,4.8,2.6,5.1c0,0.2-0.5,0.9-0.7,0.8
	c-0.1-0.1-2.2-4.3-2.4-4.4c-0.2,0-0.6,0.3-0.5,0.6c0.1,0.3,2.3,4.1,2.3,4.3c0,0.2-0.7,0.7-0.8,0.6c-0.1-0.1-1.7-3.7-2-3.7
	c-0.3-0.1-0.6,0.4-0.7,0.6c0,0.2,1.8,3.4,1.8,3.6c-0.1,0.2-0.4,0.4-0.6,0.3s-1.4-3.1-1.7-3.2c-0.3-0.1-0.6,0.3-0.7,0.5
	c0,0.2,1.5,2.9,1.5,3c-0.1,0.1-0.5,0.4-0.7,0.3s-1.4-2.6-1.7-2.7c-0.2,0-0.6,0.4-0.6,0.5c0,0.2,1.4,2.4,1.4,2.5
	c-0.1,0.1-0.5,0.6-0.8,0.3c-0.2-0.3-1.4-2.6-1.7-2.7c-0.3-0.1-0.7,0.4-0.7,0.4s1.5,2.2,1.5,2.3c0,0.1-0.9,0.2-1,0.1
	c-0.1-0.2-1.5-2.7-1.8-2.8c-0.3-0.1-0.7,0-0.7,0.2s1.7,2.4,1.6,2.5s-0.8,0.1-0.9-0.1c-0.2-0.2-1.4-2.3-1.6-2.3
	c-0.2,0-0.7,0.3-0.7,0.3s1,1.7,0.9,1.7s-1.7-0.2-3.4-2.3c-1.7-2.1-2.1-3.4-2.5-5c-0.3-1.6-0.3-3.7-0.2-4.1c0.1-0.3,5.1-0.4,5.3-0.1
	c0.2,0.3-0.3,4.1,0.7,5.5c1,1.4,2.5,1.5,3.8,1.1s3-1.2,3.1-3.2s-0.7-6.6-0.9-8.8c-0.2-2.2-0.2-5.7,0.6-7.8c0.7-2.1,1.9-4.1,4.1-5.1
	c2.3-1,7-1.8,9.4-1.6c2.4,0.1,4,0.8,4.1,1c0,0.2-0.6,0.5-0.4,0.7c0.2,0.2,1,1,1.6,2.1c0.6,1,1,2.2,1.2,2.1s0.2-0.2,0.2-0.3
	c0-0.1-0.7-2.2-1-2.8c0,0,1.3,1.7,1.5,3.5c0.3,1.7,0.2,2.8,0,2.6c-0.2-0.2-3-5.9-3.4-5.9s-0.6,0.3-0.5,0.8c0.1,0.6,3.7,5.9,3.8,6
	c0,0.2-0.4,0.7-0.5,0.6s-2.2-3.9-2.8-4.6s-1.2-0.6-1.3-0.4c0,0.2,1.5,2,1.9,2.8c0.4,0.8,1.5,2.4,1.5,2.7c0,0.3-0.5,1.1-0.6,0.9
	c-0.2-0.2-2.4-4.5-2.8-4.7c-0.4-0.1-0.5,0.2-0.4,0.3c0,0.2,2.8,4.8,2.7,5c-0.1,0.1-0.3,0.6-0.5,0.4c-0.2-0.1-0.5-0.3-0.5-0.3
	s-2-3.9-2.1-3.9c-0.2,0-0.7,0.3-0.6,0.5c0.1,0.2,1.4,2.5,1.3,2.6c-0.1,0.1-1.8-0.5-1.9-0.6C27.35,18.216,27.75,15.016,26.45,14.116z
	 M2.15,28.816c-0.1,0.3,0,3,0.1,3.6c0.1,0.6,0.5,1.1,1,1s-0.1-3.6-0.1-3.7s0.6,0.1,1-0.1s0.3-0.4,0.1-0.6
	C4.05,28.816,2.35,28.316,2.15,28.816z M19.05,11.216c-0.3-0.2-1-0.1-2,0.5s-2,1.6-2.7,3.6c-0.7,2.1-0.2,3.9,0,4
	c0.5,0.3,0.7-0.1,0.9-0.4c0.2-0.3-0.1-2.5,0.6-4.3s2.6-2.4,3.1-2.7S19.25,11.516,19.05,11.216z M48.25,24.016
	c-0.2-0.3-6.9-0.1-7.5,0.1c-0.5,0.2-0.3,0.8-0.2,1.7s0.2,3.5-0.4,4.2c-0.7,0.7-2.7,0.9-3.9,0c-1.2-0.8-1.2-5.5-1.2-5.7
	c0-0.1-0.1-0.9-0.5-1s-3.2,2.7-3.4,2.9c-0.2,0.2-1.6-0.8-2-1s-1.8-1.1-2-0.8c-0.4,0.5,0.1,3.8,0.5,7.2c0.5,3.4,1,4.4,2.8,6.5
	s5,2.5,6.7,2.5s4.1,0.3,7.2-2.2c3.1-2.5,3.6-4.7,4-7.2C48.75,28.716,48.45,24.316,48.25,24.016z M46.95,29.116
	c0-0.1-1.7-3.7-2.1-3.4c-0.4,0.3-0.5,0.4-0.4,0.7c0.2,0.2,2.1,3.7,2.1,4.2s-0.1,1.1-0.3,1c-0.2-0.2-1.7-4.3-2.2-4s-0.3,1-0.2,1.1
	c0,0.1,1.9,3.5,1.8,3.9c0,0.4-0.4,1.4-0.5,1.2c-0.1-0.2-1.7-3.7-2-3.5s-0.6,0.2-0.5,0.5s2,3.6,2,3.8s-0.7,0.9-0.8,0.8
	s-1.8-3.8-2.1-3.8c-0.3,0.1-0.7,0.2-0.6,0.6c0.1,0.3,2,3.7,2,3.8c-0.1,0.1-0.8,0.7-0.9,0.5c-0.2-0.2-1.6-3.6-1.9-3.6
	c-0.3,0-0.7,0.3-0.7,0.4s1.7,3.5,1.5,3.6c-0.1,0.1-0.7,0.3-0.8,0.2s-1.8-3.7-2.1-3.7c-0.2,0-0.7,0.1-0.6,0.3
	c0.1,0.2,1.8,3.3,1.6,3.4s-1,0.4-1.2,0.1s-1.4-3.4-1.8-3.5c-0.3-0.1-0.6,0.1-0.6,0.3c0,0.2,1.6,3.2,1.4,3.3c-0.2,0.1-0.9,0.2-1,0.1
	c-0.1-0.2-1.7-3-1.9-3s-0.6,0.4-0.5,0.5c0,0.1,1.4,2.2,1.1,2.3c-0.3,0-2.7-1-4.1-2.3s-2.3-3.8-2.6-8.9c0-0.2,2.5,1.4,3,1.2
	c0.6-0.1,2.5-2.2,2.7-2.1s-0.1,4.2,1.1,5.4c1.2,1.2,2.5,1.5,4,1.1c1.6-0.4,2.9-1.4,2.9-2.6s-0.2-3.5,0-3.7s4.4-0.6,4.7-0.3
	C46.95,25.516,46.95,29.216,46.95,29.116z M34.15,31.416c-0.6-0.6-0.6-1.6-0.7-2.1c-0.1-0.5-0.9-0.4-1-0.1c-0.3,1.1,0.5,2.6,1.2,3.1
	c0.7,0.5,1.2,0.4,1.3,0.1C35.15,32.316,34.85,32.016,34.15,31.416z"/>
<g>
</g>
<g>
</g>
<g>
</g>
<g>
</g>
<g>
</g>
<g>
</g>
<g>
</g>
<g>
</g>
<g>
</g>
<g>
</g>
<g>
</g>
<g>
</g>
<g>
</g>
<g>
</g>
<g>
</g>
</svg>
