<?xml version="1.0" encoding="iso-8859-1"?>
<!-- Generator: Adobe Illustrator 18.1.1, SVG Export Plug-In . SVG Version: 6.00 Build 0)  -->
<svg version="1.1" id="Capa_1" xmlns="http://www.w3.org/2000/svg" xmlns:xlink="http://www.w3.org/1999/xlink" x="0px" y="0px"
	 viewBox="0 0 46.478 46.478" style="enable-background:new 0 0 46.478 46.478;" xml:space="preserve">
<path id="tumbrl" d="M14.919,15c-0.2,0-4,0-4.2,0.2c-0.1,0.1-0.1,0.7,0.3,0.8s3.2-0.1,3.4-0.1c0.2,0.1,0.1,3.4,0.2,3.6
	s0.7,0.3,1,0.1s0-2.9,0-3.7C15.619,15.2,15.119,15,14.919,15z M17.719,4.3c-0.2,0-0.3,0.9-0.5,1.5c-0.3,0.6-1.1,2.2-1.9,3.1
	c-0.8,0.9-1.8,1-2,1.2c-0.3,0.4,0.1,1,0.6,0.9s2-0.7,2.9-2.1c0.9-1.4,1.7-3.6,1.7-4.2C18.619,4.1,17.919,4.3,17.719,4.3z
	 M28.419,12.6c0.2,0.1,2.3,0.2,2.5,0.2s0.1,1.6,0.3,1.8c0.1,0.2,0.4,0.3,0.7,0.2c0.3-0.1,0.3-2.9,0.1-2.9c-0.2-0.1-3.2-0.2-3.5-0.1
	C28.019,11.9,28.219,12.5,28.419,12.6z M20.119,20.9c-0.2,0.4,0.1,8.1,0.2,8.4c0.1,0.3,0.9,0.3,1.1,0.1c0.1-0.2-0.2-7.1-0.3-7.9
	C21.019,20.6,20.219,20.7,20.119,20.9z M40.019,34.5c-0.1-1.1-0.5-1.9-0.8-2.2c-0.4-0.4-1.2-0.6-1.6-0.5c-0.4,0.1-2.9,1.6-5.2,2.6
	s-4.5,0.1-5.1-0.2c-0.5-0.3-1.2-1.1-1.5-2c-0.4-0.8-0.6-2.6-0.7-4.3c-0.1-1.7-0.1-6.2-0.1-6.5c0.1-0.3,1.2-0.3,2.5-0.3
	s6.5-0.1,7.4-0.2c1-0.1,1.1-0.4,1.2-0.8c0.1-0.3,0-3.6,0.1-4.6s0.2-2.6,0.2-2.8c-0.1-0.2-0.8-1.9-1.2-2.1c-0.4-0.2-4.4-0.5-5.2-0.6
	s-4.7-0.1-4.8-0.1s-0.1-0.4,0-1s0-4-0.1-4.7c-0.1-0.6,0-1.8-0.3-2.1s-1.8-1.8-2.4-2c-0.6-0.1-4.8-0.1-5.5-0.1
	c-0.7,0-1.3,0.3-1.4,0.6c-0.1,0.2-0.3,1.7-0.6,2.9c-0.3,1.2-1.4,2.8-2.5,4s-3,2.2-3.9,2.6c-0.9,0.4-1.6,0.3-1.8,0.5
	c-0.3,0.2-0.3,1-0.2,1.6c0,0.6-0.1,5.5,0,5.9c0.2,0.3,0.7,0.3,1.5,0.4c0.8,0.1,4.1,0.1,4.2,0.1s0.1,1.1,0.1,3.9
	c0,2.8,0.2,8.1,0.3,10.9c0.1,2.9,0.6,6.5,2.3,8.7c1.7,2.2,3.8,3.5,8.5,4.2c4.7,0.6,8.2-0.4,11.2-1.8c3-1.4,4.8-3.1,5-3.9
	C40.019,40,40.019,35.6,40.019,34.5z M36.419,40c-0.1,0.1-0.8,0.9-0.9,0.7c-0.1-0.2-2.1-4.9-2.3-4.9c-0.2-0.1-0.7,0.2-0.7,0.5
	c0.1,0.3,2.3,4.9,2.2,4.9c0,0.1-1.1,0.7-1.2,0.5c-0.1-0.1-2.1-4.7-2.3-4.8s-0.8,0.3-0.8,0.5s2.4,4.6,2.3,4.7c-0.1,0.1-1,0.6-1.3,0.5
	s-2.3-5-2.5-5.1s-0.9,0.2-0.7,0.5c0.1,0.4,2.3,4.9,2.2,5s-0.8,0.4-1,0.3c-0.2-0.1-2.3-5.3-2.5-5.4c-0.2-0.1-0.8,0.4-0.7,0.6
	c0.1,0.2,2.2,5,2.1,5c-0.2,0.1-0.8,0.3-0.9,0.1c-0.1-0.2-2.1-4.5-2.3-4.6s-0.7,0.3-0.7,0.4c0,0.1,2.1,4,1.9,4.2
	c-0.2,0.2-1.2,0.2-1.4-0.1c-0.2-0.2-1.7-4-1.9-4.1c-0.2-0.1-0.8,0.2-0.7,0.4s1.8,3.5,1.8,3.6s-1.1,0-1.3-0.1
	c-0.2-0.1-1.4-3.1-1.7-3.1c-0.2-0.1-0.6,0.1-0.6,0.4s1.1,2.3,0.9,2.4c-0.2,0.1-1.4-0.2-1.5-0.4s-0.9-1.9-1.2-1.9
	c-0.3,0-0.5,0.2-0.5,0.4s0.4,1.2,0.4,1.2s-0.6-0.2-0.8-0.4c-0.2-0.2-2.6-1.7-3.3-3.6c-0.7-1.9-0.8-5.3-0.9-7.7
	c-0.1-2.3-0.3-8.1-0.3-10.2c0-2.1,0.2-2.6-0.3-2.8s-3.5,0.1-4.4,0.1c-0.9,0.1-1,0.1-1-0.1c0-0.1-0.2-5.7,0.1-6
	c0.1-0.1,2.1-0.5,3.3-1.2c1.2-0.7,2.8-2.3,3.7-3.7c0.9-1.4,1.6-2.9,1.7-3.8c0.1-0.9,0.3-1.4,0.4-1.4c0.1-0.1,5.5-0.1,5.7,0.2
	c0.3,0.4,0.2,3.1,0.3,5.2c0,2.1-0.1,4,0.5,4.1c0.6,0.1,3.4,0.2,5.9,0.3s3.7,0.2,3.9,0.4s-0.2,1.5-0.4,2.4c-0.2,1-0.2,3.5-0.1,3.9
	c0,0.4,0,0.4,0,0.4s-1.3,0.1-1.4,0s-2-4.2-2.2-4.2s-0.7,0.3-0.6,0.6s2,3.6,1.9,3.6c-0.1,0.1-0.8,0.1-0.9,0c-0.1-0.1-1.8-3.4-2-3.5
	c-0.2,0-0.7,0.4-0.6,0.6c0.1,0.2,1.8,3,1.7,3s-1.2,0.1-1.3,0s-1.3-2.8-1.6-2.9c-0.3-0.1-0.9,0.2-0.8,0.4c0.2,0.2,1.6,2.6,1.5,2.6
	s-1.1,0.1-1.2,0s-1.2-2.3-1.5-2.4c-0.3-0.1-0.7,0.2-0.7,0.4s1,1.8,1,1.9c0,0.1-1.2,0.2-1.4,0.9c-0.2,0.7-0.3,3.3-0.2,6.4
	c0.1,3.1,0.4,6.1,1.3,7.4c0.8,1.3,2.3,2.3,4.3,2.6c1.9,0.3,2.5,0.3,3.2,0.2s1.8-0.5,2.3-0.7s0.7-0.4,0.8-0.3c0.1,0.1,1.7,3.6,2,4.2
	C36.419,39.7,36.519,39.8,36.419,40z M37.319,39.1c-0.1,0.2-0.3,0.2-0.4,0.1c-0.1-0.1-2-4.3-1.7-4.6c0.1-0.2,0.6-0.3,0.7-0.1
	c0.1,0.2,1.2,2,1.2,2.4C37.219,37.3,37.419,39,37.319,39.1z M37.219,35c-0.2-0.1-0.6-1.1-0.6-1.1c0-0.2,0.6-0.6,0.7-0.4
	S37.419,35.1,37.219,35z"/>
<g>
</g>
<g>
</g>
<g>
</g>
<g>
</g>
<g>
</g>
<g>
</g>
<g>
</g>
<g>
</g>
<g>
</g>
<g>
</g>
<g>
</g>
<g>
</g>
<g>
</g>
<g>
</g>
<g>
</g>
</svg>
