<?xml version="1.0" encoding="iso-8859-1"?>
<!-- Generator: Adobe Illustrator 18.1.1, SVG Export Plug-In . SVG Version: 6.00 Build 0)  -->
<svg version="1.1" id="Capa_1" xmlns="http://www.w3.org/2000/svg" xmlns:xlink="http://www.w3.org/1999/xlink" x="0px" y="0px"
	 viewBox="0 0 42.409 42.409" style="enable-background:new 0 0 42.409 42.409;" xml:space="preserve">
<path id="flickr" d="M10.021,10.743c-2.3,0.2-3.7,0.7-6.8,3s-3.7,7.3-2.9,10.2s3.2,6,5.8,7s6.6,1.3,10.1-1.3s3.7-5.9,3.9-8.2
	c0.2-2.4-0.6-3.2-2.8-6.3C15.121,12.043,11.621,10.643,10.021,10.743z M17.421,20.543c-0.1-0.2-1.6-2.4-2-2.2s-0.4,0.4-0.2,0.5
	c0.2,0.2,2.1,2.6,2.1,2.9c0,0.3-0.1,1-0.2,0.8c-0.1-0.2-1.6-3.2-2.1-3.3s-0.8,0-0.5,0.3s2.2,3.3,2.2,3.6c0,0.4-0.3,1.2-0.6,1.1
	c-0.3-0.1-1.5-3-2-3.2s-0.8,0.2-0.6,0.5c0.2,0.2,2.3,3.4,2.2,3.6c-0.1,0.2-0.5,0.6-0.6,0.4c-0.1-0.2-1.6-3.4-2.1-3.4
	c-0.4,0-0.8,0.4-0.5,0.8c0.3,0.4,2.2,3.1,2.2,3.3s-0.8,1-1.1,0.7s-1.4-3.2-1.8-3.2c-0.4-0.1-0.9,0.2-0.8,0.3c0.2,0.1,1.8,3,1.6,3.2
	s-0.4,0.7-0.7,0.5s-1.8-3.3-2.1-3.3s-0.6,0-0.6,0.2s2.2,3.4,1.9,3.5s-1,0.5-1.3,0.2s-1.5-3.2-1.8-3.2s-0.8,0.1-0.7,0.4
	s1.8,2.9,1.5,2.9c-0.3,0.1-1,0.3-1.2-0.1s-1.8-3.4-2.3-3.5c-0.4-0.2-0.7-0.1-0.7,0.2s2.2,3.3,1.8,3.2c-0.3-0.1-2.2-1.4-2.9-2
	s-2.6-3.6-2.7-6c0-2.4,2.2-6.2,4.8-7.3c2.7-1.1,4.6-1.4,6-1.1c0.8,0.2,3.7,2.3,4.5,3.3c0.9,1,1.2,2.1,0.9,1.8
	c-0.2-0.2-0.9-1.3-1.4-1c-0.4,0.3-0.4,0.5-0.1,0.7c0.2,0.2,1.7,1.7,1.9,2.3S17.521,20.743,17.421,20.543z M5.621,14.643
	c-0.8,0-2.6,1.8-3.1,3.1c-0.5,1.2-0.5,2.4-0.2,2.5c0,0,0.3,0.1,0.6,0s0.5-1,0.8-2.5c0.4-1.5,2-2.1,2.3-2.4
	C6.421,15.143,6.521,14.643,5.621,14.643z M41.321,17.243c-1.2-2.5-3-5-6.1-6s-5.9,0.3-7.6,1.2c-2.2,1.1-3.8,4-4,5.5
	c-0.2,1.6-0.5,5.4,2,8.5s5.1,3.5,8.5,3.4s6-3.4,7.4-5.6C42.921,22.043,42.521,19.743,41.321,17.243z M40.421,20.343
	c-0.3-0.3-1.7-3.1-2.1-3.1s-0.8,0.1-0.5,0.4c0.3,0.3,2.2,3.4,2.2,3.8c0,0.4-0.2,1.3-0.4,1.1c-0.2-0.3-1.8-3.6-2.1-3.6
	s-0.5,0.6-0.4,0.8s2.1,3.3,2,3.6c-0.1,0.2-0.4,0.7-0.6,0.6c-0.2-0.1-1.7-3-2.1-3c-0.3,0-0.5,0.4-0.4,0.7c0.1,0.2,1.7,3.1,1.6,3.3
	c-0.1,0.2-0.7,1-0.8,0.9s-1.5-3.4-1.9-3.4c-0.4-0.1-0.6,0.1-0.6,0.3s1.7,3.3,1.5,3.5s-0.7,0.6-1,0.3c-0.4-0.3-1.4-3.3-1.7-3.4
	s-0.9,0.3-0.8,0.4c0,0.1,1.8,3.2,1.4,3.2c-0.4,0-1.2,0.3-1.5-0.1c-0.4-0.4-1.1-3.3-1.6-3.4c-0.4-0.1-0.8,0.3-0.8,0.6
	c0.1,0.2,1.7,3,1.4,3s-1.3,0.1-1.4-0.2c-0.1-0.2-1.2-2.8-1.6-2.9c-0.4-0.1-0.7,0.1-0.6,0.3c0.1,0.1,1,2.1,0.7,2s-2.5-1.8-3.3-3.8
	s0.4-5.9,1.5-7.4s2.2-2,2.9-2.3s2.2-0.7,4.1-0.6c1.9,0.1,4.3,1.8,5.1,2.9c0.8,1,2.3,2.7,2.3,3.3
	C40.721,18.743,40.721,20.543,40.421,20.343z M30.521,14.043c-0.5,0-2.1,0.6-3.2,2.1s-1.3,3-1.1,3.2s0.5,0.3,0.9,0.2s0.5-2.3,1-2.9
	c0.5-0.6,2-1.3,2.5-1.6S31.021,14.043,30.521,14.043z"/>
<g>
</g>
<g>
</g>
<g>
</g>
<g>
</g>
<g>
</g>
<g>
</g>
<g>
</g>
<g>
</g>
<g>
</g>
<g>
</g>
<g>
</g>
<g>
</g>
<g>
</g>
<g>
</g>
<g>
</g>
</svg>
