<?xml version="1.0" encoding="iso-8859-1"?>
<!-- Generator: Adobe Illustrator 18.1.1, SVG Export Plug-In . SVG Version: 6.00 Build 0)  -->
<svg version="1.1" id="Capa_1" xmlns="http://www.w3.org/2000/svg" xmlns:xlink="http://www.w3.org/1999/xlink" x="0px" y="0px"
	 viewBox="0 0 45.63 45.63" style="enable-background:new 0 0 45.63 45.63;" xml:space="preserve">
<path id="vimeo" d="M45.169,10.393c-1.3-4.6-5.4-5.2-9.2-4.6c-3.8,0.6-6.1,3.5-7.8,5.7c-1.6,2.3-2.1,4-1.5,4.2s2.8-1.2,3.9,0.4
	c1,1.6,0.2,3.6-1.4,6.1c-1.5,2.4-4.2,4-5.1,3.9c-0.9-0.1-2.1-1.2-2.5-5.1c-0.4-3.8-1.5-8-3.2-11.7s-3.6-4.8-5.4-5.5
	c-1.9-0.7-3.4,0.6-5.2,2s-7.4,6.6-7.7,7.1c-0.2,0.4,0,3,1.1,4.5c1,1.5,2,0.8,3.8,0.7s2.6,1.9,3.9,6.8s3.7,11.6,5.7,13.7
	c2,2.1,5.3,2.7,9,3.3s6.5-0.8,9.1-3.1s8.8-11.3,10.5-15.2C44.769,19.493,46.469,14.993,45.169,10.393z M44.069,15.093
	c0,0-1.6-4.5-2.3-5.2c-0.6-0.8-1-0.6-1-0.2c0,0.4,1,1.4,1.3,2.1c0.4,0.7,1.7,4,1.7,4s-0.2,2.5-0.4,2.3s-1.6-4.5-2.1-5.5
	s-0.8-1.1-1.2-0.9s-0.1,0.6,0.1,0.9c0.3,0.3,2.2,4.8,2.4,5.5c0.3,0.7,0.4,1,0.4,1.1s-0.5,1.3-0.6,1.2s-2.3-5.7-2.6-5.8
	s-0.7,0.2-0.5,0.7c0.2,0.4,2.8,5.3,2.8,5.6s-0.9,2.1-1.1,1.8c-0.2-0.3-1.9-4.9-2.1-5.1c-0.2-0.2-0.9,0.2-0.7,0.5s2,4.3,2.2,4.6
	s0.3,0.4,0.1,0.7s-0.6,1.7-0.8,1.4s-1.7-4.7-2-4.9s-0.5,0.3-0.4,0.6s2.1,4.7,2,5s-0.8,2-1,1.8c-0.1-0.2-1.5-5.3-2-5.2
	s-0.6,0.3-0.6,0.6c0.1,0.3,2.2,5,2.1,5.1s-0.8,2-0.9,1.5c-0.2-0.4-1.3-4.8-1.7-4.8s-0.8,0.5-0.7,0.6s2,4.6,1.9,4.9
	c0,0.3-1.5,2-1.6,1.7s-1.5-4.8-1.7-5s-0.8-0.1-0.7,0.4c0.1,0.4,1.9,4.7,1.7,5.1c-0.2,0.4-0.7,1.6-1,1.4s-1.6-5.4-1.8-5.4
	c-0.2-0.1-0.5,0.4-0.5,0.7s2.1,5,1.9,5.4c-0.2,0.4-0.6,1.4-1,1c-0.3-0.3-1.3-5-1.7-5c-0.5,0-0.7,0.4-0.5,0.8
	c0.2,0.3,1.7,4.8,1.5,5.1c-0.1,0.2-0.6,0.7-0.7,0.5c-0.1-0.2-1.7-4.7-1.9-4.8s-0.5,0-0.5,0.6c0,0.5,2,4.7,1.8,5
	c-0.2,0.2-0.9,1-1,0.7c-0.1-0.4-1.4-4.7-1.7-4.8s-0.7,0.2-0.6,0.5s2.1,4.6,1.7,4.8c-0.4,0.3-1.4,1.1-1.6,0.5c-0.1-0.6-1.3-4-1.6-4.1
	s-0.8,0-0.6,0.6c0.2,0.5,1.8,3.5,1.4,3.8c-0.3,0.3-0.8,0.6-1.2,0.3c-0.4-0.2-1.1-3.6-1.5-3.8s-0.8-0.3-0.8,0c0,0.2,1.5,3.8,1.3,3.8
	c-0.2,0.1-0.8,0.2-1-0.1c-0.2-0.2-1.3-3.3-1.5-3.3s-0.7,0.1-0.6,0.4c0.1,0.3,1.1,2.7,0.9,2.7c-0.1,0-0.8,0.1-1.1-0.1
	c-0.3-0.3-1-2.7-1.3-2.8s-0.7,0-0.6,0.5c0.2,0.5,0.9,2,0.6,2c-0.2,0-1.7-0.3-3.6-3c-1.9-2.7-3.3-8-4.2-12.4s-1.2-7.9-2.6-8.8
	c-1.3-0.9-2.8-1-4.1-0.9c-1.3,0.2-2.3,1.2-2.4,1.2c-0.1,0-1.1-0.8-0.7-1.8c0.1-0.3,4.3-4.7,6.7-6.5c2.5-1.8,3-2.4,4.6-2
	c1.6,0.5,3.7,1.7,5.7,7.4s2.5,11.9,3,13.2c0.5,1.2,1.6,2.1,3.2,1.7c1.6-0.4,4.3-2.2,5.7-4.5s2.3-4.8,1.4-6.8c-0.9-2-2-1.8-2.9-1.6
	s-1-0.1-0.9-0.3s2-3.5,4.1-5.1c2.1-1.5,6.3-2.9,8.8-1.9s3.3,4.3,3.4,5.5C44.369,13.793,44.069,15.093,44.069,15.093z M12.469,7.093
	c-1.3-0.3-3.1,0.8-3.4,1c-0.3,0.2-0.3,0.8,0,0.9c0.3,0.2,0.9,0,1.4-0.4s0.9-0.5,1.8-0.5c1,0,1.1,0.6,1.4,0.7s0.5-0.1,0.5-0.6
	C14.169,7.593,13.769,7.293,12.469,7.093z M17.969,19.993c-0.2-0.4-0.8-0.4-0.9-0.1c-0.1,0.4-0.2,4.2,0.2,5.6
	c0.4,1.4,1.8,3.8,2.2,3.9c0.4,0.1,0.7-0.3,0.7-0.6s-0.6-0.8-1.6-2.9C17.669,23.693,18.169,20.493,17.969,19.993z M30.869,12.393
	c-0.6,0.3-0.4,0.9,0.4,1.2c0.8,0.3,0.7,1.1,1,1.4c0.3,0.3,0.2,0.2,0.6,0c0.4-0.2,0.3-0.5-0.1-1.4
	C32.269,12.693,31.169,12.193,30.869,12.393z"/>
<g>
</g>
<g>
</g>
<g>
</g>
<g>
</g>
<g>
</g>
<g>
</g>
<g>
</g>
<g>
</g>
<g>
</g>
<g>
</g>
<g>
</g>
<g>
</g>
<g>
</g>
<g>
</g>
<g>
</g>
</svg>
