<?xml version="1.0" encoding="iso-8859-1"?>
<!-- Generator: Adobe Illustrator 18.1.1, SVG Export Plug-In . SVG Version: 6.00 Build 0)  -->
<svg version="1.1" id="Capa_1" xmlns="http://www.w3.org/2000/svg" xmlns:xlink="http://www.w3.org/1999/xlink" x="0px" y="0px"
	 viewBox="0 0 46.502 46.502" style="enable-background:new 0 0 46.502 46.502;" xml:space="preserve">
<path id="vine" d="M46.227,22.116c-0.3-0.6-1.6-1.2-1.9-1.2c-0.3,0-4.2,0.4-5.8,0.2s-5.1-1.1-5.9-2.2c-0.8-1-1.3-4.6-0.7-6.6
	c0.6-2,3.2-2.1,3.5-2c0.2,0.1,0.4,1.4,0.2,3.8c-0.2,2.4-1.3,4.4-1.4,4.7c-0.1,0.3,1.7,0.7,3.1,0.8c1.4,0.1,2.7,0.2,3.9-0.4
	c1.2-0.6,1.8-2,2.3-5.8s-1.4-7.5-4.3-9.8c-2.9-2.3-7.7-2.2-10.7-0.6c-3,1.6-4.8,5.4-5,8.4c-0.1,3,1.2,7.3,3,9.3
	c1.7,2,4.2,3.5,4.4,3.8s-4.3,5.4-5.9,7.3c-1.6,2-2.5,2.5-2.8,2.5s-1.1-0.6-2.6-2.7c-1.5-2.1-3.6-5.9-4.8-8.9s-5.3-12.1-5.6-12.4
	c-0.3-0.3-5.3,0-6,0c-0.7,0.1-3.1,0.5-3.2,1c-0.4,1.4,3.7,10.2,5.9,14.9c2.2,4.6,6.6,11.2,7.7,12.5c1.1,1.3,4.1,5.4,8.6,5.9
	c4.5,0.4,6.2-2.4,9.2-5.8c3.1-3.5,7.7-10.1,7.9-10.4s6-1,6.7-1.3C46.727,26.816,46.527,22.616,46.227,22.116z M44.527,24.116
	c-0.1-0.2-0.5-1.1-0.7-1.1s-0.9,0.3-0.8,0.6s0.8,0.9,0.7,1.1s-1.1,0.3-1.3,0.1s-0.9-1.7-1.1-1.8s-0.7,0.1-0.7,0.3s1,1.8,0.9,1.8
	s-0.9,0.2-1,0.1c-0.1-0.2-1.2-2.5-1.3-2.5s-0.9,0.2-0.8,0.4s1.2,2.3,1.1,2.3s-1.1,0.1-1.2,0c-0.2-0.1-1-2.4-1.2-2.4
	c-0.3,0-0.7,0.5-0.6,0.6s1.3,2.2,1.3,2.4s-0.4,1.1-0.5,0.8s-1.3-2.9-1.5-2.9s-0.7,0.5-0.6,0.6s1.6,2.8,1.6,2.9s-0.5,1.2-0.7,1
	c-0.3-0.2-1.4-2.7-1.6-2.6s-0.6,0.7-0.5,0.9s1.6,2.6,1.5,2.7s-0.4,0.8-0.5,0.8c-0.2-0.1-1.5-2.7-1.7-2.6s-0.6,0.7-0.5,0.9
	s1.6,2.5,1.6,2.6s-0.8,1.1-0.9,1.1s-1.5-2.6-1.7-2.6c-0.2,0-0.3,0.7-0.3,0.8c0.1,0.2,1.5,2.4,1.4,2.5s-0.6,0.9-0.7,0.9
	s-1.6-2.6-1.7-2.6c-0.1,0-0.5,0.5-0.4,0.8s1.6,2.3,1.6,2.3s-1,1.6-1.1,1.5s-1.6-3-1.7-2.9s-0.6,0.5-0.5,0.6s1.8,2.8,1.7,3
	s-1,1.2-1.1,1.1s-1.7-3.1-1.9-3.1s-0.5,0.4-0.5,0.6s1.9,3,1.8,3.2s-1.1,1.4-1.1,1.3s-2-3.5-2.1-3.5s-0.6,0.4-0.5,0.7
	c0.1,0.2,2.1,3.2,2,3.3s-1,0.9-1,0.9s-2.1-3.3-2.2-3.3c-0.1,0-0.5,0.3-0.5,0.5s2,3,1.9,3.1s-0.8,0.7-0.9,0.6s-2-3.2-2.2-3.2
	c-0.3,0-0.7,0.5-0.6,0.7s2.2,2.9,2,2.9c-0.2,0-1,0.1-1.5-0.3s-1.9-3.1-2.1-3.2s-0.7,0.3-0.6,0.5s1.7,2.3,1.4,2.3
	c-0.3,0-2.4-1.3-4.1-2.8s-4.6-5.6-6.9-9.2s-4-6.8-5.6-10.6s-2.4-6.4-2.4-6.7c0-0.1,2-0.5,4.5-0.6s3.1,0,3.3,0.2
	c0.2,0.3,4.7,10.9,6,13.8c1.3,2.9,3.5,6.4,4.6,7.8c1.1,1.4,1.6,1.9,2.2,2.1c0.6,0.2,1.4-0.1,1.8-0.2c0.3-0.2,4.1-4.5,5.8-6.6
	c1.7-2,3.1-3.3,2.6-4.2c-0.5-0.9-2.9-2.4-3.7-3.4c-0.9-1-3.1-4.6-3.3-6.8c-0.2-2.3,0-5,1.3-7.2s3.5-3.9,7.9-3.8c0,0,3,0.3,4.5,1.4
	c1.5,1.2,1.5,1.4,1.4,1.5s-0.3,0.7-0.2,0.8s2.7,5.4,2.7,5.6c0,0.2,0.2,1.5,0,1.4s-2.1-4.6-2.4-4.6s-0.5,0.7-0.4,0.8s2.6,4.6,2.6,4.8
	s-0.3,1.7-0.4,1.5s-1.9-4.2-2-4.2s-0.6,0.5-0.6,0.7s2.3,4.1,2.2,4.4c-0.1,0.3-0.3,1-0.5,0.7s-1.7-3.4-1.9-3.4s-0.8,0.2-0.6,0.5
	s1.9,3.4,1.8,3.5s-1,0.2-1.2,0.1s-1.4-3-1.5-3s-0.7,0.4-0.6,0.6s1.3,2.4,1.2,2.5s-2.5-0.4-2.5-0.5s1.3-3.3,1.2-5.4
	c-0.1-2,0.2-4.1-2.4-5.1c-2.6-0.9-4.7,1.7-5,4.4c-0.2,2.7,0.6,5.9,2.6,7.5s4.9,2.1,6.4,2.3c1.4,0.2,5.7-0.1,5.8,0.1
	S44.627,24.216,44.527,24.116z M3.127,13.216c-0.1,0.2,0.9,4.2,1.3,4.3c0.4,0.1,0.9,0,0.9-0.2s-0.7-2.8-0.7-3s0.5-0.3,1-0.4
	c0.5-0.1,0.8-0.5,0.6-0.7S3.227,12.916,3.127,13.216z M14.727,27.116c-0.2-0.1-0.9,0.2-0.9,0.4c0.3,0.8,2.5,6.4,2.8,6.6
	c0.2,0.2,0.9-0.1,0.9-0.3s-0.1-0.8-0.6-1.4S14.927,27.216,14.727,27.116z M31.427,4.616c-0.4-0.1-2.4,0.3-3.6,1.7s-1.9,3.5-1.7,3.6
	s0.8,0.3,1,0.2s0.1-1.2,1.1-2.7s3.2-1.8,3.4-2S31.827,4.816,31.427,4.616z"/>
<g>
</g>
<g>
</g>
<g>
</g>
<g>
</g>
<g>
</g>
<g>
</g>
<g>
</g>
<g>
</g>
<g>
</g>
<g>
</g>
<g>
</g>
<g>
</g>
<g>
</g>
<g>
</g>
<g>
</g>
</svg>
