<?xml version="1.0" encoding="iso-8859-1"?>
<!-- Generator: Adobe Illustrator 18.1.1, SVG Export Plug-In . SVG Version: 6.00 Build 0)  -->
<svg version="1.1" id="Capa_1" xmlns="http://www.w3.org/2000/svg" xmlns:xlink="http://www.w3.org/1999/xlink" x="0px" y="0px"
	 viewBox="0 0 49.923 49.923" style="enable-background:new 0 0 49.923 49.923;" xml:space="preserve">
<path id="phone" d="M45.115,4.223c-1.7-2.6-4.8-4-6.6-4.2c-1.7-0.2-3.4,0.9-5.6,3.1c-2.2,2.3-6.6,7-7.3,8.1s-1.8,2-1.5,4.1
	s1.4,3.3,2.9,4.5s4.3,2.1,5,2.6s1,1.5,0.7,2.6s-2.4,3.4-4.1,4.6c-1.7,1.2-2.8,1.7-3.9,1.3c-1.2-0.3-2.2-1.2-4.4-3.6
	c-2.2-2.3-4-3.8-5.8-4.1s-4.5,2.1-7.1,5.1s-5.5,7.1-5.5,7.9c-0.1,0.8,0.8,4.8,1.1,5.6c0.3,0.8,2.7,2.8,2.7,2.8s-0.9,0.5-1,0.8
	s0.2,2.4,0.4,3.1c0.2,0.7,1.7,1.4,2.3,1.4c0.5,0,3-2.6,3-2.6s3,0.7,8.2,0.4s7.8-2.8,13.3-7.1c5.4-4.3,9.2-9.6,12-15
	s4.1-10.1,4.1-12.8C48.015,10.123,46.815,6.823,45.115,4.223z M42.215,10.523c0.4,0.3,4.3,3.3,4.4,3.6s0.4,1.7-0.1,1.4
	s-3.7-3.5-4.3-3.2c-0.7,0.3-0.4,0.6-0.1,0.8s4,3.1,4.1,3.4c0.1,0.3-0.2,1.1-0.4,0.8c-0.2-0.3-4-3.4-4.3-3.3s-0.7,0.3-0.3,0.7
	s4.4,3.3,4.5,3.6c0.1,0.4-0.1,1-0.4,1c-0.3-0.1-3.9-3.2-4.2-2.8s-0.5,0.6-0.2,0.9c0.3,0.3,3.9,2.6,4,2.9c0.1,0.2-0.3,1.4-0.6,1.1
	c-0.3-0.3-3.5-2.8-3.8-2.7s-0.3,0.8,0,1c0.3,0.3,3.3,2.3,3.3,2.5s-0.3,1-0.5,0.9s-3.2-2.7-3.6-2.5s-0.4,0.7-0.2,0.9
	c0.3,0.1,3.3,2.1,3.4,2.3s-0.3,1.2-0.5,1s-3.1-2.4-3.5-2.3c-0.4,0.1-0.4,0.5-0.2,0.7c0.2,0.2,3.2,2.1,3.1,2.3s-0.4,1.1-0.6,1
	c-0.2-0.2-3.7-2.6-4-2.5s-0.5,0.7-0.3,0.8s3.9,2.3,3.9,2.5c-0.1,0.3-0.6,0.9-0.7,0.8c-0.1-0.1-3.2-2.3-3.5-2.3
	c-0.3,0.1-0.7,0.6-0.4,0.8s3.3,2.2,3.3,2.3s-0.5,1.2-0.6,1c-0.2-0.2-3.2-2.8-3.5-2.7s-0.5,0.3-0.3,0.6s3.1,2.6,3,2.8s-0.5,1.2-0.8,1
	s-3.1-2.7-3.4-2.6c-0.3,0.1-0.6,0.5-0.3,0.8c0.3,0.2,3.3,2.3,3.1,2.6c-0.3,0.3-0.3,0.9-0.7,0.7c-0.4-0.2-2.9-2.4-3.2-2.3
	s-0.9,0.4-0.6,0.7c0.4,0.2,3.5,2.1,3.2,2.5s-0.4,0.9-0.6,0.8c-0.2-0.2-3-2.9-3.4-2.7s-0.7,0.3-0.5,0.6s3.4,2.5,3.3,2.8
	s-0.4,0.8-0.7,0.7s-3.3-2.9-3.5-2.8c-0.2,0.1-0.5,0.5-0.4,0.7s3.2,2.5,3.1,2.8c0,0.3-0.6,1.2-0.9,1s-3.5-3-3.9-3
	c-0.5,0.1-0.5,0.4-0.4,0.6c0.1,0.2,3.6,2.5,3.4,2.9c-0.2,0.3-0.5,0.7-0.7,0.6c-0.2-0.1-3.5-3-3.8-2.9s-1,0.2-0.6,0.5
	s3.9,2.5,3.8,2.8s-1,1.2-1.4,1.1c-0.4-0.1-3.7-3.2-4.2-3.2s-0.6,0.6-0.4,0.8s3.8,2.5,3.6,2.8c-0.3,0.3-0.6,0.5-0.9,0.4
	c-0.3,0-3.8-3.2-4.2-3.1c-0.4,0.1-0.7,0.6-0.5,0.8s3.8,2.5,3.7,2.8c0,0.2-0.5,0.4-0.9,0.4s-3.8-3.2-4.3-3s-0.5,0.5-0.3,0.7
	s4.1,2.5,3.9,2.9s-1.3,0.8-1.5,0.6s-4-2.9-4.3-2.9s-0.9,0.4-0.6,0.6c0.3,0.2,3.9,2.2,3.8,2.5s-1.1,0.6-1.7,0.5s-3.4-2.9-3.6-2.9
	c-0.3,0-0.8,0.3-0.5,0.6s3.4,2.5,3,2.6c-0.3,0.1-1.1,0.1-1.4,0s-3.3-2.7-3.7-2.5c-0.4,0.1-0.7,0.5-0.3,0.8c0.5,0.3,2.8,1.5,2.6,1.7
	c-0.2,0.2-2.4,0.1-3.1,0c-0.6-0.2-1-0.8-1.6-0.3s-1.5,2.3-2.3,2.6c-0.7,0.2-0.6,0.4-1.1,0.2c-0.5-0.3-1.5-0.6-1.2-1
	c0.4-0.3,2.2-1.9,2-2.4s-3-3.3-3.4-4c-0.7-1.1-1.6-2.3-1.5-2.8c0.1-0.4,4.7-6.6,5.7-8s4.6-4.9,5.8-4.5c1.2,0.3,3.4,2.1,5.9,4.6
	s3.4,3.3,5,3s2.2-0.2,4.5-2s4.7-4.4,5.3-5.9c0.6-1.5,0.9-2.7,0.2-3.4c-0.7-0.7-2.5-1.6-3.3-1.8s-2.6-0.7-4-1.5s-2.8-2.6-2.8-3.6
	s1.4-2.4,3.6-5c2.2-2.7,6.8-7,7.7-7.5c0.9-0.5,2.6-0.4,4.5,0.6c1.9,1.1,2.4,1.6,2.7,2.1c0.3,0.5,0.4,0.8,0.2,0.6
	c-0.3-0.1-1.4-1.5-1.8-1.1s-0.5,0.5-0.1,0.8c0.5,0.3,2.6,1.7,3.1,2.4s0.8,2.1,0.7,1.8c-0.1-0.2-2.8-3-3.2-3c-0.4,0-0.7,0.3-0.4,0.5
	c0.3,0.2,4,3.5,4.3,3.9c0.3,0.3,0.1,1.2-0.1,1s-2.9-3.4-3.7-3.5c-0.8-0.2-0.8,0.1-0.8,0.4c0,0.3,4.1,3.5,4.4,3.9s0.6,1.4,0.2,1.4
	s-4-3.6-4.3-3.6C42.115,9.723,41.815,10.123,42.215,10.523z M8.115,33.123c-0.3,0-2.6,2.6-2.9,3.3s0,1.9,0.3,2.3
	c0.3,0.4,0.8,0.7,1.1,0.5c0.3-0.3,0.3-0.5-0.1-1s-0.4-1,0-1.7s1.6-2.2,2.1-2.6C8.915,33.623,8.415,33.123,8.115,33.123z
	 M29.415,11.423c-0.6,0.4-2.4,2.6-2.5,2.9c-0.3,1.3,1.6,2.7,2.2,2.7c0.6,0.1,0.6-0.4,0.5-0.8s-1.1-1.1-1.4-1.7s1.5-2.1,1.8-2.6
	C30.315,11.523,30.015,11.023,29.415,11.423z"/>
<g>
</g>
<g>
</g>
<g>
</g>
<g>
</g>
<g>
</g>
<g>
</g>
<g>
</g>
<g>
</g>
<g>
</g>
<g>
</g>
<g>
</g>
<g>
</g>
<g>
</g>
<g>
</g>
<g>
</g>
</svg>
