<?xml version="1.0" encoding="iso-8859-1"?>
<!-- Generator: Adobe Illustrator 18.1.1, SVG Export Plug-In . SVG Version: 6.00 Build 0)  -->
<svg version="1.1" id="Capa_1" xmlns="http://www.w3.org/2000/svg" xmlns:xlink="http://www.w3.org/1999/xlink" x="0px" y="0px"
	 viewBox="0 0 46.2 46.2" style="enable-background:new 0 0 46.2 46.2;" xml:space="preserve">
<path id="xing" d="M16.833,6.7c-0.2-0.4-4.4-0.6-7-0.7s-3.3,0.4-3.4,0.8c-0.3,0.9,4.4,8.4,4.6,8.9s-2.6,4.3-4.6,7.1
	c-2,2.8-3.2,4.6-3.2,5.4s1.2,2.9,1.8,3.1c0.6,0.2,5.5,0.1,6.3,0.1s0.9-0.4,1.6-1.4s8.3-13.1,8.4-14.4S17.033,7,16.833,6.7z
	 M16.933,20.2c-0.1-0.1-1.3-2.6-1.6-2.6c-0.3,0-0.7,0.2-0.5,0.3c0.2,0.2,2,2.4,1.8,2.9c-0.2,0.4-1.2,2.3-1.4,2.2
	c-0.2-0.1-3.1-3.9-3.3-3.9c-0.2,0-0.6,0.1-0.5,0.4s3.3,3.9,3.2,4.1c-0.1,0.2-0.5,1.4-0.8,1.1c-0.2-0.3-2.8-3.8-3.1-3.8
	c-0.4,0-0.7,0.5-0.6,0.7c0.1,0.1,3.2,3.5,3.1,3.8s-0.3,0.7-0.5,0.7c-0.2-0.1-2.6-3.2-3-3.2s-0.9,0.1-0.7,0.4
	c0.2,0.3,3.4,3.6,3.4,3.7c0,0.2-0.4,0.6-0.6,0.6s-3-3.4-3.2-3.4s-0.6,0.3-0.5,0.5c0,0.2,3.4,3.2,3.3,3.5s-0.8,0.9-0.9,0.8
	s-3-3.1-3.3-3.1s-0.5,0.4-0.3,0.6s2.7,2.6,2.7,2.6s-1.5,0.2-1.7,0s-1.5-1.5-1.8-1.5s-0.7,0-0.5,0.4s1.2,1.3,0.9,1.3
	c-0.3,0-1.5-0.1-1.7-0.3c-0.2-0.3-0.4-0.9-0.2-1.1c0.2-0.2,1-1.6,2.5-3.9c1.4-2.3,5.2-7.5,5.3-8.1c0.1-0.6-1.7-3.6-2.4-4.8
	s-2.3-3.7-2.1-3.9c0,0,4.1,0.1,5.4,0.2s2.4-0.1,2.8,0.3s4.3,7.5,4.3,7.8C20.133,15.8,17.033,20.3,16.933,20.2z M42.933,3.5
	c0.2-0.8-0.5-3-1.2-3.3s-9.1-0.2-9.6-0.1c-0.6,0.2-2,2.5-3.6,5.5s-11,19.8-11.3,20.2c-0.6,0.8,0.8,3.4,1.7,5.9
	c0.9,2.5,5.5,12.2,6,13.1s0.6,0.9,1.6,1.1s8.6,0.3,10,0.3s1.5-0.8,1.6-1.2s-0.3-1.4-0.4-2.5s-6.8-15.3-6.9-15.8s0.6-2.2,1.7-4.3
	C33.733,20.2,42.733,4.3,42.933,3.5z M29.533,16.2c0.4,0.4,2.7,2.6,2.5,2.9c-0.2,0.3-0.2,1.3-0.6,0.9s-2.5-2.9-2.8-2.9
	c-0.2,0.1-0.8,0.2-0.5,0.5c0.4,0.4,2.7,3,2.7,3.3s-0.3,1.3-0.5,1.1c-0.2-0.2-2.3-2.4-2.8-2.2c-0.5,0.3-0.4,0.5-0.2,0.7
	c0.3,0.2,2.4,2.1,2.3,2.3c-0.1,0.1-0.3,1-0.5,0.8s-1.5-1.7-1.9-1.5c-0.3,0.2-0.6,0.6-0.4,0.8c0.2,0.2,1.9,1.5,1.8,1.8
	c0,0.3,1.5,3.5,1.8,4.3c0.3,0.9,1.5,3.3,1.2,3s-4.5-5.1-4.8-4.9s-0.7,0.3-0.5,0.6c0.1,0.3,6.1,5.8,6.2,6s1.7,4.2,1.5,3.9
	c-0.2-0.2-6-6.3-6.2-6.2c-0.2,0.1-0.5,0.5-0.2,1c0.4,0.5,6.9,6.3,7.1,6.6c0.2,0.3,1.8,3.6,1.8,3.9s0.1,0.8-0.1,0.5
	c-0.3-0.3-7.6-8-7.8-7.9c-0.3,0.1-0.5,1-0.2,1.4s7.3,6.5,7.2,6.6s-1.9,0.3-2.2,0.1c-0.2-0.2-5.4-5.3-5.6-5.3
	c-0.2,0.1-0.6,0.6-0.3,0.9c0.3,0.3,5,4.3,4.6,4.3c-0.4,0-2-0.1-2.1-0.2s-2.8-3.4-3.1-3.4c-0.3,0-0.9,0.2-0.6,0.6
	c0.4,0.4,3,2.6,2.7,2.6c-0.2,0-2.6,0.2-2.9-0.1c-0.3-0.3-4.7-10.1-5.9-12.8c-1.1-2.7-2.1-4.7-2-5.1c0.1-0.3,5.1-9.4,7.1-12.8
	c2-3.5,6.2-10.7,6.6-11c0.3-0.3,8.5-0.6,8.8-0.1s-7.7,15.5-7.9,15.3c-0.2-0.2-1.5-1.8-1.8-1.6c-0.3,0.3-0.6,0.1-0.3,0.5
	s1.7,1.9,1.7,2s-0.1,0.6-0.3,0.5c-0.2-0.1-2.2-2.5-2.4-2.4C29.933,15.8,29.133,15.8,29.533,16.2z M10.933,9.6c0-0.1,0.9,0.1,1-0.3
	s-0.1-0.6-0.4-0.6s-1.7-0.1-2,0s0.2,0.9,0.7,1.7c0.7,1.2,1.8,2.7,2.2,2.7c0.4,0,0.3,0,0.5-0.3C13.033,12.4,10.933,9.7,10.933,9.6z
	 M13.433,17.9c-0.2,0-0.6,0.2-0.6,0.5s1.9,2.7,2.3,3s0.2,0.3,0.5-0.1C16.033,20.8,13.833,17.8,13.433,17.9z M34.133,3.2
	c0.2-0.2,1.5,0,1.8,0.1c0.3,0,0.4-0.7,0.4-1s-2.2-0.2-2.8-0.2c-0.6,0-4.6,6.4-4.6,6.9c0,0.4,0.7,0.4,1,0.2
	C30.433,8.9,33.933,3.4,34.133,3.2z"/>
<g>
</g>
<g>
</g>
<g>
</g>
<g>
</g>
<g>
</g>
<g>
</g>
<g>
</g>
<g>
</g>
<g>
</g>
<g>
</g>
<g>
</g>
<g>
</g>
<g>
</g>
<g>
</g>
<g>
</g>
</svg>
