<?xml version="1.0" encoding="iso-8859-1"?>
<!-- Generator: Adobe Illustrator 18.1.1, SVG Export Plug-In . SVG Version: 6.00 Build 0)  -->
<svg version="1.1" id="Capa_1" xmlns="http://www.w3.org/2000/svg" xmlns:xlink="http://www.w3.org/1999/xlink" x="0px" y="0px"
	 viewBox="0 0 45.445 45.445" style="enable-background:new 0 0 45.445 45.445;" xml:space="preserve">
<path id="pengyou" d="M7.398,24.683c1,0,3.7-0.6,6.6-1.2s8.3-0.1,8.7-0.3c0.5-0.2,0.2-3.6,0.1-7.1s-1.2-6.1-2.5-9.5
	s-4.9-4.4-7.1-4.4s-3.9,0.8-5.8,3s-1.1,4.3-1.1,4.3s-1.4,0.3-2.2,0.6s-2.1,1-3,2.5c-0.9,1.6-1.4,4.1-0.9,5.9
	c0.5,1.8,1.7,4.2,3.6,5.4C4.798,24.483,6.498,24.683,7.398,24.683z M1.098,16.383c0-1.4,0.9-4,2-4.9s3.1-1.1,3.5-0.9
	c0.4,0.1,0.6,0.5,1,0.6s0.6-0.6,0.5-0.8c-0.1-0.3-1.1-1.4-0.9-2.8c0.3-1.5,2.4-3.6,4.1-3.9c1.7-0.4,4.9-0.5,7.1,2.2s3.1,7.3,3.3,9.5
	c0.3,2.1,0.2,5.6,0,5.6s-5.7-0.1-8,0.3c-2.3,0.4-4.1,1.1-5.9,1.1s-3.5,0.2-4.7-0.7C1.698,20.383,1.098,17.883,1.098,16.383z
	 M22.698,24.683c-0.2,0-2.5,0.1-5.2,0.1s-6.3,0.5-9.4,1.2s-5.2,3.1-4.9,5.5c0.3,2.5,1.1,5.5,3.2,6.8s4.5,0.9,4.5,0.9
	s0.4,2.4,0.9,3.2s1.9,2.8,5.9,2.9c4,0.1,7.2-3.1,7.7-4.9s0-4.9-0.4-8C24.498,29.483,23.298,24.683,22.698,24.683z M24.198,35.383
	c-0.2-0.1-3.8-4.2-4-4.2c-0.3,0.1-0.6,0.6-0.3,1c0.3,0.4,4.3,4,4.3,4.3c0,0.4,0,1.2-0.2,1s-3.7-4-3.9-4s-0.5,0.7-0.3,1
	s3.9,3.9,3.9,4.1s-0.2,1.2-0.4,1s-3.2-4-3.4-4c-0.2,0-0.7,0.8-0.5,1s3.3,3.4,3.2,3.6s-0.3,1-0.6,0.7c-0.3-0.3-2.2-2.9-2.4-2.9
	c-0.2,0-0.5,0.7-0.5,0.9s2.5,2.4,2.3,2.6c-0.2,0.2-0.7,0.5-0.9,0.3s-1.2-1.9-1.5-1.9s-0.8,0.5-0.6,0.7s1.5,1.6,1.2,1.8
	c-0.4,0.1-2.6,0.1-3.9-0.8c-1.3-0.9-1.7-2.3-1.6-3s0.6-1.8,0.3-2.1s-0.7-0.4-1.4-0.1c-0.6,0.4-2.6,1.1-5.1,0.4
	c-2.5-0.8-3.2-3.4-3.4-4.4c-0.3-1.3-0.1-3.1,1.5-4.2c1.6-1.1,3-1.8,7.8-2.3s6.7-0.7,7.1-0.5c0.3,0.3,0.3,0.7,0.7,0.7
	c0.4,0.1,0.5-0.5,0.5-0.5s0.2-0.1,0.3,0.1s1.1,3.7,0.9,3.6s-2.7-2.9-2.9-2.8c-0.2,0.1-0.4,0.4-0.3,0.5c0.2,0.2,3.2,3.2,3.2,3.4
	c0.1,0.2,0.8,2.2,0.4,1.9c-0.4-0.2-3.3-3.5-3.5-3.4s-0.5,0.7-0.2,1s3.7,3.3,3.8,3.6C23.998,33.783,24.398,35.483,24.198,35.383z
	 M29.298,20.783c1.2-0.5,4.8-1.3,7.7-1.6c2.9-0.4,4.7-0.1,6.3-2.8c1.5-2.7,1.8-4.2-0.2-7.5s-6.3-2.4-6.3-2.4s-0.1-0.5-0.3-1.6
	s-0.9-2.4-2.6-3.5s-4.5-1.6-6.9-0.9c-2.4,0.7-4.6,2.4-4.8,4.8s0.7,3.9,1.6,6s1.6,5.1,1.8,6.6c0.2,1.5-0.1,4,0.5,4.1
	C26.698,22.183,28.098,21.283,29.298,20.783z M40.198,7.783c0.6,0,2,1.7,2.3,2.2s0.4,1,0.3,1.1c-0.2,0.2-0.4-0.4-1.2-1.4
	C40.798,8.683,40.098,7.783,40.198,7.783z M25.598,13.383c-0.6-1.8-1.9-4.6-2.2-5.5s-0.4-3.5,1.6-5s5.1-2.1,7.5-1
	c2.3,1.2,3,3.6,3,4.5s-0.2,1.5,0.3,1.8c0.5,0.3,0.9-0.3,1.2-0.5c0.3-0.3,1.4-0.3,1.7-0.2s1.3,1.2,2.1,2.4c0.9,1.2,1.4,1.8,1.7,1.9
	c0.3,0.1,0.5-0.1,0.6,0.1c0.2,0.2,0.1,1.8-0.3,1.7s-3.2-4.1-3.7-4.1s-0.8,0.6-0.5,0.8s4,3.9,3.9,4s-0.5,1-0.7,0.8s-1.3-1.4-2.4-3
	s-1.1-2-1.4-2s-0.5,0.7-0.4,1c0.2,0.3,2.2,3,2.9,3.8c0.7,0.8,1,0.7,1,0.8s-0.2,0.6-0.4,0.5s-1.9-1.7-3-2.8c-1-1.1-1.1-1.3-1.4-1.2
	s-0.4,0.6-0.2,0.9s3.8,3.5,3.7,3.8c-0.2,0.3-1.1,0.8-1.3,0.6s-3.2-4.1-3.6-4.1s-0.5,0.5-0.4,0.8s3.3,3.4,3.1,3.5
	c-0.2,0.1-0.6,0.3-0.8,0.1c-0.1-0.2-2.7-2.6-3.2-3.3s-0.6-1-0.9-1s-0.6,0.4-0.2,1s3.8,3.3,3.5,3.4s-1.8,0.6-1.9,0.4
	c-0.1-0.3-3.3-3.4-3.5-3.6s-0.4,0.4,0.2,0.9c0.5,0.5,2.8,2.7,2.6,2.7c-0.2,0.1-1.4,0.3-1.6,0c-0.2-0.3-2.2-2.7-2.5-2.7
	s-0.8,0.5-0.5,0.8s2,2.1,1.8,2.1c-0.3,0.1-0.9,0.3-1.1,0.1c-0.2-0.1-1.5-1.8-1.9-1.7c-0.5,0.1-0.7,0.4-0.4,0.6
	c0.3,0.2,1.2,1.1,1.1,1.3c-0.2,0.2-1.5,0.6-1.9,1C26.898,19.683,26.198,15.183,25.598,13.383z M40.898,21.283
	c-2.7-0.5-8.7,1.4-10.4,1.8c-1.7,0.4-3.8,0.3-4,0.6c-0.5,0.4-0.3,3.7-0.2,6c0.1,2.3,0.6,7.7,1.8,9.7c1.2,2,2.8,4.3,7,3.9
	c4.2-0.5,5.5-2.5,6.2-4.7s-0.7-5.9-0.7-5.9s1-0.3,2.6-1.3c1.6-1.1,1.9-2.3,2.2-5.1C45.798,23.283,43.598,21.683,40.898,21.283z
	 M43.398,29.483c-0.4,0.5-2.1,1.4-2.8,1.7c-0.7,0.3-1.3,0.5-1.5,0.3s-4.4-5.1-4.8-5.2c-0.4-0.1-0.5,0.4-0.4,0.6s4.5,4.9,4.5,4.9
	s-0.1,0.5,0.1,0.8s0.7,1.2,0.9,1.9c0.2,0.7,0.3,1,0.2,0.8s-4.5-5.3-4.9-5.6s-0.7-0.3-0.9-0.1c-0.2,0.2,4.4,4.8,4.8,5.3
	s0.8,0.7,0.8,0.9s-0.2,1.6-0.4,1.5c-0.2-0.1-5.4-5.4-5.6-5.4s-0.3,0.7-0.1,0.9c0.2,0.3,5.6,4.8,5.6,5s-0.6,1.7-0.7,1.5
	s-5.4-5-5.6-5.1c-0.3-0.1-0.7,0.3-0.4,0.6c0.3,0.3,5.7,4.9,5.7,5c0,0.2-0.9,0.9-1.3,0.7s-3.8-4.2-4.2-4.2c-0.4,0-0.5,0.6-0.2,0.9
	c0.3,0.3,3.9,3.6,3.8,3.7s-0.6,0.2-0.8,0.1s-2.5-2.6-2.9-2.5c-0.4,0.1-0.8,0.2-0.5,0.5c0.3,0.3,1.9,1.6,1.7,1.7
	c-0.2,0.1-1.3-0.4-2-1c-0.8-0.6-1.7-1.7-2.4-3.8c-0.8-2.1-1.2-5.5-1.3-7.4s0-3.7,0.1-4c0-0.2,2.2,0.1,4.1-0.3
	c1.9-0.4,6.5-1.6,6.7-1.6c0.2,0.1,4.1,4.9,4.5,5.1c0.4,0.2,0.5-0.2,0.2-0.4s-3.2-3.8-3.4-4.1c-0.2-0.3-0.5-0.7-0.3-0.8
	s0.9-0.1,1.1,0c0.3,0.2,2.5,2.9,2.7,2.9s0.3-0.1,0.2-0.2s-0.9-1.5-0.9-1.6s0.5-0.1,0.6,0s1.1,1.8,1.1,2.7
	C44.198,27.083,43.698,28.983,43.398,29.483z M7.898,32.883c-0.9-1.3-0.1-2.4,0-3.1s-0.5-1-0.8-0.6c-0.2,0.3-0.7,1.7-0.6,3.1
	s1.6,2.7,2.2,2.9s0.9-0.4,0.9-0.6C9.698,34.183,8.798,34.083,7.898,32.883z M5.298,13.283c-0.5,0.1-1.8,0.7-2.3,1.9s0,2.5,0.3,2.7
	c0.5,0.3,0.8-0.2,0.9-0.5s-0.5-1.1-0.2-1.8s1.2-1.1,1.6-1.4C6.098,13.883,5.698,13.283,5.298,13.283z M26.898,3.383
	c-0.6,0-1.7,0.8-2.1,1.6s-0.5,2.2-0.3,2.4c0.1,0.1,0.6,0.3,0.8-0.1c0.2-0.3-0.1-1,0.3-1.8c0.4-0.9,1.4-1.2,1.8-1.5
	S27.498,3.383,26.898,3.383z M37.398,23.683c0,0-0.6,0.4-0.6,0.5c0,0.2,4.8,5.2,4.9,5.4c0.2,0.1,0.1-0.1,0.2-0.2
	S37.498,23.683,37.398,23.683z M35.998,24.883c-0.2,0-0.5,0.3-0.4,0.6s4.7,4.9,4.9,5.1s0.3-0.1,0.3-0.3S36.298,24.983,35.998,24.883
	z"/>
<g>
</g>
<g>
</g>
<g>
</g>
<g>
</g>
<g>
</g>
<g>
</g>
<g>
</g>
<g>
</g>
<g>
</g>
<g>
</g>
<g>
</g>
<g>
</g>
<g>
</g>
<g>
</g>
<g>
</g>
</svg>
