<?xml version="1.0" encoding="iso-8859-1"?>
<!-- Generator: Adobe Illustrator 18.1.1, SVG Export Plug-In . SVG Version: 6.00 Build 0)  -->
<svg version="1.1" id="Capa_1" xmlns="http://www.w3.org/2000/svg" xmlns:xlink="http://www.w3.org/1999/xlink" x="0px" y="0px"
	 viewBox="0 0 45.987 45.987" style="enable-background:new 0 0 45.987 45.987;" xml:space="preserve">
<path id="youtube" d="M43.978,13.724c-1.4-4.1-5-7-7.5-7.4s-8.7-0.8-13.8-0.7s-14.5,0.9-17.8,1.7c-3.2,0.8-4.3,2.7-4.7,4.3
	s0,6.9,0,10.7c0.1,3.9,0.5,6.9,1.1,9.7s2.4,5.8,3.9,6.8s6.3,1.3,11.3,1.5c4.9,0.2,13-0.2,17.9-0.3s6.9-0.9,8.5-2s3-5.8,3.1-10.8
	S45.378,17.824,43.978,13.724z M44.578,23.924c-0.1-0.2-1.7-3.4-2.2-3.9c-0.5-0.6-0.7-0.2-0.7,0s0.9,1.5,1.1,1.8
	c0.1,0.3,1.8,3.5,1.8,3.8s-0.1,2.7-0.2,2.6c-0.1-0.1-2.5-5.8-2.8-5.7c-0.2,0.1-0.7,0.5-0.5,0.8s3,5.8,3,6c0,0.3-0.4,2.1-0.6,1.8
	c-0.1-0.3-2.7-6.4-2.9-6.5c-0.2,0-0.5,0.7-0.5,0.8s3.1,6.5,3.1,6.5s-0.7,1.8-0.8,1.8s-3-7.1-3.2-7.1s-0.4,0.7-0.4,0.7s3,7.2,2.9,7.3
	s-0.9,1.2-1,1.1c-0.1-0.1-2.3-7-2.7-7s-0.7,0.2-0.6,0.5c0.1,0.3,2.9,6.5,2.7,6.7s-1,0.5-1.2,0.4c-0.1-0.1-2.6-6.1-2.8-6.2
	c-0.2-0.1-0.5,0.1-0.5,0.3s2.6,6.4,2.6,6.4s-1.7,0.6-1.8,0.4c-0.1-0.1-2.4-6.1-2.6-6.2s-0.7,0.3-0.6,0.5c0,0.2,2.5,5.7,2.3,5.8
	s-1.6,0.1-1.7,0.1c-0.1-0.1-1.8-5.2-2-5.2s-0.7,0.3-0.7,0.4c0,0.1,1.8,5,1.7,5s-1.2,0.1-1.2-0.1c-0.1-0.1-1.5-5.1-1.6-5.1
	s-0.7,0.2-0.7,0.3s1.8,5,1.6,5c-0.1,0-1.3,0-1.4-0.1s-1.5-4.5-1.7-4.5s-0.8,0.1-0.8,0.3s1.6,4.2,1.4,4.2c-0.2,0-1.4,0-1.6-0.1
	c-0.1-0.1-1.5-4.4-1.7-4.4s-0.8,0.1-0.7,0.4c0.1,0.4,1.8,4.1,1.6,4.1s-1.4,0.1-1.5,0c-0.2-0.1-1.6-4.6-1.9-4.6s-0.7,0.3-0.7,0.5
	s1.9,4.1,1.8,4.1c-0.1,0-1.1,0-1.2-0.1s-1.7-4.1-1.8-4.1s-0.9,0-0.8,0.2c0.1,0.2,2,3.8,1.8,3.8s-1.1,0-1.2,0c-0.1,0-1.4-3.8-1.7-3.8
	s-0.9,0.3-0.9,0.4c0.1,0.2,1.7,3.4,1.6,3.4c-0.1,0-1.3-0.1-1.3-0.1s-1.3-3.2-1.5-3.3c-0.2,0-0.8,0.2-0.7,0.4
	c0.1,0.2,1.5,2.8,1.4,2.8c-0.2,0-1.1,0.1-1.2-0.1c-0.1-0.1-1.1-2.5-1.2-2.5c-0.1,0-0.9,0.1-0.8,0.3c0.1,0.2,1.2,2.3,1.1,2.3
	s-1,0-1.2-0.1s-0.8-2.2-1-2.2s-0.8,0.2-0.7,0.4s0.8,1.7,0.7,1.7s-0.9,0-1-0.1c-0.1-0.2-0.8-2-1-2s-0.9,0.2-0.8,0.4
	c0.1,0.2,0.7,1.5,0.6,1.5c-0.1,0-0.9-0.1-0.9-0.1s-0.7-1.6-1-1.7c-0.3-0.1-0.9,0.2-0.8,0.3c0.1,0.1,0.6,1.3,0.4,1.2
	c-0.2-0.1-2.5-0.6-3.6-1.6s-2.8-4.1-3-7.4c-0.2-3.3-0.5-10.7-0.5-12.9s0.3-3.4,0.8-4.5c0.5-1,1.6-1.9,4.8-2.5s8-1.3,12.6-1.4
	c4.6-0.1,10.6,0.3,12.5,0.3c2,0,6.5,0.3,8.6,2.9s2.8,4.3,3.4,6.4c0.6,2.1,0.6,2.8,0.6,2.8s-1.6-3.1-1.7-2.7
	c-0.1,0.4-0.2,1.1-0.1,1.3c0.1,0.2,1.9,3.2,2,3.5C44.578,21.624,44.678,24.124,44.578,23.924z M30.978,20.924c0-0.7-1-1-3.6-1.8
	c-2.6-0.9-6.4-2.1-7.7-2.2c-1.3-0.1-2.2,1.2-2.2,2.3s0,7.7,0.1,8.2c0.1,0.4,0.4,0.9,0.8,0.9c1.6,0,5.4-2.1,8.7-4
	C30.378,22.424,30.978,21.724,30.978,20.924z M19.978,26.824c-0.2,0-0.2-6.8,0.1-6.8c0.3-0.1,5.3,0.7,6.6,1.2s2,0.7,2,0.9
	c-0.1,0.3-2.5,1.6-4.6,2.8C21.778,26.124,20.378,26.924,19.978,26.824z M8.478,9.724c-0.6,0.1-2.4,0.8-4.2,2s-2.4,2.8-2.3,4.3
	c0.1,1.5,0.3,1.9,0.6,1.9c0.4,0,0.6-1.3,0.5-1.8s0.5-2.1,1.1-2.9c0.7-0.8,4.1-2.3,4.5-2.6C8.978,10.324,9.078,9.624,8.478,9.724z
	 M4.778,31.824c-0.5-0.4-0.5-1.7-0.6-1.9s-1-0.3-1-0.1c-0.2,1.8,1.1,3.4,1.5,3.6c0.5,0.2,1-0.1,1-0.5
	C5.678,32.624,5.178,32.224,4.778,31.824z M16.478,21.524c-0.1-0.2-0.8-0.5-1-0.1c-0.1,0.3,0,4.6,0,5.2c0,0.5,0.2,1.2,0.5,1.3
	c0.3,0.1,0.6-0.4,0.5-1S16.578,21.724,16.478,21.524z M33.378,22.924c-0.6,0.3-6.8,3.9-7,4.2c-0.1,0.2,0,0.5,0.3,0.6
	s0.7,0.2,1.6-0.4c0.9-0.6,6-3.4,6.3-3.7s0.2-0.6-0.1-0.8C34.378,22.624,33.878,22.624,33.378,22.924z M34.978,8.624
	c-0.2,0-0.3,0.9,0,1c0.6,0.1,1.8,0.2,3.2,1.1c1.3,0.9,1.8,2.4,2.1,2.8c0.2,0.4,0.6,0.2,0.8-0.3c0.2-0.4-0.1-0.9-1.7-3
	S35.178,8.624,34.978,8.624z"/>
<g>
</g>
<g>
</g>
<g>
</g>
<g>
</g>
<g>
</g>
<g>
</g>
<g>
</g>
<g>
</g>
<g>
</g>
<g>
</g>
<g>
</g>
<g>
</g>
<g>
</g>
<g>
</g>
<g>
</g>
</svg>
